/* XPM */
static char *result[] = {
/* columns rows colors chars-per-pixel */
"64 64 51 1 ",
"  c #26201B",
". c #29221C",
"X c #251F1A",
"o c #221C17",
"O c #211B16",
"+ c #201A16",
"@ c #231D18",
"# c #241E19",
"$ c #231C18",
"% c #211B17",
"& c #221C18",
"* c #251E19",
"= c #1D1814",
"- c #28211C",
"; c #201A15",
": c #1F1A16",
"> c #1E1915",
", c #1F1915",
"< c #211C18",
"1 c #201B17",
"2 c #201916",
"3 c #1E1815",
"4 c #1C1713",
"5 c #1D1714",
"6 c #1F1916",
"7 c #1F1B16",
"8 c #1A1513",
"9 c #1B1512",
"0 c #1C1613",
"q c #1B1612",
"w c #1A1411",
"e c #1A1512",
"r c #191311",
"t c #191411",
"y c #12100F",
"u c #141211",
"i c #0F0D0C",
"p c #0D0C0B",
"a c #161412",
"s c #11100E",
"d c #100E0D",
"f c #151312",
"g c #12110F",
"h c #261F1A",
"j c #100F0D",
"k c #131210",
"l c #110F0E",
"z c #0F0D0D",
"x c #29221D",
"c c #211A16",
"v c #201915",
/* pixels */
" .XoO+@#X  $%%$%@o@o@o%@$&&@@#*##@@#@@#@$@@@@@@@##@@@@&&&%=O$X--",
"#X#+;O$o@ #+:>,O,,;+%%%<%%%&@@$@@o&%%$%%%o$#XX#X#@o&%&111:=o@#X ",
"@#@o>,23>4+,445==,;,%+6%@111o%+%O%+,=,,;2++===4==4>o$<:71+,,+&%@",
"1%@$5===,===54890O+,+,,Oo@@@@,5>+@;34999q4,,OO+,+,,Oo@@@@@,>+$%@",
"&+#%9we0445=q4erwwtrrrrww999999999wwrrrrrrrrwwtrrrrww9999999+oo%",
"@+#@9yuiiiiuiipyauiisuuiiduuisusfyuiiyuiiiiuiipyauiisuuiidu9@%#o",
"*%<@9suiiiiuiipyauiisuuiisugisusfyuiisuiiiiuiipyauiisuuiisu9@$@&",
"h%1@9suiiiiuiipyauiiduuiisusisusfyuiisuiiiiuiipyauiiduuiisu9@@#&",
"*@7@9suiiiduiipyauiiiuuiisujisusfyuiisuiiiduiipyauiiiuuiisu9@@#%",
"o@:@9suiiijujipyasiiikuiisujisusfyuiisuiiijujipyasiiikuiisu9@@XO",
"$<<@9suiiisujipyajidiyuiisujisusfuuiisuiiisujipyajidiyuiisu9@@#+",
"$%$owsuiiisujipyajijisuiisujisusfuuiisuiiisujipyajijisuiisuwo%#+",
"@&oOwsuiiisujipyajigisuiisujisusfuuiisuiiisujipyajigisuiisuwO+#:",
"@o>,rsudiisujipyajiuiluiisujisusfuuiisudiisujipyajiuiluiisur,,@:",
"#@4,rsujiiyujipyajiuiiuiilujisusfuuiisujiiyujipyajiuiiuiilur,,@+",
"##=+rsujiigusipyadiujiudizujisusfuuiisujiigusipyadiujiudizur+>@@",
"@X=,rsujiiuuuipyaiiujiujiiujisusfuuiisujiiuuuipyaiiujiujiiur,=x#",
"@#4+tsujiiuuuipyaiisgiyliiujisusfugiisujiiuuuipyaiisgiyliiut+=-#",
"@X=OwgujiiuuuipyaiijkisgiiujisusfusiigujiiuuuipyaiijkisgiiuwO,#@",
"@X=OwuujiiuusipyaiijsisuiiujisusfujiiuujiiuusipyaiijsisuiiuwO+Oo",
"@#=,ruujiiuujipyaiijsisuiiujisusfujiiuujiiuujipyaiijsisuiiur,+@@",
"@$+,ruujiiuujipyaiilgisuiiujisusfujiiuujiiuujipyaiilgisuiiur,+oo",
"@o+4ruujiiuujipyaiiuuiyuiiujisusfujiiuujiiuujipyaiiuuiyuiiur+,Oo",
"$%2qruujiiyujipyadiysiusiiujisusfujiiuujiiyujipyadiysiusiiur5>+$",
"@%;9ruujiisujipyadisjiujiiujisusfujizuujiisujipyadisjiujiiur4,+@",
"#%,9ruujiisujipyajisijujiiujisusfujijuujiisujipyajisijujiiur4,+#",
"@$,9ruujiisujipyajizisujiiujisusfujisuujiisujipyajizisujiiur4,o#",
"@%=4ruujiisujipyajiiiyujiiujisusfusisuujiisujipyajiiiyujiiur=@@#",
"#%,3wuujiidujipyajiiiuujiiujisusfuuiluujiidujipyajiiiuujiiuwO@@X",
"@&+;wuujiiiujipyajiizuuziiujisusfuuizuujiiiujipyajiizuuziiuw%%%X",
"@o%@9uujiiiujipyajiisuuiiiujisusfyuiiuujiiiujipyajiisuuiiiu9>,>&",
"#@O+9uujiiiujipyajiisuuiiiujisusfyuiiuujiiiujipyajiisuuiiiu9=>,$",
"#@%>9uujiiiujipyasiisuuiiiusisusfyuiiuujiiiujipyasiisuuiiiu94=,+",
"*$+59uudiiiujipyauiisuuiiiuuisusfyuiiuudiiiujipyauiisuuiiiu94=oO",
"#@%,9uuiiiiujipyauiisuuiiiuuisusfyuiiuuiiiiujipyauiisuuiiiu94>1<",
"@@o@9uuiiiiuzipyauiisuuiiiuuisusfyuiiuuiiiiuzipyauiisuuiiiu94>+@",
"@&1@9uuiiiiuiipyauiisuuiiiuuisusfyuiiuuiiiiuiipyauiisuuiiiu95,+o",
"&%1@9yuiiiiuiipyauiisuuiiduuisusfyuiiyuiiiiuiipyauiisuuiidu9,+%@",
"&%1@9suiiiiuiipyauiisuuiisugisusfyuiisuiiiiuiipyauiisuuiisu9@o%#",
"$%@owsuiiiiuiipyauiiduuiisusisusfyuiisuiiiiuiipyauiiduuiisuwo%:$",
"@<%OwsuiiiduiipyauiiiuuiisujisusfyuiisuiiiduiipyauiiiuuiisuwO++@",
"%%6,rsuiiijujipyasiiikuiisujisusfyuiisuiiijujipyasiiikuiisur,>,%",
"o%+,rsuiiisujipyajidiyuiisujisusfyuiisuiiisujipyajidiyuiisur,>c%",
"@%%+rsuiiisujipyajijisuiisujisusfuuiisuiiisujipyajijisuiisur44;o",
"o+,,rsuiiisujipyajigisuiisujisusfuuiisuiiisujipyajigisuiisur9q5+",
"@;;+tsudiisujipyajiuiluiisujisusfuuiisudiisujipyajiuiluiisutqq3O",
"o,,Owsujiiyujipyajiuiiuiilujisusfuuiisujiiyujipyajiuiiuiiluwq45%",
"@,=0wsujiigusipyadiujiudizujisusfuuiisujiigusipyadiujiudizuwq5>O",
"%O=9rsujiiuuuipyaiiujiujiiujisusfuuiisujiiuuuipyaiiujiujiiurw5,%",
"$,58esujiiuuuipyaiisgiyliiujisusfugiisujiiuuuipyaiisgiyliiurw5+%",
"+>444gujiiuuuipyaiijkisgiiujisusfusiigujiiuuuipyaiijkisgiiur05+%",
"%:45quujiiuusipyaiijsisuiiujisusfujiiuujiiuusipyaiijsisuiiurw52%",
"@+,==uujiiuujipyaiijsisuiiujisusfujiiuujiiuujipyaiijsisuiiurr36$",
"@#+=5uujiiuujipyaiilgisuiiujisusfujiiuujiiuujipyaiilgisuiiurw4,@",
"# 4=4uujiiuujipyaiiuuiyuiiujisusfujiiuujiiuujipyaiiuuiyuiiurw0,#",
"#@>,4uujiiyujipyadiysiusiiujisusfujiiuujiiyujipyadiysiusiiur9v%X",
"#$3=0uujiisujipyadisjiujiiujisusfujizuujiisujipyadisjiujiiuw52oX",
"@$2=euujiisujipyajisijujiiujisusfujijuujiisujipyajisijujiiuw+:+X",
"$%,=wuujiisujipyajizisujiiujisusfujisuujiisujipyajizisujiiu95==&",
"#O@,w9wwrrrrrrrrwwtrrrrww999999999wwrrrrrrrrwwtrrrrww99999994=>$",
"#oXq44+59wwrw0wwqqq94,,Oo@,54444=>%O=4445+,,OO+,+,,Oo@=40,54=++%",
"X@O>==22v043555554qq4>>+%o+,>>==>,%@@,,,>,+++,==>,,+%@+5%c,4q,%o",
"X#OO,++o%,,62++,>535;c,+:%%++1o,,>%@@o+++Oo@O#-x@@@##@@,$o+=5+<@",
" -o%5&XXX#@$%%%%O%O+o%%@$#@o@<O+$&XX###@$oo@o@##@+::+%o%$&+,$6%#"
};
