/* XPM */
static char *result[] = {
/* columns rows colors chars-per-pixel */
"64 64 251 2 ",
"   c #1D1716",
".  c #1E1817",
"X  c #241D1C",
"o  c #201A19",
"O  c #1C1716",
"+  c #1F1918",
"@  c #211A1A",
"#  c #1D1817",
"$  c #211B1A",
"%  c #1E1918",
"&  c #1C1615",
"*  c #221B1A",
"=  c #1C1515",
"-  c #221C1C",
";  c #181212",
":  c #181211",
">  c #221B1B",
",  c #0C0B0E",
"<  c #0D0C0F",
"1  c #0E0D10",
"2  c #0F0E11",
"3  c #100F12",
"4  c #1B1615",
"5  c #1A1615",
"6  c #15100F",
"7  c #0E0D11",
"8  c #121116",
"9  c #151319",
"0  c #141319",
"q  c #15141A",
"w  c #141318",
"e  c #110F14",
"r  c #110F13",
"t  c #17161B",
"y  c #16151A",
"u  c #16161B",
"i  c #18171D",
"p  c #19181E",
"a  c #18171C",
"s  c #111014",
"d  c #1A1514",
"f  c #201A1A",
"g  c #130E0D",
"h  c #18161D",
"j  c #17161D",
"k  c #18171E",
"l  c #121117",
"z  c #1B1A21",
"x  c #1C1B22",
"c  c #1C1C23",
"v  c #1D1D25",
"b  c #201F27",
"n  c #1D1D24",
"m  c #131316",
"M  c #191413",
"N  c #191514",
"B  c #0F0E12",
"V  c #17161C",
"C  c #1A1920",
"Z  c #19181F",
"A  c #131217",
"S  c #1C1B23",
"D  c #1D1C24",
"F  c #1F1F26",
"G  c #1F1D26",
"H  c #1E1D25",
"J  c #1E1D24",
"K  c #140F0E",
"L  c #0F0E13",
"P  c #1B1A22",
"I  c #1A1921",
"U  c #1E1C24",
"Y  c #1E1C25",
"T  c #1E1D26",
"R  c #201F28",
"E  c #0F0F13",
"W  c #1E1E25",
"Q  c #1F1E27",
"!  c #212028",
"~  c #1F1E25",
"^  c #131317",
"/  c #16151B",
"(  c #15141B",
")  c #16151C",
"_  c #18181D",
"`  c #121115",
"'  c #150F0F",
"]  c #0B0B0E",
"[  c #0C0B0F",
"{  c #0E0E11",
"}  c #0D0D10",
"|  c #0B0A0D",
" . c #0A090C",
".. c #131218",
"X. c #15151A",
"o. c #111015",
"O. c #100F13",
"+. c #121215",
"@. c #0F0F12",
"#. c #191920",
"$. c #1C1B24",
"%. c #131216",
"&. c #1A1A21",
"*. c #16161C",
"=. c #131318",
"-. c #100F14",
";. c #141419",
":. c #16141A",
">. c #151419",
",. c #1A191F",
"<. c #19171E",
"1. c #17151B",
"2. c #1A181E",
"3. c #1E1C23",
"4. c #1F1D25",
"5. c #1D1C23",
"6. c #111016",
"7. c #1B1921",
"8. c #1F1D24",
"9. c #201F26",
"0. c #1C1A21",
"q. c #211F27",
"w. c #161519",
"e. c #19171D",
"r. c #18161C",
"t. c #17151C",
"y. c #1A181F",
"u. c #0B0A0C",
"i. c #0D0C10",
"p. c #1B1920",
"a. c #1C1A22",
"s. c #1D1B22",
"d. c #1C1A20",
"f. c #140E0E",
"g. c #1D1B23",
"h. c #130D0C",
"j. c #0F0B0B",
"k. c #0F0B0A",
"l. c #130D0D",
"z. c #1B191F",
"x. c #19181D",
"c. c #17151A",
"v. c #100B08",
"b. c #0D0807",
"n. c #090505",
"m. c #080504",
"M. c #0A0605",
"N. c #0F0A0B",
"B. c #181015",
"V. c #171014",
"C. c #171013",
"Z. c #100A0C",
"A. c #1C1319",
"S. c #1B1319",
"D. c #1A1317",
"F. c #1A1316",
"G. c #181413",
"H. c #0F0E10",
"J. c #0E0D0F",
"K. c #0F0B0D",
"L. c #140E11",
"P. c #191217",
"I. c #171115",
"U. c #0C0709",
"Y. c #080404",
"T. c #110D0C",
"R. c #120C0C",
"E. c #110B0C",
"W. c #110C0F",
"Q. c #150F13",
"!. c #151014",
"~. c #0B0608",
"^. c #181313",
"/. c #100C0E",
"(. c #0F0C0D",
"). c #0A0706",
"_. c #090604",
"`. c #171111",
"'. c #171110",
"]. c #161111",
"[. c #171113",
"{. c #161012",
"}. c #140E0F",
"|. c #130E0F",
" X c #0F0C0B",
".X c #0F0C0A",
"XX c #191513",
"oX c #171211",
"OX c #16100F",
"+X c #1C1514",
"@X c #181312",
"#X c #181311",
"$X c #160F0F",
"%X c #201918",
"&X c #221C1A",
"*X c #1C1616",
"=X c #181414",
"-X c #150F0E",
";X c #201919",
":X c #101014",
">X c #101015",
",X c #0F0A09",
"<X c #100C0A",
"1X c #1A1414",
"2X c #110C0C",
"3X c #0C0707",
"4X c #161211",
"5X c #1E1818",
"6X c #0E0A0A",
"7X c #0C0807",
"8X c #0E0A08",
"9X c #100C0C",
"0X c #0B0706",
"qX c #15151B",
"wX c #111013",
"eX c #140E0D",
"rX c #111115",
"tX c #080605",
"yX c #0E0908",
"uX c #0E0E12",
"iX c #0E0D12",
"pX c #0A0504",
"aX c #080705",
"sX c #0B0705",
"dX c #0C0806",
"fX c #0A0604",
"gX c #181412",
"hX c #1A1413",
"jX c #1A1614",
"kX c #110C0B",
"lX c #161110",
"zX c #1C1715",
"xX c #1C1816",
"cX c #090504",
"vX c #171311",
"bX c #100C0B",
"nX c #0B0606",
"mX c #1C1B21",
"MX c #1B1A20",
"NX c #1D1B21",
"BX c #101013",
"VX c #161010",
"CX c #191313",
"ZX c #0F0D11",
"AX c #121015",
"SX c #121014",
"DX c #151318",
"FX c #100E12",
"GX c #1A191E",
"HX c #18161B",
"JX c #171210",
/* pixels */
"  . X o O O O O O O O O O O O O O O O O O O O O O O O O O O O O O O O O O O O O O O O O O O O O O O O O O O O O O O O O o X .   ",
". + X @ # O O O O O O O O O O O O O O O O O O O O O O O O O O O O O O O O O O O O O O O O O O O O O O O O O O O O O O # @ X + . ",
"X X X X X + O O O O O O O O O O O O O O O O O O O O O O O O O O O O O O O O O O O O O O O O O O O O O O O O O O O O + X X X X X ",
"X X X X X $ + + % & O O O O O O O O O O O O O O O O O O O O O O O O O O O O O O O O O O O O O O O O O O O O & % + + $ X X X X X ",
"X X X X X X X X * = & O O O O O O O O O O O O O O O O O O O O O O O O O O O O O O O O O O O O O O O O O O & = * X X X X X X X X ",
"X - + + + + + ; : & O O O O O O O O O O O O O O O O O O O O O O O O O O O O O O O O O O O O O O O O O O O O & : ; + + + + + - X ",
"X > O O O O , < < , < < 1 1 1 2 2 1 1 1 1 1 1 1 1 3 O O O O O O O O O O O O , < < , < < 1 1 1 2 2 1 1 1 1 1 1 1 1 3 O O O O > X ",
"X > O 4 5 6 7 8 9 9 0 0 0 q w e r 9 t t y u i p a s 4 d 4 O O O O O O 4 d 4 7 8 9 9 0 0 0 q w e r 9 t t y u i p a s 6 5 4 O > X ",
"> f 4 5 d g 2 q h j j j j h k l s p z z x c v b n m 5 M 5 4 O O O O 4 5 M 5 2 q h j j j j h k l s p z z x c v b n m g d 5 4 f > ",
"O 4 N N M g B V C Z z z C z C A s C S D F G H b J m 5 M M M 4 O O 4 M M M 5 B V C Z z z C z C A s C S D F G H b J m g M N N 4 O ",
"O 4 M M M K L i x z S S z S P A s I U Y b b T R J m 5 M M M 4 O O 4 M M M 5 L i x z S S z S P A s I U Y b b T R J m K M M M 4 O ",
"O 4 M M M 6 E i x z S S z S x A s z Y W b b Q ! ~ ^ 5 M M M 4 O O 4 M M M 5 E i x z S S z S x A s z Y W b b Q ! ~ ^ 6 M M M 4 O ",
"d d M M M 6 B 0 / ( j ) ) V V 8 r q j k Z k i p _ ` 5 M M M d d d d M M M 5 B 0 / ( j ) ) V V 8 r q j k Z k i p _ ` 6 M M M d d ",
"M M M M M ' 1 ] ] ] ] ] , ] [ { } | | ] | |  .| < 3 5 M M M M M M M M M M 5 1 ] ] ] ] ] , ] [ { } | | ] | |  .| < 3 ' M M M M M ",
"M M M M M ' B ../ X.) ) / / q o.O.0 / / V ) ) j V +.5 M M M M M M M M M M 5 B ../ X.) ) / / q o.O.0 / / V ) ) j V +.' M M M M M ",
"M M M M M ' @.V C C z C #.C k 8 s k z P $.S P S P %.5 M M M M M M M M M M 5 @.V C C z C #.C k 8 s k z P $.S P S P %.' M M M M M ",
"M M M M M ' @.) Z Z k k k Z j 8 s j C C z z C &.C %.5 M M M M M M M M M M 5 @.) Z Z k k k Z j 8 s j C C z z C &.C %.' M M M M M ",
"M M M M M ' B / k k k k j k V 8 o.) Z Z Z Z Z Z p ` 5 M M M M M M M M M M 5 B / k k k k j k V 8 o.) Z Z Z Z Z Z p ` ' M M M M M ",
"M M M M M ' B q i i j j j j *.8 o./ i i k j k j j s 5 M M M M M M M M M M 5 B q i i j j j j *.8 o./ i i k j k j j s ' M M M M M ",
"M M M M M ' 7 8 A A A =.w w A -.B 8 A w w w w ;.;.3 5 M M M M M M M M M M 5 7 8 A A A =.w w A -.B 8 A w w w w ;.;.3 ' M M M M M ",
"M M M M M ' , ] ] ] ] ] ] ] [ B 1 | | | | | | | , 1 5 M M M M M M M M M M 5 , ] ] ] ] ] ] ] [ B 1 | | | | | | | , 1 ' M M M M M ",
"M M M M M ' 2 :.h k k k h k / A -.w >.>.w w / j V 3 5 M M M M M M M M M M 5 2 :.h k k k h k / A -.w >.>.w w / j V 3 ' M M M M M ",
"M M M M M ' { t ,.Z C C Z C <.A o.1.<.i i i <.Z p 2 5 M M M M M M M M M M 5 { t ,.Z C C Z C <.A o.1.<.i i i <.Z p 2 ' M M M M M ",
"M M M M M ' 1 2.3.J ~ 4.J J 5.w 6.7.U U 4.4.U 4.J 3 5 M M M M M M M M M M 5 1 2.3.J ~ 4.J J 5.w 6.7.U U 4.4.U 4.J 3 ' M M M M M ",
"M M M M M ' 2 ,.4.8.9.~ 8.~ J w 6.0.4.4.q.9.4.q.~ B 5 M M M M M M M M M M 5 2 ,.4.8.9.~ 8.~ J w 6.0.4.4.q.9.4.q.~ B ' M M M M M ",
"M M M M M ' < w.i i p e.r.i i A o.t.y.<.Z p <.,.2.7 5 M M M M M M M M M M 5 < w.i i p e.r.i i A o.t.y.<.Z p <.,.2.7 ' M M M M M ",
"M M M M M ' , u. .|  . .| , < B 7 < 1 1 , , < < 1 < 5 M M M M M M M M M M 5 , u. .|  . .| , < B 7 < 1 1 , , < < 1 < ' M M M M M ",
"M M M M M ' i.V z C z 0.C p.y.A r <.x a.5.s.z s.d.7 5 M M M M M M M M M M 5 i.V z C z 0.C p.y.A r <.x a.5.s.z s.d.7 ' M M M M M ",
"M M M M M f.1 p 5.x J 3.x s.z A s y.g.x U 5.s.U 5.B h.j.k.k.k.k.k.k.k.k.j.h.1 p 5.x J 3.x s.z A s y.g.x U 5.s.U 5.B f.M M M M M ",
"M M M M M l.7 V ,.p z.z.2.,.x.%.@.c.<.<.y.y.y.p.V v.b.n.m.m.m.m.m.m.m.m.n.b.v.V ,.p z.z.2.,.x.%.@.c.<.<.y.y.y.p.y.7 l.M M M M M ",
"M M M M M g 7 1.p e.x.x.e.e.a ` 3 y e.e.<.<.y.C 1.M.N.B.V.C.C.C.C.C.C.V.B.N.M.1.p e.x.x.e.e.a ` 3 y e.e.<.<.y.C 2.7 g M M M M M ",
"M M M M M g i.1.p e.x.x.e.e.a ` 3 y e.e.<.<.y.C 1.m.Z.A.S.D.F.F.F.F.D.S.A.Z.m.1.p e.x.x.e.e.a ` 3 y e.e.<.<.y.C 2.7 g M M M M M ",
"M M M M M G., , , , , , , , , < < H.2 1 J.< , , , K.L.A.P.I.U.Y.Y.U.I.P.A.L.K., , , , , , , , < < H.2 1 J.< , , , , G.M M M M M ",
"M M M M M M G.g T.K K f.f.f.f.f.f.f.f.f.f.f.f.R.E.W.Q.P.I.!.~.Y.Y.~.!.I.P.Q.W.E.R.f.f.f.f.f.f.f.f.f.f.f.f.K K T.g G.M M M M M M ",
"M M M M M M M M M M M M M M M M M M M M M M M M ^.V.Q.W./.(.)._._.).(./.W.Q.V.^.M M M M M M M M M M M M M M M M M M M M M M M M ",
"M M M M M M M `.'.'.'.'.'.'.'.'.'.'.'.'.'.'.'.'.].[.{.}.|.|. X.X.X X|.|.}.{.[.].'.'.'.'.'.'.'.'.'.'.'.'.'.'.'.'.`.M M M M M M M ",
"M M M M M M M f.l.l.l.l.l.l.l.l.l.l.l.l.l.l.l.l.f.XXXXM M M M M M M M M M XXXXf.l.l.l.l.l.l.l.l.l.l.l.l.l.l.l.l.f.M M M M M M M ",
"M M M oX' ' OX+X& @X@X@X; ; @X@X@X@X@X; ; ; @X@X#X' OX$X#XM M M M M M #X$XOX' #X@X@X; ; ; @X@X@X@X@X; ; @X@X@X& +XOX' ' oXM M M ",
"M M M '.l.l.l.%X&XO O O & = O O O O O *X= & O O d l.l.l.].=XM M M M =X].l.l.l.d O O & = *XO O O O O = & O O O &X%Xl.l.l.'.M M M ",
"M oXb.-X;X;X;XT.k.:X:X>Xo.o.s O.2 O.-.s s s s ,X<Xd 1X1X2X3X4XM M 4X3X2X1X1Xd <X,X:X:X>Xo.o.s O.2 O.-.s s s s k.T.;X;X;X-Xb.oXM ",
"M ].b.f.. . 5X6X7Xk k k j k V 8 o.) Z Z C C Z b.8X@X@X; 9X3X4XM M 4X3X9X; @X@X8Xb.k k k j k V 8 o.) Z Z C C Z 7X6X5X. . f.b.].M ",
"M M M g m.m.B / i i j j j j *.8 o.) k k k k k k i s m.m.g M M M M M M g m.m.B / i i j j j j *.8 o.) k k k k k k i s m.m.g M M M ",
"M M M K b.0XB w / / ( qX/ / q o.-.0 / / ) / ) / / wX0Xb.K M M M M M M K b.0XB w / / ( qX/ / q o.-.0 / / ) / ) / / wX0Xb.K M M M ",
"M M M '.eXb.i.O.:X:X:X>Xo.o.s O.2 O.-.s s s s rXrX2 b.eX'.M M M M M M '.eXb.i.O.:X:X:X>Xo.o.s O.2 O.-.s s s s rXrX2 b.eX'.M M M ",
"M M M K b.).tX7XyXuXuXuX{ uXiXO.7 i.i.i.i.i.1 8X7Xm.0Xb.K M M M M M M K b.0Xm.7X8XuXuXuX{ uXiXO.7 i.i.i.i.i.1 yX7XtX).b.K M M M ",
"M M M g pXm.aXm.sXk k k h k / A -.w :.q >.>./ dXfXm.m.m.g M M M M M M g m.m.m.fXdXk k k h k / A -.w :.q >.>./ sXm.aXm.pXg M M M ",
"M oXb.K . % 5XXXgXd d d hXhXd jXjXjXjXjXd d jXG.@X@X@X@XkXb.lXM M lXb.kX@X@X@X@XG.jXd d jXjXjXjXjXd hXhXd d d gXXX5X% . K b.oXM ",
"M lXpXf.X X X . zXzXzXzX& = O xXxXxXxXO O O O O O O O O kXpXlXM M lXpXkXO O O O O O O O O xXxXxXxXO = & zXzXzXzX. X X X f.pXlXM ",
"M @Xg k.cXcXcX_._._._._._.cXm.m.m.m.m.m.m.m.m.m.m.m.m.m.k.g @XM M @Xg k.m.m.m.m.m.m.m.m.m.m.m.m.m.m.cX_._._._._._.cXcXcXk.g @XM ",
"G.vXK bXnXnXnXnXnXnXnXnXnXnXnXnXnXnXnXnXnXnXnXnXnXnXnXnXbXK vXG.G.vXK bXnXnXnXnXnXnXnXnXnXnXnXnXnXnXnXnXnXnXnXnXnXnXnXnXbXK vXG.",
"oXvXM '.l.l., i x z 5.s.z 0.C A s y.g.x 3.s.x 5.mXi.l.l.'.M vXoXoXvXM '.l.l., i x z 5.s.z 0.C A s y.g.x 3.s.x 5.mXi.l.l.'.M vXoX",
"oXvXM oX' f.< i mXMXs.NXMX0.,.A BXe.7.p.a.0.0.s.0.1 VXOXoXM vXoXoXvXM oXOXVX< i mXMXs.NXMX0.,.A BXe.7.p.a.0.0.s.0.1 f.' oXM vXoX",
"oXvXM CXCX' 1 1 7 B B ZXB O.O.-.B O.AXs O.O.e s SXB 5 M M M vXoXoXvXM M M 5 1 1 7 B B ZXB O.O.-.B O.AXs O.O.e s SXB ' CXCXM vXoX",
"oXoX@XG.M ' 1 ` w w w DXw 9 DXo.FXw / / y :.q y w.B 5 M G.@XoXoXoXoX@XG.M 5 1 ` w w w DXw 9 DXo.FXw / / y :.q y w.B ' M G.@XoXoX",
"oXoXoX@XM ' 7 V ,.p GXGX2.2.x.%.@.c.<.<.y.y.y.p.y.7 5 M @XoXoXoXoXoXoX@XM 5 7 V ,.p GXGX2.2.x.%.@.c.<.<.y.y.y.p.y.7 ' M @XoXoXoX",
"oXoXoXoXvXg 7 1.p e.x.x.e.e.a ` 3 y e.e.<.<.y.C 2.7 d vXoXoXoXoXoXoXoXoXvXd 7 1.p e.x.x.e.e.a ` 3 y e.e.<.<.y.C 2.7 g vXoXoXoXoX",
"oXoXoXoXoXg i.>.V 1.t t 1.1.y s 3 >.HXt V t.h k r.7 M oXoXoXoXoXoXoXoXoXoXM i.>.V 1.t t 1.1.y s 3 >.HXt V t.h k r.7 g oXoXoXoXoX",
"oXoXoXoXoXoX, , , , , , , , , < < H.2 1 J.< , , , , oXoXoXoXoXoXoXoXoXoXoXoX, , , , , , , , , < < H.2 1 J.< , , , , oXoXoXoXoXoX",
"oXoXoXoXoXoXoXM N N N N N N N N N N N N N N N N M oXoXoXoXoXoXoXoXoXoXoXoXoXoXM N N N N N N N N N N N N N N N N M oXoXoXoXoXoXoX",
"oXoXoXoXoXoXoXoXoXoXoXoXoXoXoXoXoXoXoXoXoXoXoXoXoXoXoXoXoXoXoXoXoXoXoXoXoXoXoXoXoXoXoXoXoXoXoXoXoXoXoXoXoXoXoXoXoXoXoXoXoXoXoXoX",
"oXoXoXoXoXoXoXoXoXoXoXoXoXoXoXoXoXoXoXoXoXoXoXoXoXoXoXoXoXoXoXoXoXoXoXoXoXoXoXoXoXoXoXoXoXoXoXoXoXoXoXoXoXoXoXoXoXoXoXoXoXoXoXoX",
"oXoXoXoXoXoXoXoXoXoXoXoXoXoXoXoXoXoXoXoXoXoXoXoXoXoXoXoXoXoXoXoXoXoXoXoXoXoXoXoXoXoXoXoXoXoXoXoXoXoXoXoXoXoXoXoXoXoXoXoXoXoXoXoX",
"oXoXoXoXoXoXoXoXoXoXoXoXoXoXoXoXoXoXoXoXoXoXoXoXoXoXoXoXoXoXoXoXoXoXoXoXoXoXoXoXoXoXoXoXoXoXoXoXoXoXoXoXoXoXoXoXoXoXoXoXoXoXoXoX",
"JXJXJXJXJXJXJXJXJXJXJXJXJXJXJXJXJXJXJXJXJXJXJXJXJXJXJXJXJXJXJXJXJXJXJXJXJXJXJXJXJXJXJXJXJXJXJXJXJXJXJXJXJXJXJXJXJXJXJXJXJXJXJXJX"
};
