/* XPM */
static char *_72131a369df424eafdfcfead9efb06fwy9LRMyT1cZbGe9W[] = {
/* columns rows colors chars-per-pixel */
"64 64 37 1 ",
"  c #120F0D",
". c #100E0B",
"X c #0F0D0B",
"o c #1D1916",
"O c #1B1714",
"+ c #181512",
"@ c #27221D",
"# c #231E1A",
"$ c #161311",
"% c #1A1713",
"& c #211D19",
"* c #1E1A17",
"= c #191512",
"- c #1C1815",
"; c #221E19",
": c #26211C",
"> c #231F1A",
", c #201C18",
"< c #161310",
"1 c #25201B",
"2 c #24201B",
"3 c #191613",
"4 c #0E0C0A",
"5 c #12100E",
"6 c #13110F",
"7 c #14110F",
"8 c #14120F",
"9 c #151310",
"0 c #0D0C0A",
"q c #13100E",
"w c #171411",
"e c #221E1A",
"r c #1A1613",
"t c #15120F",
"y c #221D19",
"u c #161210",
"i c #151210",
/* pixels */
"       .X oO oo+        @#ooooo        .X oO oo+        @#ooooo ",
"@o@#o@#$X oo oo+%#oo&@o @#ooooo @o@#o@#$X oo oo+%#oo&@o @#ooooo ",
"@o@#o@#$X oo oo+%#oo&@o @*ooooo @o@#o@#$X oo oo+%#oo&@o @*ooooo ",
"@o@#o@#$X oo oo+%#oo&@o @oooooo @o@#o@#$X oo oo+%#oo&@o @oooooo ",
"@o@#o@#$X oo oo+%#oo&@o @oooooo @o@#o@#$X oo oo+%#oo&@o @oooooo ",
"@o@#o@*$X oo oo+%#oo&@o @oooooo @o@#o@*$X oo oo+%#oo&@o @oooooo ",
"@o@#o@o$X oo oo+%#oo&@o @oooooo @o@#o@o$X oo oo+%#oo&@o @oooooo ",
"@o@&o@o$X =o oo+%#oo*@o @oooooo @o@&o@o$X =o oo+%#oo*@o @oooooo ",
"@o@oo@o$X $- oo+%#ooo@o @oooooo @o@oo@o$X $- oo+%#ooo@o @oooooo ",
"@o;oo@o$X $+ oo+%#ooo@o :oooooo @o;oo@o$X $+ oo+%#ooo@o :oooooo ",
"@o&oo@o$X $+ oo+%#ooo@o >oooooo @o&oo@o$X $+ oo+%#ooo@o >oooooo ",
"@o&o&@o$X $+ oo+%#ooo@o #oooooo @o&o&@o$X $+ oo+%#ooo@o #oooooo ",
"@o*o&@o$X $+ oo+%#ooo@o #o=oooo @o*o&@o$X $+ oo+%#ooo@o #o=oooo ",
"@#oo&@o$X $+ oo+%#o,o@o #o<oooo @#oo&@o$X $+ oo+%#o,o@o #o<oooo ",
"@#oo&@o$X $+ =o+%#o#o@o *o *ooo @#oo&@o$X $+ =o+%#o#o@o *o *ooo ",
"@1oo&@o$X $+ $o+%#&#o@o *o *ooo @1oo&@o$X $+ $o+%#&#o@o *o *ooo ",
"@@oo&@o$X $+ $o+%#2&o@o 3+ =ooo @@oo&@o$X $+ $o+%#2&o@o 3+ =ooo ",
"@@oo&@o$4.5678+9%1@oo@o    8+++ @@oo&@o$4.5678+9%1@oo@o    8+++ ",
"@@oo&@o$0Xq=$$$8%@@oo@o w$$$$$$ @@oo&@o$0Xq=$$$8%@@oo@o w$$$$$$ ",
"@@oo&@o$X ooooo+%@>o*@o ,oooooo @@oo&@o$X ooooo+%@>o*@o ,oooooo ",
"@@oo&@o$X ooooo+%@#o&@o #oooooo @@oo&@o$X ooooo+%@#o&@o #oooooo ",
"@@,o&@o$X ooooo+%@&oe@o 1oooooo @@,o&@o$X ooooo+%@&oe@o 1oooooo ",
"@@#o&@o$X o-ooo+%@oo@2o @oooooo @@#o&@o$X o-ooo+%@oo@2o @oooooo ",
"@@#o&@o$X oOooo+%>oo@#o @oooooo @@#o&@o$X oOooo+%>oo@#o @oooooo ",
"@@#o&:o$X orooo+%#o*@&o @oooooo @@#o&:o$X orooo+%#o*@&o @oooooo ",
"@@#o&>o$Xto+ooo+%#o&@*o @oooooo @@#o&>o$Xto+ooo+%#o&@*o @oooooo ",
"@@#o&#o$X$o+roo+%#o&@oo @oooooo @@#o&#o$X$o+roo+%#o&@oo @oooooo ",
"@@#o&#o$X$o+$oo+%#o&:oo @#ooooo @@#o&#o$X$o+$oo+%#o&:oo @#ooooo ",
"@@#o&#o$X$o+$oo+%#o&yoo @#ooooo @@#o&#o$X$o+$oo+%#o&yoo @#ooooo ",
"@@#o&#o$X$o+$oo+%#o&#ou @#ooooo @@#o&#o$X$o+$oo+%#o&#ou @#ooooo ",
"@@#o*#o$X$o+$oo+%#o&#o  @#ooooo @@#o*#o$X$o+$oo+%#o&#o  @#ooooo ",
"@@#o*y-$Xio+7oo+%#o&#o  @#ooooo @@#o*y-$Xio+7oo+%#o&#o  @#ooooo ",
"       .X oO oo+        @#ooooo        .X oO oo+        @#ooooo ",
"@o@#o@#$X oo oo+%#oo&@o @#ooooo @o@#o@#$X oo oo+%#oo&@o @#ooooo ",
"@o@#o@#$X oo oo+%#oo&@o @*ooooo @o@#o@#$X oo oo+%#oo&@o @*ooooo ",
"@o@#o@#$X oo oo+%#oo&@o @oooooo @o@#o@#$X oo oo+%#oo&@o @oooooo ",
"@o@#o@#$X oo oo+%#oo&@o @oooooo @o@#o@#$X oo oo+%#oo&@o @oooooo ",
"@o@#o@*$X oo oo+%#oo&@o @oooooo @o@#o@*$X oo oo+%#oo&@o @oooooo ",
"@o@#o@o$X oo oo+%#oo&@o @oooooo @o@#o@o$X oo oo+%#oo&@o @oooooo ",
"@o@&o@o$X =o oo+%#oo*@o @oooooo @o@&o@o$X =o oo+%#oo*@o @oooooo ",
"@o@oo@o$X $- oo+%#ooo@o @oooooo @o@oo@o$X $- oo+%#ooo@o @oooooo ",
"@o;oo@o$X $+ oo+%#ooo@o :oooooo @o;oo@o$X $+ oo+%#ooo@o :oooooo ",
"@o&oo@o$X $+ oo+%#ooo@o >oooooo @o&oo@o$X $+ oo+%#ooo@o >oooooo ",
"@o&o&@o$X $+ oo+%#ooo@o #oooooo @o&o&@o$X $+ oo+%#ooo@o #oooooo ",
"@o*o&@o$X $+ oo+%#ooo@o #o=oooo @o*o&@o$X $+ oo+%#ooo@o #o=oooo ",
"@#oo&@o$X $+ oo+%#o,o@o #o<oooo @#oo&@o$X $+ oo+%#o,o@o #o<oooo ",
"@#oo&@o$X $+ =o+%#o#o@o *o *ooo @#oo&@o$X $+ =o+%#o#o@o *o *ooo ",
"@1oo&@o$X $+ $o+%#&#o@o *o *ooo @1oo&@o$X $+ $o+%#&#o@o *o *ooo ",
"@@oo&@o$X $+ $o+%#2&o@o 3+ =ooo @@oo&@o$X $+ $o+%#2&o@o 3+ =ooo ",
"@@oo&@o$4.5678+9%1@oo@o    8+++ @@oo&@o$4.5678+9%1@oo@o    8+++ ",
"@@oo&@o$0Xq=$$$8%@@oo@o w$$$$$$ @@oo&@o$0Xq=$$$8%@@oo@o w$$$$$$ ",
"@@oo&@o$X ooooo+%@>o*@o ,oooooo @@oo&@o$X ooooo+%@>o*@o ,oooooo ",
"@@oo&@o$X ooooo+%@#o&@o #oooooo @@oo&@o$X ooooo+%@#o&@o #oooooo ",
"@@,o&@o$X ooooo+%@&oe@o 1oooooo @@,o&@o$X ooooo+%@&oe@o 1oooooo ",
"@@#o&@o$X o-ooo+%@oo@2o @oooooo @@#o&@o$X o-ooo+%@oo@2o @oooooo ",
"@@#o&@o$X oOooo+%>oo@#o @oooooo @@#o&@o$X oOooo+%>oo@#o @oooooo ",
"@@#o&:o$X orooo+%#o*@&o @oooooo @@#o&:o$X orooo+%#o*@&o @oooooo ",
"@@#o&>o$Xto+ooo+%#o&@*o @oooooo @@#o&>o$Xto+ooo+%#o&@*o @oooooo ",
"@@#o&#o$X$o+roo+%#o&@oo @oooooo @@#o&#o$X$o+roo+%#o&@oo @oooooo ",
"@@#o&#o$X$o+$oo+%#o&:oo @#ooooo @@#o&#o$X$o+$oo+%#o&:oo @#ooooo ",
"@@#o&#o$X$o+$oo+%#o&yoo @#ooooo @@#o&#o$X$o+$oo+%#o&yoo @#ooooo ",
"@@#o&#o$X$o+$oo+%#o&#ou @#ooooo @@#o&#o$X$o+$oo+%#o&#ou @#ooooo ",
"@@#o*#o$X$o+$oo+%#o&#o  @#ooooo @@#o*#o$X$o+$oo+%#o&#o  @#ooooo ",
"@@#o*y-$Xio+7oo+%#o&#o  @#ooooo @@#o*y-$Xio+7oo+%#o&#o  @#ooooo "
};
