/* XPM */
static char *result[] = {
/* columns rows colors chars-per-pixel */
"64 64 80 1 ",
"  c #26201B",
". c #251F1A",
"X c #241E19",
"o c #231C18",
"O c #231D18",
"+ c #211B17",
"@ c #201A16",
"# c #221C17",
"$ c #221C18",
"% c #251E19",
"& c #261F1A",
"* c #201B17",
"= c #28211C",
"- c #211B16",
"; c #1F1A16",
": c #1E1915",
"> c #1F1915",
", c #201A15",
"< c #211C18",
"1 c #27211C",
"2 c #201916",
"3 c #1E1815",
"4 c #1C1713",
"5 c #1D1714",
"6 c #1D1814",
"7 c #1F1916",
"8 c #1F1B16",
"9 c #1A1513",
"0 c #1B1512",
"q c #1C1613",
"w c #1B1612",
"e c #1A1411",
"r c #1A1512",
"t c #191311",
"y c #191411",
"u c #312C27",
"i c #2E2A24",
"p c #2B2620",
"a c #26211B",
"s c #29221D",
"d c #29251E",
"f c #28231D",
"g c #25201A",
"h c #27221C",
"j c #2A251F",
"k c #29241E",
"l c #2C2722",
"z c #2D2923",
"x c #2C2822",
"c c #2E2924",
"v c #2D2823",
"b c #2F2A25",
"n c #302B26",
"m c #2F2B26",
"M c #2B2720",
"N c #2B2721",
"B c #312D27",
"V c #211A16",
"C c #16120F",
"Z c #15110E",
"A c #130F0D",
"S c #14100D",
"D c #181310",
"F c #171310",
"G c #16110F",
"H c #191410",
"J c #120E0C",
"K c #110D0B",
"L c #191310",
"P c #100D0B",
"I c #130F0C",
"U c #1A1511",
"Y c #130E0C",
"T c #0F0C0A",
"R c #181311",
"E c #1A1412",
"W c #130E0D",
"Q c #181411",
"! c #201915",
"~ c #1B1613",
/* pixels */
" ..XXoOXXXOO+@o+O#O#O#+Oo$$OOX%XXOOXOOXOoOOOOOOOXXOOoo#%&%O$*@OX",
"=XO#-+ooO X@;:>->>,@+++<+++$OOoOO#$++o+++#oX..X.XO#$+<OO++@@+O<1",
"#---O>23:4@>44566>,>+@7+O***#+@+-+@>6>>,2@@6664664:#o<;8*<XXXO+X",
"+#O#>666>6665490q-@>@>>-#OOOO>5:@O,34000w4>>--@>@>>-#OOOOOOO-O>+",
"-#O,eerq4456w4rteeyttttee000000000eetttttttteeyttttee00000006o6>",
"$OO@0uuuuuuuuuuuiiippipipppaaaaaaaiipapppppppiiipppppiaappp0:$*o",
"O*>O0uuuuuuuuuuuppiapippppaaaaaaapiipapppiiiiaapaaaapaaappp0OoOO",
"&+*O0uuuuuuuuiiiaaaappaapipaaaaaapiiiipppiiiiaaaaaaaaaaaapi0OOX$",
"%O8O0uiiuuuuiaaaaaaaaaaapppaaapppppiiiipaiupppppaaaaaaaappp0OOX+",
"#O;O0ipppiuiiaaaaaaaaaaaappppappiiiiiiipiiiappppaapappppppi0OO.-",
"o<<O0iippiuapppaaaaaaaappppppppaiuuuuuupiipiipppaappppppppi0OOX@",
"o+o#euupuipppaapaaaaaaapppuipippiuuuuuiiiipppppppppiipiuupie#+X@",
"O$#-euipiipppappaaaaappiipuiiiuuuuuuuuuuuipipiiiiiiuiiuuuuie-@X;",
"O#:>tiiiiiapaaaaapppppiuuiipppiiuuuuuuuuuuiiiuuuuuiuuuiiuuut>>O;",
"XO4>tiippppppppppppppapuuuiippiiuuuuuuuiippiiuuuuuuiuuiiuuut>>O@",
"XX6@tiiapppppppppapuaapuuuuiuiiiuuuuiipppppiiiiuuuuiiuiiuuit@:OO",
"O.6>tpppipppppappapuiiuuuuuiuiiuuuuuiipppipuiuuiuuuuuuiuuuut>6sX",
"OX4@ypppppappppiippiuuiiiiuuuuiuuuuuiiiapiiuiiiiuuuuuuuuuuuy@6=X",
"O.6-epapiipppappaapiuiapuuuuuuuuuiuipapapiiiiiiiuuuuiuuuuuie->XO",
"O.6-eapiiiiaaaaaaaaiuuapiuuuuiuuupppaaaapiiiiiiuuuiiuuuuiiie-@-#",
"OX6>tapppiiaaaaaaapiuiiuuuppiuuuiaaaaaaaapippiuiuuiiiuuuipat>@OO",
"Oo@>tppppiiipaapppppiuiuuippaiuppppaapaaapppapuuuuppiiiuipat>@##",
"O#@4tipaapppppppppppppappiippiiaapaaaaaaaaapappiiipiipapaaat@>-#",
"o+2wtpdfghfjpppppppppppappipiipppaaaaaaaaaaaapppippppapaaaat5:@o",
"O+,0tpdfgafkpppppaaaapaaaapppippppaaaaaapppaappppppppppppaat4>@O",
"X+>0tppaaahappipaapppppppppppppaipaappaapipapppppppiiipaaapt4>@X",
"Oo>0taaaaahaaiiiappppppppapaaaaapaaappapiipapppiiiiaaaaaaaat4>#X",
"O+64tpaaaadjpiiippppiiiiaaaaaaaaaaaappppiiiipppiiiiaaaaaaaat6OOX",
"X+>3eipaafllppiiippapipippaaaaaaaaaapppppiiiipapupppppaaaaae-OO.",
"O$@,eppaaajpzpiiiipppuaappaaaaaaaappppiiiiuiipiiiaapaaaaaaae+++.",
"O#+O0ppppppxcuuiuupiuppppapaappppapppaiuuuuuupiippipppaappp0:>:$",
"XO-@0iippppiuuuuuuppupppppppppppppiuppiuuuuuipiuppppppppppp06:>o",
"XO+:0iuiiuuiuuuuiiiiipppppppiiiipiuuuiiuuuuuuuuipippiiiiiii046>@",
"%o@50iippiuiuuuuuuuuiiiiiuuiiiiuuiuuuiiuuuuuuuuuuiiuuuuiiiu046#-",
"XO+>0iipppiuuuuuuuuuiiiiuuuuuuiuuiiuuuuuuuuuuuiipiiuuuuuiiu04:*<",
"OO#O0iiiiiiuuuuiiipippiiiiuuuuuuuuiuuuuiuuiipppppiiiiuuuiii04:@O",
"O$*O0uiiiiiiuuuiipppipiuiuuuuuuiuuiuuuiiuiiiippipiiiiiuiiii05>@#",
"$+*O0iiiiiiuuiuiiipaiiuiiuiuuuuuuuuuuuuiiiiiipaiiiiiiiuuuii0>@+O",
"$+*O0iuiiiuuiiuppppaiiiiiiiuuuuiuuuiuuuiiipapapipiiiiiuiuii0O#+X",
"o+O#euuuiuuuiiivvvphxcicbnibnnnuuuuuuuupppaaaapiiiiiiuuuuiue#+;o",
"O<+-eiuuuuuuiunbicxpvczcbcibbbnbubbvbbxppppaaapiiuuiiiippppe-@@O",
"++7>tiiippiniuubnbbimbbiiiiiicblMNxxvvppppppappiiiipipaaaaat>:>+",
"#+@>tuiipxcbnuBuuuuuuiiiiiipdxcbppppppkpppppppppiiipppaaaaat>:V+",
"O++@tuuuiiinnbnnuuipippipppaapiippppppapaapppppiiiippppaaaat44,#",
"#@>>t544577777734664w0004445544577777736544qwq455:544577777t0w5@",
"O,,@y44444444444444q00r0q4444444444444444444w0q444444444444yww3-",
"#>>-eyyyyyyyyyyyy040yyCtyyyyyyyyyyyyyyyyyyyyytyyyyyy00wryyyew45+",
"O>6qeZZACCCCZZSSACStyDFCCCZZZZACCCCZZSSZCAFFFCCCZZZZy04SCZZew5:-",
"+-60tCCyGDSHCCGGGFCt0wt0FFCCCCSGDSHCCGGCFGD0H0FFCCCFy0qSyCCte5>+",
"o>59rGSFFtJFGGGGGDZy44FeGGGGGDSGDAFGGGGFHZtqHeGGGGGGr00AFGGte5@+",
"@:444GSCDyKFGGGGGLZLw5FeGGGGGDASCPCGGGGFyZLwFeGGGGGGyr0IFGGtq5@+",
"+;45wGSFtyKCGGGGGHGyq5FeGGGGGDASGPGGGGGFyZHqFeGGGGGGtyrJFGGte52+",
"O@>66GSeyyKCGGGGGHFUq4FeGGGGGDYSZTCGGGGFyZtwFeGGGGGZRDCJFGGtt37o",
"OX@65GZreFKCGGGGGGHeqqFeGGGGGDYSZTGGGGGFyZt0FeGGGGGZEyFJFGGte4>O",
"X 464GCtyyKFGGGGGGeFUqCeGGGGGDWSZTGGGGGFyGtwFeGGGGGGtyrJFGGteq>X",
"XO:>4GGDyyKFGGGGGGyZH0SDGGGGGDASGTCGGGGFyZt0CeGGGGGCQtDAFGGt0!+.",
"Xo36qGCyyyIHGGGGGGyGHUAFGGGGGtSZCPGGGGGFyZy0ZFGGGGGGyU0SGGGe52#.",
"Oo26rGF4reZHGGGGGFyy0UACGGGGGySSSKCGGGGGeFe0SFGGGGGFt0wSGGGe@;@.",
"o+>6eGF4e0FyGGGGGFr00rFCGGGGGyZSSZFGGGGGHe44SHGGGGGFF44SGGG0566$",
"X-O>eGF~rryeGGGGGF005~qyGGGGGFZCFFCGGGGFy0yHSeGGGGGFD44ZCGG046:o",
"X#.weZCrwryZZZZCCCFHrrySSSZZCCGyr0ZZZCCCFDeHSCASSZZCCCCAZZZ044:+",
".O-40yyq64ryyyyyytyyErryyyyyyyy00UyyyyytCye040yyyyyyyyyyyyy0~5##",
".X->q444q4444444q0w4y0q444444444444444q0r00q44444444444444406:<O",
" =#+577775445:554qwq4456377777756665444000w466437777775445:0@7+X"
};
