/* XPM */
static char *result[] = {
/* columns rows colors chars-per-pixel */
"64 64 178 2 ",
"   c #26201B",
".  c #251F1A",
"X  c #241E19",
"o  c #231C18",
"O  c #231D18",
"+  c #211B17",
"@  c #201A16",
"#  c #221C17",
"$  c #221C18",
"%  c #251E19",
"&  c #261F1A",
"*  c #201B17",
"=  c #28211C",
"-  c #211B16",
";  c #1F1A16",
":  c #1E1915",
">  c #1F1915",
",  c #201A15",
"<  c #211C18",
"1  c #27211C",
"2  c #201916",
"3  c #1E1815",
"4  c #1C1713",
"5  c #1D1714",
"6  c #1D1814",
"7  c #1F1916",
"8  c #1F1B16",
"9  c #1A1513",
"0  c #1B1512",
"q  c #1C1613",
"w  c #1B1612",
"e  c #1A1411",
"r  c #1A1512",
"t  c #191311",
"y  c #191411",
"u  c #312C27",
"i  c #2E2A24",
"p  c #2B2620",
"a  c #26211B",
"s  c #100F12",
"d  c #0F0E12",
"f  c #0E0E11",
"g  c #0E0D11",
"h  c #0C0C0F",
"j  c #100F14",
"k  c #121116",
"l  c #131116",
"z  c #121015",
"x  c #100E13",
"c  c #141318",
"v  c #16151B",
"b  c #16151A",
"n  c #0E0D10",
"m  c #0D0C0F",
"M  c #151318",
"N  c #111015",
"B  c #0B0B0E",
"V  c #121115",
"C  c #131217",
"Z  c #100F13",
"A  c #0D0D10",
"S  c #141217",
"D  c #17161C",
"F  c #0C0B0E",
"G  c #111014",
"H  c #17151A",
"J  c #151419",
"K  c #1A1920",
"L  c #1B1A21",
"P  c #161419",
"I  c #17161B",
"U  c #110F14",
"Y  c #0F0F12",
"T  c #1A191F",
"R  c #1C1B22",
"E  c #1C1C23",
"W  c #1D1C23",
"Q  c #18171D",
"!  c #1D1C24",
"~  c #1E1D24",
"^  c #1F1E25",
"/  c #1E1D25",
"(  c #19181E",
")  c #0D0C10",
"_  c #131216",
"`  c #19171E",
"'  c #0F0E11",
"]  c #111013",
"[  c #101013",
"{  c #111114",
"}  c #29221D",
"|  c #15141A",
" . c #100E12",
".. c #16161B",
"X. c #18171E",
"o. c #17161D",
"O. c #18161D",
"+. c #1E1D26",
"@. c #1F1E27",
"#. c #1F1E26",
"$. c #19181F",
"%. c #1C1B23",
"&. c #201F27",
"*. c #1B1A22",
"=. c #16151C",
"-. c #1C1B24",
";. c #201F28",
":. c #29251E",
">. c #28231D",
",. c #25201A",
"<. c #27221C",
"1. c #2A251F",
"2. c #15141B",
"3. c #29241E",
"4. c #0B0A0E",
"5. c #0B0A0D",
"6. c #0A090C",
"7. c #15151A",
"8. c #191920",
"9. c #14131A",
"0. c #1A1A21",
"q. c #1B1B22",
"w. c #121114",
"e. c #2C2722",
"r. c #18161C",
"t. c #2D2923",
"y. c #2C2822",
"u. c #2E2924",
"i. c #151319",
"p. c #19171D",
"a. c #1F1D25",
"s. c #1F1D24",
"d. c #1C1A21",
"f. c #1E1C24",
"g. c #201F26",
"h. c #1B1A1F",
"j. c #1D1B22",
"k. c #1F1D26",
"l. c #201E26",
"z. c #18171C",
"x. c #19181D",
"c. c #1A181F",
"v. c #1B1920",
"b. c #18161B",
"n. c #0A0A0C",
"m. c #0D0D0F",
"M. c #2D2823",
"N. c #16141A",
"B. c #302B26",
"V. c #2F2A25",
"C. c #1B191F",
"Z. c #1A181E",
"A. c #312D27",
"S. c #211A16",
"D. c #0F0E10",
"F. c #0E0D0F",
"G. c #16120F",
"H. c #15110E",
"J. c #130F0D",
"K. c #14100D",
"L. c #181310",
"P. c #171310",
"I. c #16110F",
"U. c #191410",
"Y. c #120E0C",
"T. c #110D0B",
"R. c #191310",
"E. c #100D0B",
"W. c #130F0C",
"Q. c #1A1511",
"!. c #130E0C",
"~. c #0F0C0A",
"^. c #181311",
"/. c #1A1412",
"(. c #130E0D",
"). c #181411",
"_. c #201915",
"`. c #1B1613",
/* pixels */
"  . . X X o O X X X O O + @ o + O # O # O # + O o $ $ O O X % X X O O X O O X O o O O O O O O O X X O O o o # % & % O $ * @ O X ",
"= X O # - + o o O   X @ ; : > - > > , @ + + + < + + + $ O O o O O # $ + + o + + + # o X . . X . X O # $ + < O O + + @ @ + O < 1 ",
"# - - - O > 2 3 : 4 @ > 4 4 5 6 6 > , > + @ 7 + O * * * # + @ + - + @ > 6 > > , 2 @ @ 6 6 6 4 6 6 4 : # o < ; 8 * < X X X O + X ",
"+ # O # > 6 6 6 > 6 6 6 5 4 9 0 q - @ > @ > > - # O O O O > 5 : @ O , 3 4 0 0 0 w 4 > > - - @ > @ > > - # O O O O O O O - O > + ",
"- # O , e e r q 4 4 5 6 w 4 r t e e y t t t t e e 0 0 0 0 0 0 0 0 0 e e t t t t t t t t e e y t t t t e e 0 0 0 0 0 0 0 6 o 6 > ",
"$ O O @ 0 u u u u u u u u u u u i i i p p i p i p p p a a a a a a a i i p a p p p p p p p i i i p p p p p i a a p p p 0 : $ * o ",
"O * > O 0 u u u u u u u u u u u p p i a p i p p p p a a a a a a a p i i p a p p p i i i i a a p a a a a p a a a p p p 0 O o O O ",
"& + * O 0 u u u u u u u u i i i a a a a p p a a p i p a s s s s s s s s i i p p p i i i i a a a a a a a a a a a a p i 0 O O X $ ",
"% O 8 O 0 u i i u u u u i a a a a a a a a a a a p p d d f d d g h h f j s s i p a i u p p p p p a a a a a a a a p p p 0 O O X + ",
"# O ; O 0 i p p p i u i i a a a a a a a a a a d d d j k l l z x g j c v b c s s s i i a p p p p a a p a p p p p p p i 0 O O . - ",
"o < < O 0 i i p p i u a p p p a a a a a a d d n m d l M c c l j d N b v v v b k B s s i i p p p a a p p p p p p p p i 0 O O X @ ",
"o + o # e u u p u i p p p a a p a a a a d V C l Z A m d S b l d g z v D v l f F g l c s p p p p p p p i i p i u u p i e # + X @ ",
"O $ # - e u i p i i p p p a p p a a a d G H H b M V g h f k c k j k v J j A F Z D K L M s i i i i i i u i i u u u u i e - @ X ; ",
"O # : > t i i i i i a p a a a a a p d k P I b b b b c U f f d x x z k Y f Z c T R E W L b n u u u u i u u u i i u u u t > > O ; ",
"X O 4 > t i i p p p p p p p p p p p d l H H b b b b b b C j Z j j Z Z C Q K L W ! ~ ^ / ( s u u u u u i u u i i u u u t > > O @ ",
"X X 6 @ t i i a p p p p p p p p p a ) V b b b b b b b b b C V j j d _ ` T L L R E W ~ ~ ( Y i u u u u i i u i i u u i t @ : O O ",
"O . 6 > t p p p i p p p p p a p p a F n f f f f ' ' ' s s s s s s ' s ] ] [ [ Z s Z G { G ' u i u u u u u u i u u u u t > 6 } X ",
"O X 4 @ y p p p p p a p p p p i i p F F m m F m m m n n n n ' ' ' ' n n n n n n n n n n ' s i i u u u u u u u u u u u y @ 6 = X ",
"O . 6 - e p a p i i p p p a p p a a m j c c c c c c c c | | l j  .l v I I ..b ..D X.( ( b s i i u u u u i u u u u u i e - > X O ",
"O . 6 - e a p i i i i a a a a a a a n k o.O.o.o.o.o.o.o.O.X.O.N  .| L L K L R R E +.@.#.T { i u u u i i u u u u i i i e - @ - # ",
"O X 6 > t a p p p i i a a a a a a a g S ` K $.K L L L K L L ` N  .v R %.W / #.+.! / @.&.K { u i u u i i i u u u i p a t > @ O O ",
"O o @ > t p p p p i i i p a a p p p g c K L K L %.R *.L R R K N  .=.-.! ! +.&.@.+.+.;.&.K { u u u u p p i i i u i p a t > @ # # ",
"O # @ 4 t i p a a p p p p p p p p p f c K L L R %.%.R L R R L N  .D ! ! / #.&.@.+.@.;.;.L { p i i i p i i p a p a a a t @ > - # ",
"o + 2 w t p :.>.,.<.>.1.p p p p p p g z v v 2.v o.=.=.=.D D v N  .l o.o.X.X.$.X.o.Q ( T ..G p p i p p p p a p a a a a t 5 : @ o ",
"O + , 0 t p :.>.,.a >.3.p p p p p a g F B B B B B 4.B F B B ) f ) F 5.5.B 5.5.5.6.6.5.F n Z p p p p p p p p p p p a a t 4 > @ O ",
"X + > 0 t p p a a a <.a p p i p a a f N | v 7.v v =.v 2.v v c j d k v v v D D =.v v o.Q b { p p p p p i i i p a a a p t 4 > @ X ",
"O o > 0 t a a a a a <.a a i i i a p f c $.K K L L K K 8.K 8.=.N Z 9.0.0.L q.-.%.*.*.%.! ( w.p i i i i a a a a a a a a t 4 > # X ",
"O + 6 4 t p a a a a :.1.p i i i p p f S X.$.X.X.X.X.X.X.X.X.v N Z c $.K K L 0.L K K 0.L Q w.p i i i i a a a a a a a a t 6 O O X ",
"X + > 3 e i p a a >.e.e.p p i i i p g C X.X.X.X.X.X.O.o.X.X.7.N j c X.$.$.$.$.X.X.X.$.K r.] a p u p p p p p a a a a a e - O O . ",
"O $ @ , e p p a a a 1.p t.p i i i i g l o.Q Q Q o.o.O.o.o.o.7.N j S Q Q Q X.X.o.o.X.o.X.v s i i i a a p a a a a a a a e + + + . ",
"O # + O 0 p p p p p p y.u.u u i u u n j C C C C C C C S S S k j d j C C S c c S C c c 7.C ' i i p p i p p p a a p p p 0 : > : $ ",
"X O - @ 0 i i p p p p i u u u u u u F B B B B B B B B B B B )  .f F 5.5.5.5.5.5.5.5.5.5.n n i u p p p p p p p p p p p 0 6 : > o ",
"X O + : 0 i u i i u u i u u u u i i n k O.O.X.X.X.X.X.O.X.o.J k j k M M J c c c i.=.o.O.b n u i p i p p i i i i i i i 0 4 6 > @ ",
"% o @ 5 0 i i p p i u i u u u u u u A C ( T ( T K K T $.T $.r.k j c p.` Q Q Q Q Q ` $.K I m u u u i i u u u u i i i u 0 4 6 # - ",
"X O + > 0 i i p p p i u u u u u u u F M R W W ~ ^ a.s.~ ~ ~ d.k j v ! f.! ~ a.a.! ! a.g.h.m i i p i i u u u u u i i u 0 4 : * < ",
"O O # O 0 i i i i i i u u u u i i i m J W a.s.^ g.^ ^ s.^ ^ j.k j D a.a.a.k.&.l.~ a.&.&.L F p p p i i i i u u u i i i 0 4 : @ O ",
"O $ * O 0 u i i i i i i u u u i i p F V z.Q Q x.( p.Q r.Q ( v k j c ` c.` $.$.( Q ` T v.b.F p i p i i i i i u i i i i 0 5 > @ # ",
"$ + * O 0 i i i i i i u u i u i i i F 5.n.6.5.6.6.6.5.5.F F n d g m m n n m F F m m m m.' F a i i i i i i i u u u i i 0 > @ + O ",
"$ + * O 0 i u i i i u u i i u p p p F C K L T L L d.L K v.d.r.k  .c L R d.R j.R L L R W b.F p i p i i i i i u i u i i 0 O # + X ",
"o + O # e u u u i u u u i i i M.M.M.F M R W L j.~ W j.L j.j.p.V s N.R R R R ! W d.R ! a.h.F p i i i i i i u u u u i u e # + ; o ",
"O < + - e i u u u u u u i u B.V.i u.m C T T ( T C.C.T Z.T T H V f l p.` ` ` c.c.` c.v.L b.F p i i u u i i i i p p p p e - @ @ O ",
"+ + 7 > t i i i p p i B.i u u V.B.V.m C p.( p.x.x.x.p.p.p.Z.b G ' l Q p.p.` ` ` ` c.T v.b.F p i i i i p i p a a a a a t > : > + ",
"# + @ > t u i i p y.u.V.B.u A.u u u F C p.( p.x.x.x.p.p.p.Z.b G ' l Q p.p.` ` ` ` c.T v.b.F p p i i i p p p a a a a a t > : S.+ ",
"O + + @ t u u u i i i B.B.V.B.B.u u F F F F F F F F F F F F F m m n D.D.n n F.m F F F F F F p i i i i p p p p a a a a t 4 4 , # ",
"# @ > > t 5 4 4 5 7 7 7 7 7 7 3 4 6 6 4 w 0 0 0 4 4 4 5 5 4 4 5 7 7 7 7 7 7 3 6 5 4 4 q w q 4 5 5 : 5 4 4 5 7 7 7 7 7 t 0 w 5 @ ",
"O , , @ y 4 4 4 4 4 4 4 4 4 4 4 4 4 4 q 0 0 r 0 q 4 4 4 4 4 4 4 4 4 4 4 4 4 4 4 4 4 4 4 w 0 q 4 4 4 4 4 4 4 4 4 4 4 4 y w w 3 - ",
"# > > - e y y y y y y y y y y y y 0 4 0 y y G.t y y y y y y y y y y y y y y y y y y y y y t y y y y y y 0 0 w r y y y e w 4 5 + ",
"O > 6 q e H.H.J.G.G.G.G.H.H.K.K.J.G.K.t y L.P.G.G.G.H.H.H.H.J.G.G.G.G.H.H.K.K.H.G.J.P.P.P.G.G.G.H.H.H.H.y 0 4 K.G.H.H.e w 5 : - ",
"+ - 6 0 t G.G.y I.L.K.U.G.G.I.I.I.P.G.t 0 w t 0 P.P.G.G.G.G.K.I.L.K.U.G.G.I.I.G.P.I.L.0 U.0 P.P.G.G.G.P.y 0 q K.y G.G.t e 5 > + ",
"o > 5 9 r I.K.P.P.t Y.P.I.I.I.I.I.L.H.y 4 4 P.e I.I.I.I.I.L.K.I.L.J.P.I.I.I.I.P.U.H.t q U.e I.I.I.I.I.I.r 0 0 J.P.I.I.t e 5 @ + ",
"@ : 4 4 4 I.K.G.L.y T.P.I.I.I.I.I.R.H.R.w 5 P.e I.I.I.I.I.L.J.K.G.E.G.I.I.I.I.P.y H.R.w P.e I.I.I.I.I.I.y r 0 W.P.I.I.t q 5 @ + ",
"+ ; 4 5 w I.K.P.t y T.G.I.I.I.I.I.U.I.y q 5 P.e I.I.I.I.I.L.J.K.I.E.I.I.I.I.I.P.y H.U.q P.e I.I.I.I.I.I.t y r Y.P.I.I.t e 5 2 + ",
"O @ > 6 6 I.K.e y y T.G.I.I.I.I.I.U.P.Q.q 4 P.e I.I.I.I.I.L.!.K.H.~.G.I.I.I.I.P.y H.t w P.e I.I.I.I.I.H.^.L.G.Y.P.I.I.t t 3 7 o ",
"O X @ 6 5 I.H.r e P.T.G.I.I.I.I.I.I.U.e q q P.e I.I.I.I.I.L.!.K.H.~.I.I.I.I.I.P.y H.t 0 P.e I.I.I.I.I.H./.y P.Y.P.I.I.t e 4 > O ",
"X   4 6 4 I.G.t y y T.P.I.I.I.I.I.I.e P.Q.q G.e I.I.I.I.I.L.(.K.H.~.I.I.I.I.I.P.y I.t w P.e I.I.I.I.I.I.t y r Y.P.I.I.t e q > X ",
"X O : > 4 I.I.L.y y T.P.I.I.I.I.I.I.y H.U.0 K.L.I.I.I.I.I.L.J.K.I.~.G.I.I.I.I.P.y H.t 0 G.e I.I.I.I.I.G.).t L.J.P.I.I.t 0 _.+ . ",
"X o 3 6 q I.G.y y y W.U.I.I.I.I.I.I.y I.U.Q.J.P.I.I.I.I.I.t K.H.G.E.I.I.I.I.I.P.y H.y 0 H.P.I.I.I.I.I.I.y Q.0 K.I.I.I.e 5 2 # . ",
"O o 2 6 r I.P.4 r e H.U.I.I.I.I.I.P.y y 0 Q.J.G.I.I.I.I.I.y K.K.K.T.G.I.I.I.I.I.e P.e 0 K.P.I.I.I.I.I.P.t 0 w K.I.I.I.e @ ; @ . ",
"o + > 6 e I.P.4 e 0 P.y I.I.I.I.I.P.r 0 0 r P.G.I.I.I.I.I.y H.K.K.H.P.I.I.I.I.I.U.e 4 4 K.U.I.I.I.I.I.P.P.4 4 K.I.I.I.0 5 6 6 $ ",
"X - O > e I.P.`.r r y e I.I.I.I.I.P.0 0 5 `.q y I.I.I.I.I.P.H.G.P.P.G.I.I.I.I.P.y 0 y U.K.e I.I.I.I.I.P.L.4 4 H.G.I.I.0 4 6 : o ",
"X # . w e H.G.r w r y H.H.H.H.G.G.G.P.U.r r y K.K.K.H.H.G.G.I.y r 0 H.H.H.G.G.G.P.L.e U.K.G.J.K.K.H.H.G.G.G.G.J.H.H.H.0 4 4 : + ",
". O - 4 0 y y q 6 4 r y y y y y y t y y /.r r y y y y y y y y 0 0 Q.y y y y y t G.y e 0 4 0 y y y y y y y y y y y y y 0 `.5 # # ",
". X - > q 4 4 4 q 4 4 4 4 4 4 4 q 0 w 4 y 0 q 4 4 4 4 4 4 4 4 4 4 4 4 4 4 4 q 0 r 0 0 q 4 4 4 4 4 4 4 4 4 4 4 4 4 4 4 0 6 : < O ",
"  = # + 5 7 7 7 7 5 4 4 5 : 5 5 4 q w q 4 4 5 6 3 7 7 7 7 7 7 5 6 6 6 5 4 4 4 0 0 0 w 4 6 6 4 3 7 7 7 7 7 7 5 4 4 5 : 0 @ 7 + X "
};
