/* XPM */
static char *result[] = {
/* columns rows colors chars-per-pixel */
"64 64 139 2 ",
"   c #1D1716",
".  c #1E1817",
"X  c #231D1C",
"o  c #201A19",
"O  c #1C1716",
"+  c #1F1918",
"@  c #211A1A",
"#  c #1D1817",
"$  c #211B1A",
"%  c #1E1918",
"&  c #1C1615",
"*  c #221B1A",
"=  c #1C1515",
"-  c #221C1C",
";  c #181212",
":  c #181211",
">  c #221B1B",
",  c #110D0C",
"<  c #1B1615",
"1  c #1A1615",
"2  c #15100F",
"3  c #161110",
"4  c #181312",
"5  c #181412",
"6  c #1A1514",
"7  c #201A1A",
"8  c #130E0D",
"9  c #0F0A09",
"0  c #171311",
"q  c #191413",
"w  c #191514",
"e  c #171211",
"r  c #231E1D",
"t  c #140F0E",
"y  c #100C0B",
"u  c #221C1B",
"i  c #1F1A19",
"p  c #130D0D",
"a  c #150F0F",
"s  c #191312",
"d  c #1F1817",
"f  c #241D1C",
"g  c #201918",
"h  c #140E0E",
"j  c #100A0A",
"k  c #16100F",
"l  c #171210",
"z  c #150F0D",
"x  c #120D0C",
"c  c #0F0B0B",
"v  c #0F0B0A",
"b  c #0F0808",
"n  c #100B08",
"m  c #0D0807",
"M  c #090505",
"N  c #080504",
"B  c #0A0605",
"V  c #0F0A0B",
"C  c #181015",
"Z  c #171014",
"A  c #171013",
"S  c #100A0C",
"D  c #1C1319",
"F  c #1B1319",
"G  c #1A1317",
"H  c #1A1316",
"J  c #110C0B",
"K  c #100B0A",
"L  c #140E0D",
"P  c #140D0D",
"I  c #0F0A0A",
"U  c #0F0B0D",
"Y  c #140E11",
"T  c #191217",
"R  c #171115",
"E  c #0C0709",
"W  c #080404",
"Q  c #120E0D",
"!  c #120C0C",
"~  c #110B0C",
"^  c #110C0F",
"/  c #150F13",
"(  c #151014",
")  c #0B0607",
"_  c #181213",
"`  c #100C0E",
"'  c #0F0C0D",
"]  c #0A0706",
"[  c #090604",
"{  c #171111",
"}  c #171110",
"|  c #161111",
" . c #171113",
".. c #161012",
"X. c #140E0F",
"o. c #130E0F",
"O. c #120E0F",
"+. c #0F0C0B",
"@. c #0F0C0A",
"#. c #191513",
"$. c #191412",
"%. c #1C1514",
"&. c #160F0F",
"*. c #221C1A",
"=. c #1C1616",
"-. c #181414",
";. c #150F0E",
":. c #201919",
">. c #150E0E",
",. c #150E0F",
"<. c #100C0A",
"1. c #1A1414",
"2. c #110C0C",
"3. c #0C0707",
"4. c #161211",
"5. c #1E1818",
"6. c #0E0A0A",
"7. c #0C0807",
"8. c #120D0D",
"9. c #0E0A08",
"0. c #100C0C",
"q. c #110B0B",
"w. c #0B0706",
"e. c #080605",
"r. c #0E0908",
"t. c #0A0504",
"y. c #080705",
"u. c #0B0705",
"i. c #130F0D",
"p. c #0C0806",
"a. c #0A0604",
"s. c #1A1413",
"d. c #1A1614",
"f. c #1C1715",
"g. c #1C1816",
"h. c #090504",
"j. c #0B0606",
"k. c #161010",
"l. c #191213",
/* pixels */
"  . X o O O O O O O O O O O O O O O O O O O O O O O O O O O O O O O O O O O O O O O O O O O O O O O O O O O O O O O O O o X .   ",
". + X @ # O O O O O O O O O O O O O O O O O O O O O O O O O O O O O O O O O O O O O O O O O O O O O O O O O O O O O O # @ X + . ",
"X X X X X + O O O O O O O O O O O O O O O O O O O O O O O O O O O O O O O O O O O O O O O O O O O O O O O O O O O O + X X X X X ",
"X X X X X $ + + % & O O O O O O O O O O O O O O O O O O O O O O O O O O O O O O O O O O O O O O O O O O O O & % + + $ X X X X X ",
"X X X X X X X X * = & O O O O O O O O O O O O O O O O O O O O O O O O O O O O O O O O O O O O O O O O O O & = * X X X X X X X X ",
"X - + + + + + ; : & O O O O O O O O O O O O O O O O O O O O O O O O O O O O O O O O O O O O O O O O O O O O & : ; + + + + + - X ",
"X > O O O O O , , O O O O O O O O O O O O O O O O O O O O O O O O O O O O O O O O O O O O O O O O O O O O O O , , O O O O O > X ",
"X > O < 1 2 , 2 3 4 4 4 4 4 4 4 4 4 4 4 4 4 4 4 5 O < 6 < O O O O O O < 6 < O 5 4 4 4 4 4 4 4 4 4 4 4 4 4 4 4 3 2 , 2 1 < O > X ",
"> 7 < 1 6 8 9 2 0 q q w 5 0 0 0 0 0 0 0 0 0 0 e 4 O 1 q 1 < O O O O < 1 q 1 O 4 e 0 0 0 0 0 0 0 0 0 0 5 w q q 0 2 9 8 6 1 < 7 > ",
"O < w w q 8 9 2 q X r r # q q q q q q q q q q 0 4 O 1 q q q < O O < q q q 1 O 4 0 q q q q q q q q q q # r r X q 2 9 8 q w w < O ",
"O < q q q t y 3 q X u i O q q q q q q q q q q 0 4 O 1 q q q < O O < q q q 1 O 4 0 q q q q q q q q q q O i u X q 3 y t q q q < O ",
"O < q q q 2 8 3 q X + q q q q q q q q q q q q 0 4 O 1 q q q < O O < q q q 1 O 4 0 q q q q q q q q q q q q + X q 3 8 2 q q q < O ",
"6 6 q q q 2 p 3 4 # & q q q q q q q q q q q q 0 4 O 1 q q q 6 6 6 6 q q q 1 O 4 0 q q q q q q q q q q q q & # 4 3 p 2 q q q 6 6 ",
"q q q q q a p 3 0 q q q q q q q q q q q q q q 0 4 O 1 q q q q q q q q q q 1 O 4 0 q q q q q q q q q q q q q q 0 3 p a q q q q q ",
"q q q q q a p 3 0 q q q q q q q q q q q q q q 0 4 O 1 q q q q q q q q q q 1 O 4 0 q q q q q q q q q q q q q q 0 3 p a q q q q q ",
"q q q q q a p 3 0 q q q q q q q q q q q q q q 0 4 O 1 q q q q q q q q q q 1 O 4 0 q q q q q q q q q q q q q q 0 3 p a q q q q q ",
"q q q q q a p 3 0 q q q q q q q q q q q q q q 0 4 O 1 q q q q q q q q q q 1 O 4 0 q q q q q q q q q q q q q q 0 3 p a q q q q q ",
"q q q q q a p 3 0 q q q q q q q q q q q q q q 0 4 O 1 q q q q q q q q q q 1 O 4 0 q q q q q q q q q q q q q q 0 3 p a q q q q q ",
"q q q q q a p 3 0 q q q q q q q q q q q q q q 0 4 O 1 q q q q q q q q q q 1 O 4 0 q q q q q q q q q q q q q q 0 3 p a q q q q q ",
"q q q q q a p 3 0 q q q q q q q q q q q q q q 0 4 O 1 q q q q q q q q q q 1 O 4 0 q q q q q q q q q q q q q q 0 3 p a q q q q q ",
"q q q q q a p 3 0 q q q q q q q q q q q q q q 0 4 O 1 q q q q q q q q q q 1 O 4 0 q q q q q q q q q q q q q q 0 3 p a q q q q q ",
"q q q q q a p 3 0 q q q q q q q q q q q q q q 0 4 O 1 q q q q q q q q q q 1 O 4 0 q q q q q q q q q q q q q q 0 3 p a q q q q q ",
"q q q q q a p 3 0 q q q q q q q q q q q q q q 0 4 O 1 q q q q q q q q q q 1 O 4 0 q q q q q q q q q q q q q q 0 3 p a q q q q q ",
"q q q q q a p 3 s * d q q q q q q q q q q q q 0 4 O 1 q q q q q q q q q q 1 O 4 0 q q q q q q q q q q q q d * s 3 p a q q q q q ",
"q q q q q a p 3 s f g q q q q q q q q q q q q 0 4 O 1 q q q q q q q q q q 1 O 4 0 q q q q q q q q q q q q g f s 3 p a q q q q q ",
"q q q q q a p 3 s f g q q q q q q q q q q q q 0 4 O 1 q q q q q q q q q q 1 O 4 0 q q q q q q q q q q q q g f s 3 p a q q q q q ",
"q q q q q a p 3 q f g q q q q q q q q q q q q 0 4 O 1 q q q q q q q q q q 1 O 4 0 q q q q q q q q q q q q g f q 3 p a q q q q q ",
"q q q q q a p 3 q X + q q q q q q q q q q q q 0 4 O 1 q q q q q q q q q q 1 O 4 0 q q q q q q q q q q q q + X q 3 p a q q q q q ",
"q q q q q h j k q X u i O q q q q q q q q # i 5 l z x c v v v v v v v v c x z l 5 i # q q q q q q q q O i u X q k j h q q q q q ",
"q q q q q p b 2 q X r r # q q q q q q q q i r w k n m M N N N N N N N N M m n k w r i q q q q q q q q # r r X q 2 b p q q q q q ",
"q q q q q 8 9 2 0 q q w 5 0 0 0 0 0 0 0 0 5 w 0 t B V C Z A A A A A A Z C V B t 0 w 5 0 0 0 0 0 0 0 0 5 w q q 0 2 9 8 q q q q q ",
"q q q q q 8 9 2 e 3 3 3 3 3 3 3 3 3 3 3 3 3 e e t N S D F G H H H H G F D S N t e e 3 3 3 3 3 3 3 3 3 3 3 3 3 e 2 9 8 q q q q q ",
"q q q q q 5 5 J K t L P P P P P P P P P P P p j I U Y D T R E W W E R T D Y U I j p P P P P P P P P P P P L t K J 5 5 q q q q q ",
"q q q q q q 5 Q , t t h h h h h h h h h h h h ! ~ ^ / T R ( ) W W ) ( R T / ^ ~ ! h h h h h h h h h h h h t t , Q 5 q q q q q q ",
"q q q q q q q q q q q q q q q q q q q q q q q q _ Z / ^ ` ' ] [ [ ] ' ` ^ / Z _ q q q q q q q q q q q q q q q q q q q q q q q q ",
"q q q q q q q { } } } } } } } } } } } } } } } } |  ...X.o.O.+.@.@.+.O.o.X... .| } } } } } } } } } } } } } } } } { q q q q q q q ",
"q q q q q q q h p p p p p p p p p p p p p p p p h #.#.$.$.$.q q q q $.$.$.#.#.h p p p p p p p p p p p p p p p p h q q q q q q q ",
"q q q e a a k %.& 4 4 4 ; ; 4 4 4 4 4 ; ; ; 4 4 : a k &.: q q q q q q : &.k a : 4 4 ; ; ; 4 4 4 4 4 ; ; 4 4 4 & %.k a a e q q q ",
"q q q } p p p g *.O O O & = O O O O O =.= & O O 6 p p p | -.q q q q -.| p p p 6 O O & = =.O O O O O = & O O O *.g p p p } q q q ",
"q e m ;.:.:.:., v a a >.>.>.a a a a >.>.>.,.,.9 <.6 1.1.2.3.4.q q 4.3.2.1.1.6 <.9 ,.,.>.>.>.a a a a >.>.>.a a v , :.:.:.;.m e q ",
"q | m h . . 5.6.7.8.p p p p p p p p p p p P P m 9.4 ; ; 0.3.4.q q 4.3.0.; ; 4 9.m P P p p p p p p p p p p p 8.7.6.5.. . h m | q ",
"q q q Q N N N q.p p p p p p p p p p p p p p p p q.N N N Q q q q q q q Q N N N q.p p p p p p p p p p p p p p p p q.N N N Q q q q ",
"q q q t m w.N q.p p p p p p p p p p p p p p p p q.N w.m t q q q q q q t m w.N q.p p p p p p p p p p p p p p p p q.N w.m t q q q ",
"q q q } L m N q.p p p p p p p p p p p p p p p p q.N m L } q q q q q q } L m N q.p p p p p p p p p p p p p p p p q.N m L } q q q ",
"q q q t m ] e.7.r.8 p p p p p p p p p p p p 8 9.7.N w.m t q q q q q q t m w.N 7.9.8 p p p p p p p p p p p p 8 r.7.e.] m t q q q ",
"q q q Q t.N y.N u.8 8 p p p p p p p p p p 8 i.p.a.N N N Q q q q q q q Q N N N a.p.i.8 p p p p p p p p p p 8 8 u.N y.N t.Q q q q ",
"q e m t . % 5.#.5 6 6 6 s.s.6 d.d.d.d.d.6 6 d.5 4 4 4 4 J m 3 q q 3 m J 4 4 4 4 5 d.6 6 d.d.d.d.d.6 s.s.6 6 6 5 #.5.% . t m e q ",
"q 3 t.h X X X . f.f.f.f.& = O g.g.g.g.O O O O O O O O O J t.3 q q 3 t.J O O O O O O O O O g.g.g.g.O = & f.f.f.f.. X X X h t.3 q ",
"q 4 8 I h.h.h.[ [ [ [ [ [ h.N N N N N N N N N N N N N N I 8 4 q q 4 8 I N N N N N N N N N N N N N N h.[ [ [ [ [ [ h.h.h.I 8 4 q ",
"5 0 t y j.j.j.j.j.j.j.j.j.j.j.j.j.j.j.j.j.j.j.j.j.j.j.j.y t 0 5 5 0 t y j.j.j.j.j.j.j.j.j.j.j.j.j.j.j.j.j.j.j.j.j.j.j.j.y t 0 5 ",
"e 0 q } p p p p p p p p p p p p p p p p p p p p p p p p } q 0 e e 0 q } p p p p p p p p p p p p p p p p p p p p p p p p } q 0 e ",
"e 0 q e a h p h a 2 a a a a a a a a a a a a 2 a a k.k.k e q 0 e e 0 q e k k.k.a a 2 a a a a a a a a a a a a 2 a h p h a e q 0 e ",
"e 0 q s l.a p 3 0 q q q q q q q q q q q q q q 0 4 O 1 q q q 0 e e 0 q q q 1 O 4 0 q q q q q q q q q q q q q q 0 3 p a l.s q 0 e ",
"e e 4 5 q a p 3 0 q q q q q q q q q q q q q q 0 4 O 1 q 5 4 e e e e 4 5 q 1 O 4 0 q q q q q q q q q q q q q q 0 3 p a q 5 4 e e ",
"e e e 4 q a p 3 0 5 q q q q q q q q q q q q q 0 4 O 1 q 4 e e e e e e 4 q 1 O 4 0 q q q q q q q q q q q q q 5 0 3 p a q 4 e e e ",
"e e e e 0 8 y 3 e 0 0 0 0 0 0 0 0 0 0 0 0 0 0 e 4 O 6 0 e e e e e e e e 0 6 O 4 e 0 0 0 0 0 0 0 0 0 0 0 0 0 0 e 3 y 8 0 e e e e ",
"e e e e e 8 J 3 4 4 4 4 4 4 4 4 4 4 4 4 4 4 4 4 5 1 q e e e e e e e e e e q 1 5 4 4 4 4 4 4 4 4 4 4 4 4 4 4 4 4 3 J 8 e e e e e ",
"e e e e e e e 1 O O O O O O O O O O O O O O O O 1 e e e e e e e e e e e e e e 1 O O O O O O O O O O O O O O O O 1 e e e e e e e ",
"e e e e e e e q w w w w w w w w w w w w w w w w q e e e e e e e e e e e e e e q w w w w w w w w w w w w w w w w q e e e e e e e ",
"e e e e e e e e e e e e e e e e e e e e e e e e e e e e e e e e e e e e e e e e e e e e e e e e e e e e e e e e e e e e e e e e ",
"e e e e e e e e e e e e e e e e e e e e e e e e e e e e e e e e e e e e e e e e e e e e e e e e e e e e e e e e e e e e e e e e ",
"e e e e e e e e e e e e e e e e e e e e e e e e e e e e e e e e e e e e e e e e e e e e e e e e e e e e e e e e e e e e e e e e ",
"e e e e e e e e e e e e e e e e e e e e e e e e e e e e e e e e e e e e e e e e e e e e e e e e e e e e e e e e e e e e e e e e ",
"l l l l l l l l l l l l l l l l l l l l l l l l l l l l l l l l l l l l l l l l l l l l l l l l l l l l l l l l l l l l l l l l "
};
