/* XPM */
static char *result[] = {
/* columns rows colors chars-per-pixel */
"64 64 152 2 ",
"   c #0A0303",
".  c #090404",
"X  c #080504",
"o  c #090504",
"O  c #090405",
"+  c #080505",
"@  c #0A0504",
"#  c #080604",
"$  c #090604",
"%  c #080605",
"&  c #080705",
"*  c #0A0604",
"=  c #0A0605",
"-  c #0B0606",
";  c #0B0706",
":  c #0B0707",
">  c #0C0705",
",  c #0C0606",
"<  c #0C0706",
"1  c #0C0707",
"2  c #0D0707",
"3  c #0C0807",
"4  c #0D0807",
"5  c #0D0907",
"6  c #0E0807",
"7  c #0C0708",
"8  c #0A0908",
"9  c #0C0808",
"0  c #0D0908",
"q  c #0D0909",
"w  c #0F0808",
"e  c #0E0908",
"r  c #0F0908",
"t  c #0F0A08",
"y  c #0E0A09",
"u  c #0F0A09",
"i  c #0E0A0A",
"p  c #0F0A0A",
"a  c #0F0B0D",
"s  c #0E0C0E",
"d  c #0F0C0E",
"f  c #100A0A",
"g  c #100B0A",
"h  c #100C0B",
"j  c #110C0B",
"k  c #120D0B",
"l  c #100B0E",
"z  c #110C0C",
"x  c #110D0C",
"c  c #120C0C",
"v  c #120D0C",
"b  c #120D0D",
"n  c #130D0D",
"m  c #120E0D",
"M  c #130E0D",
"N  c #100C0E",
"B  c #110C0E",
"V  c #110D0E",
"C  c #120D0E",
"Z  c #120D0F",
"A  c #130E0E",
"S  c #140D0C",
"D  c #140D0D",
"F  c #140E0D",
"G  c #140F0D",
"H  c #140D0E",
"J  c #140E0E",
"K  c #150E0E",
"L  c #140F0E",
"P  c #150F0E",
"I  c #150F0F",
"U  c #160F0F",
"Y  c #15100F",
"T  c #16100F",
"R  c #130D11",
"E  c #130E10",
"W  c #140E10",
"Q  c #150F10",
"!  c #140F11",
"~  c #160F14",
"^  c #161010",
"/  c #171010",
"(  c #161110",
")  c #171110",
"_  c #161011",
"`  c #161111",
"'  c #171111",
"]  c #171210",
"[  c #171211",
"{  c #171311",
"}  c #161012",
"|  c #161013",
" . c #151014",
".. c #171014",
"X. c #161114",
"o. c #171015",
"O. c #171115",
"+. c #171116",
"@. c #181211",
"#. c #181212",
"$. c #181312",
"%. c #191312",
"&. c #191213",
"*. c #181412",
"=. c #191412",
"-. c #191413",
";. c #191513",
":. c #1A1413",
">. c #191316",
",. c #181217",
"<. c #191217",
"1. c #1A1317",
"2. c #191514",
"3. c #1A1414",
"4. c #1A1514",
"5. c #1B1514",
"6. c #1A1614",
"7. c #1A1615",
"8. c #1B1615",
"9. c #1C1615",
"0. c #1D1615",
"q. c #1C1715",
"w. c #1C1616",
"e. c #1C1716",
"r. c #1D1716",
"t. c #1E1717",
"y. c #1C1816",
"u. c #1D1817",
"i. c #1E1817",
"p. c #1A1218",
"a. c #1A1318",
"s. c #1B1319",
"d. c #1C1319",
"f. c #1E1918",
"g. c #1F1918",
"h. c #1F1A19",
"j. c #201918",
"k. c #201919",
"l. c #201A19",
"z. c #211A19",
"x. c #211A1A",
"c. c #211B1A",
"v. c #221B1A",
"b. c #221B1B",
"n. c #221C1A",
"m. c #221C1B",
"M. c #221C1C",
"N. c #231D1C",
"B. c #231D1D",
"V. c #231E1C",
"C. c #231E1D",
"Z. c None",
/* pixels */
"N.b.e.e.e.e.e.e.e.e.e.e.*.( [ [ [ [ [ Y n Z.Z.Z.Z.Z.Z.Z.Z.Z.Z.Z.Z.Z.Z.Z.Z.Z.Z.Z.Z.Z.Z.n Y [ [ [ [ [ ( *.e.e.e.e.e.e.e.e.e.e.b.N.",
"N.m.u.r.e.e.e.e.e.e.e.e.-.[ [ [ [ [ [ Y n Z.Z.Z.Z.Z.Z.Z.Z.Z.Z.Z.Z.Z.Z.Z.Z.Z.Z.Z.Z.Z.Z.n Y [ [ [ [ [ [ -.e.e.e.e.e.e.e.e.r.u.m.N.",
"N.N.N.l.e.e.e.e.e.e.e.e.-.[ [ [ [ [ [ Y n Z.Z.Z.Z.Z.Z.Z.Z.Z.Z.Z.Z.Z.Z.Z.Z.Z.Z.Z.Z.Z.Z.n Y [ [ [ [ [ [ -.e.e.e.e.e.e.e.e.l.N.N.N.",
"N.N.N.c.g.g.g.e.e.e.e.e.-.[ [ [ [ [ [ Y n Z.Z.Z.Z.Z.Z.Z.Z.Z.Z.Z.Z.Z.Z.Z.Z.Z.Z.Z.Z.Z.Z.n Y [ [ [ [ [ [ -.e.e.e.e.e.g.g.g.c.N.N.N.",
"N.N.N.N.N.N.N.u.e.e.e.e.-.[ [ [ [ [ [ Y n Z.Z.Z.Z.Z.Z.Z.Z.Z.Z.Z.Z.Z.Z.Z.Z.Z.Z.Z.Z.Z.Z.n Y [ [ [ [ [ [ -.e.e.e.e.u.N.N.N.N.N.N.N.",
"N.M.g.g.g.4.) 7.e.e.e.e.7.2.{ [ [ [ [ Y n Z.Z.Z.Z.Z.Z.Z.Z.Z.Z.Z.Z.Z.Z.Z.Z.Z.Z.Z.Z.Z.Z.n Y [ [ [ [ { 2.7.e.e.e.e.7.) 4.g.g.g.M.N.",
"N.b.e.9.q.P t -.e.e.e.e.e.e.*.{ [ [ [ Y n Z.Z.Z.Z.Z.Z.Z.Z.Z.Z.Z.Z.Z.Z.Z.Z.Z.Z.Z.Z.Z.Z.n Y [ [ [ { *.e.e.e.e.e.e.-.t P q.9.e.b.N.",
"u.r.4.) k G T { $.$.$.$.$.$.2.4.{ [ [ Y n Z.Z.Z.Z.Z.Z.Z.Z.Z.Z.Z.Z.Z.Z.Z.Z.Z.Z.Z.Z.Z.Z.n Y [ [ { 4.2.$.$.$.$.$.$.{ T G k ) 4.r.u.",
"e.8.-.Y t G ] =.-.2.*.{ { [ 7.e.{ [ [ Y n Z.Z.Z.Z.Z.Z.Z.Z.Z.Z.Z.Z.Z.Z.Z.Z.Z.Z.Z.Z.Z.Z.n Y [ [ { e.7.[ { { *.2.-.=.] G t Y -.8.e.",
"e.8.-.Y u L [ x.N.C.h.-.$.[ 7.e.[ [ [ Y n Z.Z.Z.Z.Z.Z.Z.Z.Z.Z.Z.Z.Z.Z.Z.Z.Z.Z.Z.Z.Z.Z.n Y [ [ [ e.7.[ $.-.h.C.N.x.[ L u Y -.8.e.",
"7.4.-.( h L [ x.M.h.u.-.$.[ 7.e.[ [ [ Y n Z.Z.Z.Z.Z.Z.Z.Z.Z.Z.Z.Z.Z.Z.Z.Z.Z.Z.Z.Z.Z.Z.n Y [ [ [ e.7.[ $.-.u.h.M.x.[ L h ( -.4.7.",
"-.-.-.[ M ( [ x.c.-.-.-.$.[ 7.e.[ [ [ Y n Z.Z.Z.Z.Z.Z.Z.Z.Z.Z.Z.Z.Z.Z.Z.Z.Z.Z.Z.Z.Z.Z.n Y [ [ [ e.7.[ $.-.-.-.c.x.[ ( M [ -.-.-.",
"-.-.-.) M T [ e.w.-.-.-.$.[ 7.e.[ [ [ Y n Z.Z.Z.Z.Z.Z.Z.Z.Z.Z.Z.Z.Z.Z.Z.Z.Z.Z.Z.Z.Z.Z.n Y [ [ [ e.7.[ $.-.-.-.w.e.[ T M ) -.-.-.",
"-.-.-.) n Y [ *.-.-.-.-.$.[ 7.e.[ [ [ Y n Z.Z.Z.Z.Z.Z.Z.Z.Z.Z.Z.Z.Z.Z.Z.Z.Z.Z.Z.Z.Z.Z.n Y [ [ [ e.7.[ $.-.-.-.-.*.[ Y n ) -.-.-.",
"-.-.-.) n Y [ *.-.-.-.-.$.[ 7.e.[ [ [ Y n Z.Z.Z.Z.Z.Z.Z.Z.Z.Z.Z.Z.Z.Z.Z.Z.Z.Z.Z.Z.Z.Z.n Y [ [ [ e.7.[ $.-.-.-.-.*.[ Y n ) -.-.-.",
"-.-.-.) n Y [ *.-.-.-.-.$.[ 7.e.[ [ [ Y n Z.Z.Z.Z.Z.Z.Z.Z.Z.Z.Z.Z.Z.Z.Z.Z.Z.Z.Z.Z.Z.Z.n Y [ [ [ e.7.[ $.-.-.-.-.*.[ Y n ) -.-.-.",
"-.-.-.) n Y [ *.-.-.-.-.$.[ 7.e.[ [ [ Y n Z.Z.Z.Z.Z.Z.Z.Z.Z.Z.Z.Z.Z.Z.Z.Z.Z.Z.Z.Z.Z.Z.n Y [ [ [ e.7.[ $.-.-.-.-.*.[ Y n ) -.-.-.",
"-.-.-.) n Y [ *.-.-.-.-.$.[ 7.e.[ [ [ Y n Z.Z.Z.Z.Z.Z.Z.Z.Z.Z.Z.Z.Z.Z.Z.Z.Z.Z.Z.Z.Z.Z.n Y [ [ [ e.7.[ $.-.-.-.-.*.[ Y n ) -.-.-.",
"-.-.-.) n Y [ *.-.-.-.-.$.[ 7.e.[ [ [ Y n Z.Z.Z.Z.Z.Z.Z.Z.Z.Z.Z.Z.Z.Z.Z.Z.Z.Z.Z.Z.Z.Z.n Y [ [ [ e.7.[ $.-.-.-.-.*.[ Y n ) -.-.-.",
"-.-.-.) n Y [ *.-.-.-.-.$.[ 7.e.[ [ [ Y n Z.Z.Z.Z.Z.Z.Z.Z.Z.Z.Z.Z.Z.Z.Z.Z.Z.Z.Z.Z.Z.Z.n Y [ [ [ e.7.[ $.-.-.-.-.*.[ Y n ) -.-.-.",
"-.-.-.) n Y [ *.-.-.-.-.$.[ 7.e.[ [ [ Y n Z.Z.Z.Z.Z.Z.Z.Z.Z.Z.Z.Z.Z.Z.Z.Z.Z.Z.Z.Z.Z.Z.n Y [ [ [ e.7.[ $.-.-.-.-.*.[ Y n ) -.-.-.",
"-.-.-.) n Y [ *.-.-.-.-.$.[ 7.e.[ [ [ Y n Z.Z.Z.Z.Z.Z.Z.Z.Z.Z.Z.Z.Z.Z.Z.Z.Z.Z.Z.Z.Z.Z.n Y [ [ [ e.7.[ $.-.-.-.-.*.[ Y n ) -.-.-.",
"-.-.-.) n Y [ *.-.-.-.-.$.[ 7.e.[ [ [ Y n Z.Z.Z.Z.Z.Z.Z.Z.Z.Z.Z.Z.Z.Z.Z.Z.Z.Z.Z.Z.Z.Z.n Y [ [ [ e.7.[ $.-.-.-.-.*.[ Y n ) -.-.-.",
"-.-.-.) n Y ) j.k.-.-.-.$.[ 7.e.[ [ [ Y n Z.Z.Z.Z.Z.Z.Z.Z.Z.Z.Z.Z.Z.Z.Z.Z.Z.Z.Z.Z.Z.Z.n Y [ [ [ e.7.[ $.-.-.-.k.j.) Y n ) -.-.-.",
"-.-.-.) n Y ) z.n.-.-.-.$.[ 7.e.[ [ [ Y n Z.Z.Z.Z.Z.Z.Z.Z.Z.Z.Z.Z.Z.Z.Z.Z.Z.Z.Z.Z.Z.Z.n Y [ [ [ e.7.[ $.-.-.-.n.z.) Y n ) -.-.-.",
"-.-.-.) n Y ) z.n.-.-.-.$.[ 7.e.[ [ [ Y n Z.Z.Z.Z.Z.Z.Z.Z.Z.Z.Z.Z.Z.Z.Z.Z.Z.Z.Z.Z.Z.Z.n Y [ [ [ e.7.[ $.-.-.-.n.z.) Y n ) -.-.-.",
"-.-.-.) n Y [ x.v.-.-.-.$.[ 7.e.[ [ ' I n Z.Z.Z.Z.Z.Z.Z.Z.Z.Z.Z.Z.Z.Z.Z.Z.Z.Z.Z.Z.Z.Z.n I ' [ [ e.7.[ $.-.-.-.v.x.[ Y n ) -.-.-.",
"-.-.-.) n T [ x.c.-.-.-.$.{ 7.8.{ ' / U n Z.Z.Z.Z.Z.Z.Z.Z.Z.Z.Z.Z.Z.Z.Z.Z.Z.Z.Z.Z.Z.Z.n U / ' { 8.7.{ $.-.-.-.c.x.[ T n ) -.-.-.",
"-.-.-.T f L [ x.M.h.h.h.4.{ 7.8.{ Y i q 9 Z.Z.Z.Z.Z.Z.Z.Z.Z.Z.Z.Z.Z.Z.Z.Z.Z.Z.Z.Z.Z.Z.9 q i Y { 8.7.{ 4.h.h.h.M.x.[ L f T -.-.-.",
"-.-.-.I w J [ x.N.C.C.C.e.[ 7.8.{ L + % + # + Z.Z.Z.Z.Z.Z.Z.Z.Z.Z.Z.Z.Z.Z.Z.Z.Z.Z.+ # + % + L { 8.7.[ e.C.C.C.N.x.[ J w I -.-.-.",
"*.-.-.I u L [ =.-.2.2.2.$.[ $.$.3 0 o.....} | & Z.Z.Z.Z.Z.Z.Z.Z.Z.Z.Z.Z.Z.Z.Z.Z.& | } ....o.0 3 $.$.[ $.2.2.2.-.=.[ L u I -.-.*.",
"*.-.-.Y u L [ ( ( [ [ [ [ [ ( ( X 7 d.s.1.>.>.: Z.Z.Z.Z.Z.Z.Z.Z.Z.Z.Z.Z.Z.Z.Z.Z.: >.>.1.s.d.7 X ( ( [ [ [ [ [ ( ( [ L u Y -.-.*.",
"*.-.-.-.*.m u m F n n n n n D D a Z d.p.+.a.d.,.! @ Z.Z.Z.Z.Z.Z.Z.Z.Z.Z.Z.Z.@ ! ,.d.a.+.p.d.Z a D D n n n n n F m u m *.-.-.-.*.",
"*.-.-.-.*.L j L L J J J J J J J B R <.O. .X.o.O.! @ Z.Z.Z.Z.Z.Z.Z.Z.Z.Z.Z.Z.@ ! O.o.X. .O.<.R B J J J J J J J L L j L *.-.-.-.*.",
"-.-.-.-.-.-.-.-.-.-.*.[ [ [ [ ` ..~ l d s 8 & E W O Z.Z.Z.Z.Z.Z.Z.Z.Z.Z.Z.Z.O W E & 8 s d l ~ ..` [ [ [ [ *.-.-.-.-.-.-.-.-.-.-.",
"-.-.-.-.-.[ ) ) ) ) ^ Y Y Y I I | | C V N Z.Z.& & Z.Z.Z.Z.Z.Z.Z.Z.Z.Z.Z.Z.Z.Z.& & Z.Z.N V C | | I I Y Y Y ^ ) ) ) ) [ -.-.-.-.-.",
"-.-.-.-.-.T n n n n n n n n H H _ ` ] T n Z.Z.Z.Z.Z.Z.Z.Z.Z.Z.Z.Z.Z.Z.Z.Z.Z.Z.Z.Z.Z.Z.n T ] ` _ H H n n n n n n n n T -.-.-.-.-.",
"-.*.I I T :.r.%.$.$.$.$.$.$.#.#.J I P J n Z.Z.Z.Z.Z.Z.Z.Z.Z.Z.Z.Z.Z.Z.Z.Z.Z.Z.Z.Z.Z.Z.n J P I J #.#.$.$.$.$.$.$.%.r.:.T I I *.-.",
"-.$.n n n 0.V.u.e.e.e.e.e.e.e.e.n n n n n Z.Z.Z.Z.Z.Z.Z.Z.Z.Z.Z.Z.Z.Z.Z.Z.Z.Z.Z.Z.Z.Z.n n n n n e.e.e.e.e.e.e.e.u.V.0.n n n $.-.",
"4 h k.k.k.Y y A I K K K g 5 5 5 4.3.3.J - Z.Z.Z.Z.Z.Z.Z.Z.Z.Z.Z.Z.Z.Z.Z.Z.Z.Z.Z.Z.Z.Z.- J 3.3.4.5 5 5 g K K K I A y Y k.k.k.h 4 ",
"1 g i.i.t.b ; z n n n n e > * * $.$.#.b - Z.Z.Z.Z.Z.Z.Z.Z.Z.Z.Z.Z.Z.Z.Z.Z.Z.Z.Z.Z.Z.Z.- b #.$.$.* * > e n n n n z ; b t.i.i.g 1 ",
"-.( X X X p n n n n n n n n ; X X X X 4 n Z.Z.Z.Z.Z.Z.Z.Z.Z.Z.Z.Z.Z.Z.Z.Z.Z.Z.Z.Z.Z.Z.n 4 X X X X ; n n n n n n n n p X X X ( -.",
"-.[ 4 ; X p n n n n n n n n ; X X = 4 p n Z.Z.Z.Z.Z.Z.Z.Z.Z.Z.Z.Z.Z.Z.Z.Z.Z.Z.Z.Z.Z.Z.n p 4 = X X ; n n n n n n n n p X ; 4 [ -.",
"-.@.S u X p n n n n n n n n ; o X ; F S n Z.Z.Z.Z.Z.Z.Z.Z.Z.Z.Z.Z.Z.Z.Z.Z.Z.Z.Z.Z.Z.Z.n S F ; X o ; n n n n n n n n p X u S @.-.",
"-.) 6 < X , 2 c n n n n g 4 = X X = 4 4 4 Z.Z.Z.Z.Z.Z.Z.Z.Z.Z.Z.Z.Z.Z.Z.Z.Z.Z.Z.Z.Z.Z.4 4 4 = X X = 4 g n n n n c 2 , X < 6 ) -.",
"-.( @ o X .   j M n n n 4 * X X X X X $ * Z.Z.Z.Z.Z.Z.Z.Z.Z.Z.Z.Z.Z.Z.Z.Z.Z.Z.Z.Z.Z.Z.* $ X X X X X * 4 n n n M j   . X o @ ( -.",
"4 g i.i.f.i.t.5.4.4.4.6.;.$.$.$.$.$.$.v @ Z.Z.Z.Z.Z.Z.Z.Z.Z.Z.Z.Z.Z.Z.Z.Z.Z.Z.Z.Z.Z.Z.@ v $.$.$.$.$.$.;.6.4.4.4.5.t.i.f.i.i.g 4 ",
"@ r N.N.N.B.B.i.q.q.q.y.e.e.e.e.e.e.e.L @ Z.Z.Z.Z.Z.Z.Z.Z.Z.Z.Z.Z.Z.Z.Z.Z.Z.Z.Z.Z.Z.Z.@ L e.e.e.e.e.e.e.y.q.q.q.i.B.B.N.N.N.r @ ",
"M x o o o o o $ $ $ X X X X X X X X X 0 M Z.Z.Z.Z.Z.Z.Z.Z.Z.Z.Z.Z.Z.Z.Z.Z.Z.Z.Z.Z.Z.Z.M 0 X X X X X X X X X $ $ $ o o o o o x M ",
"L m - - - - - - - - - - - - - - - ; 3 i M Z.Z.Z.Z.Z.Z.Z.Z.Z.Z.Z.Z.Z.Z.Z.Z.Z.Z.Z.Z.Z.Z.M i 3 ; - - - - - - - - - - - - - - - m L ",
"*.$.n n n n n n n n n n n n n n n J [ Q n Z.Z.Z.Z.Z.Z.Z.Z.Z.Z.Z.Z.Z.Z.Z.Z.Z.Z.Z.Z.Z.Z.n Q [ J n n n n n n n n n n n n n n n $.*.",
"*.$.I K n J I I I I I I I P ^ ^ ^ ) [ Q n Z.Z.Z.Z.Z.Z.Z.Z.Z.Z.Z.Z.Z.Z.Z.Z.Z.Z.Z.Z.Z.Z.n Q [ ) ^ ^ ^ P I I I I I I I J n K I $.*.",
"-.-.&./ n Y { *.-.-.-.-.$.[ 7.e.e.4.[ Y n Z.Z.Z.Z.Z.Z.Z.Z.Z.Z.Z.Z.Z.Z.Z.Z.Z.Z.Z.Z.Z.Z.n Y [ 4.e.e.7.[ $.-.-.-.-.*.{ Y n / &.-.-.",
"$.$.-.) n Y { *.-.-.-.-.$.[ 7.8.-.*.[ Y n Z.Z.Z.Z.Z.Z.Z.Z.Z.Z.Z.Z.Z.Z.Z.Z.Z.Z.Z.Z.Z.Z.n Y [ *.-.8.7.[ $.-.-.-.-.*.{ Y n ) -.$.$.",
"[ { -.) n Y { *.-.-.-.-.$.[ 7.8.{ [ [ Y n Z.Z.Z.Z.Z.Z.Z.Z.Z.Z.Z.Z.Z.Z.Z.Z.Z.Z.Z.Z.Z.Z.n Y [ [ { 8.7.[ $.-.-.-.-.*.{ Y n ) -.{ [ ",
"[ [ { Y h L [ { { { { { [ [ 7.e.[ [ [ Y n Z.Z.Z.Z.Z.Z.Z.Z.Z.Z.Z.Z.Z.Z.Z.Z.Z.Z.Z.Z.Z.Z.n Y [ [ [ e.7.[ [ { { { { { [ L h Y { [ [ ",
"[ [ [ Y j Y $.$.$.$.$.$.$.$.4.7.[ [ [ Y n Z.Z.Z.Z.Z.Z.Z.Z.Z.Z.Z.Z.Z.Z.Z.Z.Z.Z.Z.Z.Z.Z.n Y [ [ [ 7.4.$.$.$.$.$.$.$.$.Y j Y [ [ [ ",
"[ [ [ [ [ 2.e.e.e.e.e.e.e.e.$.[ [ [ [ Y n Z.Z.Z.Z.Z.Z.Z.Z.Z.Z.Z.Z.Z.Z.Z.Z.Z.Z.Z.Z.Z.Z.n Y [ [ [ [ $.e.e.e.e.e.e.e.e.2.[ [ [ [ [ ",
"[ [ [ [ [ *.2.2.2.2.2.2.2.2.{ [ [ [ [ Y n Z.Z.Z.Z.Z.Z.Z.Z.Z.Z.Z.Z.Z.Z.Z.Z.Z.Z.Z.Z.Z.Z.n Y [ [ [ [ { 2.2.2.2.2.2.2.2.*.[ [ [ [ [ ",
"[ [ [ [ [ [ [ [ [ [ [ [ [ [ [ [ [ [ [ Y n Z.Z.Z.Z.Z.Z.Z.Z.Z.Z.Z.Z.Z.Z.Z.Z.Z.Z.Z.Z.Z.Z.n Y [ [ [ [ [ [ [ [ [ [ [ [ [ [ [ [ [ [ [ ",
"[ [ [ [ [ [ [ [ [ [ [ [ [ [ [ [ [ [ [ Y n Z.Z.Z.Z.Z.Z.Z.Z.Z.Z.Z.Z.Z.Z.Z.Z.Z.Z.Z.Z.Z.Z.n Y [ [ [ [ [ [ [ [ [ [ [ [ [ [ [ [ [ [ [ ",
"[ [ [ [ [ [ [ [ [ [ [ [ [ [ [ [ [ [ [ Y n Z.Z.Z.Z.Z.Z.Z.Z.Z.Z.Z.Z.Z.Z.Z.Z.Z.Z.Z.Z.Z.Z.n Y [ [ [ [ [ [ [ [ [ [ [ [ [ [ [ [ [ [ [ ",
"[ [ [ [ [ [ [ [ [ [ [ [ [ [ [ [ [ [ [ Y n Z.Z.Z.Z.Z.Z.Z.Z.Z.Z.Z.Z.Z.Z.Z.Z.Z.Z.Z.Z.Z.Z.n Y [ [ [ [ [ [ [ [ [ [ [ [ [ [ [ [ [ [ [ ",
"] ] ] ] ] ] ] ] ] ] ] ] ] ] ] ] ] ] [ Y n Z.Z.Z.Z.Z.Z.Z.Z.Z.Z.Z.Z.Z.Z.Z.Z.Z.Z.Z.Z.Z.Z.n Y [ ] ] ] ] ] ] ] ] ] ] ] ] ] ] ] ] ] ] "
};
