/* XPM */
static char *result[] = {
/* columns rows colors chars-per-pixel */
"64 64 149 2 ",
"   c #080404",
".  c #080504",
"X  c #090504",
"o  c #080505",
"O  c #0A0504",
"+  c #090604",
"@  c #080605",
"#  c #080705",
"$  c #0A0604",
"%  c #0A0605",
"&  c #0B0705",
"*  c #0B0606",
"=  c #0A0706",
"-  c #0B0706",
";  c #0B0707",
":  c #0C0706",
">  c #0C0707",
",  c #0C0807",
"<  c #0D0807",
"1  c #0D0907",
"2  c #0C0709",
"3  c #0D0908",
"4  c #0E0808",
"5  c #0F0808",
"6  c #0E0908",
"7  c #0F0908",
"8  c #0E0A08",
"9  c #0F0A09",
"0  c #0E090A",
"q  c #0E0A0A",
"w  c #0F0A0A",
"e  c #0F0B0A",
"r  c #0F0A0B",
"t  c #0F0B0B",
"y  c #0F0B0C",
"u  c #0F0C0D",
"i  c #0F0C0E",
"p  c #100A0A",
"a  c #100B0A",
"s  c #100B0B",
"d  c #110B0B",
"f  c #110C0A",
"g  c #100C0B",
"h  c #110C0B",
"j  c #110D0C",
"k  c #120C0C",
"l  c #120D0C",
"z  c #120D0D",
"x  c #130D0D",
"c  c #120E0D",
"v  c #130E0D",
"b  c #110C0E",
"n  c #120D0F",
"m  c #130E0E",
"M  c #120F0E",
"N  c #130F0E",
"B  c #120E0F",
"V  c #140D0D",
"C  c #140E0D",
"Z  c #140E0E",
"A  c #150E0E",
"S  c #140F0E",
"D  c #150F0E",
"F  c #140F0F",
"G  c #150F0F",
"H  c #160F0F",
"J  c #15100E",
"K  c #15100F",
"L  c #16100F",
"P  c #130D11",
"I  c #150F13",
"U  c #151110",
"Y  c #161010",
"T  c #161110",
"R  c #171110",
"E  c #161111",
"W  c #171111",
"Q  c #171210",
"!  c #171211",
"~  c #171311",
"^  c #161112",
"/  c #161013",
"(  c #171013",
")  c #171113",
"_  c #151014",
"`  c #171014",
"'  c #171114",
"]  c #171015",
"[  c #171115",
"{  c #171116",
"}  c #181211",
"|  c #181311",
" . c #1B1311",
".. c #181212",
"X. c #181312",
"o. c #191312",
"O. c #191213",
"+. c #181313",
"@. c #181412",
"#. c #191412",
"$. c #181413",
"%. c #191413",
"&. c #191513",
"*. c #1A1412",
"=. c #1A1413",
"-. c #181216",
";. c #191216",
":. c #1A1316",
">. c #1A1317",
",. c #181414",
"<. c #191514",
"1. c #1A1414",
"2. c #1A1514",
"3. c #1A1614",
"4. c #1A1615",
"5. c #1B1615",
"6. c #1C1514",
"7. c #1C1515",
"8. c #1C1615",
"9. c #1C1715",
"0. c #1C1616",
"q. c #1C1716",
"w. c #1D1716",
"e. c #1C1816",
"r. c #1D1817",
"t. c #1E1817",
"y. c #1F1817",
"u. c #1A1218",
"i. c #1B1318",
"p. c #1B1319",
"a. c #1E1818",
"s. c #1E1918",
"d. c #1F1918",
"f. c #1F1A19",
"g. c #201918",
"h. c #201919",
"j. c #201A19",
"k. c #201A1A",
"l. c #211A1A",
"z. c #211B1A",
"x. c #221B1A",
"c. c #221B1B",
"v. c #221C1A",
"b. c #221C1B",
"n. c #221C1C",
"m. c #231D1C",
"M. c #231E1D",
"N. c #241D1C",
"B. c None",
/* pixels */
"w.t.m.j.q.q.q.q.q.q.q.q.q.q.q.q.q.q.q.q.q.q.q.q.q.q.q.q.q.q.B.B.B.B.q.q.q.q.q.q.q.q.q.q.q.q.q.q.q.q.q.q.q.q.q.q.q.q.q.q.j.m.t.w.",
"t.d.m.l.r.q.q.q.q.q.q.q.q.q.q.q.q.q.q.q.q.q.q.q.q.q.q.q.q.q.B.B.B.B.q.q.q.q.q.q.q.q.q.q.q.q.q.q.q.q.q.q.q.q.q.q.q.q.q.r.l.m.d.t.",
"m.m.m.m.m.d.q.q.q.q.q.q.q.q.q.q.q.q.q.q.q.q.q.q.q.q.q.q.q.q.B.B.B.B.q.q.q.q.q.q.q.q.q.q.q.q.q.q.q.q.q.q.q.q.q.q.q.q.d.m.m.m.m.m.",
"m.m.m.m.m.z.d.d.s.8.q.q.q.q.q.q.q.q.q.q.q.q.q.q.q.q.q.q.q.q.B.B.B.B.q.q.q.q.q.q.q.q.q.q.q.q.q.q.q.q.q.q.q.q.8.s.d.d.z.m.m.m.m.m.",
"m.m.m.m.m.m.m.m.x.7.8.q.q.q.q.q.q.q.q.q.q.q.q.q.q.q.q.q.q.q.B.B.B.B.q.q.q.q.q.q.q.q.q.q.q.q.q.q.q.q.q.q.q.8.7.x.m.m.m.m.m.m.m.m.",
"m.n.d.d.d.d.d...} 8.q.q.q.q.q.q.q.q.q.q.q.q.q.q.q.q.q.q.q.q.B.B.B.B.q.q.q.q.q.q.q.q.q.q.q.q.q.q.q.q.q.q.q.q.8.} ..d.d.d.d.d.n.m.",
"m.c.q.q.q.q.q.j j q.q.q.q.q.q.q.q.q.q.q.q.q.q.q.q.q.q.q.q.q.B.B.B.B.q.q.q.q.q.q.q.q.q.q.q.q.q.q.q.q.q.q.q.q.q.j j q.q.q.q.q.c.m.",
"m.c.q.5.4.K j K T X.X.X.X.X.X.X.X.X.X.X.X.X.X.5.5.2.4.q.q.q.B.B.B.B.q.q.q.4.2.5.5.X.X.X.X.X.X.X.X.X.X.X.X.X.X.T K j K 4.5.q.c.m.",
"c.k.5.4.2.v 9 K ~ %.%.<.@.~ ~ ~ ~ ~ ~ ~ ~ ! ! 4.5.<.2.5.q.q.B.B.B.B.q.q.5.2.<.5.4.! ! ~ ~ ~ ~ ~ ~ ~ ~ @.<.%.%.~ K 9 v 2.4.5.k.c.",
"q.5.<.<.%.v 9 K %.m.M.M.r.%.%.%.%.%.%.%.%.X.! 4.5.%.%.%.4.q.B.B.B.B.q.4.%.%.%.5.4.! X.%.%.%.%.%.%.%.%.r.M.M.m.%.K 9 v %.<.<.5.q.",
"q.5.%.%.%.S g T %.m.b.f.q.%.%.%.%.%.%.%.%.X.! 4.5.%.%.%.4.q.B.B.B.B.q.4.%.%.%.5.4.! X.%.%.%.%.%.%.%.%.q.f.b.m.%.T g S %.%.%.5.q.",
"q.5.%.%.%.K v T %.m.d.%.%.%.%.%.%.%.%.%.%.X.! 4.5.%.%.%.4.q.B.B.B.B.q.4.%.%.%.5.4.! X.%.%.%.%.%.%.%.%.%.%.d.m.%.T v K %.%.%.5.q.",
"2.2.%.%.%.K x T X.r.8.%.%.%.%.%.%.%.%.%.%.X.! 4.5.%.%.%.<.2.B.B.B.B.2.<.%.%.%.5.4.! X.%.%.%.%.%.%.%.%.%.%.8.r.X.T x K %.%.%.2.2.",
"%.%.%.%.%.G x T ~ %.%.%.%.%.%.%.%.%.%.%.%.X.! 4.5.%.%.%.%.%.B.B.B.B.%.%.%.%.%.5.4.! X.%.%.%.%.%.%.%.%.%.%.%.%.~ T x G %.%.%.%.%.",
"%.%.%.%.%.G x T ~ %.%.%.%.%.%.%.%.%.%.%.%.X.! 4.5.%.%.%.%.%.B.B.B.B.%.%.%.%.%.5.4.! X.%.%.%.%.%.%.%.%.%.%.%.%.~ T x G %.%.%.%.%.",
"%.%.%.%.%.G x T ~ %.%.%.%.%.%.%.%.%.%.%.%.X.! 4.5.%.%.%.%.%.B.B.B.B.%.%.%.%.%.5.4.! X.%.%.%.%.%.%.%.%.%.%.%.%.~ T x G %.%.%.%.%.",
"%.%.%.%.%.G x Y ~ %.%.%.%.%.%.%.%.%.%.%.%.X.! 4.5.%.%.%.%.%.B.B.B.B.%.%.%.%.%.5.4.! X.%.%.%.%.%.%.%.%.%.%.%.%.~ Y x G %.%.%.%.%.",
"%.%.%.%.%.G x Y ~ %.%.%.%.%.%.%.%.%.%.%.%.X.! 4.5.%.%.%.%.%.B.B.B.B.%.%.%.%.%.5.4.! X.%.%.%.%.%.%.%.%.%.%.%.%.~ Y x G %.%.%.%.%.",
"%.%.%.%.%.G x Y ~ %.%.%.%.%.%.%.%.%.%.%.%.X.! 4.5.%.%.%.%.%.B.B.B.B.%.%.%.%.%.5.4.! X.%.%.%.%.%.%.%.%.%.%.%.%.~ Y x G %.%.%.%.%.",
"%.%.%.%.%.G x Y ~ %.%.%.%.%.%.%.%.%.%.%.%.X.! 4.5.%.%.%.%.%.B.B.B.B.%.%.%.%.%.5.4.! X.%.%.%.%.%.%.%.%.%.%.%.%.~ Y x G %.%.%.%.%.",
"%.%.%.%.%.G x T ~ %.%.%.%.%.%.%.%.%.%.%.%.X.! 4.5.%.%.%.%.%.B.B.B.B.%.%.%.%.%.5.4.! X.%.%.%.%.%.%.%.%.%.%.%.%.~ T x G %.%.%.%.%.",
"%.%.%.%.%.G x T ~ %.%.%.%.%.%.%.%.%.%.%.%.X.! 4.5.%.%.%.%.%.B.B.B.B.%.%.%.%.%.5.4.! X.%.%.%.%.%.%.%.%.%.%.%.%.~ T x G %.%.%.%.%.",
"%.%.%.%.%.G x T ~ %.%.%.%.%.%.%.%.%.%.%.%.X.! 4.5.%.%.%.%.%.B.B.B.B.%.%.%.%.%.5.4.! X.%.%.%.%.%.%.%.%.%.%.%.%.~ T x G %.%.%.%.%.",
"%.%.%.%.%.G x T o.x.y.%.%.%.%.%.%.%.%.%.%.X.! 4.5.%.%.%.%.%.B.B.B.B.%.%.%.%.%.5.4.! X.%.%.%.%.%.%.%.%.%.%.y.x.o.T x G %.%.%.%.%.",
"%.%.%.%.%.G x T o.N.g.%.%.%.%.%.%.%.%.%.%.X.! 4.5.%.%.%.%.%.B.B.B.B.%.%.%.%.%.5.4.! X.%.%.%.%.%.%.%.%.%.%.g.N.o.T x G %.%.%.%.%.",
"%.%.%.%.%.G x T o.N.g.%.%.%.%.%.%.%.%.%.%.X.! 4.5.%.%.%.%.%.B.B.B.B.%.%.%.%.%.5.4.! X.%.%.%.%.%.%.%.%.%.%.g.N.o.T x G %.%.%.%.%.",
"%.%.%.%.%.G x T %.N.g.%.%.%.%.%.%.%.%.%.%.X.! 4.5.%.%.%.%.%.B.B.B.B.%.%.%.%.%.5.4.! X.%.%.%.%.%.%.%.%.%.%.g.N.%.T x G %.%.%.%.%.",
"%.%.%.%.%.G x T %.m.d.%.%.%.%.%.%.%.%.%.%.X.! 4.5.%.%.%.%.%.B.B.B.B.%.%.%.%.%.5.4.! X.%.%.%.%.%.%.%.%.%.%.d.m.%.T x G %.%.%.%.%.",
"%.%.%.%.%.Z p L %.m.b.f.q.%.%.%.%.%.%.q.f.2.! J c t e e e e B.B.B.B.e e e e t c J ! 2.f.q.%.%.%.%.%.%.q.f.b.m.%.L p Z %.%.%.%.%.",
"%.%.%.%.%.x 5 K %.m.M.M.r.%.%.%.%.%.%.r.M.q.! f < o . . . . B.B.B.B.. . . . o < f ! q.M.r.%.%.%.%.%.%.r.M.M.m.%.K 5 x %.%.%.%.%.",
"%.%.%.%.%.v 9 K ~ %.%.<.X.~ ~ ~ ~ ~ ~ @.<.X.! 1 > ] ` ( 0 . B.B.B.B.. 0 ( ` ] > 1 ! X.<.@.~ ~ ~ ~ ~ ~ X.<.%.%.~ K 9 v %.%.%.%.%.",
"%.%.%.%.%.v 9 K ! T ! ! ! ! ! ! ! T T T T ! ! ; 2 i.p.>.r . . . . . . r >.p.i.2 ; ! ! T T T T ! ! ! ! ! ! ! T ! K 9 v %.%.%.%.%.",
"%.%.%.%.%.@.@.h a S v x x x x x x x V V V p 4 y n p.u.{ ;.>.>.:.:.>.>.;.{ u.p.n y 4 p V V V x x x x x x x v S a h @.@.%.%.%.%.%.",
"%.%.%.%.%.%.@.c j S S D D D D D D D Z Z Z k p b P -.[ _ / / ( / / ( / / _ [ -.P b p k Z Z Z D D D D D D D S S j c @.%.%.%.%.%.%.",
"%.%.%.%.%.%.%.%.%.%.%.%.%.%.%.%.%.%.%.%.%.%.+.' I i y u ; .   % %   . ; u y i I ' +.%.%.%.%.%.%.%.%.%.%.%.%.%.%.%.%.%.%.%.%.%.%.",
"%.%.%.%.%.%.%.W R R R R R R R R R R R R R R Y ) ^ B M B j a B.B.B.B.a j B M B ^ ) Y R R R R R R R R R R R R R R W %.%.%.%.%.%.%.",
"%.%.%.%.%.%.%.Z x x x x x x x x x x x x x x x X.&.#.#.#.*. .B.B.B.B. .*.#.#.#.&.X.x x x x x x x x x x x x x x x Z %.%.%.%.%.%.%.",
"%.%.%.! G G L 6.8.X.X.X.......X.X.X.X.......X.Y G H R %.#.*.B.B.B.B.*.#.%.R H G Y X.......X.X.X.X.......X.X.X.8.6.L G G ! %.%.%.",
"%.%.%.R x x x g.v.q.q.q.8.7.q.q.q.q.q.0.7.0.q.A x x G ,.$.%.B.B.B.B.%.$.,.G x x A q.0.7.0.q.q.q.q.q.7.8.q.q.q.v.g.x x x R %.%.%.",
"%.! < D h.h.h.j e G G A A A A A A A A A A s 8 ~ 1.1.F > S %.B.B.B.B.%.S > F 1.1.~ 8 s A A A A A A A A A A G G e j h.h.h.D < ! %.",
"%.E < Z t.t.a.q , z x x x x x x x x x x x 7 : U X...m > S %.B.B.B.B.%.S > m ..X.U : 7 x x x x x x x x x x x z , q a.t.t.Z < E %.",
"%.%.%.c . . . d x x x x x x x x x x x x x x x - . . e %.%.%.B.B.B.B.%.%.%.e . . - x x x x x x x x x x x x x x x d . . . c %.%.%.",
"%.%.%.S < - . d x x x x x x x x x x x x x x x - % 3 l %.%.%.B.B.B.B.%.%.%.l 3 % - x x x x x x x x x x x x x x x d . - < S %.%.%.",
"%.%.%.R C < . d x x x x x x x x x x x x x x x - - x L %.%.%.B.B.B.B.%.%.%.L x - - x x x x x x x x x x x x x x x d . < C R %.%.%.",
"%.%.%.S < = @ , 6 v x x x x x x x x x x x p < % % < l %.%.%.B.B.B.B.%.%.%.l < % % < p x x x x x x x x x x x v 6 , @ = < S %.%.%.",
"%.%.%.c O . # . & v v x x x x x x x x x x < $ . . . e %.%.%.B.B.B.B.%.%.%.e . . . $ < x x x x x x x x x x v v & . # . O c %.%.%.",
"%.! < S t.s.a.&.@.2.2.2.=.=.2.3.3.3.3.3.2.%.X.X.X.X.N < S %.B.B.B.B.%.S < N X.X.X.X.%.2.3.3.3.3.3.2.=.=.2.2.2.@.&.a.s.t.S < ! %.",
"%.T O Z m.m.m.t.9.9.9.9.8.7.q.e.e.e.e.q.q.q.q.q.q.q.S O c %.B.B.B.B.%.c O S q.q.q.q.q.q.q.e.e.e.e.q.7.8.9.9.9.9.t.m.m.m.Z O T %.",
"%.X.v w X X X + + + + + + X . . . . . . . . . . . . 3 v R #.B.B.B.B.#.R v 3 . . . . . . . . . . . . X + + + + + + X X X w v X.%.",
"@.~ S g * * * * * * * * * * * * * * * * * * * * * * q S R X.B.B.B.B.X.R S q * * * * * * * * * * * * * * * * * * * * * * g S ~ @.",
"! ~ %.R x x x x x x x x x x x x x x x x x x x x x x K %.| R B.B.B.B.R | %.K x x x x x x x x x x x x x x x x x x x x x x R %.~ ! ",
"! ~ %.! G Z x Z G K G G G G G G G G G G G G D Y Y L W %.| R B.B.B.B.R | %.W L Y Y D G G G G G G G G G G G G K G Z x Z G ! %.~ ! ",
"! ~ %.%.O.G x T ~ %.%.%.%.%.%.%.%.%.%.%.%.X.! 4.5.<.%.%.} R B.B.B.B.R } %.%.<.5.4.! X.%.%.%.%.%.%.%.%.%.%.%.%.~ T x G O.%.%.~ ! ",
"! ! X.@.%.G x T ~ %.%.%.%.%.%.%.%.%.%.%.%.X.! 4.5.<.@.X.! R B.B.B.B.R ! X.@.<.5.4.! X.%.%.%.%.%.%.%.%.%.%.%.%.~ T x G %.@.X.! ! ",
"! ! ! X.%.G x T ~ @.%.%.%.%.%.%.%.%.%.%.%.X.! 4.5.%.@.! Q R B.B.B.B.R Q ! @.%.5.4.! X.%.%.%.%.%.%.%.%.%.%.%.@.~ T x G %.X.! ! ! ",
"! ! ! ! ~ v g T ! ~ ~ ~ ~ ~ ~ ~ ~ ~ ~ ~ ~ ! ! 4.4.X.~ ! ! ! B.B.B.B.! ! ! ~ X.4.4.! ! ~ ~ ~ ~ ~ ~ ~ ~ ~ ~ ~ ~ ! T g v ~ ! ! ! ! ",
"! ! ! ! ! v h T X.X.X.X.X.X.X.X.X.X.X.X.X.X.X.2.<.~ ! ! ! ! B.B.B.B.! ! ! ! ~ <.2.X.X.X.X.X.X.X.X.X.X.X.X.X.X.X.T h v ! ! ! ! ! ",
"! ! ! ! ! ! ! 4.q.q.q.q.q.q.q.q.q.q.q.q.q.q.q.X.! ! ! ! ! ! B.B.B.B.! ! ! ! ! ! X.q.q.q.q.q.q.q.q.q.q.q.q.q.q.q.4.! ! ! ! ! ! ! ",
"! ! ! ! ! ! ! %.<.<.<.<.<.<.<.<.<.<.<.<.<.2.<.~ ! ! ! ! ! ! B.B.B.B.! ! ! ! ! ! ~ <.2.<.<.<.<.<.<.<.<.<.<.<.<.<.%.! ! ! ! ! ! ! ",
"! ! ! ! ! ! ! ! ! ! ! ! ! ! ! ! ! ! ! ! ! ! ! ! ! ! ! ! ! ! B.B.B.B.! ! ! ! ! ! ! ! ! ! ! ! ! ! ! ! ! ! ! ! ! ! ! ! ! ! ! ! ! ! ",
"! ! ! ! ! ! ! ! ! ! ! ! ! ! ! ! ! ! ! ! ! ! ! ! ! ! ! ! ! ! B.B.B.B.! ! ! ! ! ! ! ! ! ! ! ! ! ! ! ! ! ! ! ! ! ! ! ! ! ! ! ! ! ! ",
"! ! ! ! ! ! ! ! ! ! ! ! ! ! ! ! ! ! ! ! ! ! ! ! ! ! ! ! ! ! B.B.B.B.! ! ! ! ! ! ! ! ! ! ! ! ! ! ! ! ! ! ! ! ! ! ! ! ! ! ! ! ! ! ",
"! ! ! ! ! ! ! ! ! ! ! ! ! ! ! ! ! ! ! ! ! ! ! ! ! ! ! ! ! ! B.B.B.B.! ! ! ! ! ! ! ! ! ! ! ! ! ! ! ! ! ! ! ! ! ! ! ! ! ! ! ! ! ! ",
"Q Q Q Q Q Q Q Q Q Q Q Q Q Q Q Q Q Q Q Q Q Q Q Q Q Q Q Q ! ! B.B.B.B.! ! Q Q Q Q Q Q Q Q Q Q Q Q Q Q Q Q Q Q Q Q Q Q Q Q Q Q Q Q "
};
