/* XPM */
static char *result[] = {
/* columns rows colors chars-per-pixel */
"64 64 130 2 ",
"   c #0A0303",
".  c #0A0403",
"X  c #090404",
"o  c #080504",
"O  c #090504",
"+  c #080505",
"@  c #0A0404",
"#  c #0A0504",
"$  c #090604",
"%  c #0A0604",
"&  c #0A0704",
"*  c #080506",
"=  c #0A0606",
"-  c #0B0606",
";  c #0B0706",
":  c #0B0707",
">  c #0C0606",
",  c #0C0706",
"<  c #0C0707",
"1  c #0D0707",
"2  c #0C0806",
"3  c #0D0807",
"4  c #0D0907",
"5  c #0E0807",
"6  c #0C0808",
"7  c #0D0808",
"8  c #0F0808",
"9  c #0F0908",
"0  c #0E0909",
"q  c #0F0909",
"w  c #0F0A08",
"e  c #0F0A09",
"r  c #0D090A",
"t  c #0E090A",
"y  c #0F0A0A",
"u  c #0F0A0B",
"i  c #0F0B0D",
"p  c #100B0A",
"a  c #110B0B",
"s  c #110C0A",
"d  c #100C0B",
"f  c #110C0B",
"g  c #110B0C",
"h  c #100B0D",
"j  c #100B0E",
"k  c #110C0C",
"l  c #110D0C",
"z  c #120D0C",
"x  c #120D0D",
"c  c #130D0D",
"v  c #120E0D",
"b  c #130E0D",
"n  c #110C0E",
"m  c #110C0F",
"M  c #130D0E",
"N  c #120C0F",
"B  c #120E0E",
"V  c #140D0C",
"C  c #140D0D",
"Z  c #140E0D",
"A  c #140E0E",
"S  c #150E0E",
"D  c #140F0E",
"F  c #150F0E",
"G  c #150F0F",
"H  c #160F0F",
"J  c #14100F",
"K  c #15100F",
"L  c #16100F",
"P  c #120D10",
"I  c #130E10",
"U  c #130E11",
"Y  c #140E10",
"T  c #140E12",
"R  c #150F12",
"E  c #150F13",
"W  c #160F14",
"Q  c #151010",
"!  c #161010",
"~  c #171010",
"^  c #161110",
"/  c #171110",
"(  c #171011",
")  c #171111",
"_  c #171210",
"`  c #171211",
"'  c #171311",
"]  c #161014",
"[  c #171015",
"{  c #181211",
"}  c #181311",
"|  c #181212",
" . c #181312",
".. c #191312",
"X. c #191313",
"o. c #181412",
"O. c #191412",
"+. c #191413",
"@. c #1A1412",
"#. c #191414",
"$. c #191514",
"%. c #1B1414",
"&. c #1A1514",
"*. c #1B1515",
"=. c #1A1615",
"-. c #1B1615",
";. c #1C1515",
":. c #1C1615",
">. c #1C1715",
",. c #1D1616",
"<. c #1C1716",
"1. c #1D1716",
"2. c #1E1717",
"3. c #1D1817",
"4. c #1E1817",
"5. c #1E1818",
"6. c #1E1918",
"7. c #1F1918",
"8. c #1F1A19",
"9. c #201919",
"0. c #201A19",
"q. c #211B1A",
"w. c #221B1B",
"e. c #221C1B",
"r. c #211D1C",
"t. c #231D1C",
"y. c #231D1D",
"u. c #231E1D",
"i. c #241D1C",
"p. c None",
/* pixels */
"t.w.<.$.` ` ` ` ^ c c c c c p.p.p.p.p.p.p.p.p.p.p.p.p.p.p.p.p.p.p.p.p.p.p.p.p.p.p.p.p.p.p.p.p.p.p.p.c c c c c ^ ` ` ` ` $.<.w.t.",
"t.e.3.=.` ` ` ` ^ c c c c c p.p.p.p.p.p.p.p.p.p.p.p.p.p.p.p.p.p.p.p.p.p.p.p.p.p.p.p.p.p.p.p.p.p.p.p.c c c c c ^ ` ` ` ` =.3.e.t.",
"t.t.t.5.` ` ` ` ^ c c c c c p.p.p.p.p.p.p.p.p.p.p.p.p.p.p.p.p.p.p.p.p.p.p.p.p.p.p.p.p.p.p.p.p.p.p.p.c c c c c ^ ` ` ` ` 5.t.t.t.",
"t.t.t.0.:.O.` ` ^ c c c c c p.p.p.p.p.p.p.p.p.p.p.p.p.p.p.p.p.p.p.p.p.p.p.p.p.p.p.p.p.p.p.p.p.p.p.p.c c c c c ^ ` ` O.:.0.t.t.t.",
"t.t.t.t.t.:.` ` ^ c c c c c p.p.p.p.p.p.p.p.p.p.p.p.p.p.p.p.p.p.p.p.p.p.p.p.p.p.p.p.p.p.p.p.p.p.p.p.c c c c c ^ ` ` :.t.t.t.t.t.",
"7.7.7.4.:.L z  . .c c c c c p.p.p.p.p.p.p.p.p.p.p.p.p.p.p.p.p.p.p.p.p.p.p.p.p.p.p.p.p.p.p.p.p.p.p.p.c c c c c  . .z L :.4.7.7.7.",
"<.<.<.&._ z w +.&.C c c c c p.p.p.p.p.p.p.p.p.p.p.p.p.p.p.p.p.p.p.p.p.p.p.p.p.p.p.p.p.p.p.p.p.p.p.p.c c c c C &.+.w z _ &.<.<.<.",
"<.=. .K s Z L ' o.#.) c c c p.p.p.p.p.p.p.p.p.p.p.p.p.p.p.p.p.p.p.p.p.p.p.p.p.p.p.p.p.p.p.p.p.p.p.p.c c c ) #.o.' L Z s K  .=.<.",
"<.&.` D w L @.+.&.-. .c c c p.p.p.p.p.p.p.p.p.p.p.p.p.p.p.p.p.p.p.p.p.p.p.p.p.p.p.p.p.p.p.p.p.p.p.p.c c c  .-.&.+.@.L w D ` &.<.",
"<.=.` D e *.t.u.r.<. .c c c p.p.p.p.p.p.p.p.p.p.p.p.p.p.p.p.p.p.p.p.p.p.p.p.p.p.p.p.p.p.p.p.p.p.p.p.c c c  .<.r.u.t.*.e D ` =.<.",
"=.$.` D d :.t.8.6.<. .c c c p.p.p.p.p.p.p.p.p.p.p.p.p.p.p.p.p.p.p.p.p.p.p.p.p.p.p.p.p.p.p.p.p.p.p.p.c c c  .<.6.8.t.:.d D ` $.=.",
"+.o.` K b 1.t.+. .<. .c c c p.p.p.p.p.p.p.p.p.p.p.p.p.p.p.p.p.p.p.p.p.p.p.p.p.p.p.p.p.p.p.p.p.p.p.p.c c c  .<. .+.t.1.b K ` o.+.",
"+.o.` K b | :. . .<. .c c c p.p.p.p.p.p.p.p.p.p.p.p.p.p.p.p.p.p.p.p.p.p.p.p.p.p.p.p.p.p.p.p.p.p.p.p.c c c  .<. . .:.| b K ` o.+.",
"+.o.` K c K ` `  .<. .c c c p.p.p.p.p.p.p.p.p.p.p.p.p.p.p.p.p.p.p.p.p.p.p.p.p.p.p.p.p.p.p.p.p.p.p.p.c c c  .<. .` ` K c K ` o.+.",
"+.o.` K c K ` `  .<. .c c c p.p.p.p.p.p.p.p.p.p.p.p.p.p.p.p.p.p.p.p.p.p.p.p.p.p.p.p.p.p.p.p.p.p.p.p.c c c  .<. .` ` K c K ` o.+.",
"+.o.` K c K ` `  .<. .c c c p.p.p.p.p.p.p.p.p.p.p.p.p.p.p.p.p.p.p.p.p.p.p.p.p.p.p.p.p.p.p.p.p.p.p.p.c c c  .<. .` ` K c K ` o.+.",
"+.o.! S c K ` `  .-. .c c c p.p.p.p.p.p.p.p.p.p.p.p.p.p.p.p.p.p.p.p.p.p.p.p.p.p.p.p.p.p.p.p.p.p.p.p.c c c  .-. .` ` K c S ! o.+.",
"+.o.! G c K ` `  .-. .c c c p.p.p.p.p.p.p.p.p.p.p.p.p.p.p.p.p.p.p.p.p.p.p.p.p.p.p.p.p.p.p.p.p.p.p.p.c c c  .-. .` ` K c G ! o.+.",
"+.o.! G c K ` `  .-. .c c c p.p.p.p.p.p.p.p.p.p.p.p.p.p.p.p.p.p.p.p.p.p.p.p.p.p.p.p.p.p.p.p.p.p.p.p.c c c  .-. .` ` K c G ! o.+.",
"+.o./ G c K ` `  .<. .c c c p.p.p.p.p.p.p.p.p.p.p.p.p.p.p.p.p.p.p.p.p.p.p.p.p.p.p.p.p.p.p.p.p.p.p.p.c c c  .<. .` ` K c G / o.+.",
"+.o.` K c K ` `  .<. .c c c p.p.p.p.p.p.p.p.p.p.p.p.p.p.p.p.p.p.p.p.p.p.p.p.p.p.p.p.p.p.p.p.p.p.p.p.c c c  .<. .` ` K c K ` o.+.",
"+.o.` L c K ` `  .<. .c c c p.p.p.p.p.p.p.p.p.p.p.p.p.p.p.p.p.p.p.p.p.p.p.p.p.p.p.p.p.p.p.p.p.p.p.p.c c c  .<. .` ` K c L ` o.+.",
"+.o.` L c K ` `  .<. .c c c p.p.p.p.p.p.p.p.p.p.p.p.p.p.p.p.p.p.p.p.p.p.p.p.p.p.p.p.p.p.p.p.p.p.p.p.c c c  .<. .` ` K c L ` o.+.",
"+.o.` L c K ` `  .<. .c c c p.p.p.p.p.p.p.p.p.p.p.p.p.p.p.p.p.p.p.p.p.p.p.p.p.p.p.p.p.p.p.p.p.p.p.p.c c c  .<. .` ` K c L ` o.+.",
"+.o.` L c / ..'  .<. .c c c p.p.p.p.p.p.p.p.p.p.p.p.p.p.p.p.p.p.p.p.p.p.p.p.p.p.p.p.p.p.p.p.p.p.p.p.c c c  .<. .' ../ c L ` o.+.",
"+.o.` L c ,.i.X. .<. .c c c p.p.p.p.p.p.p.p.p.p.p.p.p.p.p.p.p.p.p.p.p.p.p.p.p.p.p.p.p.p.p.p.p.p.p.p.c c c  .<. .X.i.,.c L ` o.+.",
"+.o.` L c ,.i.X. .<.| c c c p.p.p.p.p.p.p.p.p.p.p.p.p.p.p.p.p.p.p.p.p.p.p.p.p.p.p.p.p.p.p.p.p.p.p.p.c c c | <. .X.i.,.c L ` o.+.",
"+.o.` L c ,.t.+. .<. .c c c p.p.p.p.p.p.p.p.p.p.p.p.p.p.p.p.p.p.p.p.p.p.p.p.p.p.p.p.p.p.p.p.p.p.p.p.c c c  .<. .+.t.,.c L ` o.+.",
"+.o.` D a ;.t.8.6.<.Q < 7 7 p.p.p.p.p.p.p.p.p.p.p.p.p.p.p.p.p.p.p.p.p.p.p.p.p.p.p.p.p.p.p.p.p.p.p.p.7 7 < Q <.6.8.t.;.a D ` o.+.",
"+.o.` A 8 %.t.u.r.<.J + + + p.p.p.p.p.p.p.p.p.p.p.p.p.p.p.p.p.p.p.p.p.p.p.p.p.p.p.p.p.p.p.p.p.p.p.p.+ + + J <.r.u.t.%.8 A ` o.+.",
"+.o.` D e K +.$.` 4 u I I I p.p.p.p.p.p.p.p.p.p.p.p.p.p.p.p.p.p.p.p.p.p.p.p.p.p.p.p.p.p.p.p.p.p.p.p.I I I u 4 ` $.+.K e D ` o.+.",
"+.o.` D e D ` ^ D o t ] ] ] : * p.p.p.p.p.p.p.p.p.p.p.p.p.p.p.p.p.p.p.p.p.p.p.p.p.p.p.p.p.p.p.p.* : ] ] ] t o D ^ ` D e D ` o.+.",
"+.o.` ` ` F c D v h P ] [ [ N h + p.p.p.p.p.p.p.p.p.p.p.p.p.p.p.p.p.p.p.p.p.p.p.p.p.p.p.p.p.p.+ h N [ [ ] P h v D c F ` ` ` o.+.",
"+.o.` ` ` G A A B n U E W W m j o p.p.p.p.p.p.p.p.p.p.p.p.p.p.p.p.p.p.p.p.p.p.p.p.p.p.p.p.p.p.o j m W W E U n B A A G ` ` ` o.+.",
"o.o.! ) ` / ~ ~ ( ] T j h j i h o p.p.p.p.p.p.p.p.p.p.p.p.p.p.p.p.p.p.p.p.p.p.p.p.p.p.p.p.p.p.o h i j h j T ] ( ~ ~ / ` ) ! o.o.",
"o.o.! ) ` ! G G G R Y g k g r 6 p.p.p.p.p.p.p.p.p.p.p.p.p.p.p.p.p.p.p.p.p.p.p.p.p.p.p.p.p.p.p.p.6 r g k g Y R G G G ! ` ) ! o.o.",
"o.o.! ) ` F c c c M M c c c 2 & p.p.p.p.p.p.p.p.p.p.p.p.p.p.p.p.p.p.p.p.p.p.p.p.p.p.p.p.p.p.p.p.& 2 c c c M M c c c F ` ) ! o.o.",
"+.| A | 4.2.,.+.|  .| | G Z p.p.p.p.p.p.p.p.p.p.p.p.p.p.p.p.p.p.p.p.p.p.p.p.p.p.p.p.p.p.p.p.p.p.p.p.Z G | |  .| +.,.2.4.| A | +.",
"+. .c X.t.t.t.3.<.<.<.<.! c p.p.p.p.p.p.p.p.p.p.p.p.p.p.p.p.p.p.p.p.p.p.p.p.p.p.p.p.p.p.p.p.p.p.p.p.c ! <.<.<.<.3.t.t.t.X.c  .+.",
"3 d 9.q.t.) 0 7 3 6 3 4 K &.p.p.p.p.p.p.p.p.p.p.p.p.p.p.p.p.p.p.p.p.p.p.p.p.p.p.p.p.p.p.p.p.p.p.p.p.&.K 4 3 6 3 7 0 ) t.q.9.d 3 ",
"< p 4.4.5.x - - = o o % v  .p.p.p.p.p.p.p.p.p.p.p.p.p.p.p.p.p.p.p.p.p.p.p.p.p.p.p.p.p.p.p.p.p.p.p.p. .v % o o = - - x 5.4.4.p < ",
"+.^ o O O q c c k o o o o o p.p.p.p.p.p.p.p.p.p.p.p.p.p.p.p.p.p.p.p.p.p.p.p.p.p.p.p.p.p.p.p.p.p.p.p.o o o o o k c c q O O o ^ +.",
"+.` 3 ; o y c c f o o o ; 3 p.p.p.p.p.p.p.p.p.p.p.p.p.p.p.p.p.p.p.p.p.p.p.p.p.p.p.p.p.p.p.p.p.p.p.p.3 ; o o o f c c y o ; 3 ` +.",
"+.{ V e o y c c f o O o e c p.p.p.p.p.p.p.p.p.p.p.p.p.p.p.p.p.p.p.p.p.p.p.p.p.p.p.p.p.p.p.p.p.p.p.p.c e o O o f c c y o e V { +.",
"+./ 5 , o > 1 1 < o o O , 3 p.p.p.p.p.p.p.p.p.p.p.p.p.p.p.p.p.p.p.p.p.p.p.p.p.p.p.p.p.p.p.p.p.p.p.p.3 , O o o < 1 1 > o , 5 / +.",
"+.^ # O o X   . @ o o o o o p.p.p.p.p.p.p.p.p.p.p.p.p.p.p.p.p.p.p.p.p.p.p.p.p.p.p.p.p.p.p.p.p.p.p.p.o o o o o @ .   X o O # ^ +.",
"3 p 4.4.6.4.2.+.} o. . . . .p.p.p.p.p.p.p.p.p.p.p.p.p.p.p.p.p.p.p.p.p.p.p.p.p.p.p.p.p.p.p.p.p.p.p.p. . . . .o.} +.2.4.6.4.4.p 3 ",
"# 9 t.t.t.y.y.4.>.>.>.<.<.<.p.p.p.p.p.p.p.p.p.p.p.p.p.p.p.p.p.p.p.p.p.p.p.p.p.p.p.p.p.p.p.p.p.p.p.p.<.<.<.>.>.>.4.y.y.t.t.t.9 # ",
"b l O O O O O $ $ $ $ $ $ O p.p.p.p.p.p.p.p.p.p.p.p.p.p.p.p.p.p.p.p.p.p.p.p.p.p.p.p.p.p.p.p.p.p.p.p.O $ $ $ $ $ $ O O O O O l b ",
"D v - - - - - - - - - - - - p.p.p.p.p.p.p.p.p.p.p.p.p.p.p.p.p.p.p.p.p.p.p.p.p.p.p.p.p.p.p.p.p.p.p.p.- - - - - - - - - - - - v D ",
"o. .c c c c c c c c c c c c p.p.p.p.p.p.p.p.p.p.p.p.p.p.p.p.p.p.p.p.p.p.p.p.p.p.p.p.p.p.p.p.p.p.p.p.c c c c c c c c c c c c  .o.",
"o.| F A c A G G G c F ^ F c p.p.p.p.p.p.p.p.p.p.p.p.p.p.p.p.p.p.p.p.p.p.p.p.p.p.p.p.p.p.p.p.p.p.p.p.c F ^ F c G G G A c A F | o.",
"+.o.` K c K ' +.` C ! <.! c p.p.p.p.p.p.p.p.p.p.p.p.p.p.p.p.p.p.p.p.p.p.p.p.p.p.p.p.p.p.p.p.p.p.p.p.c ! <.! C ` +.' K c K ` o.+.",
"' ' ` K c K ' +.` C ! <.^ c p.p.p.p.p.p.p.p.p.p.p.p.p.p.p.p.p.p.p.p.p.p.p.p.p.p.p.p.p.p.p.p.p.p.p.p.c ^ <.! C ` +.' K c K ` ' ' ",
"^ ` ` K c K ' o.' C ! <./ c p.p.p.p.p.p.p.p.p.p.p.p.p.p.p.p.p.p.p.p.p.p.p.p.p.p.p.p.p.p.p.p.p.p.p.p.c / <.! C ' o.' K c K ` ` ^ ",
"^ ` ` D d D ` ' ^ C / <.) c p.p.p.p.p.p.p.p.p.p.p.p.p.p.p.p.p.p.p.p.p.p.p.p.p.p.p.p.p.p.p.p.p.p.p.p.c ) <./ C ^ ' ` D d D ` ` ^ ",
"^ ` ` K f K  . .' H ) #.! c p.p.p.p.p.p.p.p.p.p.p.p.p.p.p.p.p.p.p.p.p.p.p.p.p.p.p.p.p.p.p.p.p.p.p.p.c ! #.) H '  . .K f K ` ` ^ ",
"^ ` ` ` ` $.<.<.<.-. .A C c p.p.p.p.p.p.p.p.p.p.p.p.p.p.p.p.p.p.p.p.p.p.p.p.p.p.p.p.p.p.p.p.p.p.p.p.c C A  .-.<.<.<.$.` ` ` ` ^ ",
"` ` ` ` ` o.$.$.$.| ! c c c p.p.p.p.p.p.p.p.p.p.p.p.p.p.p.p.p.p.p.p.p.p.p.p.p.p.p.p.p.p.p.p.p.p.p.p.c c c ! | $.$.$.o.` ` ` ` ` ",
"` ` ` ` ` ` ` ` ^ c c c c c p.p.p.p.p.p.p.p.p.p.p.p.p.p.p.p.p.p.p.p.p.p.p.p.p.p.p.p.p.p.p.p.p.p.p.p.c c c c c ^ ` ` ` ` ` ` ` ` ",
"` ` ` ` ` ` ` ` ^ c c c c c p.p.p.p.p.p.p.p.p.p.p.p.p.p.p.p.p.p.p.p.p.p.p.p.p.p.p.p.p.p.p.p.p.p.p.p.c c c c c ^ ` ` ` ` ` ` ` ` ",
"` ` ` ` ` ` ` ` ^ c c c c c p.p.p.p.p.p.p.p.p.p.p.p.p.p.p.p.p.p.p.p.p.p.p.p.p.p.p.p.p.p.p.p.p.p.p.p.c c c c c ^ ` ` ` ` ` ` ` ` ",
"` ` ` ` ` ` ` ` ^ c c c c c p.p.p.p.p.p.p.p.p.p.p.p.p.p.p.p.p.p.p.p.p.p.p.p.p.p.p.p.p.p.p.p.p.p.p.p.c c c c c ^ ` ` ` ` ` ` ` ` ",
"_ _ _ _ _ _ _ ` ^ c c c c c p.p.p.p.p.p.p.p.p.p.p.p.p.p.p.p.p.p.p.p.p.p.p.p.p.p.p.p.p.p.p.p.p.p.p.p.c c c c c ^ ` _ _ _ _ _ _ _ "
};
