/* XPM */
static char *result[] = {
/* columns rows colors chars-per-pixel */
"64 64 91 1 ",
"  c #080404",
". c #080504",
"X c #090504",
"o c #0A0504",
"O c #0A0605",
"+ c #0B0605",
"@ c #0B0705",
"# c #0B0606",
"$ c #0B0706",
"% c #0C0605",
"& c #0C0706",
"* c #0C0607",
"= c #0D0707",
"- c #0C0806",
"; c #0D0807",
": c #0D0808",
"> c #0E0808",
", c #0F0908",
"< c #0E0809",
"1 c #0E0909",
"2 c #0E0A08",
"3 c #0F0A08",
"4 c #0F0B08",
"5 c #0F0A09",
"6 c #0F0B09",
"7 c #0E090A",
"8 c #0F0A0A",
"9 c #0F0B0A",
"0 c #0E0A0B",
"q c #0F0A0C",
"w c #100B08",
"e c #100A0A",
"r c #100B0A",
"t c #100A0B",
"y c #100B0B",
"u c #110B0B",
"i c #120B0B",
"p c #100C08",
"a c #110C0A",
"s c #100C0B",
"d c #110C0B",
"f c #110D0B",
"g c #120C0B",
"h c #100B0C",
"j c #110B0C",
"k c #100B0D",
"l c #110B0D",
"z c #120B0D",
"x c #110D0C",
"c c #120C0C",
"v c #130C0C",
"b c #120D0C",
"n c #120D0D",
"m c #130D0D",
"M c #120E0C",
"N c #130E0C",
"B c #120E0D",
"V c #130E0D",
"C c #140C0C",
"Z c #140D0D",
"A c #140E0D",
"S c #140F0D",
"D c #140E0E",
"F c #140F0E",
"G c #150F0E",
"H c #15100F",
"J c #16100F",
"K c #16110F",
"L c #161010",
"P c #161110",
"I c #171111",
"U c #171210",
"Y c #171211",
"T c #171311",
"R c #191313",
"E c #191413",
"W c #1A1514",
"Q c #1C1514",
"! c #1C1615",
"~ c #1D1615",
"^ c #1D1616",
"/ c #1E1817",
"( c #1E1818",
") c #1F1818",
"_ c #1E1918",
"` c #201919",
"' c #211B1A",
"] c #231D1C",
"[ c #231D1D",
"{ c #231E1D",
"} c None",
/* pixels */
"TTYF96,}}}}}}}}}}}}}}}}}}}}}}}}}}}}}}}}}}}}}}}}}}}}}}}}}},69FYTT",
"WEPS64,}}}}}}}}}}}}}}}}}}}}}}}}}}}}}}}}}}}}}}}}}}}}}}}}}},46SPEW",
"]`md333}}}}}}}}}}}}}}}}}}}}}}}}}}}}}}}}}}}}}}}}}}}}}}}}}}333dm`]",
"]`md333}}}}}}}}}}}}}}}}}}}}}}}}}}}}}}}}}}}}}}}}}}}}}}}}}}333dm`]",
"]`md333}}}}}}}}}}}}}}}}}}}}}}}}}}}}}}}}}}}}}}}}}}}}}}}}}}333dm`]",
"!WVd33>}}}}}}}}}}}}}}}}}}}}}}}}}}}}}}}}}}}}}}}}}}}}}}}}}}>33dVW!",
"UKVf357}}}}}}}}}}}}}}}}}}}}}}}}}}}}}}}}}}}}}}}}}}}}}}}}}}753fVKU",
"YHrbJd7}}}}}}}}}}}}}}}}}}}}}}}}}}}}}}}}}}}}}}}}}}}}}}}}}}7dJbrHY",
"YH5bUb7}}}}}}}}}}}}}}}}}}}}}}}}}}}}}}}}}}}}}}}}}}}}}}}}}}7bUb5HY",
"TP5bYb7}}}}}}}}}}}}}}}}}}}}}}}}}}}}}}}}}}}}}}}}}}}}}}}}}}7bYb5PT",
"TPsVYb7}}}}}}}}}}}}}}}}}}}}}}}}}}}}}}}}}}}}}}}}}}}}}}}}}}7bYVsPT",
"TPBFYb7}}}}}}}}}}}}}}}}}}}}}}}}}}}}}}}}}}}}}}}}}}}}}}}}}}7bYFBPT",
"YPmGYb<}}}}}}}}}}}}}}}}}}}}}}}}}}}}}}}}}}}}}}}}}}}}}}}}}}<bYGmPY",
"PLmGYb>}}}}}}}}}}}}}}}}}}}}}}}}}}}}}}}}}}}}}}}}}}}}}}}}}}>bYGmLP",
"DZmGYb>}}}}}}}}}}}}}}}}}}}}}}}}}}}}}}}}}}}}}}}}}}}}}}}}}}>bYGmZD",
"mmmGYb>}}}}}}}}}}}}}}}}}}}}}}}}}}}}}}}}}}}}}}}}}}}}}}}}}}>bYGmmm",
"mmmGYb5}}}}}}}}}}}}}}}}}}}}}}}}}}}}}}}}}}}}}}}}}}}}}}}}}}5bYGmmm",
"mmmGYb5}}}}}}}}}}}}}}}}}}}}}}}}}}}}}}}}}}}}}}}}}}}}}}}}}}5bYGmmm",
"mmmGYb5}}}}}}}}}}}}}}}}}}}}}}}}}}}}}}}}}}}}}}}}}}}}}}}}}}5bYGmmm",
"DDmGYb5}}}}}}}}}}}}}}}}}}}}}}}}}}}}}}}}}}}}}}}}}}}}}}}}}}5bYGmDD",
"PPmGYb5}}}}}}}}}}}}}}}}}}}}}}}}}}}}}}}}}}}}}}}}}}}}}}}}}}5bYGmPP",
"PPmGYb5}}}}}}}}}}}}}}}}}}}}}}}}}}}}}}}}}}}}}}}}}}}}}}}}}}5bYGmPP",
"PPmGYb5}}}}}}}}}}}}}}}}}}}}}}}}}}}}}}}}}}}}}}}}}}}}}}}}}}5bYGmPP",
"PPmGYb5}}}}}}}}}}}}}}}}}}}}}}}}}}}}}}}}}}}}}}}}}}}}}}}}}}5bYGmPP",
"HHmGYb5}}}}}}}}}}}}}}}}}}}}}}}}}}}}}}}}}}}}}}}}}}}}}}}}}}5bYGmHH",
"ZZmGYb5}}}}}}}}}}}}}}}}}}}}}}}}}}}}}}}}}}}}}}}}}}}}}}}}}}5bYGmZZ",
"mmmGYb5}}}}}}}}}}}}}}}}}}}}}}}}}}}}}}}}}}}}}}}}}}}}}}}}}}5bYGmmm",
"mmmGYb5}}}}}}}}}}}}}}}}}}}}}}}}}}}}}}}}}}}}}}}}}}}}}}}}}}5bYGmmm",
"mcemYb5}}}}}}}}}}}}}}}}}}}}}}}}}}}}}}}}}}}}}}}}}}}}}}}}}}5bYmecm",
"mc,cYb5}}}}}}}}}}}}}}}}}}}}}}}}}}}}}}}}}}}}}}}}}}}}}}}}}}5bYc,cm",
"mcwNYs&}}}}}}}}}}}}}}}}}}}}}}}}}}}}}}}}}}}}}}}}}}}}}}}}}}&sYNwcm",
"mbpNYr+O}}}}}}}}}}}}}}}}}}}}}}}}}}}}}}}}}}}}}}}}}}}}}}}}O+rYNpbm",
"mbpNYr$00}}}}}}}}}}}}}}}}}}}}}}}}}}}}}}}}}}}}}}}}}}}}}}00$rYNpbm",
"mbaNHr*q0}}}}}}}}}}}}}}}}}}}}}}}}}}}}}}}}}}}}}}}}}}}}}}0q*rHNabm",
"mmmd,tlk0}}}}}}}}}}}}}}}}}}}}}}}}}}}}}}}}}}}}}}}}}}}}}}0klt,dmmm",
"mmmd,tz7}}}}}}}}}}}}}}}}}}}}}}}}}}}}}}}}}}}}}}}}}}}}}}}}7zt,dmmm",
"mmmg,iC-}}}}}}}}}}}}}}}}}}}}}}}}}}}}}}}}}}}}}}}}}}}}}}}}-Ci,gmmm",
"mmmLQ~^}}}}}}}}}}}}}}}}}}}}}}}}}}}}}}}}}}}}}}}}}}}}}}}}}}^~QLmmm",
"mmmR]]]}}}}}}}}}}}}}}}}}}}}}}}}}}}}}}}}}}}}}}}}}}}}}}}}}}]]]Rmmm",
"%8`']I1}}}}}}}}}}}}}}}}}}}}}}}}}}}}}}}}}}}}}}}}}}}}}}}}}}1I]'`8%",
"#5/)`n.}}}}}}}}}}}}}}}}}}}}}}}}}}}}}}}}}}}}}}}}}}}}}}}}}}.n`)/5#",
"mdX;n:.}}}}}}}}}}}}}}}}}}}}}}}}}}}}}}}}}}}}}}}}}}}}}}}}}}.:n;Xdm",
"mu.=m:.}}}}}}}}}}}}}}}}}}}}}}}}}}}}}}}}}}}}}}}}}}}}}}}}}}.:m=.um",
"mu.=m:X}}}}}}}}}}}}}}}}}}}}}}}}}}}}}}}}}}}}}}}}}}}}}}}}}}X:m=.um",
"mdX+;+ }}}}}}}}}}}}}}}}}}}}}}}}}}}}}}}}}}}}}}}}}}}}}}}}}} +;+Xdm",
"muoooX }}}}}}}}}}}}}}}}}}}}}}}}}}}}}}}}}}}}}}}}}}}}}}}}}} Xoooum",
"%5///(_}}}}}}}}}}}}}}}}}}}}}}}}}}}}}}}}}}}}}}}}}}}}}}}}}}_(///5%",
"o,]]][{}}}}}}}}}}}}}}}}}}}}}}}}}}}}}}}}}}}}}}}}}}}}}}}}}}{[]]],o",
"VxX....}}}}}}}}}}}}}}}}}}}}}}}}}}}}}}}}}}}}}}}}}}}}}}}}}}....XxV",
"Vx#$@@O}}}}}}}}}}}}}}}}}}}}}}}}}}}}}}}}}}}}}}}}}}}}}}}}}}O@@$#xV",
"mmmd332}}}}}}}}}}}}}}}}}}}}}}}}}}}}}}}}}}}}}}}}}}}}}}}}}}233dmmm",
"mmmd3fM}}}}}}}}}}}}}}}}}}}}}}}}}}}}}}}}}}}}}}}}}}}}}}}}}}Mf3dmmm",
"mmmu3FY}}}}}}}}}}}}}}}}}}}}}}}}}}}}}}}}}}}}}}}}}}}}}}}}}}YF3ummm",
"mmmu3FY}}}}}}}}}}}}}}}}}}}}}}}}}}}}}}}}}}}}}}}}}}}}}}}}}}YF3ummm",
"mmmj3FY}}}}}}}}}}}}}}}}}}}}}}}}}}}}}}}}}}}}}}}}}}}}}}}}}}YF3jmmm",
"mcr53ry}}}}}}}}}}}}}}}}}}}}}}}}}}}}}}}}}}}}}}}}}}}}}}}}}}yr35rcm",
"mcrrash}}}}}}}}}}}}}}}}}}}}}}}}}}}}}}}}}}}}}}}}}}}}}}}}}}hsarrcm",
"mmcDYYI}}}}}}}}}}}}}}}}}}}}}}}}}}}}}}}}}}}}}}}}}}}}}}}}}}IYYDcmm",
"mmmAFFD}}}}}}}}}}}}}}}}}}}}}}}}}}}}}}}}}}}}}}}}}}}}}}}}}}DFFAmmm",
"mmmd333}}}}}}}}}}}}}}}}}}}}}}}}}}}}}}}}}}}}}}}}}}}}}}}}}}333dmmm",
"mmmd333}}}}}}}}}}}}}}}}}}}}}}}}}}}}}}}}}}}}}}}}}}}}}}}}}}333dmmm",
"mmmd333}}}}}}}}}}}}}}}}}}}}}}}}}}}}}}}}}}}}}}}}}}}}}}}}}}333dmmm",
"vmmd333}}}}}}}}}}}}}}}}}}}}}}}}}}}}}}}}}}}}}}}}}}}}}}}}}}333dmmv",
"vmmgwww}}}}}}}}}}}}}}}}}}}}}}}}}}}}}}}}}}}}}}}}}}}}}}}}}}wwwgmmv"
};
