/* XPM */
static char *result[] = {
/* columns rows colors chars-per-pixel */
"64 64 145 2 ",
"   c #080404",
".  c #080504",
"X  c #090504",
"o  c #080505",
"O  c #0A0504",
"+  c #0A0505",
"@  c #090604",
"#  c #080605",
"$  c #080705",
"%  c #0A0604",
"&  c #0A0605",
"*  c #0B0705",
"=  c #0B0606",
"-  c #0A0706",
";  c #0B0706",
":  c #0C0706",
">  c #0C0807",
",  c #0D0807",
"<  c #0E0808",
"1  c #0F0808",
"2  c #0E0908",
"3  c #0E0A08",
"4  c #0F0A09",
"5  c #0F090A",
"6  c #0D0A0B",
"7  c #0E0A0A",
"8  c #0F0A0A",
"9  c #0F0B0A",
"0  c #0F0A0B",
"q  c #0F0B0B",
"w  c #0F0B0C",
"e  c #0F0C0D",
"r  c #100B08",
"t  c #100A0A",
"y  c #100B0A",
"u  c #110B0B",
"i  c #100C0B",
"p  c #110C0B",
"a  c #100B0C",
"s  c #100B0D",
"d  c #110C0C",
"f  c #110D0C",
"g  c #110D0D",
"h  c #120C0C",
"j  c #120D0D",
"k  c #130D0D",
"l  c #120E0C",
"z  c #120E0D",
"x  c #130E0D",
"c  c #110C0E",
"v  c #120E0E",
"b  c #120F0E",
"n  c #140D0C",
"m  c #140D0D",
"M  c #140E0D",
"N  c #140F0D",
"B  c #140E0E",
"V  c #150E0E",
"C  c #140F0E",
"Z  c #150F0E",
"A  c #150F0F",
"S  c #160F0F",
"D  c #15100F",
"F  c #16100F",
"G  c #16110F",
"H  c #110D10",
"J  c #120C10",
"K  c #140D10",
"L  c #140E10",
"P  c #140F10",
"I  c #160F14",
"U  c #161010",
"Y  c #161110",
"T  c #171110",
"R  c #161111",
"E  c #171111",
"W  c #171210",
"Q  c #171211",
"!  c #171311",
"~  c #161012",
"^  c #161013",
"/  c #171013",
"(  c #171212",
")  c #171014",
"_  c #171114",
"`  c #161015",
"'  c #171015",
"]  c #181211",
"[  c #181212",
"{  c #181312",
"}  c #191312",
"|  c #191213",
" . c #181412",
".. c #191412",
"X. c #191512",
"o. c #191413",
"O. c #191513",
"+. c #1A1413",
"@. c #181214",
"#. c #191215",
"$. c #191116",
"%. c #181216",
"&. c #181217",
"*. c #1A1316",
"=. c #1A1317",
"-. c #181414",
";. c #191514",
":. c #1A1414",
">. c #1A1514",
",. c #1A1614",
"<. c #1A1615",
"1. c #1B1615",
"2. c #1A1616",
"3. c #1B1716",
"4. c #1C1514",
"5. c #1C1515",
"6. c #1C1615",
"7. c #1C1715",
"8. c #1C1716",
"9. c #1D1716",
"0. c #1C1816",
"q. c #1D1817",
"w. c #1E1817",
"e. c #1F1817",
"r. c #1C1319",
"t. c #1E1818",
"y. c #1E1918",
"u. c #1F1918",
"i. c #1F1A19",
"p. c #201918",
"a. c #201919",
"s. c #201A19",
"d. c #201A1A",
"f. c #211A1A",
"g. c #211B1A",
"h. c #221B1A",
"j. c #221B1B",
"k. c #201C1A",
"l. c #221C1A",
"z. c #221C1B",
"x. c #221C1C",
"c. c #231D1C",
"v. c #231E1D",
"b. c #241D1C",
"n. c None",
/* pixels */
"9.w.c.s.8.8.8.8.8.8.8.8.8.8.8.8.8.8.8.8.8.8.8.8.8.3.n.n.n.n.n.n.n.n.n.n.n.n.3.8.8.8.8.8.8.8.8.8.8.8.8.8.8.8.8.8.8.8.8.8.s.c.w.9.",
"w.u.c.f.q.8.8.8.8.8.8.8.8.8.8.8.8.8.8.8.8.8.8.8.8.2.n.n.n.n.n.n.n.n.n.n.n.n.2.8.8.8.8.8.8.8.8.8.8.8.8.8.8.8.8.8.8.8.8.q.f.c.u.w.",
"c.c.c.c.c.u.8.8.8.8.8.8.8.8.8.8.8.8.8.8.8.8.8.8.8.8.n.n.n.n.n.n.n.n.n.n.n.n.8.8.8.8.8.8.8.8.8.8.8.8.8.8.8.8.8.8.8.8.u.c.c.c.c.c.",
"c.c.c.c.c.g.u.u.y.6.8.8.8.8.8.8.8.8.8.8.8.8.8.8.8.8.n.n.n.n.n.n.n.n.n.n.n.n.8.8.8.8.8.8.8.8.8.8.8.8.8.8.8.8.6.y.u.u.g.c.c.c.c.c.",
"c.c.c.c.c.c.c.c.h.5.6.8.8.8.8.8.8.8.8.8.8.8.8.8.8.8.n.n.n.n.n.n.n.n.n.n.n.n.8.8.8.8.8.8.8.8.8.8.8.8.8.8.8.6.5.h.c.c.c.c.c.c.c.c.",
"c.x.u.u.u.u.u.[ ] 6.8.8.8.8.8.8.8.8.8.8.8.8.8.8.8.8.n.n.n.n.n.n.n.n.n.n.n.n.8.8.8.8.8.8.8.8.8.8.8.8.8.8.8.8.6.] [ u.u.u.u.u.x.c.",
"c.j.8.8.8.8.8.f f 8.8.8.8.8.8.8.8.8.8.8.8.8.8.8.8.8.n.n.n.n.n.n.n.n.n.n.n.n.8.8.8.8.8.8.8.8.8.8.8.8.8.8.8.8.8.f f 8.8.8.8.8.j.c.",
"c.j.8.1.<.D f D Y { { { { { { { { { { ;.8.<.>.1.8.8.n.n.n.n.n.n.n.n.n.n.n.n.8.8.1.>.<.8.;.{ { { { { { { { { { Y D f D <.1.8.j.c.",
"j.d.1.<.>.x 4 D ! o.o.;. .! ! ! ! ! Q o.8.>.;.<.1.8.n.n.n.n.n.n.n.n.n.n.n.n.8.1.<.;.>.8.o.Q ! ! ! ! !  .;.o.o.! D 4 x >.<.1.d.j.",
"8.1.;.;.o.x 4 D o.c.v.v.q.o.o.o.o. .Q o.8.>.o.o.;.8.n.n.n.n.n.n.n.n.n.n.n.n.8.;.o.o.>.8.o.Q  .o.o.o.o.q.v.v.c.o.D 4 x o.;.;.1.8.",
"8.1.o.o.o.C i Y o.c.z.i.8.o.o.o.o. .Q o.8.>.o.o.;.8.n.n.n.n.n.n.n.n.n.n.n.n.8.;.o.o.>.8.o.Q  .o.o.o.o.8.i.z.c.o.Y i C o.o.o.1.8.",
"8.1.o.o.o.D x Y o.c.u.o.o.o.o.o.o. .Q o.8.>.o.o.;.8.n.n.n.n.n.n.n.n.n.n.n.n.8.;.o.o.>.8.o.Q  .o.o.o.o.o.o.u.c.o.Y x D o.o.o.1.8.",
">.>.o.o.o.D k Y { q.6.o.o.o.o.o.o. .Q o.8.>.o.o.;.1.n.n.n.n.n.n.n.n.n.n.n.n.1.;.o.o.>.8.o.Q  .o.o.o.o.o.o.6.q.{ Y k D o.o.o.>.>.",
"o.o.o.o.o.A k Y ! o.o.o.o.o.o.o.o. .Q o.8.>.o.o.o.>.n.n.n.n.n.n.n.n.n.n.n.n.>.o.o.o.>.8.o.Q  .o.o.o.o.o.o.o.o.! Y k A o.o.o.o.o.",
"o.o.o.o.o.A k Y ! o.o.o.o.o.o.o.o. .Q o.8.>.o.o.o.>.n.n.n.n.n.n.n.n.n.n.n.n.>.o.o.o.>.8.o.Q  .o.o.o.o.o.o.o.o.! Y k A o.o.o.o.o.",
"o.o.o.o.o.A k Y ! o.o.o.o.o.o.o.o. .Q o.8.>.o.o.o.>.n.n.n.n.n.n.n.n.n.n.n.n.>.o.o.o.>.8.o.Q  .o.o.o.o.o.o.o.o.! Y k A o.o.o.o.o.",
"o.o.o.o.o.A k Y ! o.o.o.o.o.o.o.o. .Q o.8.>.o.o.o. .n.n.n.n.n.n.n.n.n.n.n.n. .o.o.o.>.8.o.Q  .o.o.o.o.o.o.o.o.! Y k A o.o.o.o.o.",
"o.o.o.o.o.A k Y ! o.o.o.o.o.o.o.o. .Q o.8.>.o.o.o. .n.n.n.n.n.n.n.n.n.n.n.n. .o.o.o.>.8.o.Q  .o.o.o.o.o.o.o.o.! Y k A o.o.o.o.o.",
"o.o.o.o.o.A k Y ! o.o.o.o.o.o.o.o. .Q o.8.>.o.o.o. .n.n.n.n.n.n.n.n.n.n.n.n. .o.o.o.>.8.o.Q  .o.o.o.o.o.o.o.o.! Y k A o.o.o.o.o.",
"o.o.o.o.o.A k Y ! o.o.o.o.o.o.o.o. .Q o.8.>.o.o.o.o.n.n.n.n.n.n.n.n.n.n.n.n.o.o.o.o.>.8.o.Q  .o.o.o.o.o.o.o.o.! Y k A o.o.o.o.o.",
"o.o.o.o.o.A k Y ! o.o.o.o.o.o.o.o. .Q o.8.>.o.o.o.>.n.n.n.n.n.n.n.n.n.n.n.n.>.o.o.o.>.8.o.Q  .o.o.o.o.o.o.o.o.! Y k A o.o.o.o.o.",
"o.o.o.o.o.A k Y ! o.o.o.o.o.o.o.o. .Q o.8.>.o.o.o.>.n.n.n.n.n.n.n.n.n.n.n.n.>.o.o.o.>.8.o.Q  .o.o.o.o.o.o.o.o.! Y k A o.o.o.o.o.",
"o.o.o.o.o.A k Y ! o.o.o.o.o.o.o.o. .Q o.8.>.o.o.o.>.n.n.n.n.n.n.n.n.n.n.n.n.>.o.o.o.>.8.o.Q  .o.o.o.o.o.o.o.o.! Y k A o.o.o.o.o.",
"o.o.o.o.o.A k Y } h.e.o.o.o.o.o.o. .Q o.8.>.o.o.o.o.n.n.n.n.n.n.n.n.n.n.n.n.o.o.o.o.>.8.o.Q  .o.o.o.o.o.o.e.h.} Y k A o.o.o.o.o.",
"o.o.o.o.o.A k Y } b.p.o.o.o.o.o.o. .Q o.8.>.o.o.o. .n.n.n.n.n.n.n.n.n.n.n.n. .o.o.o.>.8.o.Q  .o.o.o.o.o.o.p.b.} Y k A o.o.o.o.o.",
"o.o.o.o.o.A k Y } b.p.o.o.o.o.o.o. .Q o.8.>.o.o.o. .n.n.n.n.n.n.n.n.n.n.n.n. .o.o.o.>.8.o.Q  .o.o.o.o.o.o.p.b.} Y k A o.o.o.o.o.",
"o.o.o.o.o.A k Y o.b.p.o.o.o.o.o.o. .Q o.8.>.o.o.o.o.n.n.n.n.n.n.n.n.n.n.n.n.o.o.o.o.>.8.o.Q  .o.o.o.o.o.o.p.b.o.Y k A o.o.o.o.o.",
"o.o.o.o.o.A k Y o.c.u.o.o.o.o.o.o. .Q o.8.>.o.o.o.>.n.n.n.n.n.n.n.n.n.n.n.n.>.o.o.o.>.8.o.Q  .o.o.o.o.o.o.u.c.o.Y k A o.o.o.o.o.",
"o.o.o.o.o.B t F o.c.z.i.8.o.o.o.i.q.Q G N i q 9 f >.n.n.n.n.n.n.n.n.n.n.n.n.>.f 9 q i N G Q q.i.o.o.o.8.i.z.c.o.F t B o.o.o.o.o.",
"o.o.o.o.o.k 1 D o.c.v.v.q.o.o.o.v.k.Q N r +   . > >.n.n.n.n.n.n.n.n.n.n.n.n.>.> .   + r N Q k.v.o.o.o.q.v.v.c.o.D 1 k o.o.o.o.o.",
"o.o.o.o.o.x 4 D ! o.o.;.{ ! ! ! ;.o.Q l & c ' / L > n.n.n.n.n.n.n.n.n.n.n.n.> L / ' c & l Q o.;.! ! ! { ;.o.o.! D 4 x o.o.o.o.o.",
"o.o.o.o.o.x 4 D Q Y Q Q Q Q Y Y Y Q Q d o K r.=.^ . .     n.n.n.n.n.n.    . . ^ =.r.K o d Q Q Y Y Y Q Q Q Q Y Q D 4 x o.o.o.o.o.",
"o.o.o.o.o. . .p y C x k k k m m m h < 5 s ) r.&.%.*.*.#.0 n.n.n.n.n.n.0 #.*.*.%.&.r.) s 5 < h m m m k k k x C y p  . .o.o.o.o.o.",
"o.o.o.o.o.o. .z f C C B B B B B B k t a J I $.` ^ ^ / ~ $ n.n.n.n.n.n.$ ~ / ^ ^ ` $.I J a t k B B B B B B C C f z  .o.o.o.o.o.o.",
"o.o.o.o.o.o.o.o.o.o.o.o.o.o.o.o.o.o.o.@.' H w e 6 .   . n.n.n.n.n.n.n.n..   . 6 e w H ' @.o.o.o.o.o.o.o.o.o.o.o.o.o.o.o.o.o.o.o.",
"o.o.o.o.o.o.o.E T T T T T T T T T T T E _ P b v g 8 n.n.n.n.n.n.n.n.n.n.n.n.8 g v b P _ E T T T T T T T T T T T E o.o.o.o.o.o.o.",
"o.o.o.o.o.o.o.B k k k k k k k k k k k A O.X.......| n.n.n.n.n.n.n.n.n.n.n.n.| ......X.O.A k k k k k k k k k k k B o.o.o.o.o.o.o.",
"o.o.o.Q A A F 4.6.{ { { [ [ [ { { { { Q A F S { o.o.n.n.n.n.n.n.n.n.n.n.n.n.o.o.{ S F A Q { { { { [ [ [ { { { 6.4.F A A Q o.o.o.",
"o.o.o.T k k k p.l.8.8.8.6.5.8.8.8.8.8.{ k k k ( -.o.n.n.n.n.n.n.n.n.n.n.n.n.o.-.( k k k { 8.8.8.8.8.5.6.8.8.8.l.p.k k k T o.o.o.",
"o.Q , Z a.a.a.f 9 A A V V V V V V k 3 z >.:.:.7 7 o.n.n.n.n.n.n.n.n.n.n.n.n.o.7 7 :.:.>.z 3 k V V V V V V A A 9 f a.a.a.Z , Q o.",
"o.R , B w.w.t.7 > j k k k k k k k u : i { [ [ 7 7 o.n.n.n.n.n.n.n.n.n.n.n.n.o.7 7 [ [ { i : u k k k k k k k j > 7 t.w.w.B , R o.",
"o.o.o.z . . . u k k k k k k k k k k k 4 . . . Y o.o.n.n.n.n.n.n.n.n.n.n.n.n.o.o.Y . . . 4 k k k k k k k k k k k u . . . z o.o.o.",
"o.o.o.C , ; . u k k k k k k k k k k k 8 . ; , Q o.o.n.n.n.n.n.n.n.n.n.n.n.n.o.o.Q , ; . 8 k k k k k k k k k k k u . ; , C o.o.o.",
"o.o.o.T M , . u k k k k k k k k k k k 4 . 4 n ] o.o.n.n.n.n.n.n.n.n.n.n.n.n.o.o.] n 4 . 4 k k k k k k k k k k k u . , M T o.o.o.",
"o.o.o.C , - # > 2 x k k k k k k k h , : . ; , Q o.o.n.n.n.n.n.n.n.n.n.n.n.n.o.o.Q , ; . : , h k k k k k k k x 2 > # - , C o.o.o.",
"o.o.o.z O . $ . * x x k k k k k k p % X . . . Y o.o.n.n.n.n.n.n.n.n.n.n.n.n.o.o.Y . . . X % p k k k k k k x x * . $ . O z o.o.o.",
"o.Q , C w.y.t.O. .>.>.>.+.+.>.,.,.;.{ { { { { 4 4 o.n.n.n.n.n.n.n.n.n.n.n.n.o.4 4 { { { { { ;.,.,.>.+.+.>.>.>. .O.t.y.w.C , Q o.",
"o.Y O B c.c.c.w.7.7.7.7.6.5.8.0.0.0.8.8.8.8.8., , o.n.n.n.n.n.n.n.n.n.n.n.n.o., , 8.8.8.8.8.0.0.0.8.5.6.7.7.7.7.w.c.c.c.B O Y o.",
"o.{ x 8 X X X @ @ @ @ @ @ X . . . . . . . . . f C o.n.n.n.n.n.n.n.n.n.n.n.n.o.C f . . . . . . . . . X @ @ @ @ @ @ X X X 8 x { o.",
" .! C i = = = = = = = = = = = = = = = = = = = z D  .n.n.n.n.n.n.n.n.n.n.n.n. .D z = = = = = = = = = = = = = = = = = = = i C !  .",
"Q ! o.T k k k k k k k k k k k k k k k k k k k {  .{ n.n.n.n.n.n.n.n.n.n.n.n.{  .{ k k k k k k k k k k k k k k k k k k k T o.! Q ",
"Q ! o.Q A B k B A D A A A A A A A D Z D U U A  . .! n.n.n.n.n.n.n.n.n.n.n.n.!  . .A U U D Z D A A A A A A A D A B k B A Q o.! Q ",
"Q ! o.o.| A k Y ! o.o.o.o.o.o.o.o.o.Q o.8.>.o.o. .Q n.n.n.n.n.n.n.n.n.n.n.n.Q  .o.o.>.8.o.Q o.o.o.o.o.o.o.o.o.! Y k A | o.o.! Q ",
"Q Q {  .o.A k Y ! o.o.o.o.o.o.o.o.o.Q o.8.>.o.{ ! Q n.n.n.n.n.n.n.n.n.n.n.n.Q ! { o.>.8.o.Q o.o.o.o.o.o.o.o.o.! Y k A o. .{ Q Q ",
"Q Q Q { o.A k Y !  .o.o.o.o.o.o.o.o.Q o.8.>.o.! Q Q n.n.n.n.n.n.n.n.n.n.n.n.Q Q ! o.>.8.o.Q o.o.o.o.o.o.o.o. .! Y k A o.{ Q Q Q ",
"Q Q Q Q ! x i Y Q ! ! ! ! ! ! ! ! ! Q o.8.o.! Q Q Q n.n.n.n.n.n.n.n.n.n.n.n.Q Q Q ! o.8.o.Q ! ! ! ! ! ! ! ! ! Q Y i x ! Q Q Q Q ",
"Q Q Q Q Q x p Y { { { { { { { { { { { o.<. .Q Q Q Q n.n.n.n.n.n.n.n.n.n.n.n.Q Q Q Q  .<.o.{ { { { { { { { { { { Y p x Q Q Q Q Q ",
"Q Q Q Q Q Q Q <.8.8.8.8.8.8.8.8.8.8.8.;.Q Q Q Q Q Q n.n.n.n.n.n.n.n.n.n.n.n.Q Q Q Q Q Q ;.8.8.8.8.8.8.8.8.8.8.8.<.Q Q Q Q Q Q Q ",
"Q Q Q Q Q Q Q o.;.;.;.;.;.;.;.;.;.;.;. .Q Q Q Q Q Q n.n.n.n.n.n.n.n.n.n.n.n.Q Q Q Q Q Q  .;.;.;.;.;.;.;.;.;.;.;.o.Q Q Q Q Q Q Q ",
"Q Q Q Q Q Q Q Q Q Q Q Q Q Q Q Q Q Q Q Q Q Q Q Q Q Q n.n.n.n.n.n.n.n.n.n.n.n.Q Q Q Q Q Q Q Q Q Q Q Q Q Q Q Q Q Q Q Q Q Q Q Q Q Q ",
"Q Q Q Q Q Q Q Q Q Q Q Q Q Q Q Q Q Q Q Q Q Q Q Q Q Q n.n.n.n.n.n.n.n.n.n.n.n.Q Q Q Q Q Q Q Q Q Q Q Q Q Q Q Q Q Q Q Q Q Q Q Q Q Q ",
"Q Q Q Q Q Q Q Q Q Q Q Q Q Q Q Q Q Q Q Q Q Q Q Q Q Q n.n.n.n.n.n.n.n.n.n.n.n.Q Q Q Q Q Q Q Q Q Q Q Q Q Q Q Q Q Q Q Q Q Q Q Q Q Q ",
"Q Q Q Q Q Q Q Q Q Q Q Q Q Q Q Q Q Q Q Q Q Q Q Q Q Q n.n.n.n.n.n.n.n.n.n.n.n.Q Q Q Q Q Q Q Q Q Q Q Q Q Q Q Q Q Q Q Q Q Q Q Q Q Q ",
"W W W W W W W W W W W W W W W W W W W W W W W W W Q n.n.n.n.n.n.n.n.n.n.n.n.Q W W W W W W W W W W W W W W W W W W W W W W W W W "
};
