/* XPM */
static char *frame_011732487553[] = {
/* columns rows colors chars-per-pixel */
"64 64 203 2 ",
"   c None",
".  c #0E0E0D",
"X  c #131214",
"o  c #1A161B",
"O  c #1D181F",
"+  c #16151C",
"@  c #1D1922",
"#  c #1D1A29",
"$  c #251C27",
"%  c #261D2B",
"&  c #231E33",
"*  c #2A1F32",
"=  c #311F31",
"-  c #26212D",
";  c #262139",
":  c #292235",
">  c #322135",
",  c #3A263D",
"<  c #3E2829",
"1  c #6D3F3E",
"2  c #2F284A",
"3  c #2F2748",
"4  c #322B4C",
"5  c #392E42",
"6  c #342C53",
"7  c #372F5A",
"8  c #3B3045",
"9  c #3D3363",
"0  c #3E3468",
"q  c #422D49",
"w  c #4A2A4B",
"e  c #482746",
"r  c #502E4A",
"t  c #463A49",
"y  c #48354B",
"u  c #4B2E55",
"i  c #433651",
"p  c #453854",
"a  c #4D3B54",
"s  c #4E315D",
"d  c #473259",
"f  c #56355C",
"g  c #523757",
"h  c #4E3363",
"j  c #42376F",
"k  c #463A66",
"l  c #5A3A63",
"z  c #51396F",
"x  c #563A64",
"c  c #443972",
"v  c #493C79",
"b  c #533B75",
"n  c #533D7C",
"m  c #623F63",
"M  c #753D67",
"N  c #56455B",
"B  c #4C4651",
"V  c #6B434C",
"C  c #4F416E",
"Z  c #594669",
"A  c #59407C",
"S  c #594479",
"D  c #63426C",
"F  c #644C68",
"G  c #694774",
"H  c #644D75",
"J  c #694A76",
"K  c #6C4B7C",
"L  c #634778",
"P  c #6B537D",
"I  c #685177",
"U  c #73527D",
"Y  c #74447A",
"T  c #746377",
"R  c #9D3F51",
"E  c #9E5F5E",
"W  c #AD4A59",
"Q  c #B55456",
"!  c #884569",
"~  c #844B72",
"^  c #D14E56",
"/  c #FA5A5B",
"(  c #D15B6F",
")  c #C15870",
"_  c #D76E7B",
"`  c #FF6F6F",
"'  c #EC757B",
"]  c #FB7677",
"[  c #E96773",
"{  c #543F81",
"}  c #4F4288",
"|  c #4D4083",
" . c #564185",
".. c #54448C",
"X. c #5C4686",
"o. c #564794",
"O. c #594694",
"+. c #5C4994",
"@. c #5A4A9C",
"#. c #574896",
"$. c #664A83",
"%. c #704F82",
"&. c #6C5382",
"*. c #6E5587",
"=. c #725282",
"-. c #75558A",
";. c #765A8F",
":. c #7A588C",
">. c #795786",
",. c #614F9F",
"<. c #63519F",
"1. c #6A5499",
"2. c #7D5D95",
"3. c #755B9B",
"4. c #765A99",
"5. c #7C6095",
"6. c #7A679D",
"7. c #7D6C83",
"8. c #614FA0",
"9. c #6552A0",
"0. c #6A56A2",
"q. c #6F59A4",
"w. c #735CA5",
"e. c #795EA3",
"r. c #765FA9",
"t. c #7B61A6",
"y. c #7D63AA",
"u. c #84588B",
"i. c #9B5285",
"p. c #96548A",
"a. c #805F99",
"s. c #855894",
"d. c #9A5E92",
"f. c #A1598A",
"g. c #88678D",
"h. c #85748B",
"j. c #83639D",
"k. c #886797",
"l. c #94629E",
"z. c #9A739F",
"x. c #BF708F",
"c. c #8565A3",
"v. c #8A6AA5",
"b. c #8265AB",
"n. c #8669AD",
"m. c #8C6DAC",
"M. c #8867A5",
"N. c #906DA3",
"B. c #906FAF",
"V. c #9B76A9",
"C. c #866CB2",
"Z. c #8C6EB2",
"A. c #906FB0",
"S. c #8E70B2",
"D. c #9473B5",
"F. c #9876B6",
"G. c #9C79B6",
"H. c #9775B8",
"J. c #9F7BB8",
"K. c #A37BAA",
"L. c #A17EB6",
"P. c #A27EB8",
"I. c #D06E89",
"U. c #8C858F",
"Y. c #948598",
"T. c #9A88A8",
"R. c #9081BD",
"E. c #9D95A7",
"W. c #A08DA3",
"Q. c #A797AB",
"!. c #A580B7",
"~. c #AC84B3",
"^. c #A681B9",
"/. c #A680B9",
"(. c #A983BA",
"). c #AB85BB",
"_. c #AF88BC",
"`. c #B28ABC",
"'. c #B58CBD",
"]. c #B68DBE",
"[. c #B38BBC",
"{. c #AEA5B6",
"}. c #BCABBC",
"|. c #B4A9B9",
" X c #B8B1BE",
".X c #EF8D8C",
"XX c #FC8787",
"oX c #FF9292",
"OX c #B098C4",
"+X c #B8ADC8",
"@X c #CBBDCB",
"#X c #C2B8C6",
"$X c #D0C2CF",
"%X c #CFC5D1",
"&X c #D7CAD7",
"*X c #DBD3DE",
"=X c #E2DAE4",
"-X c #E0D7E2",
";X c #EBE2EA",
":X c #EFE7F1",
">X c #F5ECF5",
",X c #FCF3FC",
"<X c #FFFBFF",
/* pixels */
"                                                                                                                                ",
"                                                                                                                                ",
"                                                                                                                                ",
"                                                                                                                                ",
"                                                                                                                                ",
"                                                                                                                                ",
"                                                                                                                                ",
"                                                                                                                                ",
"                                                                                                                                ",
"                                                                                                                                ",
"                                                                                                                                ",
"                                                                                                                                ",
"                                                                                                                                ",
"                                                                                            @.b.N                               ",
"                                                                                            9.S.N                               ",
"                                                                                        w.n.(.G.i                               ",
"                                                                                      y._.`.L.y.4                               ",
"                        w.w.@.              @.h                 9.r.L             w.n.^.[.P.C.S ;                               ",
"                      f v.C.@.@.            b =.m   1.U       9.y.D.=.        @.w.L.].[.P.D.y.6                                 ",
"                      f c.D.Z.J.y.,.<.,.    >.~.G X.D.N.    n.C.D.a.l     s   @.n.].].`.F.Z.w.6                                 ",
"                        D v.D.(.(.L.L.F.0.A :._.v.L B.2.b y.D.D.D.:.w   e.l 1.L.).].].`.F.n.@.6                                 ",
"                          D D.D.).].].`.).u.-.^.D.3.Z.b.w.D.D.D.D.2.S y.m.L V.].`.`.`.J.D.w.v @                                 ",
"                          l j.D.P.`._.[.].z.j.D.D.D.D.D.D.D.D.D.D.D.m.D.D.e.!.`.^.^.J.D.n.8.j                                   ",
"                            D D.D.(.P.`.].K.v.D.D.D.D.D.D.D.D.D.D.D.D.D.D.D.F.^.^.J.D.m.q.@.j                                   ",
"                            l j.D.P.^.(.].V.j.J.P.P.P.J.G.G.D.D.D.D.D.D.D.D.D.J.^.D.D.y.@.@.c                                   ",
"                              D j.D.J.F.F.D.^.`.].].`.^.^.P.F.D.D.D.D.D.D.D.D.F.J.D.D.w.@...3                                   ",
"                                -.D.D.j.=.!.].].].].`.^.P.P.D.D.D.D.D.D.D.D.D.D.D.D.n.<.@.v X                                   ",
"                                l 2.j.a V.].].].].].].(.D.D.D.D.D.D.D.D.D.D.D.D.D.D.w.@.@.c o                   w               ",
"                                  f H a ~.].].].].].].^.D.D.D.D.D.D.D.D.D.D.D.D.D.n.9.@.} : q               % &.l               ",
"                                  e , j._.].].].]._.^.D.D.D.D.D.D.D.D.D.D.D.D.D.D.r.@.@.| ; b e       t t t *.m.K               ",
"                    a y           > a m.G.(.(.(.^.F.D.D.D.D.D.D.D.D.c.:.v.D.D.D.D.w.@.@...9 n l g i Z K.`.`.N.v.D.              ",
"              g N I V.g.g         o *.2.D.D.D.D.D.D.D.D.D.D.J.P.D.c.~ R u.S.D.D.b.<.@.@.@.@.+.a.D.J.^.(.].K.>.=.M.-.l =         ",
"              D `.].].`.g.J f l e , ;.-.:.D.D.D.D.D.D.D.D.J.`.`.m.~ ^ / i.C.D.D.b.<.@.@.@.,.b.D.D.(.P.`.].K.u.>.c.H H           ",
"                g.(.).[.`.D.3.+. .4.n.s.W =.D.D.D.D.D.D.D.^.].v.N _ ` / i.C.D.n.t.w.@.@.@.9.D.D.P.P.D.P.`.].K.V.v.-             ",
"                U D.F.G.J.L.w.@.@.n.Z.u./ W $.t.D.D.D.D.D.P.K.y < .XoX` i.C.D.6.-.n.<.@.@.<.b.D.F.D.D.D.P.`.^.N :               ",
"              l m.D.D.D.D.Z.<.@.#.b.Z.s.[ XXV r s.D.D.D.D.y.G W 1 .XoX] p.Z.2.D v.D.q.@.@.@.q.D.D.D.D.D.D.F.v.5                 ",
"            e l 2.v.D.D.D.n.0.@.k ;.Z.b.d.XXE Q ~ n.D.D.D.Z.e.x.' XX' f.c.2.F 5 m.D.w.@.@.@.0.D.D.D.D.D.Z.3.i                   ",
"                w G :.c.y.0.@.@.4 P y.*.Y _ ] I.c.Z.D.D.D.D.D.c.I.( ! 6.OXz.T Z D.D.w.@.@.@.,.w.y.y.r.3.S 0                     ",
"                    e S +.@.@.@.2 &.m.L P M ) l.Z.D.D.D.D.D.D.:.%.J T }.>X=Xt v.D.D.w.@.@.@.@.@.@.c 7 6                         ",
"                        b @.@.@.2 &.D.y.T.h.H =.=.K =.=.=.K =.h.Q.Y.{.<X>XY.I m.D.D.w.@.@.@.@.@.{ * $ X                         ",
"                            h h * &.H.n.R.+XQ.@X#Xh.}.@X@XY.{.;X<X-X#X>X;XB c.D.D.n.0.@.@.@.@.@...v u                           ",
"                                o P D.D.C.6.@X<X>XE.:X<X<X X*X<X<X<X#X XU.*.D.D.D.y.@.@.@.@.@.@.@.@.h                           ",
"                                  u j.D.D.t.OX,X<X@X*X<X<X&X%X,X<X,X{.N P D.D.D.D.w.@.@.@.@.@.@.@.@.h                           ",
"                                  O ;.D.D.D.5.Q.$X-X{.<X<X,XQ.-X%XQ.J -.Z.D.D.D.n.9.@.@.@.@.@.@.@.@.h                           ",
"                                    &.D.D.D.D.-.P W.h.}.}.}.7.E.U -.D.D.D.D.D.D.w.@.@.@.@.@.@.@.@. .s                           ",
"                                    q v.D.D.D.D.A.=.K K K K K %.m.D.D.D.D.D.D.Z.9.@.@.@.@.@.@.@.@.h e                           ",
"                                      =.D.D.D.D.D.D.D.D.D.D.D.D.D.D.D.D.D.D.D.y.@.@.@.@.@.@.@.@.@.h h u e                       ",
"                                      q v.D.D.D.D.D.D.D.D.D.D.D.D.D.D.D.D.D.b.<.@.@.@.@.@.@.@.@.n b O.n n d                     ",
"                                        p n.D.D.D.D.D.D.D.D.D.D.D.D.D.D.D.y.<.@.@.@.@.@.@.@.#.@.z  .@.@.@.9                     ",
"                                      , 3 1.n.D.D.D.D.D.D.D.D.D.D.D.D.Z.y.<.@.@.@.,.,.,.8.+.b o.#.@.@.@.j #                     ",
"                                      s ..@.@.w.n.Z.D.D.D.D.D.D.S.Z.b.0.@.@.@.9.q.n.Z.Z.D.D.*.9 o.@.} j #                       ",
"                                      s @.@.@...+.8.w.y.b.y.b.y.q.@.@.@.@.@.0.Z.D.D.D.J.`._.G.P k 0 ; +                         ",
"                                      s X.w.0.A b n @.@.@.@.@.@.@.@.@.@.@.X.c.D.D.D.D.).].].).D.p .                             ",
"                                        D D.Z.y.$.z 6 j @.@.@.@.@.@.@.@.#.x v.D.D.D.D.P.`.].).D.p                               ",
"                                        l 2.D.D.Z.t.C 7 2 4 | #.o.o.o.o.9 > J m.D.D.D.D.P._.J.D.p                               ",
"                                        l 3.b.y.Z.m.e.9 .   & & & & & &       J m.D.D.D.D.F.D.m.i                               ",
"                                        * Z L &.5.8 - #                         %.B.D.D.D.D.D.Z                                 ",
"                                          O O @ $                               u -.H.H.D.Z.Z.k                                 ",
"                                                                                  G &.&.m.e.-.z                                 ",
"                                                                                    $ @ Z x * X                                 ",
"                                                                                          .                                     ",
"                                                                                                                                ",
"                                                                                                                                ",
"                                                                                                                                "
};
