/* XPM */
static char *frame_021732487553[] = {
/* columns rows colors chars-per-pixel */
"64 64 205 2 ",
"   c None",
".  c #0E0F0E",
"X  c #16151A",
"o  c #1B161C",
"O  c #171519",
"+  c #191721",
"@  c #1D1A29",
"#  c #1E1A21",
"$  c #231C25",
"%  c #231E2A",
"&  c #2D1E2E",
"*  c #281F33",
"=  c #26212B",
"-  c #2B233C",
";  c #2B2435",
":  c #37243A",
">  c #3E292A",
",  c #633938",
"<  c #2F294B",
"1  c #2C2643",
"2  c #332A4C",
"3  c #3D2D45",
"4  c #3C3345",
"5  c #342C54",
"6  c #3A315D",
"7  c #3F3568",
"8  c #3C3362",
"9  c #4A2A4C",
"0  c #452745",
"q  c #493A4D",
"w  c #46354C",
"e  c #4C2F59",
"r  c #4F2E51",
"t  c #502F52",
"y  c #443751",
"u  c #453853",
"i  c #4E315E",
"p  c #4C3757",
"a  c #54345A",
"s  c #413465",
"d  c #4F3363",
"f  c #42376D",
"g  c #4A396C",
"h  c #503465",
"j  c #543C60",
"k  c #5B3A62",
"l  c #573A6C",
"z  c #443973",
"x  c #473B78",
"c  c #493D78",
"v  c #533A75",
"b  c #543C7A",
"n  c #52445C",
"m  c #4C4651",
"M  c #6A4350",
"N  c #5D4261",
"B  c #5A466C",
"V  c #5B467A",
"C  c #62416D",
"Z  c #654969",
"A  c #644571",
"S  c #684776",
"D  c #6B4A76",
"F  c #6C4B7B",
"G  c #654978",
"H  c #704C72",
"J  c #6A527E",
"K  c #665279",
"L  c #75537B",
"P  c #785D7D",
"I  c #76607A",
"U  c #903C51",
"Y  c #895352",
"T  c #A3454A",
"R  c #A74A5E",
"E  c #814C73",
"W  c #8C4666",
"Q  c #C94B55",
"!  c #FF5A5A",
"~  c #EC565C",
"^  c #DC687C",
"/  c #C26872",
"(  c #EE676F",
")  c #FF6D6D",
"_  c #F57779",
"`  c #E5737C",
"'  c #553F81",
"]  c #4E4186",
"[  c #554283",
"{  c #5B4586",
"}  c #53428A",
"|  c #594793",
" . c #5B4893",
".. c #5B4A9C",
"X. c #564794",
"o. c #684B82",
"O. c #704F82",
"+. c #6C5382",
"@. c #6E528C",
"#. c #725182",
"$. c #75558A",
"%. c #79578B",
"&. c #7A588E",
"*. c #755989",
"=. c #614F9D",
"-. c #63519F",
";. c #6A549C",
":. c #7A5A92",
">. c #73599C",
",. c #745799",
"<. c #7C6685",
"1. c #7C6095",
"2. c #786B9E",
"3. c #5F4EA0",
"4. c #6552A1",
"5. c #6955A1",
"6. c #6D58A4",
"7. c #735CA5",
"8. c #775FA9",
"9. c #795FA7",
"0. c #7960A7",
"q. c #7C62A9",
"w. c #85548D",
"e. c #9B5385",
"r. c #985388",
"t. c #865997",
"y. c #985F98",
"u. c #AD5983",
"i. c #85658A",
"p. c #86738A",
"a. c #83629B",
"s. c #8B6995",
"d. c #966B97",
"f. c #98769E",
"g. c #B4618C",
"h. c #8565A3",
"j. c #8965A3",
"k. c #8A69A5",
"l. c #8266AB",
"z. c #8569AD",
"x. c #8C6DAD",
"c. c #8768A7",
"v. c #916FAE",
"b. c #936FA3",
"n. c #8F70AF",
"m. c #9672A4",
"M. c #9774A9",
"N. c #866CB1",
"B. c #8B6DB1",
"V. c #906FB0",
"C. c #8F70B4",
"Z. c #9473B5",
"A. c #9977B6",
"S. c #9C7AB6",
"D. c #9675B8",
"F. c #9F7BB8",
"G. c #9877B8",
"H. c #A179A7",
"J. c #A37EB9",
"K. c #D27086",
"L. c #8C858F",
"P. c #958898",
"I. c #9A939C",
"U. c #9A88A8",
"Y. c #9081BD",
"T. c #9D95A7",
"R. c #A487A9",
"E. c #A797AB",
"W. c #A580B7",
"Q. c #AA83B2",
"!. c #A681B9",
"~. c #A681B9",
"^. c #AB84BB",
"/. c #AB85BB",
"(. c #AF88BC",
"). c #B28ABC",
"_. c #B58CBD",
"`. c #B48CBD",
"'. c #B68DBD",
"]. c #B68DBE",
"[. c #B48BBD",
"{. c #B88EBF",
"}. c #AEA5B6",
"|. c #BCABBC",
" X c #B4A9B9",
".X c #B8B1BE",
"XX c #EF8C8C",
"oX c #FF8D8C",
"OX c #F38486",
"+X c #FF9292",
"@X c #B8ADC8",
"#X c #C2B5C3",
"$X c #CBBDCB",
"%X c #C3BAC9",
"&X c #D0C2CF",
"*X c #CFC5D1",
"=X c #D7CAD7",
"-X c #DBD3DE",
";X c #E2DAE4",
":X c #E0D7E2",
">X c #EBE2EA",
",X c #EFE7F1",
"<X c #F4ECF5",
"1X c #FCF3FC",
"2X c #FFFBFF",
/* pixels */
"                                                                                                                                ",
"                                                                                                                                ",
"                                                                                                                                ",
"                                                                                                                                ",
"                                                                                                                                ",
"                                                                                                                                ",
"                                                                                                                                ",
"                                                                                                                                ",
"                                                                                                                                ",
"                                                                                                                                ",
"                                                                                                                                ",
"                                                                                                                                ",
"                                                                                                                                ",
"                                                                                            4.z.n                               ",
"                                                                                        5.0.W.S.u                               ",
"                                                                  o.9                 q.~.(.J.l.2                               ",
"                                                                0.%.9             7.l.W._.~.B.[ -                               ",
"                        7.7...              @.C   |           8.Z.&.9           7.F._.[.~.Z.0.5                                 ",
"                      a j.B.l.x.0.....      s.d.C  .#.      8.Z.D.&.9     d ;.x.F._._.).A.B.4.5                                 ",
"                        A x.A.^.~.S.S.Z...v i._.j.;.S.#.v 8.Z.Z.D.:.l 3.7.k m._._._._.J.Z.0.c %                                 ",
"                        a j.Z.J._._.{.W.5.V %./.Z.G v.l.>.Z.Z.Z.Z.x.c.N.z.A Q._.).).).S.C.7.f                                   ",
"                          C Z.D.^._._.).^.i.$.G.Z.>.B.Z.Z.Z.Z.Z.Z.Z.D.D.Z.>.W._.^.~.J.D.B.4.f                                   ",
"                          k a.Z.J.).(._.{.s.$.D.Z.Z.Z.Z.Z.Z.Z.Z.Z.Z.Z.Z.Z.Z.A.~.~.F.D.B.7...z                                   ",
"                            k h.D.J.J.^._.m.a.F.J.J.J.S.A.A.Z.Z.Z.Z.Z.Z.Z.Z.Z.A.F.Z.Z.0...X.5                                   ",
"                              A h.D.F.A.S.Z.J.(._._.).~.~.J.A.Z.Z.Z.Z.Z.Z.Z.Z.Z.Z.Z.B.5...x X                                   ",
"                                $.D.Z.k.&.S._._._._.).~.J.J.A.Z.Z.Z.Z.Z.Z.Z.Z.Z.Z.Z.0.....x O                                   ",
"                                k a.h.n m._._._._._._.^.A.A.Z.Z.Z.Z.Z.Z.Z.Z.Z.Z.Z.x.5...} - :               B C                 ",
"                                  k J q /._._._._._._.~.Z.Z.Z.Z.Z.Z.Z.Z.Z.Z.Z.Z.Z.8.....] * 9           $ p k.S                 ",
"                      ;           0 : a.)._._._._.).^.D.Z.Z.Z.Z.Z.Z.D.D.C.Z.Z.Z.x.5.......} b 3 =   = q f.m.V.x.A a 0           ",
"                L P N s.L           y x.F.^.^.^.^.A.D.Z.Z.Z.Z.Z.Z.D.k.:.7.B.Z.D.q......... .+.k.k.Z s.Q.Q.i.%.x.x.G %           ",
"                H H.)._.Q.L C     O +.a.Z.D.Z.Z.Z.Z.Z.Z.Z.Z.S.F.D.k.E U w.C.Z.D.0.........4.Z.D.J.~.~._.H.s.L :.x.;             ",
"                  %.^.)._.(.j.G j : *.#.:.Z.Z.Z.Z.Z.Z.Z.Z.S.).).v.E Q ! e.N.Z.D.l.=.......4.Z.Z.Z.F.^.[._._.d.b.K %             ",
"                C a.Z.F.J.J.J.q.{ o.c.t.W :.Z.Z.Z.Z.Z.Z.Z.~._.M.Z / ) ! e.N.D.B.q.7.......q.Z.S.A.S.A.~.[.(.<.i.                ",
"                a.Z.Z.Z.Z.D.Z.6...z.B.w.~ R o.l.Z.Z.Z.Z.Z.J.Q.q > XXoX) e.N.D.a.$.z.-.....l.Z.A.A.Z.Z.D.S.Z.y                   ",
"              t k $.Z.Z.Z.B.7.....l.B.w.( OXM t a.Z.Z.Z.Z.l.D T , XX+X_ r.B.a.A k.Z.6.....5.Z.Z.Z.Z.Z.Z.z.V                     ",
"                0 a $.B.B.7.....g :.C.l.d.+XY T E c.D.Z.Z.B.,.K.` oX_ u.l.h.N 3 n.Z.7.....=.q.Z.D.Z.B.7.g %                     ",
"                      o.=.......2 J >.z.t.^ _ K.t.B.Z.Z.Z.Z.B.j.K.^ g.,.%.i.I.4 x.Z.7.........7.l.0.=.f @                       ",
"                        b ......< J $.$.,.y.^ y.B.Z.Z.Z.Z.Z.Z.Z.D.k.%.L p.#XI.B Z.Z.7.............x 6 +                         ",
"                          } v } 2 +.z.G P #.h.D.D.D.D.D.D.D.Z.%.O.S I |.<X;Xq k.Z.Z.7.........} s 5 *                           ",
"                              d - +.Z.q.U.p.D #.#.F #.#.#.F #.p.E.P.}.2X1XP.K x.Z.B.5.........} s ] h                           ",
"                                o J D.z.Y.@XE.$X#Xp.|.$X$XP.}.>X2X:X#X<X>Xm h.D.Z.0.................d                           ",
"                                  a h.Z.N.2.%X2X<XT.,X2X2X.X-X2X2X2X#X.XL.*.Z.Z.Z.7.................d                           ",
"                                  $ :.D.Z.0.@X1X2X$X-X2X2X=X*X1X2X1X}.n J Z.Z.Z.x.5.................d                           ",
"                                  O +.Z.Z.Z.1.E.&X:X}.2X2X1XE.:X*XE.D $.B.Z.Z.Z.0.................} e                           ",
"                                    w k.D.Z.Z.$.J R.p.|.|.|.<.U.L $.Z.Z.Z.Z.Z.B.5.................d i                           ",
"                                      $.Z.Z.Z.Z.V.#.F F F F F O.x.Z.Z.Z.Z.Z.Z.q...................h ' v                         ",
"                                      w x.Z.Z.Z.Z.D.D.D.D.D.D.D.Z.Z.Z.Z.Z.Z.z.5.................[ v | | v v 2                   ",
"                                        B z.Z.Z.Z.Z.Z.Z.Z.Z.Z.Z.Z.Z.Z.Z.Z.l.5...................l [ ........<                   ",
"                                        1 ;.z.Z.Z.Z.Z.Z.Z.Z.Z.Z.Z.Z.Z.Z.l.-............... .v | | | ......f @                   ",
"                                      e } ..-.7.z.B.Z.Z.Z.Z.D.Z.Z.B.z.6.=.......5.l.B.B.B.x.+.s X.....} f @                     ",
"                                      i ......| ..4.0.N.N.N.N.z.7.-...........q.B.Z.Z.D.A.A.Z.p 7 } z @ +                       ",
"                                      i ......b b ' ........................6.Z.Z.Z.Z.S.).(.F.J 6 - X                           ",
"                                      e { 7.6...b g 6 z ..................{ h.Z.Z.Z.Z.^._._.^.Z.u                               ",
"                                        C Z.B.q.6.| 6 5 5 5 } ..........f e k.D.Z.Z.Z.J.)._.^.D.u                               ",
"                                        k &.Z.Z.B.q.6.7 .   1 2 < < < < *   O.x.Z.Z.Z.D.J.(.S.D.u                               ",
"                                        k ,.l.0.B.x.7.8                       S x.Z.Z.Z.D.A.Z.n.y                               ",
"                                        & B A +.1.4 = @                         O.v.Z.Z.Z.Z.Z.B                                 ",
"                                          o o # %                               r $.D.D.Z.B.B.g                                 ",
"                                                                                  S +.+.x.9.$.g                                 ",
"                                                                                    $ # B j & .                                 ",
"                                                                                          .                                     ",
"                                                                                                                                ",
"                                                                                                                                ",
"                                                                                                                                "
};
