/* XPM */
static char *frame_111732487554[] = {
/* columns rows colors chars-per-pixel */
"64 64 208 2 ",
"   c None",
".  c #121214",
"X  c #1A161B",
"o  c #17161E",
"O  c #1E1B2B",
"+  c #231E26",
"@  c #231B27",
"#  c #221E32",
"$  c #28222C",
"%  c #2D2533",
"&  c #27223C",
"*  c #2B2239",
"=  c #332A3C",
"-  c #342338",
";  c #32242E",
":  c #4E333E",
">  c #2B2543",
",  c #2F294A",
"<  c #342C4C",
"1  c #382D44",
"2  c #3D3146",
"3  c #342C54",
"4  c #372E59",
"5  c #3C315B",
"6  c #3A3055",
"7  c #3C3263",
"8  c #4C2B4D",
"9  c #462745",
"0  c #4B2B50",
"q  c #4D2F5A",
"w  c #463A54",
"e  c #4E3959",
"r  c #4D3859",
"t  c #59385F",
"y  c #55365B",
"u  c #49384B",
"i  c #603858",
"p  c #4E3364",
"a  c #4F3C64",
"s  c #42376C",
"d  c #45396C",
"f  c #483567",
"g  c #523564",
"h  c #5C3B64",
"j  c #51366B",
"k  c #5B3D6A",
"l  c #553C64",
"z  c #4A3C7C",
"x  c #483A72",
"c  c #523A75",
"v  c #543C79",
"b  c #603F6A",
"n  c #55435A",
"m  c #794B52",
"M  c #534263",
"N  c #5B4369",
"B  c #5B4867",
"V  c #5C4075",
"C  c #5E4B73",
"Z  c #59417C",
"A  c #63436E",
"S  c #654469",
"D  c #655C6C",
"F  c #664573",
"G  c #624C74",
"H  c #6B4972",
"J  c #6C4C7C",
"K  c #664B78",
"L  c #75557B",
"P  c #714C6F",
"I  c #76687B",
"U  c #7B737A",
"Y  c #934C52",
"T  c #BF575E",
"R  c #8D4763",
"E  c #924763",
"W  c #E75558",
"Q  c #EE5961",
"!  c #D7657F",
"~  c #DB6476",
"^  c #FF6C6B",
"/  c #F87A7C",
"(  c #ED6971",
")  c #4B3E80",
"_  c #533F80",
"`  c #4F4187",
"'  c #564186",
"]  c #55438C",
"[  c #5E488E",
"{  c #5C4686",
"}  c #554694",
"|  c #584795",
" . c #574897",
".. c #5A4A96",
"X. c #5A4A9C",
"o. c #6E4E81",
"O. c #654C8A",
"+. c #704F81",
"@. c #7A4F81",
"#. c #6C508B",
"$. c #725183",
"%. c #79598C",
"&. c #755987",
"*. c #614F9E",
"=. c #63519E",
"-. c #6B5498",
";. c #7C5C94",
":. c #7A5499",
">. c #735A9C",
",. c #785796",
"<. c #7F6386",
"1. c #7E639A",
"2. c #796496",
"3. c #5C4CA0",
"4. c #6653A1",
"5. c #6A56A2",
"6. c #6E58A3",
"7. c #745DA5",
"8. c #795FA3",
"9. c #755DA8",
"0. c #7B61A6",
"q. c #7D63AA",
"w. c #7F68AC",
"e. c #815C86",
"r. c #975286",
"t. c #805F99",
"y. c #875E98",
"u. c #995E96",
"i. c #A05789",
"p. c #826886",
"a. c #87778D",
"s. c #82629B",
"d. c #866396",
"f. c #946998",
"g. c #8F7695",
"h. c #95769A",
"j. c #B26491",
"k. c #825FA0",
"l. c #8465A3",
"z. c #8769A6",
"x. c #8969A6",
"c. c #8266AC",
"v. c #8569AE",
"b. c #8C6CAC",
"n. c #8964A2",
"m. c #906FAF",
"M. c #8F70AD",
"N. c #9472A4",
"B. c #9C75A3",
"V. c #9775A7",
"C. c #8569B0",
"Z. c #8D6EB1",
"A. c #906FB1",
"S. c #8F70B3",
"D. c #9473B5",
"F. c #9876B6",
"G. c #9C79B6",
"H. c #9775B8",
"J. c #9E7BB8",
"K. c #A27EB9",
"L. c #A27EB7",
"P. c #C66988",
"I. c #C8748D",
"U. c #EB7F83",
"Y. c #918498",
"T. c #9D95A8",
"R. c #9A8FA3",
"E. c #A28FA3",
"W. c #AD9AAD",
"Q. c #A595A9",
"!. c #AB83B3",
"~. c #A680B9",
"^. c #A680B9",
"/. c #A883BA",
"(. c #AB85BA",
"). c #AD86BB",
"_. c #AA84BA",
"`. c #B28ABC",
"'. c #B58CBD",
"]. c #B68DBD",
"[. c #B68DBE",
"{. c #B48BBD",
"}. c #A899BC",
"|. c #B3ACB9",
" X c #B9A9BA",
".X c #BCB0BF",
"XX c #ACA3B4",
"oX c #FE8C8B",
"OX c #FF8281",
"+X c #FF9797",
"@X c #E68386",
"#X c #C0BABF",
"$X c #B5A7CA",
"%X c #C8BDCA",
"&X c #CCC2CF",
"*X c #C6C0C6",
"=X c #CFC2D0",
"-X c #D7CEDA",
";X c #DACDD9",
":X c #D1C5D2",
">X c #DDD2DE",
",X c #DED6E3",
"<X c #E3D9E2",
"1X c #EEE6F0",
"2X c #F5EDF6",
"3X c #FCF4FC",
"4X c #FFFBFF",
"5X c #EDE5EE",
/* pixels */
"                                                                                                                                ",
"                                                                                                                                ",
"                                                                                                                                ",
"                                                                                                                                ",
"                                                                                                                                ",
"                                                                                                                                ",
"                                                                                                  =.                            ",
"                                                                                              4.6.b.2                           ",
"                                                                                            0.D./.M.=                           ",
"                                                                    5.V                 =.b.`.).D.>.*                           ",
"                                                                  5.v.J               q.M.`.`.G.0.d O                           ",
"                            X.                  g     Z         4.c.F.J     ]     X.c.(.].`.J.Z.5.&                             ",
"                          k c.9.*.=.          ..d.S   >.@.    4.v.D.F.J   4.>.g q.G.).].].).F.0. .&                             ",
"                          h b.Z.D.L.9.4.4.4.  g B.B.V 8.G.J [ v.D.D.F.+.{ C.l.F !.].`.{.).G.Z.5.4                               ",
"                            F b.F./.(././.D.5.k h.`.;.o.F.8.c.D.D.D.D.b.b.D.b.8.`.`.~./.G.D.c.X.,                               ",
"                              $.F.F.).].].`.(.H d.~.b.0.D.D.D.D.D.D.D.D.D.D.D.D.J.~.~.G.D.v.5.X.,                               ",
"                              F x.F.~.`.).].{.H t.F.D.D.D.D.D.D.D.D.D.D.D.D.D.D.D.J.G.D.Z.6.X.) &                               ",
"                                F x.F.K.K.(.].d.x.K.K.K.K.G.J.F.D.D.D.D.D.D.D.D.D.D.D.D.c.X.X.3                                 ",
"                                  F x.F.J.F.D.G./.`.].].).~.~.K.F.D.D.D.D.D.D.D.D.D.D.S.5.X.X.3                                 ",
"                                  8 t.F.D.;.d.).].].].].`.K.~.J.F.D.D.D.D.D.D.D.D.D.D.c.X.X.z *               G h               ",
"                                    A x.&.n !.].].].].].].K.F.F.D.D.D.D.D.D.D.D.D.D.D.6.X.X.x @           + C x.A               ",
"                      %     %         b C B ].].].].].].`.K.D.D.D.D.D.D.D.D.D.D.D.D.v.=.X.X. .j       $ n B.N.A.x.A q 9         ",
"                    8 p.B L f.S       - 2 M.`.].].].`.(.K.F.D.D.D.D.D.D.F.D.v.D.D.D.q.*.X.X. .V r 2 n N.!.!.e.%.b.x.N X         ",
"                      e.!.{.].f.H t   $ C D.K./././.K.F.D.D.D.D.D.D.D.F.s.%.8.D.D.D.7.X.X.X.[ ;.D.G.L.~.].B.h.H s.l.$           ",
"                      y V.(.].].K.%.l = s.;.D.D.D.D.D.D.D.D.D.F.L.G.F.s.R E k.D.D.D.7.X.X.X.5.D.D.K.~./.].].{.f.N.C             ",
"                      +.b.F.K.K.K.F.-.r l.+.d.D.D.D.D.D.D.D.F.~.{./.s.E W Q :.Z.D.D.0.X.X.X.5.D.D.K.K.F.K./.{.~.H               ",
"                    J x.D.D.D.D.F.v.=.l.C.r.E t.D.D.D.D.D.D.F.`.`.&.m U.^ Q :.S.F.q.q.5.X.X.5.D.D.G.F.D.D.F.G.b.=               ",
"                    t b l.D.D.D.v.5.4.D.c.r.W R O.c.D.D.D.D.F./.h.; m +XoX( :.S.D.$.;.q.X.X.=.v.D.D.D.D.D.D.0.w                 ",
"                        b l.S.c.5.X.*.D.C.r./ @X: i n.D.D.D.D.7.P Y Y +XoX~ :.Z.J J D.Z.*.X.X.0.D.F.D.D.v.>.6                   ",
"                          k #.X.X. .a z.C.q.P.oXY T @.D.D.D.D.C.;.I./ OX! y.v.;.u N H.Z.=.X.X.4.q.c.c.7...5                     ",
"                            p ] X.} < ;.#.C.i.( / I.l.D.D.D.D.D.Z.f.! ! u.,.$.g.U M H.Z.=.X.X.X.X.X. .s 3                       ",
"                              g c ] < 1.+.$.>.j.P.n.D.D.D.D.D.D.D.F.F.s.$.<.E.%XI &.F.Z.=.X.X.X.X._ 5 > .                       ",
"                                  p 1 x.l.J &.o.z.D.D.D.D.D.D.D.x.$.$.G g.>X4X#XM F.D.Z.=.X.X.X.X._ s z -                       ",
"                                    % z.D.w.}.a.F H A A H H H A L W.%XR.&X4X<XD 1.D.D.c.X.X.X.X.X.X.X.] 0                       ",
"                                    % s.F.q.$XT..X;X XY.;X;X=Xa.&X2X4X-X&X3X*Xw Z.D.D.6.X.X.X.X.X.X.X.] 0                       ",
"                                      N D.D.c.2.,X4X-XXX4X4X2XQ.5X4X4X3X|.|.D 1.D.D.D.5.X.X.X.X.X.X.X.] 0                       ",
"                                      = b.F.Z.0.$X3X2X%X>X4X3X:X&X4X4X<Xa.M s.D.D.D.c.*.X.X.X.X.X.X.X.] 0                       ",
"                                      - ;.D.D.D.%.W.:X%X|.4X4X1XT.>X Xg.H x.F.D.D.D.6.X.X.X.X.X.X.X.X.c 8                       ",
"                                        e D.D.D.D.$.<.a.p.W.W.E.I g.J t.D.D.D.D.D.q.*.X.X.X.X.X.X.X.] q p                       ",
"                                        1 ;.D.D.D.F.x.$.+.o.o.+.+.;.D.D.D.D.D.D.Z.6.X.X.X.X.X.X.X.X.] p ] j 8 8                 ",
"                                          e D.D.D.D.D.F.F.F.F.F.F.F.D.D.D.D.D.S.9.X.X.X.X.X.X.X.X.X.c ' X.| ' _ *               ",
"                                          + C Z.D.D.D.D.D.D.D.D.D.D.D.D.D.D.S.0.X.X.X.X.X.X.X.X.X.X.j  .X.X.X.] #               ",
"                                            s 7.v.D.D.F.D.D.D.D.D.D.D.F.D.C.0.X.X.X.X.X.X.X.X. .X.X. .X.X.X.] ,                 ",
"                                          p } X.*.7.c.v.D.F.F.F.F.D.v.c.0.=.X.X.X.X.X.5.5.5.5.O.c } X.X.} x ,                   ",
"                                        9 j X.X.X.' X.4.9.q.q.q.q.0.4.X.X.X.X.X.X.5.q.Z.D.D.D.D.G f ] s 3 .                     ",
"                                        8 j X.X.X.c c ' X.X.X.X.X.X.X.X.X.X.X.X.6.Z.D.D.D.F.K.G.D.2 > o                         ",
"                                        9 k 0.6.X. .v f 3 z X.X.X.X.X.X.X.X.X.X.q.D.D.D.F./.].).F.K +                           ",
"                                          F D.Z.5.X.X.` 7 3 , 3 ] } } } } ] 4 V b.D.D.D.F.`.].].K.b.=                           ",
"                                          t ;.D.C.9.*.X.3.f     # # # # # #   h b.F.D.D.F.K.`.{.K.b.=                           ",
"                                          F >.q.D.D.v.-.} c                     +.m.F.D.D.D.K.K.F.b.=                           ",
"                                        @ t k { C.s.>.d O                         +.m.F.D.D.F.F.D.1.=                           ",
"                                          X X a G % & <                             J b.D.D.D.D.v.1                             ",
"                                                .                                   8 ;.H.F.Z.C.c.d                             ",
"                                                                                      F M G v.,.N 5                             ",
"                                                                                          + w = X                               ",
"                                                                                                                                ",
"                                                                                                                                ",
"                                                                                                                                ",
"                                                                                                                                ",
"                                                                                                                                ",
"                                                                                                                                ",
"                                                                                                                                ",
"                                                                                                                                ",
"                                                                                                                                "
};
