/* XPM */
static char *frame_121732487554[] = {
/* columns rows colors chars-per-pixel */
"64 64 209 2 ",
"   c None",
".  c gray6",
"X  c #121112",
"o  c #19171F",
"O  c #18161D",
"+  c #291D1F",
"@  c #1D1A29",
"#  c #1D1A25",
"$  c #231D2D",
"%  c #271E28",
"&  c #221E32",
"*  c #282229",
"=  c #26213A",
"-  c #2A2436",
";  c #322234",
":  c #352B3B",
">  c #362536",
",  c #6F3A39",
"<  c #2C2644",
"1  c #2E2849",
"2  c #392E43",
"3  c #372A4A",
"4  c #352D55",
"5  c #362E58",
"6  c #3B2F59",
"7  c #3A315F",
"8  c #3F3348",
"9  c #3D3364",
"0  c #3F3569",
"q  c #4B2B4F",
"w  c #452A47",
"e  c #45374D",
"r  c #482D52",
"t  c #473955",
"y  c #4E315D",
"u  c #48385A",
"i  c #55345A",
"p  c #543359",
"a  c #42366C",
"s  c #4A3868",
"d  c #5A3962",
"f  c #51376C",
"g  c #573C68",
"h  c #453974",
"j  c #4C3E7D",
"k  c #4A3D75",
"l  c #523973",
"z  c #593E74",
"x  c #533C79",
"c  c #613E63",
"v  c #59435E",
"b  c #454048",
"n  c #534264",
"m  c #5C4269",
"M  c #56456A",
"N  c #5F5269",
"B  c #574477",
"V  c #64436D",
"C  c #67446B",
"Z  c #67516E",
"A  c #684971",
"S  c #654A7B",
"D  c #6D4D7D",
"F  c #654775",
"G  c #764D7A",
"H  c #66527B",
"J  c #6C527C",
"K  c #675474",
"L  c #73527D",
"P  c #745B7E",
"I  c #6F6A72",
"U  c #776B7B",
"Y  c #9D4557",
"T  c #964D4C",
"R  c #B44959",
"E  c #924E72",
"W  c #B55277",
"Q  c #A95073",
"!  c #AF676E",
"~  c #C8515C",
"^  c #FF5C5B",
"/  c #C95E79",
"(  c #D65568",
")  c #D3747B",
"_  c #FC7B7C",
"`  c #E6787C",
"'  c #FE807E",
"]  c #4C3F81",
"[  c #563F81",
"{  c #4D4084",
"}  c #554184",
"|  c #54438A",
" . c #584285",
".. c #564794",
"X. c #594793",
"o. c #5A4995",
"O. c #5B4A9C",
"+. c #574897",
"@. c #6D4E82",
"#. c #654C8A",
"$. c #704F81",
"%. c #745283",
"&. c #7C5482",
"*. c #765B82",
"=. c #75558B",
"-. c #78578C",
";. c #75598D",
":. c #614F9F",
">. c #614F97",
",. c #63509E",
"<. c #6D559B",
"1. c #695497",
"2. c #7C5C94",
"3. c #755996",
"4. c #685386",
"5. c #7D6184",
"6. c #7D629D",
"7. c #7C6196",
"8. c #5C4CA1",
"9. c #6653A0",
"0. c #6A56A2",
"q. c #6E59A4",
"w. c #735CA4",
"e. c #7A5EA5",
"r. c #745BA6",
"t. c #7B61A4",
"y. c #7760AA",
"u. c #7C63AA",
"i. c #7565A2",
"p. c #815D86",
"a. c #845E9A",
"s. c #B35C83",
"d. c #88728B",
"f. c #8C6B93",
"g. c #83639C",
"h. c #886597",
"j. c #936B9A",
"k. c #8F709F",
"l. c #947799",
"z. c #85668B",
"x. c #A76593",
"c. c #BD6288",
"v. c #8564A3",
"b. c #8867A4",
"n. c #8A69A6",
"m. c #8266AC",
"M. c #8569AD",
"N. c #8C6CAC",
"B. c #8668A3",
"V. c #9874A8",
"C. c #866BB1",
"Z. c #8C6EB1",
"A. c #906FB0",
"S. c #8E71B2",
"D. c #9473B5",
"F. c #9977B5",
"G. c #9C79B6",
"H. c #9775B8",
"J. c #9C79B8",
"K. c #8875AC",
"L. c #A47EAE",
"P. c #A17DB5",
"I. c #A37EB9",
"U. c #C96586",
"Y. c #E67A85",
"T. c #8D8095",
"R. c #988A9F",
"E. c #979199",
"W. c #968DA5",
"Q. c #9E97A9",
"!. c #A880AF",
"~. c #AD9CAE",
"^. c #A499A3",
"/. c #AD85B5",
"(. c #A680B9",
"). c #A681BA",
"_. c #A883BA",
"`. c #AD86BB",
"'. c #AC85BB",
"]. c #AF88BC",
"[. c #B289BC",
"{. c #B58CBD",
"}. c #B68CBD",
"|. c #B68DBF",
" X c #B48BBC",
".X c #AD9FB4",
"XX c #B09DB1",
"oX c #A9A1B1",
"OX c #BCACBC",
"+X c #B5ADBC",
"@X c #A9A1AA",
"#X c #D78080",
"$X c #FA8689",
"%X c #FF9695",
"&X c #BCB4C3",
"*X c #C2B4C3",
"=X c #C5BBC8",
"-X c #C4BCD3",
";X c #D0C1CF",
":X c #D7CAD7",
">X c #DACEDA",
",X c #DCD2DE",
"<X c #CCC3D1",
"1X c #E4DBE5",
"2X c #E8DFE9",
"3X c #F3EBF4",
"4X c #FCF4FC",
"5X c #FFFAFF",
"6X c #EBE1EB",
/* pixels */
"                                                                                                                                ",
"                                                                                                                                ",
"                                                                                                                                ",
"                                                                                                                                ",
"                                                                                                                                ",
"                                                                                                                                ",
"                                                                                            >.                                  ",
"                                                                                        0.u.*.                                  ",
"                                                                                    r.m.(.P.H                                   ",
"                                                              1.p                 w.G. X(.Z.B                                   ",
"                                                            r.v.i             q.M.G.}._.D.>.1                                   ",
"                      O.                }       f         r.Z.n.i     l     0.F.}.}._.D.m.j X                                   ",
"                    =.m.9.,.:.          <.p.  O.g.C     r.Z.D.n.p   r.F B F.P.}.}. XP.Z.9.h O                                   ",
"                    %.D.Z.G.D.9.9.9.    D /.L  .F.h.z r.Z.D.D.N.g <.S.@.z.}.}.[. X(.D.m.| &                                     ",
"                    i 2.D.J.`._._.(.u.#.A [.F.S v.S.w.Z.D.D.D.D.N.Z.D.e.A.}.`.I.(.D.D.q.{ o                                     ",
"                      d n.D.P.}.}.}.[.V.V G.J.e.N.D.D.D.D.D.D.D.D.D.D.D.D.(.I.P.D.D.u.9.{ o                                     ",
"                        =.D.G.`.`.[.}.V.V D.D.D.D.D.D.D.D.D.D.D.D.D.D.D.D.D.P.D.D.m.,.+.9                                       ",
"                        p =.D.G.(.(.[.L.2.F.I.I.I.P.G.G.D.D.D.D.D.D.D.D.D.D.D.D.D.r.O.| #                                       ",
"                          i =.D.G.F.F.A.(.`.}.}. X(.(.(.G.D.D.D.D.D.D.D.D.D.D.D.m.:.O.| @                                       ",
"                            V D.D.N.%.F.}.}.}.}.}.'.P.(.F.D.D.D.D.D.D.D.D.D.D.D.r.O.+.4 ;             2 D                       ",
"                              =.D.u z.}.}.}.}.}.}.[.F.F.D.D.D.D.D.D.D.D.D.D.D.M.O.O.+.1           % : 7.2.p                     ",
"                *   ;         p D t l.}.}.}.}.}.}.`.D.D.D.D.D.D.D.D.D.D.D.D.D.t.O.O.O.| r     * ; 5.V.N.D.-.i w                 ",
"              C 5.v j.p.        % H (.}.}.}.}.`._.G.D.D.D.D.D.D.D.D.Z.Z.D.D.Z.q.O.O.O. .g e 8 P L.[.j.%.g.D.;.:                 ",
"              c V.[.}./.&.V     2 7.F.(._._._.G.D.D.D.D.D.D.D.D.N.;.3.M.D.D.Z.O.O.O.+.#.N.F.P.P.].[.f.j.V D.t                   ",
"                L (.].}.[.N.D 2 B a.N.D.D.D.D.D.D.D.D.D.G.P.F.Z.&.Y E C.D.D.Z.O.O.O.O.m.D.F.I.(.].}.}.!.f.h.2                   ",
"              d a.D.G.P.I.P.Z.s J 2.%.N.D.D.D.D.D.D.D.G.`. XF.&.R ^ W y.D.D.Z.0.O.O.O.m.D.F.I.G.G.I.[.[.k.e                     ",
"            i 2.D.D.D.D.D.F.w.<.N.e.Q G N.D.D.D.D.D.D.P.}.G.v ! _ ^ W u.D.Z.w.u.O.O.O.m.D.D.F.D.D.D.G.G.H X                     ",
"              d %.D.D.D.S.t.O.u.D.w.( ~ A <.A.D.D.D.D.G./.Z + ) %X_ W y.D.b.S n.q.O.O.w.D.D.D.D.D.D.Z.4.:                       ",
"                  %.N.Z.t.O.+.e.D.e./ $X! > &.D.D.D.D.C.#.Y , #X%X_ Q u.n.m g.D.u.O.O.,.Z.D.D.D.Z.u. .-                         ",
"                    S ,.O.O.j D Z.M.a.$X) T E 6.D.D.D.D.u.x.` ' _ s.m.v.J : v.D.u.O.O.O.r.m.m.u.0.j =                           ",
"                      l +.8.a M <.t.v./ _ Y.j.C.D.D.D.D.D.m.c.) U.2.=.*.^.b g.D.u.O.O.O.O.O.O.] 9 =                             ",
"                        l [ a M 2.D =.a.U.x.C.D.D.D.D.D.D.D.D.D.=.%.d.OX@XZ n.D.u.O.O.O.O.X.s 5 @                               ",
"                          y 3 n D.#.*.L -.D.D.D.D.D.D.D.D.2.D D K OX3X4XI 2.D.D.u.O.O.O.O.X.s j u                               ",
"                              n H.C.S..XK A A V V A A V V d.*X*XW.3X5X^.K N.D.D.r.O.O.O.O.O.O.O.f                               ",
"                              n D.D.C.-XR.:X:XT.OX>X>X~.R.2X4X4X*X1X4XU S H.D.N.:.O.O.O.O.O.O.O.f                               ",
"                              w ;.D.Z.i.W.5X5XoX,X5X5X<X+X5X4X5X1XoXE.K N.D.D.M.O.O.O.O.O.O.O.O.f                               ",
"                              X F H.D.M.K.,X5X>X=X3X5X6X=X1X5X4XOXN H N.D.D.S.w.O.O.O.O.O.O.O.O.f                               ",
"                                m N.D.D.v.f.OX1XQ.2X5X5X&X&X;XXXL =.D.D.D.D.M.O.O.O.O.O.O.O.O.| y                               ",
"                                ; ;.H.D.D.g.D l.U R.~.~.d.d.5.@.N.D.D.D.D.D.q.O.O.O.O.O.O.O.O.l y y                             ",
"                                  m n.D.D.D.D.2.$.$.@.@.$.%.n.D.D.D.D.D.D.M.O.O.O.O.O.O.O.O.O.l x } y q                         ",
"                                  % ;.D.D.D.D.D.D.D.D.D.D.D.D.D.D.D.D.D.M.9.O.O.O.O.O.O.O.O.| l X.O.| } a                       ",
"                                    2 6.D.D.D.D.D.D.D.D.D.D.D.D.D.D.D.M.0.O.O.O.O.w.C.m.,.+.} x O.O.O.O.a X                     ",
"                                    $ o.u.Z.D.D.D.D.D.D.D.D.D.D.D.D.M.0.O.O.O.0.Z.D.D.D.v.z | +.O.O.O.h $                       ",
"                                    s +.O.0.u.M.Z.D.D.D.D.D.S.M.m.q.O.O.O.O.q.Z.D.D.D.G.G.2.u | O.] 0 $                         ",
"                                  q | O.O.X.X.O.q.u.u.u.u.u.r.O.O.O.O.O.O.:.Z.D.D.D.G.`.[.P.H < 0 = X                           ",
"                                  q | O.O.| l x X.O.O.O.O.O.O.O.O.O.O.O.O.0.Z.D.D.D._.}.}.].6.- .                               ",
"                                  q | O.O.O.} l 6 6 ..O.O.O.O.O.O.O.O.O. .t.D.D.D.D._.}.[.P.H.n                                 ",
"                                    z e.u.0.O.+.h 7 1 1 a ..........h 1 r g.D.D.D.D.F.G.F.A.D.n                                 ",
"                                    -.D.D.M.0.O.O.X.3   @ & & & & & @     V b.D.D.N.M k 3 t N.n                                 ",
"                                    F N.D.Z.Z.u.,.} r                       V n.N.M 9 5 k h s u                                 ",
"                                  w @.w.t.u.B.3.B &                           V n 5 +.X.+.O.a #                                 ",
"                                    2 g e F e o o X                             > a 8.O.O.X.5                                   ",
"                                      X X X                                       6 7 7 7 4                                     ",
"                                                                                                                                ",
"                                                                                                                                ",
"                                                                                                                                ",
"                                                                                                                                ",
"                                                                                                                                ",
"                                                                                                                                ",
"                                                                                                                                ",
"                                                                                                                                ",
"                                                                                                                                ",
"                                                                                                                                ",
"                                                                                                                                "
};
