/* XPM */
static char *frame_131732487554[] = {
/* columns rows colors chars-per-pixel */
"64 64 200 2 ",
"   c None",
".  c #1C191E",
"X  c #171418",
"o  c #191721",
"O  c #1D1922",
"+  c #1E1B2B",
"@  c #231B25",
"#  c #241F2A",
"$  c #2D1F2F",
"%  c #231E32",
"&  c #27202E",
"*  c #2A2233",
"=  c #2A223B",
"-  c #38293B",
";  c #5A3A3D",
":  c #2D2645",
">  c #2F2849",
",  c #322A4D",
"<  c #342947",
"1  c #3D324B",
"2  c #342C53",
"3  c #372F59",
"4  c #3B2F5A",
"5  c #39305D",
"6  c #3C3363",
"7  c #3F3569",
"8  c #4B2A4C",
"9  c #422848",
"0  c #47344C",
"q  c #4D2E56",
"w  c #4D2F59",
"e  c #4D315E",
"r  c #493B56",
"t  c #513154",
"y  c #56365B",
"u  c #493669",
"i  c #5C3D64",
"p  c #51366B",
"a  c #553967",
"s  c #493D7C",
"d  c #463B75",
"f  c #533A73",
"g  c #543D7C",
"h  c #623F64",
"j  c #49434E",
"k  c #514153",
"l  c #704140",
"z  c #764052",
"x  c #67424F",
"c  c #55446B",
"v  c #584366",
"b  c #584474",
"n  c #595162",
"m  c #62416C",
"M  c #67486A",
"N  c #654572",
"B  c #684775",
"V  c #634E72",
"C  c #694976",
"Z  c #63487A",
"A  c #6C4C7C",
"S  c #624478",
"D  c #66507B",
"F  c #77597F",
"G  c #74567B",
"H  c #734C79",
"J  c #79627E",
"K  c #8F3F4E",
"L  c #875251",
"P  c #AD474F",
"I  c #984861",
"U  c #80527F",
"Y  c #844A71",
"T  c #F5575A",
"R  c #CC556F",
"E  c #D9657E",
"W  c #EF676F",
"Q  c #F9676B",
"!  c #E56B79",
"~  c #F77779",
"^  c #E27D7D",
"/  c #4C3F80",
"(  c #543F81",
")  c #4D4083",
"_  c #4F4288",
"`  c #554185",
"'  c #54438B",
"]  c #5A4488",
"[  c #544691",
"{  c #584693",
"}  c #5A4A9C",
"|  c #5A4996",
" . c #644B8A",
".. c #6D4E84",
"X. c #704F83",
"o. c #6C5481",
"O. c #6D5882",
"+. c #735283",
"@. c #75558C",
"#. c #7C578D",
"$. c #7A5B8D",
"%. c #74598C",
"&. c #614C95",
"*. c #604E9F",
"=. c #6B5296",
"-. c #63519E",
";. c #645195",
":. c #725593",
">. c #755C92",
",. c #7D5D95",
"<. c #745A9C",
"1. c #7E5C9B",
"2. c #7D6184",
"3. c #7C6498",
"4. c #614FA0",
"5. c #6452A0",
"6. c #6A56A2",
"7. c #6E59A4",
"8. c #735CA5",
"9. c #795FA7",
"0. c #7960A6",
"q. c #7C63AA",
"w. c #88518D",
"e. c #845F8A",
"r. c #825487",
"t. c #825E96",
"y. c #885694",
"u. c #945F9A",
"i. c #A35280",
"p. c #B75C82",
"a. c #846D87",
"s. c #86798B",
"d. c #856293",
"f. c #8D6C93",
"g. c #84629C",
"h. c #89649E",
"j. c #966996",
"k. c #97719D",
"l. c #A76091",
"z. c #855EA0",
"x. c #8565A2",
"c. c #8867A4",
"v. c #8969A6",
"b. c #8266AB",
"n. c #8569AD",
"m. c #8C6CAD",
"M. c #8668A3",
"N. c #946DA6",
"B. c #9371AC",
"V. c #9B74AD",
"C. c #9875A9",
"Z. c #866BB1",
"A. c #8C6DB1",
"S. c #906FB0",
"D. c #8F70B4",
"F. c #9473B5",
"G. c #9977B6",
"H. c #9C79B6",
"J. c #9E7AB8",
"K. c #9775B8",
"L. c #A37CAA",
"P. c #A27EB7",
"I. c #A37EB9",
"U. c #D37587",
"Y. c #99859A",
"T. c #9E979F",
"R. c #8E8196",
"E. c #9588A6",
"W. c #9182BD",
"Q. c #A797AA",
"!. c #A580B9",
"~. c #A781BA",
"^. c #A580B9",
"/. c #AE87BB",
"(. c #AA84BA",
"). c #AA84B6",
"_. c #B28ABC",
"`. c #B58CBD",
"'. c #B68CBD",
"]. c #B48BBD",
"[. c #B88EBF",
"{. c #AA9DB0",
"}. c #A28CA5",
"|. c #AFA7B8",
" X c #B2A5B6",
".X c #B9A9BA",
"XX c #FF8C8B",
"oX c #FC9292",
"OX c #ED8385",
"+X c #BEB5C3",
"@X c #B2A4C7",
"#X c #C7BAC9",
"$X c #CCC0CE",
"%X c #D3C8D5",
"&X c #DBD1DD",
"*X c #E3DCE4",
"=X c #EBE2EB",
"-X c #F5EDF6",
";X c #FBF3FB",
":X c #FFFAFF",
/* pixels */
"                                                                                                                                ",
"                                                                                                                                ",
"                                                                                                                                ",
"                                                                                                                                ",
"                                                                                                                                ",
"                                                                                                                                ",
"                                                                                                                                ",
"                                                                                                                                ",
"                                                                                                                                ",
"                                                                                                                                ",
"                                                                                                                                ",
"                                                                                } q.k                                           ",
"                                                                              8.H.J.r                                           ",
"                                                                            8.P.).m.1                                           ",
"                                                  &.q                     8.P.(.A.;.:                                           ",
"                                                } x.N                 8.q.!._.G.q.3                                             ",
"                                                8.D.,.8   7.a       7.H.'.].~.A.6.2                                             ",
"                                    &.H       8.A.K.,.8   b.i   6.b.H.'.'._.K.q./ =                                             ",
"          <.q.q.m.q.} }       :.C q =.V.A p 8.A.F.K.,.a 7.n. .&.F._.'.'._.~.A.6.5                                               ",
"        t g.K.K.).).J.J.F.6.` d.L.d.Z B.b.=.A.F.F.F.m.x.A.F.Z.A./.'.(.).~.K.A.4.6 X                                             ",
"          m v.m.K.~.'.'._.~.d.r.'.J.<.A.F.A.F.F.F.F.F.K.F.F.F.K.G.I.~.~.J.F.A.7.' :                                             ",
"              m v.K.~.]._.[.j.+.~.J.A.F.F.F.F.F.F.F.F.F.F.F.F.F.F.K.I.I.K.F.0.4.7 o                                             ",
"              8 B v.K.I.~./.j.+.K.K.J.J.H.G.G.F.F.F.F.F.F.F.F.F.F.F.K.K.F.m.-.} 5                                               ",
"                  B v.K.I.J.N.,.J.I._._.~.I.I.G.F.F.F.F.F.F.F.F.F.F.F.F.F.8.} [ ,                                               ",
"                  8 @.K.F.A.n.I./.'.'._.~.~.~.G.F.F.F.F.F.F.F.F.F.F.F.F.m.-.} d @                                               ",
"                    N c.v.@.F.'.'.'.'.'.(.H.H.F.F.F.F.F.F.F.F.F.F.F.F.F.8.} } '                 v i                             ",
"                      y 0 k.'.'.'.'.'.'.(.F.F.F.F.F.F.F.F.F.F.F.F.F.F.n.5.} } '             . r M.N                             ",
"                      - - ).'.'.'.'.'./.G.F.F.F.F.F.F.F.K.F.F.F.F.A.8.-.} } } { f -     @ 0 f.N.F.v.                            ",
"                      # $./.'.'.'.'./.G.F.F.F.F.F.F.K.S.M.9.A.F.K.b.} } } } } { ..c.r - f.L._.e.$.S.B t 9                       ",
"                      1 v.J.(.(.(.(.H.F.F.F.F.H.J.K.m.U K r.A.F.K.q.} } } } } -.m.K.B.C.~.'.L.f.G ,.v.c O                       ",
"      0             X D g.F.K.F.F.F.F.F.F.F.J./.].F.r.P T i.Z.K.K.n.*.} } } } 6.F.F.I.~.).'.'.].f.N.h.@                         ",
"-   J k.f.e.t.      @ v +.c.,.F.F.F.F.F.F.F.I._.].v.z ~ Q R z.D.D.b.q.5.} } } 6.F.F.J.I.G.I.(.'./.2.v                           ",
"h f.f.'.'._.B.@. .f ' :.m.y.I t.F.F.F.F.F.F.F.).).v ; oXXXQ w.Z.F.<.t.q.*.} } 8.F.F.J.G.F.F.G.P.o.*                             ",
"  e.).)._.I.~.A.} } } n.A.w.T I  .b.F.F.F.F.F.q.H K l oXoX~ w.A.c.A c.F.7.} } 7.F.F.F.F.F.F.m.b &                               ",
"  y $.G.H.K.G.A.6.} | b.A.y.W OXx t g.F.F.F.F.Z.:.U.^ XX~ p.b.M.i r F.F.8.} } -.b.F.F.F.A.0.b #                                 ",
"  A m.K.F.F.A.8.} } p ,.D.b.j.oXL P Y m.F.F.F.F.A.h.! W p.1.g.F s.r F.F.7.} } } *.9.A.q.-.d +                                   ",
"y ,.,.,.m.F.8.} } } , D =.n.y.! ~ U.g.A.F.F.F.F.F.F.V.N.#.+.a..XT.V F.F.7.} } } } } *.) 7 +                                     ",
"    8 8 A b.5.} } } > D +.@.:.l.E u.A.K.K.K.K.K.F.,.@.A G  X-X*Xj v.F.F.8.} } } } } ` % @                                       ",
"          b g | } } > o.m.Z F +.c.K.m.@.X.X.X.+.+.2.Y.s.|.:X;XT.V m.F.A.6.} } } } } ( 4 9                                       ",
"              ` f f = o.F.q.E.a.C +.B M }.Q.Q.J Y.&X:X&X+X;X=Xj x.K.F.q.} } } } } } } { w                                       ",
"                    . o.K.n.W.|.Q.#X.XR.;X:X:X{.&X:X:X;X#X+Xs.O.F.F.F.8.} } } } } } } { q                                       ",
"                      i v.F.Z.3.#X:X=XE.*X:X:X$X%X;X:X;X Xn O.F.F.F.m.6.} } } } } } } ' q                                       ",
"                      & g.K.F.8.@X;X;X X{.:X:X-X{.*X=X.XM o.F.K.F.F.q.} } } } } } } | p                                         ",
"                      # %.F.F.F.3.{.%X%Xs.#X#X#Xa.Q.2.$.v.F.F.F.F.m.6.} } } } } } } | u                                         ",
"                        0 m.K.F.F.+.F }.C B B B N A m.F.K.F.F.F.F.q.} } } } } 7.7.5.' p p p                                     ",
"                        * @.F.F.F.F.m.#.F.F.F.F.F.F.F.F.F.F.F.F.n.6.} } } 7.q.F.F.b.a ( } { p                                   ",
"                          0 m.F.F.F.F.F.F.F.F.F.F.F.F.F.F.F.F.n.6.} } } 7.F.K.F.F.F.,.u [ } ` 8 8                               ",
"                            c m.F.F.F.F.F.F.F.F.F.F.F.F.F.F.n.6.} } } 7.A.F.F.F.J.).J.o.5 { { g <                               ",
"                            : 7.m.F.F.F.F.F.F.F.F.F.F.D.n.8.-.} } } } q.K.F.F.H._.'._.B.< _ } | :                               ",
"                          e ' } -.8.A.A.F.F.F.A.A.A.8.5.*.} } } } | -.m.F.F.F.J.'.'._.H.%.> ) 5                                 ",
"                          e | } } } | 5.q.Z.8.*.*.*.} } } } } } } ( A K.F.F.F.H./._.I.K.3.O o                                   ",
"                          e | } } | g g ] } } } } } } } } } } } } ' S v.K.F.K.v.>.>.D v.3.O                                     ",
"                          w ] 8.7.} { f u 5 ) } d [ } } } } | 7 5 d ( N v.K.m.c 2 2 , c >.O                                     ",
"                            m F.A.q.6.} _ 3 2 2 % , 2 2 2 2 2 O         B c.c u s s } u r                                       ",
"                            i 1.F.F.A.q.6.s %                             i * [ } } } ' O                                       ",
"                            i <.b.q.A.v.<.6                                 9 ' [ [ ' 2                                         ",
"                            $ Z N o.>.- & +                                   + + + +                                           ",
"                              . . O @                                                                                           ",
"                                                                                                                                ",
"                                                                                                                                ",
"                                                                                                                                ",
"                                                                                                                                ",
"                                                                                                                                ",
"                                                                                                                                "
};
