/* XPM */
static char *frame_141732487555[] = {
/* columns rows colors chars-per-pixel */
"64 64 203 2 ",
"   c None",
".  c #0F0F0D",
"X  c #131214",
"o  c #15141A",
"O  c #1B171D",
"+  c #1D1923",
"@  c #1E1B2A",
"#  c #251E2A",
"$  c #2A1F34",
"%  c #2A233A",
"&  c #2A2237",
"*  c #342A3C",
"=  c #39233A",
"-  c #2D222A",
";  c #5E3434",
":  c #2F294B",
">  c #2C2645",
",  c #312A4C",
"<  c #382A44",
"1  c #3D3441",
"2  c #342C53",
"3  c #3C2D56",
"4  c #39305A",
"5  c #3C3363",
"6  c #4A2A4B",
"7  c #442B4C",
"8  c #45344A",
"9  c #4D2E55",
"0  c #4D2F59",
"q  c #4C315E",
"w  c #483855",
"e  c #55345B",
"r  c #523156",
"t  c #54314C",
"y  c #433463",
"u  c #463668",
"i  c #5B3A62",
"p  c #54396A",
"a  c #453973",
"s  c #483C79",
"d  c #473B79",
"f  c #533A74",
"g  c #543D7D",
"h  c #593E72",
"j  c #4C4156",
"k  c #55435C",
"l  c #524156",
"z  c #704853",
"x  c #54436A",
"c  c #574462",
"v  c #4E407D",
"b  c #5E4374",
"n  c #4E4066",
"m  c #63436C",
"M  c #654D6D",
"N  c #644568",
"B  c #635A69",
"V  c #644573",
"C  c #6A4B73",
"Z  c #634579",
"A  c #644C7A",
"S  c #6A4A7B",
"D  c #664B75",
"F  c #794E79",
"G  c #6A527E",
"H  c #685279",
"J  c #75517B",
"K  c #755678",
"L  c #756D78",
"P  c #903C51",
"I  c #9A5056",
"U  c #B44D5A",
"Y  c #834D77",
"T  c #A6527F",
"R  c #B86571",
"E  c #C04955",
"W  c #FF5B5A",
"Q  c #E35763",
"!  c #D4667F",
"~  c #FF6E6E",
"^  c #E16777",
"/  c #FD7777",
"(  c #4C3F82",
")  c #553F80",
"_  c #4E4185",
"`  c #4F4288",
"'  c #544185",
"]  c #5B4484",
"[  c #53438B",
"{  c #5A458B",
"}  c #554693",
"|  c #584693",
" . c #5A4A9C",
".. c #5A4A94",
"X. c #6F4E83",
"o. c #674D8D",
"O. c #714F82",
"+. c #6B5482",
"@. c #69538B",
"#. c #735284",
"$. c #765589",
"%. c #74598C",
"&. c #795887",
"*. c #604F9E",
"=. c #63519E",
"-. c #6B5599",
";. c #765D92",
":. c #7C5C93",
">. c #745B9C",
",. c #7C5D9A",
"<. c #7A4E90",
"1. c #7F629C",
"2. c #7E6B83",
"3. c #5F4EA0",
"4. c #614FA0",
"5. c #6552A0",
"6. c #6B56A3",
"7. c #6E59A4",
"8. c #725BA5",
"9. c #785FA9",
"0. c #775EA8",
"q. c #7A61A6",
"w. c #7D63AA",
"e. c #7765A7",
"r. c #885586",
"t. c #835F97",
"y. c #875D98",
"u. c #9D598B",
"i. c #87668D",
"p. c #88738D",
"a. c #82629C",
"s. c #896891",
"d. c #946D99",
"f. c #92609D",
"g. c #95759A",
"h. c #8D7494",
"j. c #B1668C",
"k. c #8565A3",
"l. c #8966A3",
"z. c #8A6AA6",
"x. c #8266AC",
"c. c #8569AD",
"v. c #8B6CAC",
"b. c #906FAF",
"n. c #8F70AF",
"m. c #9575A8",
"M. c #8469B0",
"N. c #8C6EB2",
"B. c #906FB0",
"V. c #8F70B3",
"C. c #8C78B8",
"Z. c #9473B5",
"A. c #9977B6",
"S. c #9C79B6",
"D. c #9F7BB8",
"F. c #9775B8",
"G. c #A17CAA",
"H. c #A27EB2",
"J. c #A37EB9",
"K. c #D06E89",
"L. c #8E8196",
"P. c #9A849A",
"I. c #88828F",
"U. c #988DA5",
"Y. c #9A92A5",
"T. c #9E96A8",
"R. c #A880AF",
"E. c #A696AA",
"W. c #AB83B2",
"Q. c #A681B9",
"!. c #A882BA",
"~. c #AB84BB",
"^. c #AF88BD",
"/. c #B28ABC",
"(. c #B58CBD",
"). c #B68DBE",
"_. c #B48BBD",
"`. c #B087B7",
"'. c #ADA4B5",
"]. c #B3ABBB",
"[. c #BAACBB",
"{. c #B1A7B7",
"}. c #BAB1B9",
"|. c #E58689",
" X c #FE8B8B",
".X c #FF9494",
"XX c #988AC0",
"oX c #BDB5C4",
"OX c #C2BAC5",
"+X c #C4BCCA",
"@X c #C7B8C8",
"#X c #C5BAD1",
"$X c #CAC1CF",
"%X c #D5CBD6",
"&X c #DAD2DE",
"*X c #CFC4D3",
"=X c #DDD5E0",
"-X c #E2D6E1",
";X c #E3DAE4",
":X c #EBE3EC",
">X c #F3EAF3",
",X c #FCF4FD",
"<X c #FFFAFF",
/* pixels */
"                                                                                                                                ",
"                                                                                                                                ",
"                                                                                                                                ",
"                                                                                                                                ",
"                                                                                                                                ",
"                                                                                                                                ",
"                                                                                                                                ",
"                                                                                                                                ",
"                                                                                                                                ",
"                                                                                                                                ",
"                                                                                                                                ",
"                                                                            7.;.                                                ",
"                                                                        *.5.A.H.k                                               ",
"                                                                        n.Q.^.Z.n                                               ",
"                                                                      S._._.Z.8.4                                               ",
"                                                  -.r             7.q.S.^.A.c.v +                                               ",
"                                                8.k.e           =.Z._._.J.V.8.s o                                               ",
"                                              8.N.z.e   6.b   3.v._.).).J.N.7.s o                                               ",
"                              f       m.     .x.Z.b.O.f 0.a.h z._.).).).J.N.7.s o                                               ",
"           . .                ,.J   7.H.$.f 9.Z.Z.Z.t.V N.Z.-.H.).~.!.Q.Z.w.3.d o                                               ",
"        r 1.x.5.c.c.5.5.5.  ] i.W.C o.J.x.-.Z.Z.Z.Z.b.v.Z.Z.N.A.~.J.J.Z.x.=. .a o                                               ",
"        r :.Z.Z.!.^.Q.!.S.x.s.&.).m.S b.Z.Z.Z.Z.Z.Z.Z.Z.Z.Z.Z.Z.S.J.Z.Z.8. ._ #                                                 ",
"          i :.Z.Z.Q.).).)._.d.#.J.A.0.V.Z.Z.Z.Z.Z.Z.Z.Z.Z.Z.Z.Z.Z.Z.Z.Z.6. .( o         =                                       ",
"            e :.Z.D.!._.^.W.J O.Z.Z.Z.Z.Z.Z.Z.Z.Z.Z.Z.Z.Z.Z.Z.Z.Z.Z.Z.N.6. ._ +         e ;.9                                   ",
"              i O.a.Z.J.Q.m.&.a.D.J.J.J.D.A.J.A.Z.Z.Z.Z.Z.Z.Z.Z.Z.Z.Z.N.6. .( +       k v.v.D m 8                               ",
"                6 i a.Z.S.Z.Z.Q.^.).)._.Q.Q.J.A.Z.Z.Z.Z.Z.Z.Z.Z.Z.Z.Z.w. . .[     o k g.:.v.z.b *                               ",
"                  6 $.Z.v.#.H.).).).)._.!.J.S.Z.Z.Z.Z.Z.Z.Z.Z.Z.Z.Z.v.6. . ._ o l i.G.i.i.J N.x                                 ",
"                    i :.z.G.).).).).).).~.Z.Z.Z.Z.Z.Z.Z.Z.Z.Z.Z.Z.N.8. . .| q < m.~.^.R.`.d.$.a.                                ",
"                      6 8 W.).).).).).).!.Z.Z.Z.Z.Z.Z.Z.Z.Z.Z.Z.Z.x. . . .b a.z.J.Q._.).)./.G.M                                 ",
"  1   8 6             = w H.).).).).^.Q.Z.Z.Z.Z.Z.Z.Z.v.:.>.N.Z.Z.w. . . .x.Z.A.J.D.J.~.~.~.%.#                                 ",
"  K N d.s.J J         # 1.A.!.!.!.!.A.Z.Z.Z.Z.S.J.Z.v.Y P r.N.Z.Z.c.*. . .q.Z.A.D.Z.Z.Z.Z.Z.A                                   ",
"  N g.).).)._.v.S h < w v.Z.Z.Z.Z.Z.Z.Z.Z.Z.Z.~._.Z.F E W T M.Z.Z.Z.8. . .*.N.Z.Z.Z.Z.Z.v.>.8                                   ",
"    J J.^.Q.J.J.x.=.: G #.$.Z.Z.Z.Z.Z.Z.Z.Z.D._.S.M R ~ W T x.Z.N.x.x.=. . .x.Z.Z.Z.Z.Z.>.2                                     ",
"    z.Z.A.Z.Z.Z.8. .u %.y.U F N.Z.Z.Z.Z.Z.Z.!.W.l - |..X~ T x.Z.l.X.Z.8. . .6.Z.Z.Z.c.7...                                      ",
"  V v.Z.Z.Z.Z.q. . .>.v.y.Q U O.k.v.Z.Z.Z.Z.Q.r.I ; |..X/ T M.l.V l.Z.9. . . .w.w.5.5.[ %                                       ",
"6 9 e #.Z.Z.v.8. . .4.c.c.r.^ |.z t y.Z.Z.Z.Z.v.y.j. X X/ u.x.m * v.Z.V.6. . . . .| [ : X                                       ",
"        #.q.5. . . .{ k.Z.6.u. XI U Y v.Z.Z.Z.Z.N.l.! ^ j.x.z.E.1 v.Z.Z.8. . . . .' 3 u $                                       ",
"          Z ]  . . .y %.M.x.<.^ / K.k.V.Z.Z.Z.Z.Z.Z.Z.Z.Z.a.N [.L %.Z.Z.8. . . . . . .| 9                                       ",
"            9 f '  .: A o.c.0.u.K.f.N.Z.Z.Z.Z.Z.Z.Z.Z.l.#.&.P.*X}.j Z.N.6. . . . . . .| 0                                       ",
"                  g % A i S :.Z.Z.Z.Z.Z.Z.Z.Z.Z.v.$.#.D 2.@X,X:XL +.Z.w. . . . . . . .| 9                                       ",
"                    O G ,.@.p.m :.B.v.b.v.v.&.m C P.@XE.].<X<X;X8 v.Z.0. . . . . . . .| 9                                       ",
"                    X +.N.e.@XU.M C C m C C E.L.[.>X<X$X{.<X<X%Xj v.N.6. . . . . . . .| 0                                       ",
"                    X G N.e.#X].{.;X$XL.&X-X>XE.&X<X<X$X].<X>XB ;.Z.w. . . . . . . . .|                                         ",
"                      w z.x.XX].+X<X:XY.,X<X<X'.&X<X<X:XOX;XOXc z.Z.0. . . . . . . . .p 6                                       ",
"                        A c.C.U.+X<X:X'.>X<X<X-XOX>X<X<XoXI.B a.Z.V.8. . . . .7.7.5. .f 6                                       ",
"                        & $.v.-.#X<X,X*X+X<X<X,XY.;X<X;Xp.c a.Z.Z.Z.0. . .7.q.Z.Z.x.{ f f p                                     ",
"                          8 b.M.m.-X<X=XT.<X<X,XY.&XE.h.X.a.Z.Z.Z.w.=. .7.Z.Z.Z.Z.Z.:.7 [ | p 6                                 ",
"                            #.Z.t.p.E.*XY.>X[.h.K p.$.t.Z.Z.Z.Z.x.=. .6.N.Z.Z.Z.S.!.S.+.4 | | g [                               ",
"                            8 k.N.l.l.m.M K c X.a.a.Z.Z.Z.Z.N.w.=. . .q.Z.Z.Z.A._.)._.b.< `  . . .>                             ",
"                          q y y 8.v.Z.B.l.l.l.Z.Z.Z.Z.V.N.x.6. . . .=.v.Z.Z.Z.S.).)._.A.%., } }  .%                             ",
"                          u a 5  .*.0.M.N.Z.Z.Z.Z.N.c.7.*. . . . .) S Z.Z.Z.Z.A.^._.J.F.1.% 5                                   ",
"                          q | .. . .{  .5.0.x.x.w.5. . . . . . . .[ Z z.Z.Z.Z.z.;.;.H z.1.+                                     ",
"                          0 ] 8.6. .g f '  . . . . . . . . . . . . .[ Z z.Z.v.x 2 2 , x ;.+                                     ",
"                            m Z.N.w.-.f ) ( 2 _  . . . . . . .| 4 2 a g D l.x u s s  .u w                                       ",
"                            i ,.Z.Z.N.w.6.5 . > , : : : : : , :           i & }  . . .[ +                                       ",
"                            i >.x.q.N.v.>.5                                 7 [ } } [ 2                                         ",
"                            $ A V +.;.* # @                                   @ @ @ @                                           ",
"                              O O + #                                                                                           ",
"                                                                                                                                ",
"                                                                                                                                ",
"                                                                                                                                ",
"                                                                                                                                ",
"                                                                                                                                ",
"                                                                                                                                "
};
