/* XPM */
static char *frame_151732487555[] = {
/* columns rows colors chars-per-pixel */
"64 64 205 2 ",
"   c None",
".  c #19161C",
"X  c #1C181E",
"o  c #151316",
"O  c #1C1925",
"+  c #1D1A29",
"@  c #211C25",
"#  c #271E2F",
"$  c #221E32",
"%  c #2B1F32",
"&  c #28222C",
"*  c #252036",
"=  c #2C2236",
"-  c #29243C",
";  c #352B3D",
":  c #302334",
">  c #513232",
",  c #412F38",
"<  c #612D3D",
"1  c #2C2541",
"2  c #322A4E",
"3  c #392943",
"4  c #342C53",
"5  c #3F2F59",
"6  c #3A2E58",
"7  c #3B325C",
"8  c #3A3045",
"9  c #3D3363",
"0  c #4B2B4D",
"q  c #453949",
"w  c #4C2D54",
"e  c #4A2E56",
"r  c #4D315D",
"t  c #4B3757",
"y  c #55355B",
"u  c #5B3C4D",
"i  c #68324E",
"p  c #493866",
"a  c #5B3A62",
"s  c #50366A",
"d  c #553A6B",
"f  c #573866",
"g  c #453A75",
"h  c #4A3C78",
"j  c #543D7C",
"k  c #553B73",
"l  c #494051",
"z  c #57435D",
"x  c #4B474E",
"c  c #6F4546",
"v  c #5E4164",
"b  c #594764",
"n  c #5C4972",
"m  c #594379",
"M  c #63446B",
"N  c #65496A",
"B  c #615A64",
"V  c #634472",
"C  c #684774",
"Z  c #6C4B73",
"A  c #64477B",
"S  c #634D7A",
"D  c #6B4B7C",
"F  c #69527E",
"G  c #6E5173",
"H  c #715475",
"J  c #75567B",
"K  c #765B7D",
"L  c #774872",
"P  c #756B77",
"I  c #854F79",
"U  c #994F75",
"Y  c #A54D6B",
"T  c #A6527F",
"R  c #B65472",
"E  c #B26A69",
"W  c #CA4D57",
"Q  c #FF5B5A",
"!  c #F65F62",
"~  c #D06973",
"^  c #FE7575",
"/  c #F97679",
"(  c #4C3F82",
")  c #543F82",
"_  c #4E4084",
"`  c #554184",
"'  c #53448D",
"]  c #5C4586",
"[  c #564794",
"{  c #584793",
"}  c #574897",
"|  c #5A4995",
" . c #5A4A9C",
".. c #574898",
"X. c #6C4D80",
"o. c #654982",
"O. c #714F82",
"+. c #6C5383",
"@. c #645085",
"#. c #725284",
"$. c #755B8D",
"%. c #7A598D",
"&. c #795786",
"*. c #614F9F",
"=. c #63519E",
"-. c #6A549C",
";. c #6C5998",
":. c #7B5D93",
">. c #745C9B",
",. c #765A93",
"<. c #7C6482",
"1. c #7E6397",
"2. c #6552A0",
"3. c #6A56A3",
"4. c #6D58A3",
"5. c #725BA5",
"6. c #7A5FA4",
"7. c #755DA8",
"8. c #7A62A5",
"9. c #7C62AA",
"0. c #845989",
"q. c #815E9A",
"w. c #8E5A93",
"e. c #9F5E93",
"r. c #9F5485",
"t. c #876B8E",
"y. c #90798F",
"u. c #83629C",
"i. c #8B6D9D",
"p. c #876994",
"a. c #99699B",
"s. c #867C97",
"d. c #98719E",
"f. c #AA699B",
"g. c #835DA0",
"h. c #8365A2",
"j. c #8867A4",
"k. c #8669A4",
"l. c #8969A7",
"z. c #8266AB",
"x. c #8569AD",
"c. c #8C6CAB",
"v. c #916DAD",
"b. c #9272AD",
"n. c #9875A6",
"m. c #8469B0",
"M. c #8C6DB1",
"N. c #906FB0",
"B. c #8F70B3",
"V. c #9473B5",
"C. c #9977B6",
"Z. c #9C79B6",
"A. c #9775B8",
"S. c #9F7BB8",
"D. c #957BBA",
"F. c #A37CAB",
"G. c #A17AA7",
"H. c #A27EB9",
"J. c #A07CB7",
"K. c #C76882",
"L. c #C17090",
"P. c #99839A",
"I. c #978EA1",
"U. c #9E94A6",
"Y. c #A686AD",
"T. c #A699AA",
"R. c #AA83B4",
"E. c #A680B9",
"W. c #A681BA",
"Q. c #A883BA",
"!. c #AD86BB",
"~. c #AB85BB",
"^. c #AF88BD",
"/. c #B189BC",
"(. c #B58CBD",
"). c #B68DBD",
"_. c #B48CBD",
"`. c #A79CB5",
"'. c #ACA3B4",
"]. c #B2AABA",
"[. c #B8ABBB",
"{. c #E68786",
"}. c #FC8283",
"|. c #FF9393",
" X c #B88EC0",
".X c #BEB4C3",
"XX c #B0A4D0",
"oX c #B2A8C2",
"OX c #C5BCCB",
"+X c #C5B9C6",
"@X c #C9BED6",
"#X c #D0C1CF",
"$X c #CEC5D3",
"%X c #D4C6D4",
"&X c #D2CAD5",
"*X c #DCD3DD",
"=X c #D7D0DC",
"-X c #E5DBE6",
";X c #EADFE9",
":X c #ECE4ED",
">X c #F0E6EF",
",X c #F4ECF4",
"<X c #F0E6F0",
"1X c #FEF6FE",
"2X c #FFF9FF",
/* pixels */
"                                                                                                                                ",
"                                                                                                                                ",
"                                                                                                                                ",
"                                                                                                                                ",
"                                                                                                                                ",
"                                                                                                                                ",
"                                                                                                                                ",
"                                                                                                                                ",
"                                                                                                                                ",
"                                                                                                                                ",
"                                                                                                                                ",
"                                                                      *.8.8                                                     ",
"                                                                      Z.b.;                                                     ",
"                                                                    4.V.Z.@.O                                                   ",
"                                                                  l.Q.J.z.` O                                                   ",
"                                                  w             z.!./.Z.-.$                                                     ",
"                                                -.y           2.Q.).E.M.=.4                                                     ",
"                                              5.l.y          .x.^.).E.M.-.9                                                     ",
"                                            5.M.c.a   4.A X.B.!.).!.Z.9.| $                                                     ",
"                                  | f       9.V.V.:.k 5.c.#.G.)._.Q.V.M.3.g O                                                   ",
"                            9.0.   .u.y f 5.B.V.V.V.l.M.V.6.Z./.H.C.V.x.2.( O                                                   ",
"                            >.R.&.] V.:.V M.V.V.V.V.V.V.V.V.E.H.E.V.x.3.[ *         w                                           ",
"           .                Z _.Z.o.j.M.6.V.V.V.V.V.V.V.V.V.C.H.C.V.z.*.[ 2         F #.                                        ",
"        ` -.5.7.c.c.9.9.9.,.C E.Z.9.M.V.V.V.V.V.V.V.V.V.V.V.V.V.V.V.x.=.| 9 %       :.N.D C y                                   ",
"        w h.V.C.!.).).).).F.O.u.V.V.V.V.V.V.V.V.V.V.V.V.V.V.V.V.V.V.7. .[ $     q b p.u.c.A.+.                                  ",
"          C #.c.Z.!.).).).^.:.#.V.V.V.C.H.V.V.V.V.V.V.V.V.V.V.V.V.x.=. .} 1     b  Xa.&.#.V.F                                   ",
"              D c.C.Z.~.E.~.v.n.!.!.Q.S.Q.S.Z.V.V.V.V.V.V.V.V.V.V.x.=. .[ * o ; i.).F.G.Z t.;                                   ",
"                #.V.V.Z.E.Z.!./.).).).~.H.E.V.V.V.V.V.V.V.V.V.V.V.z. . .[ r #.i.!._.)./.R.t..                                   ",
"                  #.v.V.l.z./.).).).).!.V.V.V.V.V.V.V.V.V.V.V.V.V.5. . .m u.C.Q.Z.E././.^.1..                                   ",
"                    :.$.&.R.).).).).).!.V.V.V.V.V.V.V.V.9.9.V.V.M.*. . .5.V.V.Z.H.V.V.V.V.h.                                    ",
"      t               & n.).).).).)._.E.V.V.V.V.V.V.c.%.;.x.V.V.M. . . . .M.V.C.S.V.V.V.8.p                                     ",
"    p.d.M V w         & n.).).).).).E.V.V.V.V.V.Z.C.:.i R a.M.V.M.5.=. . .M.V.V.V.V.V.8.7                                       ",
"J H d.).d.n.%.X.m ` r : u.E.!.H.H.H.V.V.V.V.V.H.^.b.I W Q T m.V.V.V.9.=. .5.x.V.V.V.M.| O                                       ",
"0 0._./.)./.Q.M.2. .4 n c.V.C.V.V.V.V.V.V.V.H./.R.z ~ ^ Q T m.V.9.V.V.5. . .2.z.V.9.=.[                                         ",
"  C Z.Z.Z.Z.V.8. . .2 F #.l.V.V.V.V.V.V.V.V.Q.).i., {.|.^ T m.V.l.V.V.7. . . .*.2. .4 +                                         ",
"  :.V.V.V.V.V.5. . .s :.q.L l.B.V.V.V.V.V.V.S.G.u > {.|./ r.m.u.M c.V.9. . . . . . .4 .                                         ",
"  D j.V.V.V.9. . . .| 9.g.Y U f.%.,.c.V.V.V.z.O.Y K.}.^ R 6.u.N ; c.V.V.4. . . . . .[ _ =                                       ",
"a D V u.%.z.*. . . . .z.M.0.! }.c < 0.V.V.V.V.V.9.g.K.~ U o.<.T.q l.V.V.5. . . . . . .{ e                                       ",
"        0 A |  . . .` h.B.q.K.|.E ~ I c.V.V.V.V.V.V.V.V.i.y.#X*Xq l.V.M.3. . . . . . .{ r                                       ",
"            ` k k ` 5 $.A.m.w./ / L.z.V.V.V.V.V.V.V.V.u.Y.,X2X:XP F V.9. . . . . . . .{ e                                       ",
"                  r % S 7.M.g.e.f.v.B.V.V.V.V.V.c.D V N `.2X2X:XB $.V.7. . . . . . . .{ r                                       ",
"                      = d :.A z.V.V.V.c.c.c.l.D Z T.%X'.].2X1X&Xl c.V.M.3. . . . . . .| j w                                     ",
"                      @ +.a M M $.j.q.M Z G G v [.,X2XOX].2X,XB :.V.V.x.2. . . . . . .{ p                                       ",
"                      & >.>.+XT.<.t.<.s.-X:X;XI.=X2X2X$XT.:X+Xb l.V.V.5. . . .3.3.*. .{ e                                       ",
"                      @ D 8.`.oX[.:X:X].=X2X1XOX&X,X1X<X.X].x :.V.V.x.=. .3.7.V.V.z.] j s                                       ",
"                        8 z.3.XX'.$X2X-X].,X1X1X*X.X,X2X2XT.z k.V.V.7. .4.M.V.V.V.V.%.0 ` d                                     ",
"                          n x.D.s.&X2X1X$XOX1X2X,XI.:X2X%Xt.l.V.V.c.4.3.M.V.V.V.Z.E.Z.S 9 ' s                                   ",
"                            #.x.;.@X2X2X&X`.2X2X,XI.OXP.t.h.V.V.V.9.=.9.V.V.V.C.!.).!.c.1 ' { j                                 ",
"                            t v.M.t.%X,XOXU.:X>X-XK K q.l.V.V.M.8. .=.x.V.V.V.Z._.)./.Z.+.4 ..j w 0                             ",
"                          r h #.V.l.J H Z M H H J u.l.V.V.V.B.3. .) X.V.V.V.V.Z././.H.A.1.- [ { ' 1                             ",
"                          p h b l.V.l.l.l.l.l.l.l.V.V.V.M.M.8. . .) A c.V.V.V.b.k.k.1.c.1.- }  .' *                             ",
"                          r | g p ;.9.z.B.V.V.V.V.V.V.x.3. . . . .| ` D c.V.c.n 7 7 2 n :.* 9 h 4                               ",
"                          r ] 5.m `  . .5.9.5.7.9.9.9.4. . . . . . . .` X.l.n 9 g g | p t X o                                   ",
"                            M V.M.9.3.{ ) |  . . . . . . . . . .' 6 4 h j v = [  . . .' O                                       ",
"                            a :.V.V.M.6.A s 6 2 _ } } | [ [ [ | ( o         3 ' [ [ [ 9                                         ",
"                            a >.z.9.M.c.>.5 o   $ $ 4 g $ $ $ *               $ $ $ $                                           ",
"                            % A V +.$.; & +                                                                                     ",
"                              X X O @                                                                                           ",
"                                                                                                                                ",
"                                                                                                                                ",
"                                                                                                                                ",
"                                                                                                                                ",
"                                                                                                                                ",
"                                                                                                                                "
};
