/* XPM */
static char *frame_161732487555[] = {
/* columns rows colors chars-per-pixel */
"64 64 204 2 ",
"   c None",
".  c #0E0F0E",
"X  c #17151D",
"o  c #1C181D",
"O  c #1A151B",
"+  c #1C1923",
"@  c #1E1B2B",
"#  c #221D26",
"$  c #221D2B",
"%  c #2B1F2D",
"&  c #221E32",
"*  c #2A1E31",
"=  c #26212C",
"-  c #2B2334",
";  c #2C243D",
":  c #272235",
">  c #342A3C",
",  c #332B35",
"<  c #493135",
"1  c #612D3D",
"2  c #322A4C",
"3  c #392A42",
"4  c #3D3442",
"5  c #342C53",
"6  c #3B2F59",
"7  c #392D56",
"8  c #3A3157",
"9  c #2F284B",
"0  c #3D3468",
"q  c #432D4C",
"w  c #4C2C4E",
"e  c #462746",
"r  c #4D2D54",
"t  c #492E57",
"y  c #483458",
"u  c #55355C",
"i  c #58375E",
"p  c #5A385E",
"a  c #513558",
"s  c #4E394E",
"d  c #4F3261",
"f  c #46376B",
"g  c #5B3B64",
"h  c #543868",
"j  c #463A75",
"k  c #4A3A75",
"l  c #493C7A",
"z  c #473B78",
"x  c #563D75",
"c  c #713D60",
"v  c #544556",
"b  c #6F4446",
"n  c #584669",
"m  c #554575",
"M  c #4D407C",
"N  c #63436C",
"B  c #68496E",
"V  c #624472",
"C  c #6A4B72",
"Z  c #64467A",
"A  c #65497D",
"S  c #6B4B7B",
"D  c #674C74",
"F  c #754975",
"G  c #66527A",
"H  c #685376",
"J  c #77597C",
"K  c #75617A",
"L  c #9E3F50",
"P  c #834D77",
"I  c #9A527D",
"U  c #A6527F",
"Y  c #AF5271",
"T  c #B36A6A",
"R  c #CB5059",
"E  c #FF5B5A",
"W  c #C3526B",
"Q  c #D4657D",
"!  c #CB6B6F",
"~  c #FF7574",
"^  c #FA7679",
"/  c #543F81",
"(  c #4D4084",
")  c #4F4288",
"_  c #544285",
"`  c #54438B",
"'  c #5B4588",
"]  c #564794",
"[  c #584693",
"{  c #574897",
"}  c #594895",
"|  c #5A4A9C",
" . c #684B84",
".. c #704F83",
"X. c #6B5282",
"o. c #6C508A",
"O. c #725183",
"+. c #7C5B83",
"@. c #75558A",
"#. c #73598B",
"$. c #7A5A8D",
"%. c #795687",
"&. c #614F9E",
"*. c #614B90",
"=. c #764E93",
"-. c #63519E",
";. c #6D5496",
":. c #765C92",
">. c #7C5D94",
",. c #755B9C",
"<. c #7F5E98",
"1. c #7B6687",
"2. c #7C639A",
"3. c #6351A0",
"4. c #6A56A2",
"5. c #6E58A4",
"6. c #735CA5",
"7. c #795FA3",
"8. c #755DA8",
"9. c #7C61A5",
"0. c #7C62AA",
"q. c #865985",
"w. c #815F99",
"e. c #8F5991",
"r. c #A05486",
"t. c #846389",
"y. c #847687",
"u. c #8B6A92",
"i. c #83649D",
"p. c #8A6C9B",
"a. c #86679C",
"s. c #966A9D",
"d. c #8A7993",
"f. c #957699",
"g. c #B16A98",
"h. c #825DA0",
"j. c #8566A2",
"k. c #8A67A4",
"l. c #8969A6",
"z. c #8266AC",
"x. c #8569AD",
"c. c #8C6DAC",
"v. c #906FAF",
"b. c #8E70AF",
"n. c #9270A0",
"m. c #9371AB",
"M. c #9B76A4",
"N. c #8368B0",
"B. c #8C6EB1",
"V. c #906FB0",
"C. c #8F70B3",
"Z. c #8D7BB9",
"A. c #9473B5",
"S. c #9977B6",
"D. c #9C79B7",
"F. c #9E7BB8",
"G. c #9775B8",
"H. c #A47CAC",
"J. c #A37EB9",
"K. c #A17DB3",
"L. c #C66881",
"P. c #C17090",
"I. c #9C899E",
"U. c #958A97",
"Y. c #9B84A7",
"T. c #9C93AA",
"R. c #9384B9",
"E. c #A08BA0",
"W. c #A398A7",
"Q. c #AB84B6",
"!. c #A681B9",
"~. c #A680B9",
"^. c #AA84BA",
"/. c #AD86BB",
"(. c #AB84BB",
"). c #AF88BC",
"_. c #B189BC",
"`. c #B68CBD",
"'. c #B48BBD",
"]. c #B088B7",
"[. c #A699BD",
"{. c #ABA3B3",
"}. c #B7ABBB",
"|. c #BBB0BF",
" X c #E68786",
".X c #FC8486",
"XX c #FE9293",
"oX c #C0B1BF",
"OX c #B58CC0",
"+X c #BFAEC0",
"@X c #BFB7C5",
"#X c #C6B8C8",
"$X c #CDC4D2",
"%X c #DCD2DE",
"&X c #D9CEDB",
"*X c #DFD7E1",
"=X c #E1D6E1",
"-X c #E5DCE5",
";X c #EBE2EC",
":X c #F3EBF3",
">X c #F0E7F0",
",X c #FEF6FE",
"<X c #FFFAFF",
"1X c #F0E5EF",
/* pixels */
"                                                                                                                                ",
"                                                                                                                                ",
"                                                                                                                                ",
"                                                                                                                                ",
"                                                                                                                                ",
"                                                                                                                                ",
"                                                                                                                                ",
"                                                                                                                                ",
"                                                                                                                                ",
"                                                                                                                                ",
"                                                                                                                                ",
"                                                                            p.8                                                 ",
"                                                                          4.2.#                                                 ",
"                                                                        4.A.c.m                                                 ",
"                                                                      b.^.^.9.f                                                 ",
"                                                  r                 A._.).A.' @                                                 ",
"                                                ;.u               0.A.).D.x._ X                                                 ",
"                                              6.l.p             4./.`./.G.x._ X                                                 ",
"                                            6.B.c.g   5.A     x.A._.`.^.G.x._ X                                                 ",
"                                  } h       0.A.A.<.x 6.c.Z *.!.`.'.^.G.A.4.( X                                                 ",
"          &.                6.+.  | a.p d 6.C.A.A.A.l.B.A.7.c._._.!.!.A.x.-.( @                                                 ",
"          c.B.4.c.b.4.4.4.-.,.Q.%.' A.<.V B.A.A.A.A.A.A.A.A.A.D.!.J.J.A.0.| ] j                                                 ",
"        r @.A.A.^._./././.n.C ).D. .j.B.7.A.A.A.A.A.A.A.A.A.A.A.G.J.A.A.5.| ( @                                                 ",
"          a $.A.F._.`.`.`.M.N D.D.0.B.A.A.A.A.A.A.A.A.A.A.A.A.A.A.A.A.z.&.| ( X                                                 ",
"            u $.A.F.!./.^.H.O.i.A.A.A.A.A.A.A.A.A.A.A.A.A.A.A.A.A.A.A.8.| ] 6 *               a g                               ",
"              i >.A.A.F.!.m.O.i.A.A.J.J.D.F.A.A.A.A.A.A.A.A.A.A.A.A.A.8.| ] 6 *             > :.S                               ",
"                i g <.A.D.c.k.J././._.J.!.J.D.A.A.A.A.A.A.A.A.A.A.A.A.8.| | ]         o , t.p.A.k.N r e                         ",
"                  e @.A.B.z./._.`.`.'.^.J.J.A.A.A.A.A.A.A.A.A.A.A.A.x.4.| | [ t > # = J M._.s.$.A.l.X.%                         ",
"                    i w.c.!.`.`.`.`.`./.A.A.A.A.A.A.A.A.A.A.A.A.A.6.&.| | | [ V i.i.n.K.OXH.q.J $.A.q                           ",
"                        +.].`.`.`.`.'.!.A.A.A.A.A.A.A.A.B.B.A.A.B.| | | | | -.c.A.F.!.!.'._.Q.u.a.:.-                           ",
"                        J ].`.`.`.`._.A.A.A.A.A.A.A.A.l. .;.C.A.B.4.| | | | 3.A.A.D.!.D.!./.`./.u.4                             ",
"                        n K.`.`.`.`.!.A.A.A.A.A.D.G.l.P L F N.A.A.x.-.| | | 3.A.A.D.D.A.A.G.!.F.y                               ",
"    t.w r     w w w e - i.G.J.J.J.J.A.A.A.A.A.J.).m.P R E U x.A.B.0.8.| | | &.x.A.A.A.A.A.A.B.X.>                               ",
"# J H.s.s.m.w.o._ _ 2 n c.A.A.A.A.A.A.A.A.A.J._.Q.v ! ~ E U N.A.j.o.x.-.| | | 5.A.A.A.A.C.0.m :                                 ",
"u.H.`.`._.F.!.x.| | 2 G O.j.c.A.A.A.A.A.A.A.!.`.p.<  XXX~ U N.j.V j.A.6.| | | -.x.B.B.z.4.M &                                   ",
"C M.J._.J.!.G.9.| | h >.w.c F l.A.A.A.A.A.A.F.H.s <  XXX^ r.9.N > c.A.0.| | | | &.3.3.[ z &                                     ",
"  $.A.G.A.A.z.5.| | | 0.h.W R q.$.:.c.A.A.A.z...Y L..X~ Y ;.+.E.4 l.A.A.5.| | | | ` z 5 *                                       ",
"  A.A.A.A.A.4.| | | | z.B.=.Q XXb 1 q.A.A.A.A.A.0.h.L.Q I 1.oXW.n c.A.A.6.| | | | / 7 z t                                       ",
"p O.O.i.A.0.4.| | | _ 9.0.5.e..XT ! P c.A.A.A.A.A.A.A.k.g I.>XU.G c.A.A.6.| | | | | | [ t                                       ",
"        @.x } | | | 6 X.o.0.=.Q ^ P.l.A.A.A.A.A.c.@.O.D 1.#X>XU.H c.A.B.4.| | | | | | [ t                                       ",
"            d d d d * X.<.n Z s.g.k.c.m.c.c.c...C I.#XW.}.<X-Xv j.A.A.0.| | | | | | | [ t                                       ",
"                    O G c.;.d.N $.%.B N C C C H |.>X<X-X#X;Xy.#.A.A.A.8.| | | | | | | [ t                                       ",
"                      > j.x.R.W.H +X$Xd.&X=X=XT.%X<X,X,X@X{.Y.V.A.A.A.z.-.| | | | | | [ t                                       ",
"                      # i.B.Z.T.|.<X;XW.:X<X<X&X#X:X<X;XI.n a.A.A.A.A.8.| | | | | | | [ t                                       ",
"                        @.A.B.2.[.#X;X=X*X*X,X,X@X$X;Xf.i <.A.A.A.A.x.-.| | | 5.5.3.| _ h                                       ",
"                        q l.A.A.z.@.Y.#X$X{.<X,X}.K f.S <.A.A.A.A.A.8.| | 5.0.A.A.z.' d ` x h                                   ",
"                        = l.A.A.A.A.@.+.y.K E.I.+...>.A.A.A.A.A.A.0.-.| 5.A.A.A.A.A.>.q ` | `                                   ",
"                          @.@.A.A.A.A.c.@.@.@.@.c.A.A.A.A.A.A.A.C.6.| 5.B.A.A.A.D.!.D.X.8 ] _ r r                               ",
"                            y v.A.A.A.A.A.A.A.A.A.A.A.A.A.A.A.A.0.&.| 0.A.A.A.D._.`._.m.3 ) } ` ` ;                             ",
"                          t k S c.A.A.A.A.A.A.A.A.A.A.A.A.A.A.c.3.| -.c.A.A.A.D.`.`._.D.#.2 { | ` :                             ",
"                          d z $ m B.A.A.A.A.A.A.A.A.A.A.B.B.0.-.| / S A.A.A.A.D.)._.J.G.2.; ` ` 5                               ",
"                          a } 0 j 4.0.B.A.A.A.A.A.A.C.0.4.| | | | ` Z l.A.A.A.l.:.:.G l.2.: 9 +                                 ",
"                          t ' 6.4.| | 5.0.8.8.0.0.0.6.| | | | | | | ` Z l.A.c.n 5 5 2 n :.+ .                                   ",
"                            N A.B.0.4.[ / ` ` | | | | | | | | | ` 7 5 f A j.n f l l | f y                                       ",
"                            g <.A.A.B.7.A q ; 2 ( { { | ] ] ] ] `         g : ] | | | ` +                                       ",
"                            g ,.z.0.B.c.,.7 .   $ & 5 j & & & & &           q ` ] ] ` 5                                         ",
"                            * Z V X.:.> = @                                   @ @ @ @                                           ",
"                              o o + #                                                                                           ",
"                                                                                                                                ",
"                                                                                                                                ",
"                                                                                                                                ",
"                                                                                                                                ",
"                                                                                                                                ",
"                                                                                                                                "
};
