/* XPM */
static char *frame_171732487555[] = {
/* columns rows colors chars-per-pixel */
"64 64 200 2 ",
"   c None",
".  c #1C191E",
"X  c #161418",
"o  c #191721",
"O  c #1E1A22",
"+  c #1E1B2B",
"@  c #221B24",
"#  c #281E2C",
"$  c #261E32",
"%  c #26202D",
"&  c #2B2333",
"*  c #2A223B",
"=  c #35283B",
"-  c #37272B",
";  c #562F2E",
":  c #2C2645",
">  c #2F284A",
",  c #32294B",
"<  c #362946",
"1  c #3C3147",
"2  c #342C54",
"3  c #392F59",
"4  c #3A315E",
"5  c #3D3364",
"6  c #3E3468",
"7  c #422A4D",
"8  c #4B2A4B",
"9  c #422642",
"0  c #453548",
"q  c #4D2E54",
"w  c #4D2F59",
"e  c #453853",
"r  c #4E315F",
"t  c #4B3A57",
"y  c #55345B",
"u  c #55355A",
"i  c #4C3465",
"p  c #443668",
"a  c #5B3D64",
"s  c #503669",
"d  c #4B3C76",
"f  c #493C7C",
"g  c #473B78",
"h  c #523A74",
"j  c #553E7C",
"k  c #623F64",
"l  c #49434E",
"z  c #514153",
"x  c #6B4249",
"c  c #55446B",
"v  c #584366",
"b  c #5D4373",
"n  c #504177",
"m  c #595162",
"M  c #62416C",
"N  c #66496B",
"B  c #654572",
"V  c #684775",
"C  c #624E72",
"Z  c #694975",
"A  c #64487A",
"S  c #6C4C7C",
"D  c #624578",
"F  c #754B7D",
"G  c #66507B",
"H  c #6D5479",
"J  c #77597F",
"K  c #76537B",
"L  c #79627E",
"P  c #883E58",
"I  c #813F63",
"U  c #9C5E5E",
"Y  c #A84957",
"T  c #B84958",
"R  c #AB525C",
"E  c #80527F",
"W  c #874D75",
"Q  c #B05F6E",
"!  c #A6527F",
"~  c #A16073",
"^  c #FE5A59",
"/  c #C35A75",
"(  c #E15562",
")  c #FA686A",
"_  c #E26775",
"`  c #FD7B7B",
"'  c #FF807E",
"]  c #4C3F81",
"[  c #543F81",
"{  c #4F4288",
"}  c #4E4183",
"|  c #554185",
" . c #53438B",
".. c #5B4588",
"X. c #554692",
"o. c #584692",
"O. c #5A4895",
"+. c #5A4A9C",
"@. c #574897",
"#. c #6D4D83",
"$. c #634B8C",
"%. c #714F83",
"&. c #6C5381",
"*. c #6D5882",
"=. c #735283",
"-. c #75558B",
";. c #7C598D",
":. c #785889",
">. c #614F9E",
",. c #644D93",
"<. c #64519E",
"1. c #695295",
"2. c #765B92",
"3. c #7D5C94",
"4. c #755A9C",
"5. c #785897",
"6. c #7D6184",
"7. c #7C6397",
"8. c #5D4DA0",
"9. c #614FA0",
"0. c #6452A1",
"q. c #6A56A2",
"w. c #6E59A4",
"e. c #735CA5",
"r. c #775EA8",
"t. c #7960A6",
"y. c #7C63AA",
"u. c #845F8A",
"i. c #815786",
"p. c #835C95",
"a. c #9C5F92",
"s. c #95558C",
"d. c #A95682",
"f. c #846D88",
"g. c #86798B",
"h. c #856294",
"j. c #8D6C93",
"k. c #85639D",
"l. c #956999",
"z. c #97709D",
"x. c #825EA2",
"c. c #8566A2",
"v. c #8969A6",
"b. c #8266AC",
"n. c #8569AD",
"m. c #8C6CAC",
"M. c #8867A3",
"N. c #916FAF",
"B. c #946DA4",
"V. c #9271AC",
"C. c #9A73AD",
"Z. c #9673A2",
"A. c #8469B0",
"S. c #8C6EB1",
"D. c #906FB0",
"F. c #8F70B3",
"G. c #9473B5",
"H. c #9977B6",
"J. c #9C79B6",
"K. c #9A77B8",
"L. c #A479A9",
"P. c #A27EB6",
"I. c #A37EB9",
"U. c #D17781",
"Y. c #99859A",
"T. c #9E979F",
"R. c #8E8196",
"E. c #9589A6",
"W. c #9182BD",
"Q. c #A797AA",
"!. c #A681B9",
"~. c #A580B9",
"^. c #A983BA",
"/. c #AA84BA",
"(. c #AF88BD",
"). c #A681B4",
"_. c #B28ABC",
"`. c #B58CBD",
"'. c #B68CBE",
"]. c #B48BBD",
"[. c #B58ABA",
"{. c #AA9DB0",
"}. c #A28CA5",
"|. c #AFA7B8",
" X c #B2A5B6",
".X c #B9A9BA",
"XX c #E58689",
"oX c #FD8C8C",
"OX c #FF9595",
"+X c #BEB5C3",
"@X c #B2A4C7",
"#X c #C7BAC9",
"$X c #CCC0CE",
"%X c #D3C8D5",
"&X c #DBD1DD",
"*X c #E3DCE4",
"=X c #EBE2EB",
"-X c #F5EDF6",
";X c #FBF3FB",
":X c #FFFAFF",
/* pixels */
"                                                                                                                                ",
"                                                                                                                                ",
"                                                                                                                                ",
"                                                                                                                                ",
"                                                                                                                                ",
"                                                                                                                                ",
"                                                                                                                                ",
"                                                                                                                                ",
"                                                                                                                                ",
"                                                                                                                                ",
"                                                                                                                                ",
"                                                                                +.y.z                                           ",
"                                                                              e.J.J.e                                           ",
"                                                                            e.P.^.m.1                                           ",
"                                                    j                     e.P./.S.,.:                                           ",
"                                                e.c.y                 e.y.)._.H.y.3                                             ",
"                                              w.S.v.y   q.b         e.J.'.].!.S.q.2                                             ",
"                                            +.b.H.m.S h r.3.y   q.b.J.'.'._.H.y.] *                                             ",
"          4.y.y.m.y.+.+.      -.Z   >.K q s e.S.G.H.3.b n.G.$.,.G._.'.'._.!.S.q.4                                               ",
"        q k.H.H.^.^.J.J.G.q.| h.L.Z ,.P.5.1.S.G.G.G.m.v.G.G.S.S.(.'./.^.!.H.S.9.5 X                                             ",
"          M v.m.H.!.'.'._.!.h.i.'.B.A V.G.S.G.G.G.G.G.H.G.G.G.H.H.I.!.!.J.G.S.w. .:                                             ",
"              M v.H.!.]._.'.l.=.!.J.e.S.G.G.G.G.G.G.G.G.G.G.G.G.G.H.I.I.H.G.t.9.6 o                                             ",
"              8 V v.H.I.!.(.l.%.H.G.G.G.G.G.G.G.G.G.G.G.G.G.G.G.G.G.H.H.G.m.<.+.4                                               ",
"                  V v.H.I.V.;.h.I.I.I.J.H.J.G.G.G.G.G.G.G.G.G.G.G.G.G.G.G.e.+.X.,                                               ",
"                  8 -.H.H.v.2.I.'.'._.!.I.!.J.G.G.G.G.G.G.G.G.G.G.G.G.G.m.<.+.g @                                               ",
"                    B M.S.b.I.(.'.'._.!.I.I.J.G.G.G.G.G.G.G.G.G.G.G.G.G.e.+.+. .                v a                             ",
"                      M 3.&.[.'.'.'.'.].^.H.G.G.G.G.G.G.G.G.G.G.G.G.G.n.0.+.+.+.5           . t M.B                             ",
"                      9 0 Z.'.'.'.'.'.'.^.G.G.G.G.G.G.G.H.G.G.G.H.b.0.<.+.+.+.@.h =     @ 0 j.B.G.v.                            ",
"                        1 ).'.'.'.'._./.H.G.G.G.G.G.H.D.M.r.S.G.H.y.+.+.+.+.+.o.#.c.t = j.L.[.u.;.N.V q 9                       ",
"                      @ 7./.'.'.(./.J.H.G.G.G.G.J.H.m.E P i.S.G.H.b.+.+.+.+.+.<.m.H.V.C.!.'.L.j.K 3.v.c O                       ",
"      t               e v.J.^.^.J.G.G.G.G.G.G.J.(.H.K T ^ ! A.H.G.G.e.+.+.+.+.q.G.G.I.!.^.'.'.].j.B.k.@                         ",
"=   L z.j.u.p.      @ G 3.G.G.G.G.G.G.G.G.G.J.(.).H Q ) ^ ! A.H.S.n.b.>.+.+.+.q.G.G.J.I.H.I./.'.(.6.v                           ",
"k j.j.'.'._.V.-.$.h 7 -.-.:.G.G.G.G.G.G.G.G.^.[.N - XXoX) ! A.H.F.4.3.e.+.+.+.e.G.G.J.H.G.G.H.P.&.&                             ",
"  u.^.^._.I.!.S.+.+.4.v.p.Y F S.G.G.G.G.G.G.!.[.R ; XXOX` d.A.H.c.S M.r.+.+.+.w.G.G.G.G.G.G.m.b %                               ",
"  u ;.H.J.H.H.S.q.+.0.b.5.( T %.D p.N.G.G.G.b.S U.U.oX' / x.G.v.a t G.S.q.+.+.<.b.G.G.G.S.t.n #                                 ",
"  S m.H.G.G.S.e.+.+.O.b.b.s._ XXx Y W m.G.G.S.v.C.l._ ) d.e.k.J g.t G.G.e.+.+.+.>.r.S.y.<.d +                                   ",
"y 3.3.3.m.G.e.+.+.+.i -.1.y.a.oXU ~ k.S.G.G.G.H.G.G.C.B.;.=.f..XT.C G.G.e.+.+.+.+.+.>.} 6 +                                     ",
"    8 8 S b.0.+.+.+., G =.#.F _ ` l.S.H.H.H.H.H.G.3.-.S H  X-X*Xl v.G.F.q.+.+.+.+.+.| $ @                                       ",
"          b j @.+.+.> &.m.A H I / L.m.-.#.#.%.=.=.6.Y.g.|.:X;XT.C m.H.y.>.+.+.+.+.+.[ 3 7                                       ",
"              | h h * &.G.y.E.f.C =.Z N }.Q.Q.L Y.&X:X&X+X;X=Xl c.H.G.e.+.+.+.+.+.+.+.o.w                                       ",
"                    . &.K.b.W.|.Q.#X.XR.;X:X:X{.&X:X:X;X#X+Xg.*.G.G.S.q.+.+.+.+.+.+.+.o.w                                       ",
"                    X &.G.G.A.7.#X:X=XE.*X:X:X$X%X;X:X;X Xm *.G.G.H.y.+.+.+.+.+.+.+.@.h                                         ",
"                        a m.G.e.@X;X;X X{.:X:X-X{.*X=X.XN &.G.H.G.G.n.<.+.+.+.+.+.+.+. .w                                       ",
"                        & v.H.G.7.{.%X%Xg.#X#X#Xf.Q.6.;.v.G.G.G.G.G.y.+.+.+.+.+.+.+.+.| q                                       ",
"                        & 2.G.G.G.=.J }.Z Z Z Z B S m.G.H.G.G.G.G.b.<.+.+.+.+.w.w.0.@.s i i                                     ",
"                          e N.G.G.G.m.:.G.G.G.G.G.G.G.G.G.G.G.G.S.q.+.+.+.w.y.G.G.b...h O.o.s                                   ",
"                          = :.G.G.G.G.G.G.G.G.G.G.G.G.G.G.G.G.G.b.+.+.+.w.G.H.G.G.G.3.i X.+.| 8 8                               ",
"                            e m.G.G.G.G.G.G.G.G.G.G.G.G.G.G.G.b.q.+.+.w.S.G.G.G.J.^.J.&.4 X.o.j <                               ",
"                            < c n.G.G.G.G.G.G.G.G.G.G.G.G.n.q.>.+.+.+.y.H.G.G.J._.'._.V.< { +.@.:                               ",
"                          r  .4 d e.n.b.S.S.G.H.H.G.S.n.e.>.+.+.+.@.<.n.G.G.G.J.'.'._.J.-.> } 4                                 ",
"                          r @.X.X.+.+.O.>.q.b.S.S.n.0.+.+.+.+.+.+.[ #.H.G.G.G.J.(._.I.K.7.O o                                   ",
"                          r @.+.+.+.o.h j  .8.+.+.+.+.+.+.+.+.+.8.d u v.H.G.H.v.2.2.G v.7.O                                     ",
"                          w ..e.q.+.+.o.h i 4 { +.+.+.+.+.+.+.@.6 > # B v.H.m.c 2 2 , c 2.O                                     ",
"                            M G.S.y.q.+.+.] = p 4 2 2 2 2 2 2 > X       Z c.c p f f +.p e                                       ",
"                            a 3.G.G.S.y.q.f <                             a & X.+.+.+. .o                                       ",
"                            a 4.b.y.S.v.4.5                                 7  .X.X. .2                                         ",
"                            # A B &.2.= % +                                   + + + +                                           ",
"                              . . O @                                                                                           ",
"                                                                                                                                ",
"                                                                                                                                ",
"                                                                                                                                ",
"                                                                                                                                ",
"                                                                                                                                ",
"                                                                                                                                "
};
