/* XPM */
static char *frame_181732487555[] = {
/* columns rows colors chars-per-pixel */
"64 64 213 2 ",
"   c None",
".  c #0E0F0E",
"X  c #0F100F",
"o  c #10100F",
"O  c #121112",
"+  c #1A161B",
"@  c #17151C",
"#  c #1E1B2B",
"$  c #1C1923",
"%  c #241A25",
"&  c #221B28",
"*  c #221E33",
"=  c #29222D",
"-  c #25202B",
";  c #2D2532",
":  c #2A243D",
">  c #242035",
",  c #362238",
"<  c #332A3C",
"1  c #39233A",
"2  c #5A2A2E",
"3  c #6D3C3C",
"4  c #2C2646",
"5  c #2F2846",
"6  c #332B4D",
"7  c #3C2B4D",
"8  c #362B44",
"9  c #3E3140",
"0  c #352C53",
"q  c #3B315C",
"w  c #3C3256",
"e  c #3D3363",
"r  c #3F3569",
"t  c #4B2B4E",
"y  c #412A4A",
"u  c #45374C",
"i  c #4C2D53",
"p  c #4D2F58",
"a  c #4D3354",
"s  c #4B3C55",
"d  c #4C3D5C",
"f  c #4B3259",
"g  c #533257",
"h  c #55355C",
"j  c #56395C",
"k  c #4A3568",
"l  c #5B3C63",
"z  c #543A6F",
"x  c #563966",
"c  c #483B77",
"v  c #523A74",
"b  c #553D78",
"n  c #603F6A",
"m  c #653E63",
"M  c #4F415F",
"N  c #5E535D",
"B  c #51455C",
"V  c #6A4142",
"C  c #534367",
"Z  c #594569",
"A  c #624667",
"S  c #65496C",
"D  c #654572",
"F  c #6A4976",
"G  c #66497E",
"H  c #6C4C7D",
"J  c #624B75",
"K  c #704E7D",
"L  c #6E5272",
"P  c #66527C",
"I  c #6B537F",
"U  c #7A5E7E",
"Y  c #76567A",
"T  c #754D67",
"R  c #766F7B",
"E  c #A94655",
"W  c #904E70",
"Q  c #AD5363",
"!  c #AC537E",
"~  c #B05369",
"^  c #B86C6E",
"/  c #DD525B",
"(  c #EF5A5F",
")  c #F35E63",
"_  c #DE6475",
"`  c #F6666B",
"'  c #FF7F7F",
"]  c #EC7476",
"[  c #4B3F82",
"{  c #553F81",
"}  c #4E4085",
"|  c #534084",
" . c #55438B",
".. c #5A4487",
"X. c #564794",
"o. c #584794",
"O. c #574897",
"+. c #5A4A9C",
"@. c #574898",
"#. c #6B4D81",
"$. c #694E8B",
"%. c #644A85",
"&. c #754F81",
"*. c #6E5383",
"=. c #6A548E",
"-. c #735284",
";. c #7B5983",
":. c #74548A",
">. c #735A8C",
",. c #7B5B8D",
"<. c #785586",
"1. c #614E9D",
"2. c #624F94",
"3. c #64519E",
"4. c #6C559A",
"5. c #6F5C98",
"6. c #755794",
"7. c #7E5293",
"8. c #7B5B93",
"9. c #775B9A",
"0. c #7B6581",
"q. c #7D6299",
"w. c #6552A1",
"e. c #6A55A2",
"r. c #6E58A3",
"t. c #735CA6",
"y. c #755EA8",
"u. c #785FA9",
"i. c #795DA1",
"p. c #7961A7",
"a. c #7D63A9",
"s. c #7760A6",
"d. c #845B8A",
"f. c #805F99",
"g. c #835A98",
"h. c #A65987",
"j. c #876589",
"k. c #8D758E",
"l. c #837088",
"z. c #92748F",
"x. c #836392",
"c. c #83629C",
"v. c #89699C",
"b. c #916C9E",
"n. c #927A97",
"m. c #AC6991",
"M. c #8565A2",
"N. c #8966A2",
"B. c #8569A4",
"V. c #8A6AA6",
"C. c #8366AC",
"Z. c #8669AD",
"A. c #8B6CAC",
"S. c #936EA9",
"D. c #8E70AF",
"F. c #9B75A2",
"G. c #9774AA",
"H. c #8C6EB2",
"J. c #8569B0",
"K. c #906FB0",
"L. c #8F70B3",
"P. c #9473B5",
"I. c #9876B6",
"U. c #9C7AB6",
"Y. c #9775B8",
"T. c #9E7BB8",
"R. c #9977B8",
"E. c #A37BAA",
"W. c #A27EB9",
"Q. c #A17DB6",
"!. c #AB6EA2",
"~. c #CC7389",
"^. c #8B8496",
"/. c #97889B",
"(. c #868087",
"). c #978FA2",
"_. c #9D94A6",
"`. c #9989BF",
"'. c #A880AF",
"]. c #AE9BAE",
"[. c #AB83B5",
"{. c #A580B9",
"}. c #AB84BA",
"|. c #AC85BB",
" X c #AA84BA",
".X c #B48BBD",
"XX c #B58CBD",
"oX c #B68DBE",
"OX c #B38ABD",
"+X c #B087B7",
"@X c #A69EB0",
"#X c #B6ACBC",
"$X c #B6AAB7",
"%X c #FF8F8D",
"&X c #F6918F",
"*X c #FF9292",
"=X c #B68DC0",
"-X c #BEADC0",
";X c #BEB5C4",
":X c #BAAFD5",
">X c #C8BFCC",
",X c #CBC1CE",
"<X c #D2CAD4",
"1X c #DBD2DD",
"2X c #D8CFE2",
"3X c #DFD6E2",
"4X c #E5DCE6",
"5X c #E5DAE5",
"6X c #EDE3ED",
"7X c #F6EDF6",
"8X c #F1E6F0",
"9X c #FCF4FC",
"0X c #FFF9FF",
/* pixels */
"                                                                                                                                ",
"                                                                                                                                ",
"                                                                                                                                ",
"                                                                                                                                ",
"                                                                                                                                ",
"                                                                                                                                ",
"                                                                                                                                ",
"                                                                                                                                ",
"                                                                                                                                ",
"                                                                                                                                ",
"                                                                                    +.5.-                                       ",
"                                                                                +.a.L.V.=                                       ",
"                                                        b                     u.R.}.{.q.&                                       ",
"                                                      y.#.                w.t.{.oX{.Z.2.                                        ",
"                                                    e.L.<.g   o.x       r.T.}..X{.P.r.5                                         ",
"              r.e.                        #.m       u.P.P.H v t.9.h r.p.T.oXoX|.P.C.3.:                                         ",
"            j A.J.p.a.e.          +.H     a.x.x   y.P.P.P.H $.L.B.%.P..XoXoXOXW.P.t.c *                                         ",
"              f.c.T.{.L.Z.Z.D.    | F.;.v u.R.$.4.L.P.P.P.f.V.P.H.L.oXoX|.OX{.P.C.3.4                                           ",
"                l f.P.W..XoXoXQ.A.D F.[.#.$.P.Z.H.P.P.P.P.P.P.P.P.I.}.}.W.W.P.P.t.+.4                                           ",
"                  H P.P.|.oX.XoX.XF v.|.C.4.P.P.P.P.P.P.P.P.P.P.P.P.P.W.W.P.P.s.1.O.4                                           ",
"                  h ,.P.T.|.{.[.U.D c.R.P.H.P.P.P.P.P.P.P.P.P.P.P.P.P.P.P.P.H.3.+.e                                             ",
"                    h 8.P.T.{.,.8.K N.R.I.I.P.P.P.P.P.P.P.P.P.P.P.P.P.P.P.P.s.+.+.0             a                               ",
"                      l V.P.P.Z.A.[.+XOXOX{.{.T.P.P.P.P.P.P.P.P.P.P.P.P.P.A.3.+. .5           < *.D                             ",
"                        :.P.P.H.T.oXoXoXoX|.{.W.P.P.P.P.P.P.P.P.P.P.P.P.P.t.+.+.q %         ; >.P.:.g                           ",
"                        h ,.M.S.oXoXoXoXoXoXW.T.I.P.P.P.P.P.P.P.P.P.P.P.P.t.+.+.c 7       = U b.M.P.:.Z ,                       ",
"                          t Z F.oXoXoXoXoXoXW.P.P.P.P.P.P.P.P.P.P.P.P.C.t.e.+.+...y + % A 0.E.d.-.N.A.d                         ",
"        L 9 j U             u +XoXoXoXoX.X}.I.P.P.P.P.P.P.P.A.u.H.P.P.u.@.+.+. .G 8.>.x.Q.=X[.'.Y f.q.$                         ",
"        j.F.E.+Xd.g       ; v.OXOXOXOX|.T.I.P.P.P.P.P.P.P.&.m M.P.P.P.y.+.+.+.3.V.P.W.{.}.oXoXoXE.F.s                           ",
"        m E.OXoX+XG.H g 1 u P.{.W.I.I.I.P.P.P.P.P.|.}.K.&.E / g.H.P.P.Z.w.+.+.e.P.P.R.{.T.|.OXOXW.s                             ",
"        n V.U. X|.{.P.=.< 8.c.P.P.P.P.P.P.P.P.P.T.OXG.Y ~ ` ( 7.H.P.P.H.r.+.+.e.P.P.W.T.P.P.I.P.8.<                             ",
"      n c.P.P.P.P.T.P.2.7 c.H M.P.P.P.P.P.P.P.P.|.[.M V *X' ) 7.H.P.P.6.4.w.+.w.H.P.P.P.P.P.H.=.8                               ",
"      D :.A.P.P.P.H.u.1.:.A.d.W *.9.L.P.P.P.P.P. Xj.2 V *X*X` g.H.P.M.H c.w.+.+.t.J.P.P.P.P.J.w                                 ",
"          H A.P.H.u.+.+.y.H.g.Q Q m.S -.P.P.P.P.R.d.W ^ *X*X` 7.H.M.a J P.p.+.+.+.t.H.P.P.C.t.w                                 ",
"            D 9.e.+.+.@.1.Z.w.! ' &X3 E &.P.P.P.P.P.Z.m.` ` h.M.M.j.N C Y.H.1.+.+.+.w.e.e.+.c *                                 ",
"              z o.@.+.o.z 9.G 7.~.%X] ~.6.P.P.P.P.P.P.S.!.!.c.F Y #X(.Z Y.H.1.+.+.+.+.o.[ : *                                   ",
"                  v o. .8 B.8.l Q ( _ N.H.P.P.P.P.P.P.B.B.#.L ].5X$XC A.P.H.1.+.+.+.@.z 6 k y                                   ",
"                    p k : V.Z.B.z.T Y 6.8.8.8.8.8.8.<.U l.0.,X9X7X^.J P.P.s.+.+.+.+.+.o.X. .i                                   ",
"                        ; V.P.y.:X_.l.z.0.L k.k.k.S /.5X0X;X1X0X<XB P.P.P.w.+.+.+.+.+.+.+. .t                                   ",
"                        = V.P.Z.`.^.1X0X<X@X0X0X7X).6X0X0X4X;X4X/.I P.P.A.3.+.+.+.+.@.+.+. .t                                   ",
"                        = V.P.P.C.5.2X0X3X#X7X0X7X$X4X0X0X9X/.R P P.P.P.s.+.+.+.+.+.+.+.o.z                                     ",
"                          H A.P.P.Z.n.6X7X>X<X0X0X5X#X9X7X$XA *.P.P.P.A.e.+.+.+.+.+.+.+. .p                                     ",
"                            d P.P.P.c.Y /.#X#X8X6X1X_.-XU ,.c.P.P.P.P.P.r.+.+.+.+.+.+.+.@.b t                                   ",
"                            8 A.P.P.P.N.x.S S L L L A ;.M.A.P.P.P.P.P.Z.w.+.+.+.+.+.+.+.o.f i                                   ",
"                            1 I P.P.P.P.P.V.V.V.V.V.V.A.P.P.P.P.P.P.P.t.+.+.+.+.e.e.1.+.o.v | f                                 ",
"                            % u V.P.P.P.P.P.P.P.P.P.P.P.P.P.P.P.P.P.a.3.+.+.e.u.P.P.a...@.@.+.{ k k                             ",
"                            o % *.Y.P.P.P.P.P.P.P.P.P.P.P.P.P.P.P.C.3.+.+.t.P.P.P.P.P.-.k @.+.+.+.o.>                           ",
"                              . < 9.A.P.P.P.P.P.P.P.P.P.P.P.P.Z.u.3.+.+.r.P.P.P.P.T.{.K.Z e @.+.@.r #                           ",
"                              , % c e.u.Z.P.P.P.P.P.P.P.H.p.t.w.+.+.+.+.C.P.P.P.T.|.oX|.c.5  .o.r #                             ",
"                              v | X.+.@.1.w.u.H.L.P.Z.e.w.+.+.+.+.+.@.4.A.P.P.P.W.oXoXOXP.P > *                                 ",
"                              v +.+.+. .v o.o.1.w.w.1.+.+.+.+.+.+.+.b :.P.P.P.P.W.OXOXW.Y.>.@                                   ",
"                              v +.+.+.@.o.| k c [ @.+.+.+.+.+.+.+.o.k D K.P.P.P.A.B.M.q.P.>.+                                   ",
"                              v  .3.r.e.r.1.o.e 6 e r r r r r r r 0 @ , -.K.P.A.C w w 0 P >.+                                   ",
"                                t 8.P.A.P.a.r.+.r $ o O O O O O O         -.B.C c c c o.q d                                     ",
"                                  F A.H.C.P.H.3.*                           l : O.+.+.+.} @                                     ",
"                                  F i.Z.a.>.s 6 #                             7 X.o.o. .0                                       ",
"                                % a :.j < ;                                     * * * *                                         ",
"                                    = +                                                                                         ",
"                                                                                                                                ",
"                                                                                                                                ",
"                                                                                                                                ",
"                                                                                                                                ",
"                                                                                                                                ",
"                                                                                                                                ",
"                                                                                                                                "
};
