/* XPM */
static char *frame_191732487555[] = {
/* columns rows colors chars-per-pixel */
"64 64 204 2 ",
"   c None",
".  c #121113",
"X  c #16151B",
"o  c #18161D",
"O  c #1C191D",
"+  c #1B1925",
"@  c #1E1B2A",
"#  c #251C26",
"$  c #2B1D2C",
"%  c #231F35",
"&  c #26202A",
"*  c #2B223C",
"=  c #2B2438",
"-  c #39243B",
";  c #35273A",
":  c #2A2442",
">  c #2F284A",
",  c #2D2749",
"<  c #3C2A45",
"1  c #3B3046",
"2  c #3D324A",
"3  c #352D53",
"4  c #382E59",
"5  c #39305C",
"6  c #3A3055",
"7  c #4A2A4B",
"8  c #412842",
"9  c #45334B",
"0  c #4C2D54",
"q  c #4D2F59",
"w  c #402E59",
"e  c #502F53",
"r  c #49375A",
"t  c #55345A",
"y  c #513D5F",
"u  c #58375B",
"i  c #41356A",
"p  c #4C366A",
"a  c #483A65",
"s  c #5C3B63",
"d  c #53396C",
"f  c #553B66",
"g  c #453A74",
"h  c #4B3C7B",
"j  c #4B3D74",
"k  c #523A73",
"l  c #533C78",
"z  c #56455B",
"x  c #5D565F",
"c  c #5A4569",
"v  c #5F4A73",
"b  c #63426B",
"n  c #65486A",
"m  c #62536F",
"M  c #664573",
"N  c #644A75",
"B  c #62467B",
"V  c #6C4B7C",
"C  c #674977",
"Z  c #714E7F",
"A  c #754974",
"S  c #6C527E",
"D  c #6A5674",
"F  c #79577E",
"G  c #6C6175",
"H  c #7F7B7F",
"J  c #823A4A",
"K  c #934A49",
"L  c #934959",
"P  c #8B4463",
"I  c #835267",
"U  c #A05077",
"Y  c #B85678",
"T  c #AF4F65",
"R  c #B86D72",
"E  c #F05557",
"W  c #C04F67",
"Q  c #D55A68",
"!  c #E15968",
"~  c #D27D7D",
"^  c #D66277",
"/  c #FF6260",
"(  c #EF727A",
")  c #DB807E",
"_  c #4C3F81",
"`  c #553F81",
"'  c #4E4084",
"]  c #554184",
"[  c #54438C",
"{  c #5D4982",
"}  c #554693",
"|  c #584693",
" . c #5B4A94",
".. c #5A4A9C",
"X. c #644C81",
"o. c #674A84",
"O. c #704F82",
"+. c #6C5482",
"@. c #6C508B",
"#. c #735284",
"$. c #76558A",
"%. c #79578B",
"&. c #755B8D",
"*. c #7A598F",
"=. c #7A5A83",
"-. c #614F9D",
";. c #624D96",
":. c #64519F",
">. c #6B559B",
",. c #695296",
"<. c #765C94",
"1. c #7C5B93",
"2. c #765897",
"3. c #7E6383",
"4. c #7D619A",
"5. c #7D6294",
"6. c #604FA1",
"7. c #6653A0",
"8. c #6B56A3",
"9. c #6E59A5",
"0. c #735CA5",
"q. c #7A5BA0",
"w. c #765EA8",
"e. c #7B61A5",
"r. c #7D63AA",
"t. c #7A66A9",
"y. c #815D86",
"u. c #825D99",
"i. c #8A5E9E",
"p. c #AD5882",
"a. c #84668C",
"s. c #82619B",
"d. c #8C6799",
"f. c #8D7994",
"g. c #917397",
"h. c #B3628D",
"j. c #A16896",
"k. c #8666A3",
"l. c #8867A4",
"z. c #8A6AA6",
"x. c #8466AC",
"c. c #8669AE",
"v. c #8D6DAD",
"b. c #8568A0",
"n. c #906FAD",
"m. c #906FA5",
"M. c #8573AC",
"N. c #9976A7",
"B. c #8C6DB1",
"V. c #876AB0",
"C. c #906FB0",
"Z. c #8F70B3",
"A. c #9473B5",
"S. c #9977B6",
"D. c #9C79B6",
"F. c #9675B8",
"G. c #9E7BB8",
"H. c #9876B9",
"J. c #A77FAE",
"K. c #A37EB6",
"L. c #A27EB9",
"P. c #D46681",
"I. c #E67B85",
"U. c #F97D80",
"Y. c #94869A",
"T. c #9A849D",
"R. c #8C8491",
"E. c #8D84A0",
"W. c #9B89A0",
"Q. c #A487A8",
"!. c #AC9BAE",
"~. c #A496A8",
"^. c #AC84B4",
"/. c #A580B9",
"(. c #A681BA",
"). c #AE87BB",
"_. c #AB84BB",
"`. c #AF88BC",
"'. c #B189BC",
"]. c #B58CBD",
"[. c #B68DBD",
"{. c #B38ABC",
"}. c #ABA3B4",
"|. c #BCABBC",
" X c #B1AAB2",
".X c #FE8383",
"XX c #F78684",
"oX c #FF9595",
"OX c #B88EC0",
"+X c #B8B0C0",
"@X c #BDB3D1",
"#X c #C2B4C3",
"$X c #C6B9C7",
"%X c #CEBFCD",
"&X c #C9C1CB",
"*X c #D7CDD9",
"=X c #DBD0DC",
"-X c #DFD7E1",
";X c #E4D9E4",
":X c #E7DEE9",
">X c #EEE6F0",
",X c #FCF4FC",
"<X c #FFFBFF",
"1X c #F0E7F1",
/* pixels */
"                                                                                                                                ",
"                                                                                                                                ",
"                                                                                                                                ",
"                                                                                                                                ",
"                                                                                                                                ",
"                                                                                          ;.                                    ",
"                                                                                      7.0.5.O                                   ",
"                                                                                  7.9.S./.&.X                                   ",
"                                                          ..B                   9.A.)._.A.{ X                                   ",
"                                                          9.x.s               r.A.].).F.>.5                                     ",
"                                                        8.V.v.s     p     -.v.'.].).D.c.] o                                     ",
"                  @.r.8...            ,.F   ..&.b     8.c.F.v.s   9.X.d x.A.'.].].L.A.0.' o                                     ",
"                  V A.B.S.A.7.:.:.    0.^.y.] A.d.f >.B.A.A.v.s ;.B.q.e.).].{.]._.S.c. .:                                       ",
"                  u *.A.G.).K.K.K.r. .M ).K.B s.A.>.c.A.A.A.A.l.v.A.Z.K.].'.L._.S.A.0.[ +                                       ",
"                    t s.F.G.].].].).N.b D./.0.x.A.Z.A.A.A.A.A.F.A.A.A.F./.L./.S.A.c.7.[ +                                       ",
"                      #.A.S.).`.'.].J.b n.F.A.A.A.A.A.A.A.A.A.A.A.A.A.A.F.L.S.A.c.7...g +                                       ",
"                        %.A.D././.'.a.s v.A.D.L.S.D.F.A.A.A.A.A.A.A.A.A.A.A.A.A.0.....*                                         ",
"                        t %.A.D.D.D.%.%.K.L.)._.L./.L.A.A.A.A.A.A.A.A.A.A.A.A.B.:.....*                                         ",
"                          s v.A.A.x.D._.].].]._.L./.G.A.A.A.A.A.A.A.A.A.A.A.A.r.....i =             ; C                         ",
"                            V v.#.d.'.].].].].{.D.S.F.A.A.A.A.A.A.A.A.A.A.A.B.:.....>             # S s.t                       ",
"              #               < D '.].].].].].'.D.A.A.A.A.A.A.A.A.A.A.A.A.A.e.......[ q       & D g.n.A.*.t 7                   ",
"            s 3.9 y.F         = 3.OX].].].].].L.A.A.A.A.A.A.A.F.A.B.A.A.A.r.-.......| f = & z N.^.J.=.k.A.s.9                   ",
"            u g.^.'.^.y.b   # y D.'.].].].'._.D.A.A.A.A.A.A.A.4.2.r.A.A.A.7.........X.s.z.m.N.).].d.d.M A.S                     ",
"              b K.'.].'.n.c - +.F.L._._._.L.A.A.A.A.F.L.D.A.1.P P x.A.A.A.7.........r.F.S./.L.).].{.^.a.z.r                     ",
"              %.A.D././.L.&.1 u.k.F.A.A.A.A.F.A.A.F./.]./.u.L E ! q.A.A.A.0.........r.F.F.L.L.D./.'.{.N.z                       ",
"            #.C.A.A.A.F.G.&.f u.Z k.A.A.A.A.F.A.A.S.'.).&.I ( / ! q.A.F.A.0.8.......r.A.F.G.A.A.A.G.L.&.X                       ",
"            s V n.A.A.A.r.;.,.r.U P d.A.A.A.A.A.A.S.'.a.$ L oX.X! 2.A.F.v.B l.r.....0.Z.A.A.A.A.A.A.<.1                         ",
"                #.B.A.r.:...8.B.u.W Q A >.v.A.A.A.F.Z.{ J K ~ oXU.p.r.C.V 1.A.c.......x.F.A.A.A.x.,.>                           ",
"                  V >.......>.Z.0.Y .XR - A n.A.A.A.A.e.j.I.XX.X^ i.v.#.- 5.F.c.......0.B.B.c.9.| >                             ",
"                    l | ..] f 2.q.q.I.) K T <.F.A.A.A.A.x.h.^ P.u.2.#.Q.x <.F.c...........6.| g ,                               ",
"                      k ] g 1 1.O.X.Y ( I.j.c.A.A.A.A.A.A.F.A.1.#.3.!.|.G b.F.c.........| h 5 =                                 ",
"                        q w 1 A.@.S M T h.x.F.F.F.F.F.F.s.#.V n W.;X<XH v F.F.c.........| p i k                                 ",
"                          $ 1 A.c.M.W.m S #.V V #.#.Z V =.T.~.R.>X<X&XD 4.F.A.r...............k                                 ",
"                            1 A.A.t.@XY.$X%Xf.!.%X%X!.f.=X,X,X#X-X,XR.c F.A.B.:...............k                                 ",
"                            1 v.A.B.t.E.,X<X}.*X<X<X*X}.<X<X,X:X!.!.m l.A.A.V.................k                                 ",
"                              #.F.A.x.M.:X<X*X&X1X<X:X$X:X<X<X=XG c l.F.A.A.e.................d                                 ",
"                              c F.A.A.l.g.$X;X}.-X<X<X&X+X;X#X3.V l.F.A.A.v.:...............] 0                                 ",
"                              y l.A.A.A.k.C T.a.~.|.|.Y.f.f.V l.A.F.A.A.A.0.................] q q                               ",
"                              $ S F.A.A.A.A.1.V V V V V V s.A.A.F.F.F.A.v.:...............| l ] ` q                             ",
"                                f k.F.A.A.A.A.F.F.F.F.F.F.A.A.A.F.F.F.B.0.................[ p ....` l p                         ",
"                                # +.A.A.A.A.A.A.A.A.A.A.A.A.A.A.A.A.B.0...................| [ ........g X                       ",
"                                < l r 4.A.A.A.A.A.A.A.A.A.A.A.A.A.A.c.:.............................' *                         ",
"                                  + %  .r.B.A.F.A.A.A.F.F.F.A.B.B.0.-.........-.0.B.B.8.| ......} _ :                           ",
"                                    i ....8.r.c.B.A.A.x.x.x.0.:.............9.B.A.A.A.v.B h [ g > +                             ",
"                                    k | ..| | ..8.r.w.....................9.B.A.A.D.L.L.m.r 3 .                                 ",
"                                  7 k ....[ k l | ......................7.B.A.A.A./.].].'.b.9                                   ",
"                                  7 0 | ....] k 4 5 | _ g ..........h i 2.A.A.A.A./.].{.L.H.+.                                  ",
"                                  7 0 ;.r.r.w.0.j a 3 : % > > > > > * - %.A.A.A.A.A.D.D.A.A.+.                                  ",
"                                        V v.A.B.B.v.X.3                   M l.A.N j a ]  .a N                                   ",
"                                        e #.A.r.B.4.; @                     b +.6 } [ | ..g &                                   ",
"                                          2.r.l.&.=                           8 6 ........i .                                   ",
"                                          - y s $ .                             p ......' @                                     ",
"                                          . .                                                                                   ",
"                                                                                                                                ",
"                                                                                                                                ",
"                                                                                                                                ",
"                                                                                                                                ",
"                                                                                                                                ",
"                                                                                                                                ",
"                                                                                                                                ",
"                                                                                                                                ",
"                                                                                                                                ",
"                                                                                                                                ",
"                                                                                                                                "
};
