/* XPM */
static char *frame_201732487556[] = {
/* columns rows colors chars-per-pixel */
"64 64 211 2 ",
"   c None",
".  c gray6",
"X  c #100F0F",
"o  c #121112",
"O  c #161419",
"+  c #1A171D",
"@  c #1C1924",
"#  c #211B24",
"$  c #241C2C",
"%  c #2B1D2C",
"&  c #231F33",
"*  c #321E31",
"=  c #25202F",
"-  c #3F2423",
";  c #2B233E",
":  c #2A2434",
">  c #362839",
",  c #39313E",
"<  c #6D3038",
"1  c #2F284A",
"2  c #2C2645",
"3  c #3C2C43",
"4  c #32294D",
"5  c #3C2C4D",
"6  c #342C52",
"7  c #3B2F5A",
"8  c #3A305C",
"9  c #3C3146",
"0  c #3E3466",
"q  c #3F3569",
"w  c #4A2A4B",
"e  c #452C4B",
"r  c #48344D",
"t  c #4E2E53",
"y  c #492F58",
"u  c #463952",
"i  c #483658",
"p  c #523155",
"a  c #56355B",
"s  c #58385B",
"d  c #753943",
"f  c #4F3464",
"g  c #403569",
"h  c #553A65",
"j  c #5C3B64",
"k  c #51366B",
"l  c #553868",
"z  c #453974",
"x  c #493D7B",
"c  c #4C3A74",
"v  c #523972",
"b  c #533C7B",
"n  c #663D62",
"m  c #534356",
"M  c #4A4152",
"N  c #554464",
"B  c #5B4765",
"V  c #5B4274",
"C  c #5E4B72",
"Z  c #5B427C",
"A  c #64446B",
"S  c #634768",
"D  c #665769",
"F  c #654572",
"G  c #684775",
"H  c #634D75",
"J  c #6A4B75",
"K  c #6C4C7C",
"L  c #654879",
"P  c #704E7C",
"I  c #6C5373",
"U  c #6A527E",
"Y  c #695D73",
"T  c #715276",
"R  c #76597D",
"E  c #784A66",
"W  c #78677C",
"Q  c #9B465E",
"!  c #894667",
"~  c #9F517E",
"^  c #8E5170",
"/  c #A7517D",
"(  c #AE6463",
")  c #D5505C",
"_  c #F25657",
"`  c #F25E65",
"'  c #D4647A",
"]  c #D46F78",
"[  c #ED6063",
"{  c #FE696A",
"}  c #E76C75",
"|  c #F9787A",
" . c #F56970",
".. c #4D3F81",
"X. c #543F83",
"o. c #4E4085",
"O. c #54438B",
"+. c #5A468D",
"@. c #5A4586",
"#. c #564692",
"$. c #584693",
"%. c #5A4995",
"&. c #5A4A9C",
"*. c #574895",
"=. c #694E8D",
"-. c #6A4D85",
";. c #6E5483",
":. c #6E5880",
">. c #745386",
",. c #74548A",
"<. c #78578B",
"1. c #74598C",
"2. c #7A5B8B",
"3. c #7E5981",
"4. c #614F9E",
"5. c #614E96",
"6. c #63519E",
"7. c #6C559B",
"8. c #765C91",
"9. c #7B5B93",
"0. c #7C5E9B",
"q. c #715897",
"w. c #7C6685",
"e. c #7C6198",
"r. c #604FA0",
"t. c #6653A1",
"y. c #6A55A2",
"u. c #6E59A4",
"i. c #735CA5",
"p. c #765EA8",
"a. c #795FA9",
"s. c #7C62AA",
"d. c #7A61A5",
"f. c #865B87",
"g. c #835E9A",
"h. c #845896",
"j. c #A45988",
"k. c #836C85",
"l. c #8E768E",
"z. c #82629C",
"x. c #896493",
"c. c #94699B",
"v. c #8E7690",
"b. c #8F7890",
"n. c #97709C",
"m. c #B46289",
"M. c #8465A2",
"N. c #8969A6",
"B. c #8266AC",
"V. c #8569AD",
"C. c #8B6BAA",
"Z. c #8768A3",
"A. c #966EAF",
"S. c #8F70AF",
"D. c #8D79A0",
"F. c #9573AB",
"G. c #9C78A8",
"H. c #876AB0",
"J. c #8C6DB1",
"K. c #906FB0",
"L. c #8774B5",
"P. c #8F70B2",
"I. c #9473B5",
"U. c #9876B6",
"Y. c #9C79B7",
"T. c #9775B8",
"R. c #9D7AB8",
"E. c #9977B9",
"W. c #A76DA3",
"Q. c #A47DAD",
"!. c #A27EB9",
"~. c #A17DB7",
"^. c #94849A",
"/. c #9A90AC",
"(. c #A59EAF",
"). c #AB83B3",
"_. c #A681B9",
"`. c #AD86BB",
"'. c #AA83BA",
"]. c #AF88BC",
"[. c #B289BC",
"{. c #B58CBD",
"}. c #B48CBD",
"|. c #B68DBE",
" X c #B38BBC",
".X c #B087B8",
"XX c #A89EB0",
"oX c #A580AC",
"OX c #B7AEBD",
"+X c #B4ACB8",
"@X c #E38383",
"#X c #FF8989",
"$X c #F18B8B",
"%X c #FF9596",
"&X c #B48BC0",
"*X c #BAB2C1",
"=X c #C4B5C5",
"-X c #C6BBCA",
";X c #CCC2CD",
":X c #C6C0C5",
">X c #CCC3D1",
",X c #DED4DF",
"<X c #D3CBD7",
"1X c #E4DBE5",
"2X c #E5D9E5",
"3X c #EFE5EF",
"4X c #F0E6EF",
"5X c #F3EAF4",
"6X c #F8EEF7",
"7X c #FBF3FB",
"8X c #FFF9FF",
/* pixels */
"                                                                                                                                ",
"                                                                                                                                ",
"                                                                                                                                ",
"                                                                                                                                ",
"                                                                                                                                ",
"                                                                                                                                ",
"                                                                                                                                ",
"                                                                                                                                ",
"                                                                                                                                ",
"                                                                                                                                ",
"                                                                                            i.C                                 ",
"                                                                                        y.C.I.N                                 ",
"                                                                +.                    S.~.`.I.i                                 ",
"                                                              y.0.p               t.S.[.[.I.i.6                                 ",
"                                                            y.H.M.p             C.'.[.[.Y.H.x @                                 ",
"                      7.u.                =.n   &.J       y.H.I.M.p   y.v Z s.V.`.|.|.!.P.i.z                                   ",
"                    w 9.P.p.s.i.          9.x.j 5.G.K   y.V.I.I.M.f t.B.J 9.`.|.|.|.`.U.V.$.6                                   ",
"                      K C.U.'.Y.V.V.B.t.v T |.x.Z F.M.@.V.I.I.I.C.,.B.I.,.Q.|.[.`.`.Y.I.u.x O                                   ",
"                        ;.K.U.`.|.|.[.I.1.J `.Y.=.C.J.V.I.I.I.I.I.I.I.I.H.Y.]._.!.Y.I.V.r.x O                                   ",
"                        a N.I.!.|.}.|.|.c.G U.I.J.I.I.I.I.I.I.I.I.I.I.I.I.I.Y._.U.I.V.y.&.z O                                   ",
"                          G C.U.'._.`.Q.A J I.I.U.U.I.I.I.I.I.I.I.I.I.I.I.I.I.U.I.I.i.&.O.&                                     ",
"                            G C.I.!.!.'.F.F._.[.[.[._.!.!.I.I.I.I.I.I.I.I.I.I.I.I.V.6.&.o.+                                     ",
"                              >.I.I.I.z.S.[.}.|.|.[._._._.Y.I.I.I.I.I.I.I.I.I.I.I.i.&.&.g $               j                     ",
"                              F N.I.;.f.[.|.|.|.|.|.'.Y.R.I.I.I.I.I.I.I.I.I.I.I.V.6.&.O.$             @ C ,.                    ",
"                                G z.u Q.|.|.|.|.|.|.`.I.I.I.I.I.I.I.I.I.I.I.I.I.p.&.&.*.8           m I I.M.j                   ",
"                B u > S s       w i H ).|.|.|.|.|.[.!.I.I.I.I.I.I.I.I.I.I.I.I.J.u.&.&.&.+.e + O m I oXQ.9.I.g.K 3               ",
"                R G.c.).c.s t     # 8.!.[.[.[.[.!.Y.I.I.I.I.I.I.I.I.C.s.V.I.I.H.4.&.&.%.V 9.1.w.F.&X).3.f.>.I.N                 ",
"                s x.&X|. XG.<.p % C C.I.Y.Y.Y.Y.I.I.I.I.I.I.I.I.I.h.n ,.J.I.I.V.&.&.&.&.M.I.R._._.[.[.Q.n.P C.3                 ",
"                t <.E.'.[.`.I.0.5 U >.M.I.I.I.I.I.I.I.I.I._.].U.g.Q _ ~ B.I.I.H.&.&.&.4.J.I.I._.!.'.[.|..XG.B                   ",
"                <.I.I.I.I.Y.~.p.Z z.g.! z.I.I.I.I.I.I.I.!.}.'.2.^ [ _ / s.I.I.V.u.&.&.4.J.I.Y.R.I.I.Y.'.'.U                     ",
"              j ,.M.I.I.I.I.B.6.s.I.h.) ! 9.J.I.I.I.I.I.!.|.:.> @X#X{ / s.I.V.=.s.4.&.&.V.I.I.I.I.I.I.I.M.i                     ",
"                w F M.I.I.B.t.&.s.I.h.` } E V N.I.I.I.I.I.x.d - @X%X| / s.I.,.,.C.u.&.&.i.I.I.I.I.I.J.q.u                       ",
"                    F 0.p.t.&.&.s.I.M.m.%X( < ^ C.I.I.I.H.=.' ( $X#X' h.V.K e C.I.p.&.&.4.V.I.I.J.s.5.6                         ",
"                      l $.&.&.b 8.s.s.h.| @X] f.B.I.I.I.I.J.c.} { ' h.V.2.k., N.I.p.&.&.&.6.y.y.6.#.4                           ",
"                        f +.&.7 H ;.0.M.j. .m.V.I.I.I.I.I.I.J.W.W.c.,.A ^.OXM C.I.p.&.&.&.&.&.#.8 $                             ",
"                          y k 4 C C.G J g.c.A.I.I.I.I.I.I.I.C.Z.0.A v.;X1XD 8.I.I.p.&.&.&.&.O.5 0 ;                             ",
"                              $ C I.d.D.w.J 9.9.9.9.9.9.9.9.R k.w.^.5X8X;XB Z.I.I.i.&.&.&.&.&.#.*.f                             ",
"                              X C T.H.L.>Xw.l.l.I k.v.b.R W =X6X1XOX7X8XW 1.I.I.V.6.&.&.&.&.&.&.&.f                             ",
"                              . C T.J.L./.(.8X7X/.1X8X8XOX*X8X8X7X;X<X:XY M.I.I.s.&.&.&.&.&.&.&.&.f                             ",
"                                h Z.I.J.7./.8X7XOX,X8X8X>X-X7X8X8X-XW Y e.I.I.I.i.&.&.&.&.&.&.&.&.f                             ",
"                                # ;.T.I.I.z.=X6X1XXX5X8X7X*X2X7X2XW C M.I.I.I.V.4.&.&.&.&.&.&.&.&.f                             ",
"                                o U I.I.I.C.2.W =X^.,X3X4XXX=Xv.R z.C.I.I.I.I.p.&.&.&.&.&.&.&.&.v t                             ",
"                                  t z.I.I.I.C.M.R S I T T S J z.N.I.I.I.I.I.H.4.&.&.&.&.&.&.&.&.k v k                           ",
"                                  % ;.I.I.I.I.I.C.C.C.C.C.C.C.I.I.I.I.I.I.J.i.&.&.&.&.&.&.&.&.$.v O.$.k f y                     ",
"                                  * e C.I.I.I.I.I.I.I.I.I.I.I.I.I.I.I.I.J.i.&.&.&.&.&.&.&.&.&.v b &.&.&.&.q                     ",
"                                    # H C.I.I.I.I.I.I.I.I.I.I.I.I.I.I.J.p.&.&.&.&.&.&.&.&.#.@.@.O.&.&.&.O.1                     ",
"                                      = 7.B.B.I.I.I.I.I.I.I.I.I.I.I.s.u.&.&.&.&.4.i.s.a.s.i.V x &.&.&.O.1                       ",
"                                      5 %.6.4.u.i.B.I.I.I.I.I.V.i.u.4.&.&.&.&.i.B.I.I.I.I.I.Z.i z #.8 2                         ",
"                                    y O.&.&.b X.$.4.t.t.t.t.t.4.&.&.&.&.&.&.t.J.I.I.I.U.'.'.E.N @ &                             ",
"                                    y $.&.&.$.v f ..O.&.&.&.&.&.&.&.&.&.&.%.d.I.I.I.I.'.|.|.'.C.9                               ",
"                                    y $.&.&.&.$.O.1 4 x ..#.&.&.&.&.&.O.x l C.I.I.I.I.'.|.|.'.I.u                               ",
"                                      O.+.u.y.y.t.*.x 4 ; 4 q q q q q 1 + w 9.I.I.I.I.I.'.[.!.I.u                               ",
"                                        A I.J.P.V.p.t.o.7 % o o o o o       a 2.I.I.I.I.I.!.I.I.u                               ",
"                                        j 9.I.B.J.I.s.q .                     a 9.I.I.I.I.I.I.1.>                               ",
"                                        s ,.V.B.M.N u ;                         j 9.I.I.I.I.J.i                                 ",
"                                        > K L 3 :                                 K C.C.J.a.V.@.                                ",
"                                            #                                     a 3 > 8.,.e =                                 ",
"                                                                                        # # O                                   ",
"                                                                                                                                ",
"                                                                                                                                ",
"                                                                                                                                ",
"                                                                                                                                ",
"                                                                                                                                ",
"                                                                                                                                "
};
