/* XPM */
static char *frame_031732487553[] = {
/* columns rows colors chars-per-pixel */
"64 64 203 2 ",
"   c None",
".  c #0E0F0E",
"X  c #131215",
"o  c #1C191D",
"O  c #1A171C",
"+  c #1C1924",
"@  c #1B1924",
"#  c #231A25",
"$  c #2D1E2E",
"%  c #221E2D",
"&  c #231F34",
"*  c #26202B",
"=  c #2C2434",
"-  c #2B243E",
";  c #27213A",
":  c #332939",
">  c #412C2F",
",  c #5A3433",
"<  c #2F284A",
"1  c #2D2746",
"2  c #3B2E44",
"3  c #352849",
"4  c #3C3243",
"5  c #3A304C",
"6  c #342C54",
"7  c #3C2D55",
"8  c #39305E",
"9  c #3C3263",
"0  c #462A4A",
"q  c #4A294A",
"w  c #462745",
"e  c #44354C",
"r  c #4E2E51",
"t  c #4C2F59",
"y  c #423351",
"u  c #4C3551",
"i  c #463853",
"p  c #4E325C",
"a  c #4A375F",
"s  c #533559",
"d  c #4E3261",
"f  c #46386A",
"g  c #523665",
"h  c #5C3C62",
"j  c #51366B",
"k  c #5E3E68",
"l  c #523C67",
"z  c #453A74",
"x  c #493C7B",
"c  c #493A74",
"v  c #533A74",
"b  c #543E7B",
"n  c #603F6A",
"m  c #56445D",
"M  c #4A444E",
"N  c #694354",
"B  c #594669",
"V  c #585160",
"C  c #4E407D",
"Z  c #5C4679",
"A  c #62416C",
"S  c #654568",
"D  c #654573",
"F  c #694875",
"G  c #6D4C7C",
"H  c #654975",
"J  c #794D7A",
"K  c #6A537E",
"L  c #6B5376",
"P  c #745A7B",
"I  c #745478",
"U  c #903F4E",
"Y  c #824F4E",
"T  c #974046",
"R  c #874668",
"E  c #814F7A",
"W  c #974863",
"Q  c #BA626F",
"!  c #C04955",
"~  c #FE5959",
"^  c #E0535A",
"/  c #DE7A7A",
"(  c #FF6868",
")  c #F3676E",
"_  c #E2677A",
"`  c #EE7078",
"'  c #FA787A",
"]  c #ED807F",
"[  c #553F81",
"{  c #4E4084",
"}  c #56448D",
"|  c #594486",
" . c #554692",
".. c #584691",
"X. c #574896",
"o. c #5A4893",
"O. c #5A4A9C",
"+. c #654B8B",
"@. c #704F82",
"#. c #6B5381",
"$. c #6F568A",
"%. c #725283",
"&. c #745589",
"*. c #7B578C",
"=. c #7A5A8E",
"-. c #7C5B82",
";. c #614F9E",
":. c #62509F",
">. c #6C549B",
",. c #6A5397",
"<. c #735594",
"1. c #765A92",
"2. c #7D5D95",
"3. c #785A9B",
"4. c #7E6384",
"5. c #7B6194",
"6. c #614FA0",
"7. c #6552A1",
"8. c #6B56A2",
"9. c #6D58A3",
"0. c #735CA5",
"q. c #785FA7",
"w. c #7A61A6",
"e. c #7D63AA",
"r. c #7D71A1",
"t. c #825B8A",
"y. c #9A5386",
"u. c #865693",
"i. c #B95C81",
"p. c #A35F91",
"a. c #826B85",
"s. c #846389",
"d. c #88788C",
"f. c #82639D",
"g. c #8A649D",
"h. c #8B6995",
"j. c #966B99",
"k. c #97719E",
"l. c #8A7B91",
"z. c #A46290",
"x. c #8565A3",
"c. c #8967A4",
"v. c #8969A6",
"b. c #8266AB",
"n. c #8569AD",
"m. c #8C6CAC",
"M. c #8668A4",
"N. c #906FAF",
"B. c #9869A1",
"V. c #9672A8",
"C. c #866BB1",
"Z. c #8C6EB2",
"A. c #8F70B3",
"S. c #9473B5",
"D. c #9977B6",
"F. c #9C79B6",
"G. c #9775B8",
"H. c #9E7BB8",
"J. c #A37DAA",
"K. c #A17DB4",
"L. c #A27EB9",
"P. c #D87886",
"I. c #EF7F82",
"U. c #968698",
"Y. c #9F99A1",
"T. c #9B93A6",
"R. c #9081BD",
"E. c #9381A9",
"W. c #A28EA2",
"Q. c #AA96AA",
"!. c #A99BAE",
"~. c #AD85B6",
"^. c #A580B9",
"/. c #A680B9",
"(. c #A983BA",
"). c #AC85BB",
"_. c #AF88BE",
"`. c #B28ABC",
"'. c #B58CBD",
"]. c #B58CBD",
"[. c #B68DBE",
"{. c #B38ABC",
"}. c #B88FBF",
"|. c #B3AABA",
" X c #BCABBC",
".X c #B4A2B4",
"XX c #ADA5B6",
"oX c #EF8C8B",
"OX c #FE8C8B",
"+X c #FF9393",
"@X c #B9AEC6",
"#X c #C6B7C6",
"$X c #C2B9C6",
"%X c #C5BBCA",
"&X c #D3C9D5",
"*X c #DAD1DD",
"=X c #E4DCE6",
"-X c #E5DBE5",
";X c #ECE3EC",
":X c #F0E5EF",
">X c #FBF3FB",
",X c #FFFAFF",
"<X c #F2EBF4",
/* pixels */
"                                                                                                                                ",
"                                                                                                                                ",
"                                                                                                                                ",
"                                                                                                                                ",
"                                                                                                                                ",
"                                                                                                                                ",
"                                                                                                                                ",
"                                                                                                                                ",
"                                                                                                                                ",
"                                                                                                                                ",
"                                                                                                                                ",
"                                                                                                                                ",
"                                                                                            ;.n.m                               ",
"                                                                                        7.0.L.F.i                               ",
"                                                                  Z                   0.L.).(.m.5                               ",
"                                                                q.&.q             0.w.L.].(.Z.| -                               ",
"                                                              0.S.=.q           0.D.[.].^.G.e.6                                 ",
"                        0.0.O.              $.S   ;.G       0.Z.G.=.q   >.g +.b.D.[.[.`.D.Z.8.6                                 ",
"                      s c.Z.b.m.w.O.O.      g.k.A ,.V.G v 0.Z.S.G.=.g 0.n.A v.`.[.[.].^.S.e.{ ;                                 ",
"                        D m.G.(.^.F.F.S.7.b s.[.g.D N.w.>.Z.S.S.S.m.x.Z.S.>.^.[.).(.^.G.Z.7.f                                   ",
"                          D S.G.).[.[.`.^.t.*.).D.>.Z.S.Z.S.S.S.S.S.G.S.S.Z.F.).^.L.G.S.w.O.z                                   ",
"                          h v.S.^.].`.[.}.h.&.D.S.Z.S.S.S.S.S.S.S.S.S.S.S.S.S.F.L.G.S.e.;.O.9                                   ",
"                            A c.G.L.^.).[.k.2.F.H.H.H.F.D.D.S.S.S.S.S.S.S.S.S.S.G.S.A.8.O.x @                                   ",
"                              D v.G.L.F.L.D.L.).[.[.`.^.L.L.G.S.S.S.S.S.S.S.S.S.S.S.e.O.O.x X                                   ",
"                              q &.G.G.m.1.D.[.[.[.[.`.^.^.L.D.S.S.S.S.S.S.S.S.S.S.Z.8.O. .6 $             e k                   ",
"                                D x.v.B h.[.[.[.[.[.[.(.F.F.S.S.S.S.S.S.S.S.S.S.S.e.O.O.{ #             : $.G                   ",
"                        o         k #.e ~.[.[.[.[.[.[.(.S.S.S.S.S.S.S.S.S.S.S.S.Z.9.O.O.X.c 0     O : s.h.S.c.A r 0             ",
"                  I m u s.h       w 2 5.`.[.[.[.[.`.).D.S.S.S.S.S.S.S.G.S.S.S.S.n.8.O.O.O.| 0 # * P V.`.k.%.S.v.&.=             ",
"                  -.J.J.`.k.h       2 m.L.`.`.`.).F.G.S.S.S.S.S.S.G.m.M.q.Z.S.G.e.O.O.O...D x.f.V.F.`.J.t.t.=.S.e               ",
"                  r h._.[.].K.*.k = #.f.S.G.G.G.G.S.S.S.S.S.F.F.G.m.E U t.A.S.G.w.O.O.O.;.n.S.H.^.^.`.`.~.k.g.5.=               ",
"                  k f.G.^.(.^.F.w.y &.@.2.S.S.S.S.S.S.S.S.F.`.`.S.J ! ~ y.C.S.G.b.O.O.O.7.A.S.F.^.F.L.).[.`.h.4                 ",
"                k f.G.S.S.S.F.G.8.+.M.u.R 2.G.S.S.S.S.S.S.^.[.F.L Q ( ~ y.C.G.Z.b.9.O.O.7.A.S.F.F.S.S.D.^.L.i                   ",
"                n G f.S.S.S.A.0.;.b.Z.u.^ W <.n.S.S.S.S.S.^.~.B > oXOX( y.C.G.x.<.b.;.O.;.n.S.S.S.S.S.S.A.$.:                   ",
"                    k f.S.Z.w.O.O.b.Z.u.) I.N s g.S.S.S.S.b.G U , oX+X' y.C.x.F x.S.9.O.O.9.S.S.S.S.A.e.Z =                     ",
"                      k 3.7.O.O.v 2.S.b.z.+XY U R m.G.S.S.Z.<.P./ OX' i.x.v.h 2 S.S.0.O.O.:.b.Z.Z.b.8.C &                       ",
"                        g } O.O.6 #.q.C.u.` ] P.u.n.S.S.S.S.Z.g._ ) i.3.f.P l.4 m.S.0.O.O.O.;.7.7...x &                         ",
"                          d [ ..< K &.=.1.p._ j.C.S.S.S.S.S.S.S.V.B.*.%.a. XY.B S.S.0.O.O.O.O.} c 6 +                           ",
"                            q j - #.m.Z P &.c.G.G.G.G.G.G.G.S.2.&.G L .X:X=XM M.S.S.0.O.O.O.O.| 7 x 3                           ",
"                                # #.S.e.E.a.H @.@.%.@.@.@.%.%.4.U.d.XX,X>XY.H m.S.Z.8.O.O.O.O.O.O.O.d                           ",
"                                X K G.n.R.%XU.Q.W.P W.Q.Q.a.U.*X,X*X@X>X;XM f.G.S.e.O.O.O.O.O.O.O.O.d                           ",
"                                  s x.S.C.r.%X,X<XT.:X,X,X|.*X,X,X>X$X$XU.#.Z.S.S.0.O.O.O.O.O.O.O.O.d                           ",
"                                  # 1.G.S.0.@X,X>X#X-X,X,X&X&X>X,X>X|.V K S.G.S.m.8.O.O.O.O.O.O.O.O.d                           ",
"                                  O &.S.S.S.=. X=X-X|.,X,X>X!.=X;X XS K m.G.S.S.e.O.O.O.O.O.O.O.O...p                           ",
"                                    p m.G.S.m.=.-.!.l.#X%X#Xd.!.4.=.m.S.G.S.S.Z.8.O.O.O.O.O.O.O.O.j p                           ",
"                                    = =.S.S.S.S.m.G D F F F D G m.S.S.S.S.S.S.b.O.O.O.O.O.O.O.O.O.g b j                         ",
"                                      u N.S.S.S.S.S.S.S.S.S.S.S.S.S.S.S.S.S.n.8.O.O.O.O.O.O.O.O.| v ....v j 3                   ",
"                                      * Z m.S.S.S.S.S.S.S.S.S.S.S.S.S.S.S.n.8.O.O.O.O.O.O.O.O.O.j [ O.O.O.O.<                   ",
"                                        - 0.Z.S.S.S.S.S.S.S.S.S.S.S.S.S.n.8.O.O.O.O.O.O.O.O.O.O.| ..O.O.O.x &                   ",
"                                        a O.7.0.Z.S.S.S.S.S.S.S.S.S.n.0.:.O.O.O.O.O.O.O.O.o.b X.O.O.O. .c %                     ",
"                                      p ..O.O.o.;.7.e.Z.Z.Z.Z.Z.w.7.;.O.O.O.O.O.8.b.Z.Z.Z.m.#.f X. .x & +                       ",
"                                      p O.O.O.v [ } O.6.;.;.;.;.O.O.O.O.O.O.O.e.Z.S.S.G.D.D.S.a 6 1 @                           ",
"                                      p O.O.O.X.v j f x O.O.O.O.O.O.O.O.O.O.8.S.S.S.S.F.`.).H.K %                               ",
"                                      t | 0.8.O.O. .6 6 8 9 } O.O.O.O.O.c b b.S.S.S.S.).[.[.).S.i                               ",
"                                        A S.Z.e.9.O.O.{ 1 # < 6 6 6 6 6 ; r v.G.S.S.S.L.`.[.).G.i                               ",
"                                        h 1.S.S.Z.e.9.x 3                   G m.S.S.S.G.L.).F.G.i                               ",
"                                        h 3.b.w.Z.m.q.9                       F m.S.S.S.G.D.S.m.y                               ",
"                                        $ B D #.5.4 * +                         @.N.S.S.S.S.S.B                                 ",
"                                          o o + #                               r &.G.G.S.Z.Z.f                                 ",
"                                                                                  F #.#.m.q.&.l                                 ",
"                                                                                    # + B l $ X                                 ",
"                                                                                          .                                     ",
"                                                                                                                                ",
"                                                                                                                                ",
"                                                                                                                                "
};
