/* XPM */
static char *frame_041732487553[] = {
/* columns rows colors chars-per-pixel */
"64 64 205 2 ",
"   c None",
".  c #0D0E0D",
"X  c #121113",
"o  c #19161E",
"O  c #17151C",
"+  c #1E1B2C",
"@  c #251E2A",
"#  c #221E32",
"$  c #2C1E30",
"%  c #29232C",
"&  c #32242E",
"*  c #2D2533",
"=  c #27223C",
"-  c #2B223A",
";  c #312539",
":  c #332A3B",
">  c #362237",
",  c #4E3233",
"<  c #2F294A",
"1  c #2C2645",
"2  c #332B4B",
"3  c #392B46",
"4  c #3D3247",
"5  c #342C54",
"6  c #362E59",
"7  c #3A305D",
"8  c #3A3055",
"9  c #3B3263",
"0  c #4C2B4D",
"q  c #462847",
"w  c #4B2B50",
"e  c #412E58",
"r  c #502F53",
"t  c #473B54",
"y  c #4B3858",
"u  c #563659",
"i  c #4E394B",
"p  c #493767",
"a  c #533665",
"s  c #5C3B64",
"d  c #50366B",
"f  c #5B3D6A",
"g  c #573A68",
"h  c #453A74",
"j  c #4A3C7A",
"k  c #523B74",
"l  c #553D7A",
"z  c #603F6A",
"x  c #534358",
"c  c #794B52",
"v  c #4F4066",
"b  c #534265",
"n  c #5A4766",
"m  c #5D4075",
"M  c #5C4777",
"N  c #63436E",
"B  c #68476C",
"V  c #655C6C",
"C  c #674673",
"Z  c #6A4972",
"A  c #6C4C7C",
"S  c #654973",
"D  c #74567A",
"F  c #714C6F",
"G  c #76687B",
"H  c #7B737A",
"J  c #8F4F4E",
"K  c #954951",
"L  c #BF585F",
"P  c #8A4766",
"I  c #914866",
"U  c #E45357",
"Y  c #EE5961",
"T  c #D7657F",
"R  c #DB6476",
"E  c #FF6C6B",
"W  c #F5787A",
"Q  c #EC6A71",
"!  c #4B3E80",
"~  c #543F81",
"^  c #4F4288",
"/  c #4F4287",
"(  c #554185",
")  c #54438B",
"_  c #5E488E",
"`  c #5B4586",
"'  c #554794",
"]  c #584794",
"[  c #5A4A9C",
"{  c #584995",
"}  c #6E4E81",
"|  c #664C8A",
" . c #704F81",
".. c #7A4F81",
"X. c #6E5485",
"o. c #68518E",
"O. c #725183",
"+. c #79598C",
"@. c #755988",
"#. c #614F9E",
"$. c #6A5191",
"%. c #63519F",
"&. c #6E579D",
"*. c #775C95",
"=. c #7C5C94",
"-. c #7A5499",
";. c #735B9E",
":. c #795797",
">. c #7F6386",
",. c #7E639B",
"<. c #796496",
"1. c #5C4BA0",
"2. c #6653A1",
"3. c #6A56A2",
"4. c #6E58A3",
"5. c #735CA5",
"6. c #795FA3",
"7. c #755DA8",
"8. c #7B62A6",
"9. c #7C63AA",
"0. c #7F68AC",
"q. c #845986",
"w. c #9A5285",
"e. c #935D98",
"r. c #A55988",
"t. c #826886",
"y. c #87778D",
"u. c #82629B",
"i. c #8A6697",
"p. c #946998",
"a. c #8F7695",
"s. c #96719F",
"d. c #99729E",
"f. c #917C93",
"g. c #B8658E",
"h. c #825FA0",
"j. c #8465A3",
"k. c #8965A3",
"l. c #8969A6",
"z. c #8266AC",
"x. c #8569AE",
"c. c #8C6CAC",
"v. c #876AA3",
"b. c #8F70AD",
"n. c #9372A5",
"m. c #9B76A4",
"M. c #8469B0",
"N. c #8D6EB1",
"B. c #906FB1",
"V. c #8F70B3",
"C. c #9473B5",
"Z. c #9876B6",
"A. c #9D79B6",
"S. c #9775B8",
"D. c #9F7BB8",
"F. c #A27EB9",
"G. c #A27EB7",
"H. c #D87985",
"J. c #C07393",
"K. c #C7728E",
"L. c #EB7F83",
"P. c #918498",
"I. c #9D95A8",
"U. c #9A8FA3",
"Y. c #A589A9",
"T. c #AD9AAD",
"R. c #A595A9",
"E. c #AB84B4",
"W. c #A580B9",
"Q. c #A681B9",
"!. c #A883B9",
"~. c #AB84BA",
"^. c #AD86BB",
"/. c #AA83BA",
"(. c #AF88BC",
"). c #B28ABC",
"_. c #B58CBD",
"`. c #B68DBD",
"'. c #B48BBD",
"]. c #A899BC",
"[. c #B3ACB9",
"{. c #B9A9BA",
"}. c #BCB0BF",
"|. c #ACA3B4",
" X c #FD8C8C",
".X c #FF8281",
"XX c #FF9797",
"oX c #C0BABF",
"OX c #B5A7CA",
"+X c #C6BDCB",
"@X c #CABDCA",
"#X c #CCC2CF",
"$X c #C6C0C6",
"%X c #CFC2D0",
"&X c #D7CEDA",
"*X c #DACDD9",
"=X c #D1C5D2",
"-X c #DDD2DE",
";X c #DED6E3",
":X c #E3D9E2",
">X c #EDE5EE",
",X c #EEE6F0",
"<X c #F5EDF6",
"1X c #FCF4FC",
"2X c #FFFBFF",
/* pixels */
"                                                                                                                                ",
"                                                                                                                                ",
"                                                                                                                                ",
"                                                                                                                                ",
"                                                                                                                                ",
"                                                                                                                                ",
"                                                                                                  %.                            ",
"                                                                                              2.4.c.4                           ",
"                                                                                            8.C.!.b.:                           ",
"                                                                    3.m                 %.c.).^.C.;.-                           ",
"                                                                  3.x.A               9.b.).).A.9.p +                           ",
"                            [                 [ +.    m         2.z.Z.A     )     [ z.~.`.).D.N.3.=                             ",
"                          f z.7.#.%.          a s.F   ;...    2.x.C.Z.A   2.;.a 8.A.^.`.`.^.Z.9.{ =                             ",
"                          s c.N.C.G.7.2.2.2.  r d.m.m 6.A.A _ x.C.C.Z. .` M.j.C E.`.).'.^.A.N.3.6                               ",
"                            C c.Z.!.~.!.!.C.3.g s.).=.} Z.6.z.C.C.C.C.c.c.C.c.6.).).Q.!.A.C.z.[ 1                               ",
"                              O.Z.Z.(.`.`.).~.Z u.Q.c.8.C.C.C.C.C.C.C.C.C.C.C.C.D.Q.Q.A.C.x.3.[ <                               ",
"                              C l.Z.Q.).^.`.`.i.l.C.C.C.C.C.C.C.C.C.C.C.C.C.C.C.C.D.A.C.N.4.[ ! =                               ",
"                                C l.Z.F.F.^.`.Z.A.F.F.F.F.F.Z.D.Z.C.C.C.C.C.C.C.C.C.C.C.z.[ [ 5                                 ",
"                                  C l.Z.D.Z.i.i.^.`.`.`.`.^.Q.Q.F.Z.C.C.C.C.C.C.C.C.C.V.3.[ [ 5                                 ",
"                                  0 =.Z.C.X.D E.`.`.`.`.`.^.F.Q.A.C.C.C.C.C.C.C.C.C.C.z.[ [ j ;               S s               ",
"                                    N k.X.n E.`.`.`.`.`.`.Q.Z.Z.C.C.C.C.C.C.C.C.C.C.C.4.[ [ h o           @ n l.N               ",
"                      *     *         q 4 n.'.`.`.`.`.`.).F.C.C.C.C.C.C.C.C.C.C.C.C.x.%.[ [ '         % x m.n.B.l.N u q         ",
"                    0 t.n D p.N       > b Z.F.~.^.'.).~.F.Z.C.C.C.C.C.C.Z.C.x.C.C.C.9.#.[ [ ] m y 4 x n.E.E.q.+.c.l.n o         ",
"                      q.E.'.`.p.Z s   : u.u.Z.C.Z.Q.F.Z.C.C.C.C.C.C.C.Z.u.@.6.C.C.C.5.[ [ [ _ =.C.A.G.Q.`.m.d.Z u.j.%           ",
"                      u n.~.`.`.F.+.f t u.} j.Z.C.C.C.C.C.C.C.Z.G.A.Z.u.P K h.C.C.C.5.[ [ [ 4.C.C.F.Q.!.`.`.'.p.n.M             ",
"                       .c.Z.F.F.F.Z.5.=.M.q.P j.C.C.C.C.C.C.Z.Q.'.!.u.I U Y -.V.C.C.5.[ [ [ 4.C.C.F.F.Z.F.!.'.Q.Z               ",
"                    A l.C.C.C.C.Z.x.3.C.z.w.U P $.N.C.C.C.C.Z.).).@.c L.E Y -.V.Z.9.4.%.[ [ 3.C.C.A.Z.C.C.Z.A.c.:               ",
"                    u z j.C.C.C.x.3.#.B.M.w.W H.i *.C.C.C.C.Z.!.d.& c XX XY -.V.C.X.*.4.[ [ %.x.C.C.C.C.C.C.8.t                 ",
"                        z j.V.z.3.{ k c.C.j.K. X, u k.C.C.C.C.5.F K J XX XR -.N.A A C.9.[ [ [ 9.C.Z.C.C.x.&.8                   ",
"                          f $.[ [ ' 3 j.N.x.r.Q J L ..C.C.C.C.N.=.H.W .XT e.x.=.i n S.N.#.[ [ 2.9.z.z.5.{ 7                     ",
"                            a ) [ ' 2 *.$.C.z.g.W J.j.C.C.C.C.C.N.p.T T e.:.O.f.H b S.N.%.[ [ [ [ [ { p 5                       ",
"                              a k ) 2 ,. .O.j.Z.g.k.C.C.C.C.C.C.C.Z.Z.u.O.>.R.+XG @.Z.N.%.[ [ [ { ~ 7 1 X                       ",
"                                  p 3 l.j.A @.} l.C.C.C.C.C.C.C.l.O.O.S f.-X2XoXb Z.C.N.%.[ [ [ [ ~ p h O                       ",
"                                    * j.C.0.].y.B Z B N Z Z Z N D T.@XU.#X2X:XV ,.C.C.N.%.[ [ [ [ [ [ ( 3                       ",
"                                      N C.9.OXI.}.*X{.P.*X*X%Xy.#X<X2X&X#X1X$Xt N.C.C.z.[ [ [ [ [ [ [ ) w                       ",
"                                      : c.C.x.<.;X2X&X|.2X2X<XR.>X2X2X1X[.[.V ,.C.C.C.4.[ [ [ [ [ [ [ ) w                       ",
"                                      ; u.C.N.8.OX1X<X+X-X2X1X=X#X2X2X:Xy.n u.C.C.C.V.3.[ [ [ [ [ [ [ ) w                       ",
"                                        u C.C.C.+.T.=X+X[.2X2X,XI.-X{.a.Z l.Z.C.C.Z.9.#.[ [ [ [ [ [ [ ) 0                       ",
"                                        y C.C.C.C.O.>.y.t.T.T.R.G a.A u.C.C.C.C.C.z.2.[ [ [ [ [ [ { ( ) d                       ",
"                                        y C.C.C.C.Z.l.O. .} }  . .=.C.C.C.C.C.C.z.#.[ [ 7.9.5.{ [ { d ] ] d 0 0                 ",
"                                          b N.C.C.C.C.Z.Z.Z.Z.Z.Z.Z.C.C.C.C.C.z.4.[ 7.x.C.Z.V.| ~ ] d ] [ ] ( ~ =               ",
"                                          2 9.C.C.C.C.C.C.C.C.C.C.C.C.C.C.C.8.%.[ 7.C.Z.C.C.Z.c.p 8 ~ { { [ [ ) #               ",
"                                          j 4.x.C.C.Z.C.C.C.C.C.C.C.Z.C.N.8.#.[ 4.C.C.C.C.A.(.Q.v.3 j [ [ [ ) <                 ",
"                                          d [ #.5.z.x.V.Z.Z.Z.Z.C.N.z.9.2.[ [ [ 9.Z.C.C.Z.).`.'.D.b h [ ' h <                   ",
"                                        q d [ { ( { %.7.9.9.9.9.9.3.[ [ [ [ ] | x.Z.C.C.Z.).`.(.A.c.3 7 5 X                     ",
"                                        q d [ { l k ( [ [ [ [ [ [ [ [ [ [ [ ) f C.C.C.C.Z.Q.!.D.Z.c.: .                         ",
"                                        q f 2.[ { l p 5 h [ [ [ [ [ [ [ [ [ ] l =.Z.C.Z.l.M o.y =.c.:                           ",
"                                          C x.5.#.[ ) 9 6 2 5 ^ ' ' ' ' ' 6 5 ) m =.C.l.v 7 5 9 y @.:                           ",
"                                          s =.C.x.7.#.[ ) e   # # # # # #     2 ) u +.p h ' / [ ^ 2                             ",
"                                          s &.x.C.C.M.4.' d                         u ; ) 1.[ [ ' =                             ",
"                                          @ k z.9.*.,.;.6                             q j ! ! ! 2                               ",
"                                          X $ b M * - 5                                 o o o o                                 ",
"                                              X X                                                                               ",
"                                                                                                                                ",
"                                                                                                                                ",
"                                                                                                                                ",
"                                                                                                                                ",
"                                                                                                                                ",
"                                                                                                                                ",
"                                                                                                                                ",
"                                                                                                                                ",
"                                                                                                                                ",
"                                                                                                                                ",
"                                                                                                                                "
};
