/* XPM */
static char *frame_051732487553[] = {
/* columns rows colors chars-per-pixel */
"64 64 208 2 ",
"   c None",
".  c #131214",
"X  c #16151B",
"o  c #19161E",
"O  c #191721",
"+  c #231C24",
"@  c #281E2E",
"#  c #221E32",
"$  c #28222C",
"%  c #252037",
"&  c #2D2532",
"*  c #262139",
"=  c #2C263C",
"-  c #332233",
";  c #352A39",
":  c #7D3C3C",
">  c #2C2543",
",  c #2F2849",
"<  c #322A4B",
"1  c #3B2946",
"2  c #3D3148",
"3  c #372F5A",
"4  c #352C55",
"5  c #3D3257",
"6  c #3D3364",
"7  c #3F356A",
"8  c #4B2A4C",
"9  c #432946",
"0  c #41334C",
"q  c #4B3D4F",
"w  c #482E58",
"e  c #443752",
"r  c #4E315E",
"t  c #483A59",
"y  c #55345B",
"u  c #56355B",
"i  c #42366E",
"p  c #49376C",
"a  c #53396E",
"s  c #563968",
"d  c #453974",
"f  c #4B3E7E",
"g  c #4D3D77",
"h  c #523972",
"j  c #543D7C",
"k  c #603F66",
"l  c #59535C",
"z  c #60465E",
"x  c #58466C",
"c  c #5E4460",
"v  c #4F417B",
"b  c #5B427E",
"n  c #574676",
"m  c #65446E",
"M  c #69466C",
"N  c #644472",
"B  c #634B73",
"V  c #694972",
"C  c #62457A",
"Z  c #654A7A",
"A  c #6C4C7C",
"S  c #694774",
"D  c #764E7E",
"F  c #66517A",
"G  c #6A527F",
"H  c #675473",
"J  c #74547E",
"K  c #765677",
"L  c #62546B",
"P  c #746B77",
"I  c #813F3D",
"U  c #9D4052",
"Y  c #B84B59",
"T  c #A04A5C",
"R  c #8B517F",
"E  c #9A4864",
"W  c #A7527D",
"Q  c #BB5B7E",
"!  c #A44B61",
"~  c #B9696B",
"^  c #FE5B5B",
"/  c #C55A78",
"(  c #E15966",
")  c #C47275",
"_  c #D77F7F",
"`  c #DA657D",
"'  c #FA7A7C",
"]  c #E2787F",
"[  c #FE807E",
"{  c #4B3F80",
"}  c #553F81",
"|  c #4E4185",
" . c #564185",
".. c #54438B",
"X. c #5A488B",
"o. c #554694",
"O. c #594794",
"+. c #5A4A9C",
"@. c #5C4A96",
"#. c #6D4D82",
"$. c #644B88",
"%. c #704F81",
"&. c #6C5482",
"*. c #6A538B",
"=. c #735385",
"-. c #7B5B84",
";. c #75558B",
":. c #72598A",
">. c #785988",
",. c #614F9E",
"<. c #644D93",
"1. c #63509E",
"2. c #695396",
"3. c #745991",
"4. c #7C5D94",
"5. c #73589A",
"6. c #7C589B",
"7. c #7C6198",
"8. c #7D6282",
"9. c #5C4CA0",
"0. c #614FA0",
"q. c #6451A0",
"w. c #6A56A2",
"e. c #6E59A3",
"r. c #735CA5",
"t. c #7B5DA4",
"y. c #765EA9",
"u. c #7A62A6",
"i. c #7C63AA",
"p. c #7760AB",
"a. c #815B87",
"s. c #825C99",
"d. c #89668F",
"f. c #866A8C",
"g. c #88738B",
"h. c #896592",
"j. c #83639D",
"k. c #876B95",
"l. c #986996",
"z. c #98719E",
"x. c #8C7393",
"c. c #B3618D",
"v. c #835EA2",
"b. c #8565A2",
"n. c #8A69A6",
"m. c #8266AC",
"M. c #866AAE",
"N. c #8B6CAC",
"B. c #8768A6",
"V. c #906FAF",
"C. c #9574AC",
"Z. c #9A77A7",
"A. c #876AB0",
"S. c #8C6DB2",
"D. c #906FB0",
"F. c #8F70B2",
"G. c #9473B5",
"H. c #9976B6",
"J. c #9C79B6",
"K. c #9675B8",
"L. c #9D7AB8",
"P. c #9A77B8",
"I. c #8975AC",
"U. c #A27DB5",
"Y. c #A37EB9",
"T. c #A17DAC",
"R. c #CA6484",
"E. c #E37880",
"W. c #988A9E",
"Q. c #969098",
"!. c #998EA6",
"~. c #9E96A7",
"^. c #AE9BAD",
"/. c #A49FA4",
"(. c #AB83B4",
"). c #A680B9",
"_. c #A680BA",
"`. c #A983B9",
"'. c #AD86BB",
"]. c #AB85BB",
"[. c #AF88BC",
"{. c #B289BC",
"}. c #B58CBD",
"|. c #B68DBE",
" X c #B38BBC",
".X c #B088B7",
"XX c #AC9FB1",
"oX c #B09DB1",
"OX c #BCACBC",
"+X c #B2A4B7",
"@X c #ADA6AD",
"#X c #FD8384",
"$X c #FE9594",
"%X c #EC848F",
"&X c #BCB3C2",
"*X c #C3B8C6",
"=X c #C5BBD7",
"-X c #DACDDA",
";X c #D7C9D6",
":X c #DBD1DD",
">X c #CDC5D3",
",X c #E2DAE4",
"<X c #E5DBE6",
"1X c #EDE3ED",
"2X c #F4ECF5",
"3X c #FDF5FD",
"4X c #FFFBFF",
"5X c #F7F0F7",
/* pixels */
"                                                                                                                                ",
"                                                                                                                                ",
"                                                                                                                                ",
"                                                                                                                                ",
"                                                                                                                                ",
"                                                                                                                                ",
"                                                                                                        ,.                      ",
"                                                                                                    w.i.-..                     ",
"                                                                                                r.i.U.Y.G .                     ",
"                                                                            j                 r.L.}.).S.n .                     ",
"                                                                        r.B.u             w.M.J.}.`.G.<.<                       ",
"                                  +.                2.J   @.3.        r.S.N.u           w.G.}.}.`.P.m.f .                       ",
"                                ;.M.w.,.,.          J (.-.b C.V     r.S.G.N.u     h b F.U.}.}.}.Y.G.w.d X                       ",
"                                =.G.F.L.G.w.q.q.    M {.U.#.j.j.s e.S.G.G.N.s @.y.A a.{.}.{.}.).G.m.X.#                         ",
"                                u 4.G.L.'.`.`.).i.<.N J.Y.t.M.S.5.S.G.G.G.G.N.S.G.#.h.}.'.Y.`.G.G.e.| o                         ",
"                                  y j.G.Y.}.}.}.{.Z.S G.G.G.G.G.G.G.G.G.G.G.G.G.G.i.M.Y.).Y.G.G.i.q.| O                         ",
"                                    =.G.P.'.'.{.}.(.h.J.G.J.Y.Y.Y.J.G.G.G.G.G.G.G.G.G.G.Y.G.G.m.1.+.7 o                         ",
"                                      ;.G.J.Y.).{.}.`.G.Y.'.}.}.{.Y.J.J.G.G.G.G.G.G.G.G.G.G.G.r.+.o.%                           ",
"                                      u ;.G.J.P.C.h.U.J.}.}.}.}.{.Y.Y.Y.G.G.G.G.G.G.G.G.G.G.M.1.+.o.%                           ",
"                                        k V.G.N.t d.{.}.}.}.}.}.{.Y.Y.P.G.G.G.G.G.G.G.G.G.G.r.+.+.4 -             = A           ",
"                                          A G.t $ Z.}.}.}.}.}.}.'.P.G.G.G.G.G.G.G.G.G.G.G.M.,.+.+.>           + & :.4.y         ",
"                            $   -           A e &.].}.}.}.}.{.'.J.G.G.G.G.G.G.G.G.G.G.G.G.i.,.+.+.o.        - 8.Z.N.G.3.u 8     ",
"                          m f.c l.a.        @ Z j.G.`.].].].J.G.G.G.G.G.G.G.G.G.G.S.S.G.G.G.i.+.+...s 0 2 H T..Xz.J j.G.4.0     ",
"                          k z.{.}.{.a.m     + &.m b.G.G.G.G.G.G.G.G.G.G.G.G.G.N.;.5.A.G.G.S.w.+.+.$.B.G.U.Y.[.{.d.z.S G.x       ",
"                            M Y.[.}.{.N.A C #.b.;.=.G.G.G.G.G.G.G.G.G.J.Y.P.N.D U R S.G.G.M.+.+.+.m.G.P.Y.).[.}.}.(.l.k.0       ",
"                          s 4.G.J.Y.Y.Y.S.q.i.G.b.E a.G.G.G.G.G.G.G.J.'.{.C.D Y ^ W p.G.G.M.+.+.+.m.G.P.Y.J.J.Y.{.}.n.q         ",
"                        u 4.G.G.G.G.G.G.r.+.i.G.6.( Y C i.G.G.G.G.G.).{.C.z ) ' ^ W i.G.r.M.w.+.+.m.G.G.P.G.G.G.J.L.G .         ",
"                          s A V.G.G.G.u.X.C D.t.Q #X~ - D D.G.G.G.J.`.K ; ~ $X#X/ v.G.n.Z m.1.+.+.r.F.G.G.G.G.G.S.3.1           ",
"                              =.N.S.u.0.d t G.S.s.%X) : ! 3.G.G.G.A.$.T I _ $X#XW p.N.N j.S.r.+.+.+.M.G.G.G.S.i.X.=             ",
"                                Z 1.+.+.i e S.S.t./ ' ] l.m.G.G.G.G.i.l.E.[ ' Q t.5.J 2 j.G.m.+.+.+.r.m.m.i.w.f *               ",
"                                  h O.9.i e 2.u.G.v.R.c.m.G.G.G.G.G.G.m.c.` R.6.;.J ^.l 7.G.m.+.+.+.+.+.+...6 *                 ",
"                                    a } i e 4.A =.N.G.G.G.G.G.G.G.G.G.G.G.G.;.=.g.OX@XH N.G.m.+.+.+.+.O.p 5 $                   ",
"                                      r 4 e G.*.-.=.;.G.G.G.G.G.G.G.G.4.D A H +X1X3XP &.K.G.m.+.+.+.+.O.p g <                   ",
"                                          & 4.S.M.+XK V V M M V V M m f.OX*XW.2X4X/.H N.G.G.m.+.+.+.+.+.+.+.<                   ",
"                                          . B G.p.=X!.;X-X!.OX-X-XXXW.<X3X5X*X,X5XP Z K.G.F.r.+.+.+.+.+.+.+.p                   ",
"                                            B K.S.u.!.4X4X&X:X4X4X>X+X4X3X4X,X~.Q.H N.G.G.m.+.+.+.+.+.+.+.+.a                   ",
"                                            G G.G.M.I.-X4X,X*X2X4X1X*X,X4X3X&XL F N.G.G.M.1.+.+.+.+.+.+.+.j                     ",
"                                            &.G.G.G.b.f.OX:X~.<X4X4X&X&X;XoXJ %.G.G.G.G.r.+.+.+.+.+.+.+.+.j 8                   ",
"                                            =.n.G.G.G.j.A x.P W.^.^.g.g.f.#.N.G.G.G.G.M.,.+.+.+.+.+.+.+.+.j r r                 ",
"                                            @ &.G.G.G.G.G.s.%.%.#.#.%.%.b.G.G.G.G.G.G.r.+.+.q.i.i.q.+.+...h .. .r 8             ",
"                                              ; 3.G.G.G.G.G.G.G.G.G.G.G.G.G.G.G.G.G.M.1.q.m.A.G.G.M.b o. .a +.+... .p           ",
"                                              X v i.S.G.G.G.G.G.G.G.G.G.G.G.G.G.G.M.w.q.M.G.G.G.G.P.4.5 g a +.+.+.+.i .         ",
"                                              9 j +.w.m.S.F.G.G.G.G.G.G.G.G.G.G.M.w.+.i.G.G.G.G.).{.J.&.< O.+.+.+.{ %           ",
"                                              8 s O.O.X.0.e.S.G.G.G.G.G.M.m.u.i.w.+.,.M.G.G.G.Y.}.}.{.j.5 | +.{ i %             ",
"                                            8 8  .+...h j O.y.m.i.i.i.r.1.+.+.+.+...5.G.G.G.G.).}.}.`.G.&.% 7 * .               ",
"                                              8 h O.+...0 < ..+.+.+.+.+.+.+.+.+.+.h ;.G.G.G.G.L.`.).P.K.&.. .                   ",
"                                                A r.w.+.f 3 ..+.+.+.+.+.+.+.+.+.+...C n.G.G.G.:.$.n x G.&..                     ",
"                                                A N.i.+.+.+.6 , 3 o.o.o.o.o.o.o.o.+. .Z N.G.4.t 4 3 6 x F .                     ",
"                                              ;.b.D.M.e.+.+.f 1   # # # # # # # # 7     N :.2 ....o.+.i &                       ",
"                                            o 1 $.A.i.F.M.w...r                           9 > +.+.+.+.d .                       ",
"                                              . 1 :.B.7.b.<.>                               w f { { d #                         ",
"                                                . & F + < <                                   o o o o                           ",
"                                                                                                                                ",
"                                                                                                                                ",
"                                                                                                                                ",
"                                                                                                                                ",
"                                                                                                                                ",
"                                                                                                                                ",
"                                                                                                                                ",
"                                                                                                                                ",
"                                                                                                                                ",
"                                                                                                                                ",
"                                                                                                                                ",
"                                                                                                                                "
};
