/* XPM */
static char *frame_061732487553[] = {
/* columns rows colors chars-per-pixel */
"64 64 208 2 ",
"   c None",
".  c #111112",
"X  c #1A161A",
"o  c #1D1A24",
"O  c #1D1A29",
"+  c #241C26",
"@  c #221D2C",
"#  c #301F31",
"$  c #292338",
"%  c #31293B",
"&  c #36243C",
"*  c #4D3234",
"=  c #613A39",
"-  c #2D2644",
";  c #2F284A",
":  c #30294B",
">  c #3C2945",
",  c #3C3244",
"<  c #342C55",
"1  c #3C2D53",
"2  c #382F5B",
"3  c #3A315E",
"4  c #3D3363",
"5  c #4B294B",
"6  c #462948",
"7  c #453549",
"8  c #4E2E53",
"9  c #432D56",
"0  c #473954",
"q  c #4A395A",
"w  c #54345A",
"e  c #55345A",
"r  c #413665",
"t  c #4F3364",
"y  c #41366B",
"u  c #4E3768",
"i  c #533663",
"p  c #5C3B64",
"a  c #50366A",
"s  c #5D3D69",
"d  c #573C68",
"f  c #453A75",
"g  c #4A3D7C",
"h  c #533A73",
"j  c #553F7E",
"k  c #48434C",
"l  c #4F4053",
"z  c #524C58",
"x  c #7E4D4E",
"c  c #554365",
"v  c #5B4A6E",
"b  c #594469",
"n  c #5E4A72",
"m  c #58437B",
"M  c #66436B",
"N  c #655769",
"B  c #644573",
"V  c #624B74",
"C  c #6A4A74",
"Z  c #6C4C7C",
"A  c #63477B",
"S  c #704F7E",
"D  c #764D74",
"F  c #69537A",
"G  c #735C7A",
"H  c #7B567F",
"J  c #7E466A",
"K  c #943E41",
"L  c #8F3D53",
"P  c #903C51",
"I  c #8E3A46",
"U  c #895050",
"Y  c #834970",
"T  c #D04D57",
"R  c #FC595B",
"E  c #D46B73",
"W  c #D27075",
"Q  c #FF6666",
"!  c #F6646A",
"~  c #FB7C7B",
"^  c #EB6773",
"/  c #4B3E81",
"(  c #553F81",
")  c #4F4186",
"_  c #4F4288",
"`  c #54438B",
"'  c #59458C",
"]  c #5A4484",
"[  c #554693",
"{  c #594692",
"}  c #594895",
"|  c #5A4A9C",
" . c #694C84",
".. c #714F83",
"X. c #6E5486",
"o. c #735385",
"O. c #795684",
"+. c #775B86",
"@. c #7C5983",
"#. c #755589",
"$. c #735A8C",
"%. c #7A5C8C",
"&. c #7D5388",
"*. c #604F9E",
"=. c #6B5393",
"-. c #64519E",
";. c #6B549A",
":. c #7B5C93",
">. c #71599E",
",. c #755894",
"<. c #7E6584",
"1. c #7C629A",
"2. c #5D4CA1",
"3. c #604EA0",
"4. c #6451A0",
"5. c #6A55A2",
"6. c #6E59A3",
"7. c #735CA6",
"8. c #795EA4",
"9. c #765EA8",
"0. c #785FA8",
"q. c #7A60A5",
"w. c #7D63A9",
"e. c #7461A0",
"r. c #7D70A0",
"t. c #805A8A",
"y. c #92548B",
"u. c #95588A",
"i. c #825E9A",
"p. c #835C92",
"a. c #AC5983",
"s. c #836689",
"d. c #807188",
"f. c #82619C",
"g. c #8C6399",
"h. c #8C7C92",
"j. c #97709D",
"k. c #907096",
"l. c #BD6987",
"z. c #805EA1",
"x. c #8566A3",
"c. c #8A66A4",
"v. c #8A69A6",
"b. c #8266AC",
"n. c #8669AD",
"m. c #8C6CAC",
"M. c #8768A5",
"N. c #916FAE",
"B. c #976DA4",
"V. c #8F70AE",
"C. c #8872A2",
"Z. c #9E77A4",
"A. c #9C79AC",
"S. c #9571AD",
"D. c #8C6EB2",
"F. c #8469B1",
"G. c #906FB1",
"H. c #8F70B3",
"J. c #9473B5",
"K. c #9876B6",
"L. c #9C79B6",
"P. c #9F7BB8",
"I. c #9876B9",
"U. c #A57DAD",
"Y. c #A27EB8",
"T. c #A17DB6",
"R. c #A46FA7",
"E. c #C66A86",
"W. c #EF7880",
"Q. c #9B889A",
"!. c #9C959D",
"~. c #9F8BA0",
"^. c #9B93A6",
"/. c #A982AF",
"(. c #AA97AA",
"). c #AB99AD",
"_. c #A398A7",
"`. c #A681B9",
"'. c #A680B9",
"]. c #A983BA",
"[. c #AD86BB",
"{. c #AB84BB",
"}. c #A983B7",
"|. c #B28ABC",
" X c #B58CBD",
".X c #B48CBD",
"XX c #B68DBE",
"oX c #B48BBD",
"OX c #B09DB2",
"+X c #A396BF",
"@X c #B3AABB",
"#X c #B7A6B7",
"$X c #ACA4B5",
"%X c #F6908F",
"&X c #FB9393",
"*X c #FB8C8D",
"=X c #A48FC5",
"-X c #C9BAC9",
";X c #C2B8C6",
":X c #CBC2CF",
">X c #D8CDD9",
",X c #DBD3DD",
"<X c #E6DDE7",
"1X c #EBE3EA",
"2X c #EEE6F0",
"3X c #F6EFF8",
"4X c #FCF4FC",
"5X c #FFFAFF",
/* pixels */
"                                                                                                                                ",
"                                                                                                                                ",
"                                                                                                                                ",
"                                                                                                                                ",
"                                                                                                                                ",
"                                                                                                                                ",
"                                                                                                                                ",
"                                                                                                                                ",
"                                                                                                                                ",
"                                                                                                                                ",
"                                                                                                                                ",
"                                                                                                                                ",
"                                                                                                                                ",
"                                                                                                                                ",
"                                                                                                              5.                ",
"                                                                              6.m                         6.w.V.,               ",
"                                      b.5.|             X.B     ,.8         w.v.Z                     w.w.J.[.V.%               ",
"                                    e m.D.7.            @.j.s -.A.o.    7.D.J.f.8                 w.m.oX.XoXJ.>.$               ",
"                                      o.J.J.m.7.| |     H .Xp.A J.f.h 7.D.J.J.f.8   7.s       | b.]..X.X[.L.7.r O               ",
"                                        Z J.{.`.L.L.L.  S ].K.=.D.q.;.D.J.J.J.f.h 9.D.B ' 7.].L.[..XoXP.J.q.r                   ",
"                                        s m.K.[..X.X`.m Z K.J.D.J.J.D.J.J.J.J.G.M.D.J.>.n.`..X.XoXoXP.J.b.| -                   ",
"                                          #.J.{.oX.XoXg.O.J.J.J.K.K.K.K.J.J.J.J.J.J.J.H.K.oXoX`.].Y.J.H.7.y                     ",
"                                          f.J.Y.`.{..XoXZ.x.Y.`.[.oXoX[.Y.L.J.J.J.J.J.J.J.L.`.`.L.J.H.b.4.4                     ",
"                                          M M.J.Y.P.A.k.j.j..X.X.X.X.XY.].oXK.J.J.J.J.J.J.J.L.L.J.J.q.5.| 4                     ",
"                                            #.J.J.I.+.l .X.X.X.X.X.X.XY.P.Y.J.J.J.J.J.J.J.J.J.J.J.m.4.| ` ;                     ",
"                                            B x.J.m.c %..X.X.X.X.X.X.XY.J.J.J.J.J.J.J.J.J.J.J.J.J.7.| | y .                     ",
"                                              M M.1.0 J.`.oXoX.X.XoX].K.J.J.J.J.J.J.J.J.J.J.J.m.7.| | / $                       ",
"                                  +           o.x.0 $.m.J.L.L.[.[.L.J.J.J.J.J.J.J.J.J.J.J.J.J.0.| | ` $ >                       ",
"                            M N 7 s.D         p ,., #.Z J.J.J.K.K.J.J.J.J.J.J.J.J.J.J.D.J.J.H.7.*.| _ - ' |                 % 1.",
"                            M Z./.|.U.D s       ;.A &.J M.J.J.J.J.J.J.J.J.L.L.J.v.:.:.8.H.J.J.n.7.*.| [ | *. .f.c 7 7 7 G G $.J.",
"                              @.{.oX.X[.x.B i { F.D.y.T Y >.H.J.J.J.J.J.L.oXoXN.Y P L p.J.J.J.9.| | | | | 7.J.J.L.Y.L.|..XB.m.J.",
"                            p i.J.Y.`.`.Y.n.] h M.D.y.Q E M 1.J.J.J.J.J.]..XA.C E Q R y.D.J.J.9.| | | | | 7.J.J.Y.Y.]..XZ.@.o.m.",
"                            :.J.J.J.J.K.L.7.| 1 :.J.i.E.&Xx d m.J.J.J.J.]./.q * %X~ R y.D.D.b.w.*.| | | 4.b.J.P.K.Y.oX.XZ.t.O.m.",
"                          8 s %.J.J.J.H.q.*.| - $.I.b.u.~ U I D m.J.J.J.w.D K = %X*X! y.D.f. .G.7.| | | 4.n.J.L.J.J.L.`..XU.A.V.",
"                            6 e %.J.D.q.*.| [ : m D.F.u.! E u.f.J.J.J.J.8.l.~ W %XW.a.M.f.B x.J.w.*.| | | 7.J.J.J.J.J.J.`.A.q % ",
"                                e X.-.| | | < n A i.v.N.R.c.n.J.J.J.J.J.D.i.^ ! l.,.z.M.c > m.J.7.| | | *.w.J.J.J.J.J.H.m.c     ",
"                                  w j | | | ; F m.B %.J.J.J.J.J.J.J.J.J.J.J.S.B.t...o.s.Q., m.J.7.| | | | | 7.b.w.w.;.m q       ",
"                                      ` j ` y $.J.w.C.#.x.J.J.J.J.J.J.J.J.:.#.Z G #X).#X!.v J.J.7.| | | | | | | g ` 3 .         ",
"                                        5 t ' =.m.D.e.s.V ....o.......o.o.<.Q.h.$X5X5X1Xk M.J.J.7.| | | | | f / $ 4             ",
"                                            1 & :.G.=X;Xh.(._.G ~.(.(.<.h.,X5X<X;X3X5X_.F m.J.J.7.| | | | | f g $               ",
"                                              X $.J.J.r.@X5X3X^.2X5X5X@X:X5X5X5X;X;X2XN f.J.J.m.5.| | | | | | } 9               ",
"                                              & :.J.J.7.+X4X4X;X,X5X5X>X:X4X5X5X@Xz k X.J.J.n.4.| | | | | | | h                 ",
"                                              + #.J.J.J.:.OX<X<X).4X5X4X@X<X1X-XC > b V.J.J.b.| | | | | | | | t                 ",
"                                                5 x.J.J.G.%.@.).d.;X-X-Xh.).<.+.v.v.V.J.J.m.6.| | | | | | | | t w               ",
"                                                o n m.J.J.J.m.S B C C C B Z m.J.J.J.J.J.D.6.| | | | | | | | | a ( h a 9         ",
"                                                  O =.D.J.J.J.J.J.J.J.J.J.J.J.J.J.J.J.J.b.| | | | | | | | | ] h { | | 4 .       ",
"                                                  & { 6.n.J.J.J.J.J.J.J.J.J.J.J.J.J.J.m.5.| | | | | | | | | a ( | | ) -         ",
"                                                  5 h | 7.J.J.J.J.J.J.J.J.J.J.J.J.m.0.5.| | | | 7.w.0.| | ` h { | ` ;           ",
"                                                5 8 ` ] ] 5.q.D.H.J.J.J.J.J.D.n.n.6.| | | | 5.n.J.J.J.q.i u } [ - @             ",
"                                                  8 { } ' [ | 4.4.7.D.D.b.5.-.*.*.| | | | 5.D.J.J.J.K.J.S 1 [ : .               ",
"                                                  s *.| ( t g / | | *.*.| | | | | | | | -.D.J.J.J.K.[.[.J.v 4 -                 ",
"                                                  o.m.7.| [ 3 : 4 g | | | | | | | | | | 5.J.J.J.J.]..X.X[.$.%                   ",
"                                                  #.N.D.5.| | [ < < g | | | | | | | | ' b.J.J.J.J.{..XoXY.J.0                   ",
"                                              # b 8.J.J.w.| | | } 1 @ < < < 4 ) < < g h v.J.J.J.J.Y.`.Y.J.J.0                   ",
"                                              . + u v.J.n.7.| [ a >           < .       Z m.J.J.V.V ] q n J.0                   ",
"                                                  X 0 F v >.` - 6                         C m.m.b 4 < f r b 0                   ",
"                                                    X @   @ O .                             Z c 3 [ ` | | 4 +                   ",
"                                                                                              & y 2.| | | 2                     ",
"                                                                                                9 y y y 2                       ",
"                                                                                                  . . .                         ",
"                                                                                                                                ",
"                                                                                                                                ",
"                                                                                                                                ",
"                                                                                                                                "
};
