/* XPM */
static char *frame_071732487554[] = {
/* columns rows colors chars-per-pixel */
"64 64 208 2 ",
"   c None",
".  c #0F0F0D",
"X  c #111112",
"o  c #17161B",
"O  c #1C1924",
"+  c #1F1C2D",
"@  c #241E2B",
"#  c #271D29",
"$  c #231E33",
"%  c #26212B",
"&  c #2C242E",
"*  c #292338",
"=  c #35253A",
"-  c #4B3031",
";  c #693E3E",
":  c #2C2645",
">  c #2F294B",
",  c #392F42",
"<  c #332A4D",
"1  c #332C52",
"2  c #3A2F5A",
"3  c #3C2E53",
"4  c #3C325B",
"5  c #3D3365",
"6  c #442848",
"7  c #42394A",
"8  c #44334B",
"9  c #4D2D51",
"0  c #473954",
"q  c #4C365A",
"w  c #523154",
"e  c #59385C",
"r  c #44366A",
"t  c #4A3668",
"y  c #503566",
"u  c #5B3A63",
"i  c #51366B",
"p  c #583B6C",
"a  c #443973",
"s  c #4B3E73",
"d  c #4A3E7D",
"f  c #533C7B",
"g  c #553C73",
"h  c #613F66",
"j  c #59445C",
"k  c #534B5A",
"l  c #5C4765",
"z  c #4E4075",
"x  c #62436E",
"c  c #684868",
"v  c #77466B",
"b  c #634473",
"n  c #644B74",
"m  c #694973",
"M  c #644B7B",
"N  c #6C4C7C",
"B  c #63477F",
"V  c #67517C",
"C  c #74587B",
"Z  c #724872",
"A  c #736879",
"S  c #6D6475",
"D  c #9B3E50",
"F  c #943D45",
"G  c #944B4C",
"H  c #AA4251",
"J  c #85496C",
"K  c #B1526C",
"L  c #FD5A5B",
"P  c #C95571",
"I  c #DB747A",
"U  c #D36775",
"Y  c #FD6969",
"T  c #E96A78",
"R  c #FB787A",
"E  c #EA7E7C",
"W  c #553F82",
"Q  c #4F4187",
"!  c #554286",
"~  c #594384",
"^  c #55438A",
"/  c #5C4688",
"(  c #554693",
")  c #584692",
"_  c #5B4995",
"`  c #5A4A9C",
"'  c #6D4E82",
"]  c #624A87",
"[  c #704F81",
"{  c #6D5484",
"}  c #675181",
"|  c #725284",
" . c #75558B",
".. c #78578C",
"X. c #745B8D",
"o. c #7D5B89",
"O. c #614F9E",
"+. c #63519F",
"@. c #69549C",
"#. c #6B5494",
"$. c #765C92",
"%. c #7A5C92",
"&. c #725A9B",
"*. c #755899",
"=. c #7B6483",
"-. c #7A619A",
";. c #614FA0",
":. c #6552A0",
">. c #6A56A2",
",. c #6F59A1",
"<. c #735CA5",
"1. c #795EA4",
"2. c #755EAA",
"3. c #7A60A5",
"4. c #7D63AA",
"5. c #7360A8",
"6. c #845B89",
"7. c #92548B",
"8. c #975C89",
"9. c #805F97",
"0. c #815F99",
"q. c #885E9F",
"w. c #955A91",
"e. c #AA5C88",
"r. c #88688D",
"t. c #897C8E",
"y. c #83629C",
"u. c #8A6A97",
"i. c #936D99",
"p. c #8F7792",
"a. c #8B7C92",
"s. c #967A99",
"d. c #AB6491",
"f. c #805EA3",
"g. c #8566A3",
"h. c #8B6AA6",
"j. c #8266AC",
"k. c #8569AC",
"l. c #8B6CAC",
"z. c #8768A4",
"x. c #916EAE",
"c. c #946FA3",
"v. c #8F70AF",
"b. c #9171A3",
"n. c #9B74AB",
"m. c #9975A7",
"M. c #8569B0",
"N. c #8C6EB2",
"B. c #8367B0",
"V. c #936FB1",
"C. c #8F70B3",
"Z. c #8F7EBB",
"A. c #9473B5",
"S. c #9977B6",
"D. c #9C79B7",
"F. c #9E7BB8",
"G. c #9775B8",
"H. c #A37CAA",
"J. c #A37FB5",
"K. c #A17DB8",
"L. c #D06580",
"P. c #E67981",
"I. c #97879C",
"U. c #9990A3",
"Y. c #A08BA0",
"T. c #A681B4",
"R. c #A982B0",
"E. c #A680B9",
"W. c #A983BA",
"Q. c #AD86BB",
"!. c #AB84BB",
"~. c #AF88BC",
"^. c #B28ABC",
"/. c #B189BC",
"(. c #B58CBD",
"). c #B68DBE",
"_. c #B48BBD",
"`. c #B88EBF",
"'. c #AA9BB5",
"]. c #A097A9",
"[. c #AEA6BB",
"{. c #B2A3B2",
"}. c #B1A9B9",
"|. c #BAAEBE",
" X c #B9B0BF",
".X c #ABA0AB",
"XX c #FF8D8C",
"oX c #F79190",
"OX c #FF9594",
"+X c #EE8688",
"@X c #9E8FC2",
"#X c #B78EC0",
"$X c #B9AFC2",
"%X c #C5BCCA",
"&X c #CABDCB",
"*X c #C3B6C8",
"=X c #C9C1CD",
"-X c #C7C0CE",
";X c #CEC4D0",
":X c #D4CBD4",
">X c #D8CBD8",
",X c #DBD2DE",
"<X c #DED6E2",
"1X c #E3DAE5",
"2X c #ECE4EE",
"3X c #F3EBF4",
"4X c #FCF4FC",
"5X c #FFFAFF",
/* pixels */
"                                                                                                                                ",
"                                                                                                                                ",
"                                                                                                                                ",
"                                                                                                                                ",
"                                                                                                                                ",
"                                                                                                                                ",
"                                                                                                                                ",
"                                                                                                                                ",
"                                                                                                                                ",
"                                                                                                                                ",
"                                                                                                                                ",
"                                                                                                                                ",
"                                                                                                                                ",
"                                                                                                                                ",
"                                                                                                                                ",
"                                                                                                                                ",
"                                          4.+.`                                                               3.j.3.            ",
"                                        x A.j.+.`           ) q                 ` >.p                     <.k.E.!.b.%           ",
"                                        u %.A.C.l.>.        g |     #.m       >.3.k.m               >.l.l.D.).W.G.$.@           ",
"                                          e 9.F.Q.J.v.O.    r.H.u &.D.y.  :.N.N.G...u   `       O.:.A.).)./.E.A.,.^ O           ",
"                                          x h.G.Q.)./.l.:.g u.Q.9.' S.| / k.A.A.G.N ' 2.&.y 3.!.J.J./.).Q.D.l.@.<               ",
"                                             .A.!._././.W.C y.!.N.<.A.1.3.A.A.A.G.| ] M.z.b A./.)./././.W.A.<.^ +               ",
"                                              y.S.E.W.).`.%.y.G.G.D.F.G.A.D.G.A.A.A.N.A.N.1.A.E.!.E.E.S.G.k.+.: X               ",
"                                              g.A.G.W.).H.y.S.K.K./.).K.D.Q.S.A.A.A.A.A.A.A.A.D.E.E.S.A.A.3.` *                 ",
"                                            = %.G.A.S.i.C m.).).).).).Q.E.E.K.G.A.A.A.A.A.A.A.A.D.S.A.k.<.:.a $                 ",
"                                    w j & j e x h.G.y.= l #X).).).).).).K.K.K.G.A.A.A.A.A.A.A.A.A.A.k.>.` d $                   ",
"                                    h H.i.H.i.  x h.{ , b.).).).).)._./.K.S.G.A.A.A.A.A.A.A.A.A.A.A.>.` ` 5                 9   ",
"                                    e R.).).6.w N 0 -.y.K./././._./.E.D.G.A.A.A.A.A.A.A.A.A.A.A.A.j.O.` ` 4             @ % n u ",
"                                  u h x.K./.J.h.x = | N G.S.S.D.W.D.G.A.A.A.A.A.A.A.A.A.A.A.A.A.N.>.` ` r = = % & & j R.u.$.m   ",
"                                N ..z.A.G.G.F.S.&.M %.N z.G.A.A.G.A.A.A.A.A.A.A.A.G.G.A.M.A.A.N.<.` ` Q 3 N h.h.m.m.R.R.6.y.l.N ",
"                                  w h.G.A.A.K.A.>.N.C.6.J z.G.A.A.A.A.A.A.G.F.F.G.g. ...1.A.A.A.4.` ` ` >.A.G.K.K.E.).m.i.c.h.A.",
"                                    ..A.G.A.l.<.+.M.q.P H B C.G.A.A.A.A.D.E./.n.8.K D Z k.G.A.A.<.` ` ` >.A.A.F.E.W._.).).o.9.G.",
"                                      | 4.<.<.~ &.N.d.Y I c b h.A.A.A.A.W.).b.c U Y L 7.N.A.A.k.:.` ` ` <.A.A.D.S.G.E._.).i.l -.",
"                                      q _ ` ` < $.G.h.d.OXG F v l.A.A.A.E.H.8 - oXR L 7.N.A.A.j.+.` ` ` <.A.A.A.A.A.G.D.F.V     ",
"                                        i _ ` : X.G.B.7.R +XI v h.G.A.A.3.Z G ; oXXXY 7.N.G.k.3.<.` ` ` >.A.A.A.A.A.A.k.-.0     ",
"                                          i _ : X.A.A.j.e.T w.@.N.A.A.A.l.#.P.E XXoXT w.N.A.%...k.+.` ` +.j.N.N.N.k.&.s %       ",
"                                            r 3 } 1.A.A.V.n.V.N.A.A.A.A.A.f.L.T U e.x.x.%.{ | x.N.:.` ` ` ` ;.! ) s *           ",
"                                            o V  .| 9.G.G.A.A.A.A.A.A.A.A.A.A.A.k.j.G.y.c , l.G.<.` ` ` ` ) r $ > +             ",
"                                              x z.B C | y.G.G.A.A.A.A.A.A.G.G.G.G.y.[ r..X7 l.A.<.` ` ` ` ! 2 O .               ",
"                                              & $.5.'.a.n | | | l.A.A.A.x. .| | N =.I.>X:X7 l.A.<.` ` ` ` ` ` s %               ",
"                                              o { <.%X-XU.&X*XA n m m x m I.*X{.I.,X4X4X{.7 l.A.<.` ` ` ` ` ` ` *               ",
"                                                p 1.@X%X}.5X3XI.&X>X>XI.'.3X5X,X}.5X5X2Xk $.A.k.>.` ` ` ` ` ` ( $               ",
"                                                V k.Z.$X}.5X3X].3X5X5X}.-X5X5X,X}.5X5X:Xk h.M.O.` ` ` ` ` ` ` i                 ",
"                                                8 g.N.-.[.5X4X&X2X4X5X$X-X4X5X<X X4X4XA $.A.4.` ` ` ` ` ` ` ` y y 9 y           ",
"                                                @ g.G.*.'.5X4X|.1X4X5X-X;X4X5X1X%X=X*X=.z.N.>.` ` ` ` ` ` ` ` i W f _ 5 X       ",
"                                                  n k.y.u.{.1XU.2X5X5X}.%X5X5X<Xt.S $.G.G.4.` ` ` ` ` ` ` ` ` i ! ` ^ >         ",
"                                                  O #.N.y.| p.a.2X5X5X}.*X{.Y.p.l X.G.A.k.>.` ` ` ` ` ` ` ` ` y ! ( 1           ",
"                                                  r _ <.N.A.%.n p.s.s.C =.$.| | y.G.l.<.:.` ` ` ` ` ` ` ` ! ! ! ^ ^             ",
"                                                  p _ ` O.4.A.g.9.9.9.y.y.A.G.G.G.k.>.` ` ` ` ` ` ` ` ` _ f f ( : @             ",
"                                                w y.4./ f ` <.N.N.N.A.G.A.N.N.A.k.>.` ` ` ` ` O.O.O.;._ y 6 t > X               ",
"                                                  A.C.,.f f ` ;.O.O.<.N.4.:.:.<.O.` ` ` ` :.>.k.N.N.A.A.| @ o                   ",
"                                              6 #.B.A.j.O.f r a ` ` ` ` ` ` ` ` ` ` ` ` >.N.A.A.A.D.~./.D.{ &                   ",
"                                              # ] / <.4.<.` 2 O 1 a ` ` ` ` ` ` ` ` ` / g.A.A.A.A.!.).).!.G.0                   ",
"                                                0 ' <.j.j.+.` 4 # 2 ` ` ` ` ` ` ` ` ` p h.G.A.A.A.K./.).!.G.0                   ",
"                                                  8 n X.M @.5 t 9   > > > 1 ( Q < > d ~ ' l.A.A.A.A.K.Q.F.G.0                   ",
"                                                        O *                   $           m l.A.A.A.G.S.A.A.0                   ",
"                                                                                            N l.A.A.A.A.A.V @                   ",
"                                                                                              | G.A.A.C.N.z                     ",
"                                                                                              [ G.A.} s { <.                    ",
"                                                                                                    X X                         ",
"                                                                                                                                ",
"                                                                                                                                ",
"                                                                                                                                ",
"                                                                                                                                "
};
