/* XPM */
static char *frame_081732487554[] = {
/* columns rows colors chars-per-pixel */
"64 64 208 2 ",
"   c None",
".  c #0D0E0A",
"X  c #131215",
"o  c #19161C",
"O  c #1B1722",
"+  c #1C1A24",
"@  c #1E1B2A",
"#  c #221C26",
"$  c #2A1D2C",
"%  c #261925",
"&  c #301E2F",
"*  c #221E33",
"=  c #2B2335",
"-  c #26223B",
";  c #2A243F",
":  c #2A2432",
">  c #342538",
",  c #2D2745",
"<  c #3A2E48",
"1  c #3D3248",
"2  c #342C52",
"3  c #382E59",
"4  c #3B305D",
"5  c #3C3263",
"6  c #4A2B4D",
"7  c #422A48",
"8  c #43344C",
"9  c #4A3A4A",
"0  c #543746",
"q  c #4D2D53",
"w  c #463953",
"e  c #493A58",
"r  c #55345A",
"t  c #543457",
"y  c #6C3A5C",
"u  c #42366D",
"i  c #493569",
"p  c #5B3C66",
"a  c #503569",
"s  c #573B6D",
"d  c #5F3E69",
"f  c #543766",
"g  c #463A74",
"h  c #493C78",
"j  c #543B73",
"k  c #543E7C",
"l  c #593F76",
"z  c #554558",
"x  c #724342",
"c  c #574369",
"v  c #4F4176",
"b  c #5B4577",
"n  c #5D5663",
"m  c #644066",
"M  c #62426E",
"N  c #6A496D",
"B  c #654672",
"V  c #684774",
"C  c #6A4A72",
"Z  c #644F7B",
"A  c #6A497A",
"S  c #634C73",
"D  c #724B78",
"F  c #6C5373",
"G  c #675479",
"H  c #73597C",
"J  c #77597B",
"K  c #685568",
"L  c #6F6B6F",
"P  c #A7474A",
"I  c #A64559",
"U  c #815262",
"Y  c #8C496A",
"T  c #B0536E",
"R  c #AA6160",
"E  c #B1637E",
"W  c #F6585A",
"Q  c #D0556C",
"!  c #EC5963",
"~  c #D6636F",
"^  c #FE6B6C",
"/  c #E9727A",
"(  c #F07179",
")  c #4E4185",
"_  c #554184",
"`  c #55448C",
"'  c #5B4786",
"]  c #564795",
"[  c #594796",
"{  c #574897",
"}  c #5A4996",
"|  c #5A4A9C",
" . c #654C85",
".. c #6E5386",
"X. c #735284",
"o. c #7B5C84",
"O. c #73548A",
"+. c #735A8B",
"@. c #7B5B8D",
"#. c #795580",
"$. c #634D94",
"%. c #614F9E",
"&. c #63519F",
"*. c #6A5498",
"=. c #745693",
"-. c #765D91",
";. c #7D5D94",
":. c #745A9B",
">. c #7C5D9C",
",. c #7B5498",
"<. c #7E629B",
"1. c #786198",
"2. c #7C6C83",
"3. c #5C4CA0",
"4. c #614FA1",
"5. c #6653A1",
"6. c #6A56A2",
"7. c #6E58A5",
"8. c #735BA5",
"9. c #775FA9",
"0. c #795FA5",
"q. c #7A61A7",
"w. c #7D63AA",
"e. c #7A66A8",
"r. c #835784",
"t. c #945287",
"y. c #825E9C",
"u. c #8C5895",
"i. c #905791",
"p. c #AB5883",
"a. c #877589",
"s. c #816293",
"d. c #82629C",
"f. c #8A6995",
"g. c #906D95",
"h. c #A8679B",
"j. c #8565A3",
"k. c #8865A3",
"l. c #8969A5",
"z. c #8267AC",
"x. c #8669AD",
"c. c #8C6CAB",
"v. c #8668A3",
"b. c #906FAF",
"n. c #8F71AF",
"m. c #9472A5",
"M. c #9C75A3",
"N. c #9472AC",
"B. c #856AB0",
"V. c #8B6DB2",
"C. c #926FB1",
"Z. c #8F70B4",
"A. c #9473B5",
"S. c #9977B6",
"D. c #9C79B6",
"F. c #9775B8",
"G. c #9E7BB8",
"H. c #937FBC",
"J. c #A37CAA",
"K. c #A27EB6",
"L. c #A37EB9",
"P. c #D06480",
"I. c #C6718D",
"U. c #D97C85",
"Y. c #C06B92",
"T. c #9F8A9E",
"R. c #8E8196",
"E. c #9B92A5",
"W. c #9B90A6",
"Q. c #A395A6",
"!. c #AB83B4",
"~. c #A680BA",
"^. c #A983BA",
"/. c #AC85BB",
"(. c #AB85B9",
"). c #B189BC",
"_. c #B58CBD",
"`. c #B68DBE",
"'. c #B38ABC",
"]. c #AC9DB3",
"[. c #A495BA",
"{. c #ADA5B8",
"}. c #B4A2B5",
"|. c #B1A9B9",
" X c #B7AABB",
".X c #ACA4AC",
"XX c #DD8282",
"oX c #FF8B8A",
"OX c #FC9191",
"+X c #B88EC0",
"@X c #A991C6",
"#X c #B7ACC1",
"$X c #BBB2C4",
"%X c #AEA1CA",
"&X c #C2B3C4",
"*X c #C6BDCB",
"=X c #CDC5CD",
"-X c #CFC1D5",
";X c #D6CBD7",
":X c #DBD3DF",
">X c #DFD6E1",
",X c #E5DAE5",
"<X c #E8DFE9",
"1X c #ECE4ED",
"2X c #EEE6F0",
"3X c #F5ECF6",
"4X c #FCF3FC",
"5X c #FFFAFF",
/* pixels */
"                                                                                                                                ",
"                                                                                                                                ",
"                                                                                                                                ",
"                                                                                                                                ",
"                                                                                                                                ",
"                                                                                                                                ",
"                                                                                                                                ",
"                                                                                                                                ",
"                                                                                                                                ",
"                                                                                                                                ",
"                                                                                                                                ",
"                                                                                                                                ",
"                                                                                                                                ",
"                                                                                                                                ",
"                                                                                                                                ",
"                                                *.                                                                              ",
"                                              q >.9.                                                                            ",
"                                              q d.A.z.                                                                          ",
"                                                k.F.D.z.          k                                                             ",
"                                                M c.G./.x.%.    6.@.q   j           %.0.s                   &.%.6.n.q.G         ",
"                                                ;.c.G.`./.K.8.  M J.M.[ d.V $.    9.V.c.r         |   q.n.z.K.K.K./.+.:         ",
"                                                p l.G.`.`._.w.` B (.s.k A.c.z.x.q.A.F.k.d     $.A.z.D./.).^.).).S.V.b X         ",
"                                                t l.D.^.).`.N.d l.L.=.O.A.q.9.A.A.A.A.A =.8. .o.).).).`.`.^.F.A.6.g :           ",
"                                                  c.A.S.~.M.>.p l.F.z.z.A.A.A.A.A.A.A.O.8.A.;.r.).^.).^.^.L.A.q.} @             ",
"                                        m J z   C c.A.G.s.F J.f.D.G.D.L.D.G.F.A.A.A.A.A.A.F.<.;.G.G.L.F.A.A.w.h 2 +             ",
"                                        m J J J.#.l.F.A.c F +X`.`.)./.`./.L.~.L.A.A.A.A.A.A.V.B.A.D.F.A.A.q.| - .               ",
"                                        N J.`.).m d l...c m.`.`.`.`.`.`.).D.D.D.A.A.A.A.A.A.A.A.A.A.A.z.8.%.{ ;                 ",
"                                      M l.D.^.).N 6 > e v.~.`.`.`.`.`.).L.F.A.A.A.A.A.A.A.A.A.A.A.A.w.&.| { 3                   ",
"                                    t ;.A.A.F.^.!.1.8 d.c.S.^.).).).).L.F.A.A.A.A.A.A.A.A.A.A.A.A.8.| | 3.u +                 : ",
"                                    6 d d.A.A.F.~.j.X.d.X.c.F.F.F.F.F.F.A.A.A.A.A.A.A.A.A.A.A.A.z.%.| ] g 2 8 M w < > 9 9 9 d.c.",
"                                        A A.F.A.z.9.A.V.r.Y c.A.A.A.A.A.A.A.A.A.A.A.F.F.A.x.A.B.6.| | h o % A.A.A.m.H !.).).f.c.",
"                                        A z.z.w.5.V.V.u.Q T l.F.A.A.A.A.A.F.L.L.F.F.;.O.c.w.A.x.5.| | ` 4 b A.A.F.~./.^.M.M.s.c.",
"                                        r ' &.| b c.B.t.^ E :.V.A.A.A.A.F.L.`./.d.D Y I y.A.A.A.8.| | | | 8.A.A.L.L.^.`.M.M.s.c.",
"                                          q _ ] < d.A.y.I.U.0 p c.A.A.A.A./.!.s.U ~ W ! ,.Z.F.F.8.| | | %.w.A.A.D.D.F.~.`.).C ;.",
"                                            j 2 Z A.B.i./ R P y c.F.A.A.w.m.9 0 XX( W p.x.A.A.A.w.%.| | | 8.A.A.A.A.A.G.).~.f.8 ",
"                                            q $ +.V.8.j.p./ U.;.V.A.A.A.x.D P x OXOX^ t.V.A.A.A.8.| | | | 6.V.F.A.A.A.F.c.<.w   ",
"                                              % +.c.M d.C.Y.g.V.A.A.A.A.A.>.I.( oXoX~ u.V.F.Z.V.8.| | | | 6.z.z.V.z.q.:.e #     ",
"                                              o +.c.f B F.A.A.A.A.A.A.A.A.Z.k.P./ / i.B.F.c...:.x.5.| | | | | | 6.} u 2         ",
"                                              > -.V.*.o.X.k.F.A.A.A.A.A.A.A.A.A.h.h.B.F.b.B 7 ;.A.7.| | | ` i 4 5 h O           ",
"                                              > -.V.e.}.a.S X.c.A.A.A.A.A.A.A.A.A.A.;.d.@.K 1 A.z.&.| | | ` i + .               ",
"                                              o +.A.z.%X$XQ.&XH B V M @.A.c.X.c.s.V a.o.Q..Xw A.8.| | | | | | ,                 ",
"                                                c j.H.$X|.3X3XR.*X;XT.r C ].&XH W.;X,X,X=Xn <.A.8.| | | | | | ' :               ",
"                                                +.C.@X#X|.5X3XW.2X5X3XE.|.3X4X*X|.5X5X4XQ.w c.V.7.| | | | | | ` ; 7             ",
"                                                ;.A.Z.1.{.5X3X].<X4X5X|.*X5X5X:X|.5X5X1Xz d.x.%.| | | | | | | 3 g } g X         ",
"                                                < d.F.:.[.5X4X X,X4X3X$X:X5X4X;X*X5X=X#XS c.w.| | | | | | | | a _ | 4           ",
"                                                + -.F.d.f.}.>XW.1X5X1X&X>X5X4X-X;X5XL Z F.V.6.| | | | | | | | a _ 5             ",
"                                                o ' x.F.d.X.-XE.1X5X5X|.*X5X5X:X2.a.G d.F.w.| | | | | | | | | a k @             ",
"                                                  ` 5.w.A.F.m.F a. X3X.X X}.;Xa.c b <.A.8.&.| | | | | | | | k a 2               ",
"                                                  s } 5.x.V.j.d.y.@.J N F ;.o.y.c.F.x.q.| | | | | | | | | _ 6 & X               ",
"                                                t d.q.} %.5.q.A.F.b.k.k.l.C.c.A.A.x.6.| | | | | | | | | [ k &                   ",
"                                                  A.d.l ` [ 4.z.V.B.Z.A.V.V.V.V.z.6.| | | | | &.5.5.5.$.j i                     ",
"                                              7 =.A.A.;.s i u } | | 7.q.&.%.6.%.| | | | | 5.8.x.A.A.A.A.-.1                     ",
"                                              $  .=.z.Z.8.u @ ) | | | | | | | | | | | | 6.x.A.A.A.D.L.L.G.-.>                   ",
"                                                e ..w.A.z.| - , 5 { | | | | | | | | | ' j.A.A.A.A.^.`.`.^.F.w                   ",
"                                                  8 S +.Z *.* % > 5 u { { { | { { | | s k.A.A.A.A.D.).`.^.F.w                   ",
"                                                        + =         @ * * ; g - * u | ` B c.C.A.A.A.D.^.D.A.w                   ",
"                                                                            @     )         A c.A.A.F.S.A.Z #                   ",
"                                                                                              O.F.F.A.V.V.v                     ",
"                                                                                              V ..Z j.0.O.v                     ",
"                                                                                                % X -.k.> X                     ",
"                                                                                                                                ",
"                                                                                                                                ",
"                                                                                                                                ",
"                                                                                                                                "
};
