/* XPM */
static char *frame_091732487554[] = {
/* columns rows colors chars-per-pixel */
"64 64 208 2 ",
"   c None",
".  c #121213",
"X  c #18161C",
"o  c #1C1A24",
"O  c #1E1B2A",
"+  c #241B26",
"@  c #281C2A",
"#  c #221E33",
"$  c #29212B",
"%  c #2C2437",
"&  c #2B243D",
"*  c #252037",
"=  c #332237",
"-  c #342B3B",
";  c #3C263F",
":  c #3D323F",
">  c #422F3E",
",  c #4B3030",
"<  c #2C2644",
"1  c #2F284B",
"2  c #362A47",
"3  c #342D54",
"4  c #3B305D",
"5  c #3D3247",
"6  c #3D3262",
"7  c #3F3569",
"8  c #492B49",
"9  c #413449",
"0  c #4B2D52",
"q  c #4A2F59",
"w  c #502F53",
"e  c #463954",
"r  c #493359",
"t  c #57365A",
"y  c #41376D",
"u  c #4B3769",
"i  c #513563",
"p  c #5D3C66",
"a  c #51366A",
"s  c #54396B",
"d  c #583C68",
"f  c #443973",
"g  c #4A3C79",
"h  c #533B75",
"j  c #563F7C",
"k  c #5B465C",
"l  c #71454D",
"z  c #5C436A",
"x  c #514166",
"c  c #4F4175",
"v  c #5A4971",
"b  c #63426E",
"n  c #654A6B",
"m  c #625564",
"M  c #654471",
"N  c #6A4674",
"B  c #644A75",
"V  c #694A73",
"C  c #644E7B",
"Z  c #6B4A7B",
"A  c #61467F",
"S  c #734D78",
"D  c #69527C",
"F  c #73547E",
"G  c #6B616F",
"H  c #716D73",
"J  c #8E5554",
"K  c #A7484E",
"L  c #AB4353",
"P  c #904C6D",
"I  c #DE5158",
"U  c #FD5A5B",
"Y  c #CF5D78",
"T  c #DD677D",
"R  c #DD7A7E",
"E  c #FC6C6D",
"W  c #F77879",
"Q  c #E8747D",
"!  c #4C3F81",
"~  c #543F82",
"^  c #564185",
"/  c #57438C",
"(  c #5B4485",
")  c #564795",
"_  c #584693",
"`  c #574897",
"'  c #5B4996",
"]  c #5A4A9C",
"[  c #4E4186",
"{  c #6C4D83",
"}  c #614680",
"|  c #704F80",
" . c #6D5685",
".. c #6C508B",
"X. c #715284",
"o. c #75558A",
"O. c #745B8D",
"+. c #7A5B8B",
"@. c #7A5A87",
"#. c #604F9E",
"$. c #634D95",
"%. c #64519E",
"&. c #685293",
"*. c #745595",
"=. c #755B91",
"-. c #7C5C93",
";. c #745D9D",
":. c #795D9C",
">. c #7D6881",
",. c #7C6099",
"<. c #5F4EA0",
"1. c #6552A0",
"2. c #6A56A2",
"3. c #6E59A5",
"4. c #6E59A8",
"5. c #735CA5",
"6. c #795FA4",
"7. c #755EA8",
"8. c #7B61A6",
"9. c #7D63AA",
"0. c #7F69AB",
"q. c #7E71A1",
"w. c #8C558E",
"e. c #835E8A",
"r. c #92548B",
"t. c #98588D",
"y. c #805F99",
"u. c #925C97",
"i. c #84648B",
"p. c #826F86",
"a. c #85738B",
"s. c #8D6B92",
"d. c #82639C",
"f. c #8A6997",
"g. c #976A9B",
"h. c #8C7E93",
"j. c #94729E",
"k. c #AC638F",
"l. c #8565A3",
"z. c #8866A2",
"x. c #8B6AA5",
"c. c #8266AB",
"v. c #8569AD",
"b. c #8B6CAC",
"n. c #8568A6",
"m. c #906FAF",
"M. c #9566A4",
"N. c #9774A9",
"B. c #866AB0",
"V. c #8B6DB2",
"C. c #906FB2",
"Z. c #8E71B3",
"A. c #9473B5",
"S. c #9977B6",
"D. c #9D7AB7",
"F. c #9775B8",
"G. c #9E7BB8",
"H. c #A079A6",
"J. c #A27CAA",
"K. c #A27EB6",
"L. c #A27EB9",
"P. c #D36D83",
"I. c #EB7F82",
"U. c #9A849B",
"Y. c #988B9E",
"T. c #9586A4",
"R. c #9D96A6",
"E. c #AD9CAE",
"W. c #A595AA",
"Q. c #A681BA",
"!. c #A983BA",
"~. c #AD86BB",
"^. c #AB84BA",
"/. c #AF88BB",
"(. c #A883B7",
"). c #B189BC",
"_. c #B48BBD",
"`. c #B58CBD",
"'. c #B68DBD",
"]. c #B48BBC",
"[. c #B087B7",
"{. c #AC9BB0",
"}. c #B09DB0",
"|. c #A08BA3",
" X c #B4ACBC",
".X c #B5A2B6",
"XX c #EB8287",
"oX c #FF8281",
"OX c #F79191",
"+X c #FF9392",
"@X c #B797C5",
"#X c #AEA3C8",
"$X c #BDB1C1",
"%X c #C2B5C3",
"&X c #CBBECC",
"*X c #C3BBC9",
"=X c #C9C1CF",
"-X c #CEC4D0",
";X c #D6CAD7",
":X c #DED1DD",
">X c #ECE3EB",
",X c #E7E0E6",
"<X c #EEE7F0",
"1X c #F4EAF3",
"2X c #F4EBF4",
"3X c #FCF4FC",
"4X c #FFFAFF",
"5X c #F7F0F9",
/* pixels */
"                                                                                                                                ",
"                                                                                                                                ",
"                                                                                                                                ",
"                                                                                                                                ",
"                                                                                                                                ",
"                                                                                                                                ",
"                                                                                                                                ",
"                                                                                                                                ",
"                                                                                                                                ",
"                                                                                                                                ",
"                                                                                                                                ",
"                                                                                                                                ",
"                                                                                                                                ",
"                                                                                                                                ",
"                                                                                                                                ",
"                                                                                                                                ",
"                                            } 5.1.                                                                              ",
"                                            y.A.9.#.                                                                3.v.        ",
"                                            A.A.A.v.%.        / q     h           ] 2.d                     A.5.A.Z.=.k         ",
"                                            p d.S.~.K.b.%.    b e.t   ,.S       5.v.b.b               6.b.9.^.Q.~.L.C .         ",
"                                            8 -.F.L.]./.K.n.d j.H.d 8.D.-.) 2.V.V.F.|     #.    2.1.5.K./.!.).L.A.;.u .         ",
"                                              o.A.!.'.'.'.(.b x.~.O.X.F.{ $.V.A.A.A.M   4.:.s b.~.!.^.'.'.^.S.A.%.& o           ",
"                                                z.S.!.~.'.).V z.!.v.8.A.8.b.A.A.A.A.o.&.V.d.b D.).'./.'.).L.Z.9.' O             ",
"                                                x.A.S.L./.K.@.b.A.S.L.L.S.A.A.A.A.A.A.A.F.l.{ A.L.!.L.!.L.F.9.#.y o             ",
"                                              0 d.F.S.G.x.d.!.!.L.!.'.~.L.L.F.A.A.A.A.A.A.V.c.A.D.S.G.F.A.c.1.y O               ",
"                                                Z x.F.=.n H.'.'.'.'.'.~.L.L.L.F.A.A.A.A.A.A.A.A.D.S.A.A.9.%.` &                 ",
"                                i.9 w s.8       8 b b.C m @X'.'.'.'.'.].L.L.D.A.A.A.A.A.A.A.A.A.A.A.Z.8.#.` ` &                 ",
"                                i.N.H.[.s.t     w B z m.J.'.'.'.'.'.].!.F.S.A.A.A.A.A.A.A.A.A.A.A.A.3.] ] f <                   ",
"                                t j.].'.).N.Z     - ,.F.!.).).).].).!.F.A.A.A.A.A.A.A.A.A.A.A.A.A.n.#.] ` 4                     ",
"                                p d.D.!.~.!.m.{   = d.z.F.F.F.S.!.S.F.A.A.A.A.A.A.A.A.A.F.A.A.A.Z.2.] ] f +     p               ",
"                              p d.F.A.A.A.D.F.5.j Z d.Z d.A.A.A.A.A.A.A.A.A.A.A.F.F.F.A.v.A.A.A.v.%.] ] ! <   Z d.x 5 - :   k $ ",
"                              X.X.x.F.A.A.A.8.] ] B.M.P Z A.A.A.A.A.A.A.F.L.L.F.z.X.X.n.9.A.A.A.9.] ] ] ] ^ ..F.F.L.d.@.s.s./.B ",
"                                  N x.A.Z.9.#.` 6.B.r.I P *.b.A.A.F.A.A.D.)./.x.P L L w.Z.A.A.v.1.] ] ] ] ] 9.F.F.G.S./.'.j.@.b.",
"                                    M :.2.] ` h d.V.w.E I.l t x.F.A.A.A.!.].f.k R E U r.V.A.F.7.] ] ] ] ] 2.V.F.L.F.D.].'.J.s.N ",
"                                      s ` ] ` 2 O.A.c.k.+XJ K g.A.A.A.A.L.H.> , OXW U r.V.A.A.c.%.] ] ] ] #.v.F.S.F.F.L.].].e.-.",
"                                      q / _ ` <  .5.9.t.W XXP.S x.A.A.A.8.N K l OX+XE r.V.F.c.6.5.] ] ] ] 2.A.A.A.A.A.F.L.).j.d.",
"                                        0 a _ <  .{ +.*.k.T g.5.V.A.A.A.V.*.Q W oXXXP.u.Z.A.o.-.b.1.] ] ] 1.9.Z.A.A.A.F.A.A.5 o ",
"                                            r e d.x.B F o.z.A.A.A.A.A.A.A.l.P.T Y t.b.A.-.B d A.v.1.] ] ] ] ] 7.6.9.7.;.v  .-   ",
"                                            . D F.A.0.T.>.+.F.F.F.A.A.A.A.F.A.F.B.v.-.X.>.m 5 A.5.] ] ] ] / ^ f [ y g 1 .       ",
"                                              z x.A.Z.#Xh.V X.Z F -.A.A.m.o.o.z.| j.{.}.%XG D A.5.] ] ] ] / ^ c g               ",
"                                              + O.A.Z.q.T.&X%Xp.$XW.V b V U..XD h.:X3X,XG O.A.A.5.] ] ] ] ] ] ] &               ",
"                                              X o.A.A.6.#X4X5XR.<X1X;XY.E.1X3X%X X4X3XH % b.F.A.5.] ] ] ] ] ] ) #               ",
"                                                z x.F.C.#X2X3X&X;X3X4X X=X4X4X<X&X>X,Xm O.A.A.v.1.] ] ] ] ] ] / %               ",
"                                                C m.A.F.+.U.1X;X$X3X4X&X-X3X4X5XR.W.h.O.F.F.v.] ] ] ] ] ] ] ` a q i 2 .         ",
"                                                t z.F.F.-.V |.>.E.;X4X X*X;X>XE.k  .A.A.F.A.9.] ] ] ] ] ] ] ` a ^ ] g           ",
"                                                ; d.F.A.A.A.o.Z Z i.E.p.a.i.U.F -.A.A.A.A.V.2.] ] ] ] ] ] ] ` a ^ ] ]           ",
"                                                  x n.A.A.A.A.F.F.z.{ | X.x.-.A.F.A.A.A.A.9.] ] ] ] ] ] ] ] ` a ^ ) 4           ",
"                                                  O &.b.A.A.A.A.A.A.F.F.F.A.F.A.A.A.A.A.n.%.] ] ] ] ] ] ] ] j 0 2 <             ",
"                                                0 g ` 2.v.A.A.A.A.A.A.A.A.A.A.A.A.A.v.3.#.] ] ] ] ] ] ] ] ^ h <                 ",
"                                                  i ' ` ] 9.A.A.F.A.A.A.A.A.A.F.A.v.2.] ] ] ] ] ] ] ] ` _ h u                   ",
"                                                  b 6.( h ' 5.v.V.V.V.F.A.V.V.V.c.2.] ] ] ] ] %.1.1.1.$.i = X                   ",
"                                                  X.b.5.~ h ' <.] ] 3.c.6.#.] ] ] ] ] ] ] 1.6.b.A.A.Z.A.=.2                     ",
"                                                  A b.V.3.( 6 6 ) ] ] ] ] ] ] ] ] ] ] ] 2.v.A.A.A.D.L.L.G.=.-                   ",
"                                              = =.3.V.F.c.] 7 3 3 y ] ] ] ] ] ] ] ] ` ( n.A.A.A.A.^.'.'.^.F.e                   ",
"                                              @ 9 s { c.V.5.] ) 4 % y ) ) ) ` ` ) ) ' s z.A.A.A.A.D.).'.^.F.e                   ",
"                                                  $ =.v.x.;.3 g s + X # # # < f * # f j M b.C.A.A.A.D.^.S.A.e                   ",
"                                                        $ 6 *                 O             Z b.A.A.F.S.A.C +                   ",
"                                                                                              o.F.F.A.V.V.c                     ",
"                                                                                              N  .D n.6.o.c                     ",
"                                                                                                @ X =.z.; .                     ",
"                                                                                                                                ",
"                                                                                                                                ",
"                                                                                                                                ",
"                                                                                                                                "
};
