/* XPM */
static char *frame_101732487554[] = {
/* columns rows colors chars-per-pixel */
"64 64 213 2 ",
"   c None",
".  c #0E0F0E",
"X  c #121213",
"o  c #1B171D",
"O  c #20171F",
"+  c #1C1721",
"@  c #1D1A27",
"#  c #241C26",
"$  c #2C1D2D",
"%  c #201C2E",
"&  c #2B1D30",
"*  c #3F2B2E",
"=  c #2B233D",
"-  c #2A2437",
";  c #31293B",
":  c #322335",
">  c #593333",
",  c #2C2644",
"<  c #2F294A",
"1  c #3B2A41",
"2  c #30294C",
"3  c #3C2D4B",
"4  c #372542",
"5  c #3C3342",
"6  c #352C54",
"7  c #382F5B",
"8  c #3A315D",
"9  c #3D3365",
"0  c #4A294B",
"q  c #452845",
"w  c #453549",
"e  c #4E2E53",
"r  c #452D55",
"t  c #473954",
"y  c #4C3959",
"u  c #54345A",
"i  c #54355A",
"p  c #4F3261",
"a  c #42366B",
"s  c #463667",
"d  c #5C3B64",
"f  c #51366B",
"g  c #583D67",
"h  c #453A75",
"j  c #4A3D7A",
"k  c #4B3D71",
"l  c #533A73",
"z  c #543D7C",
"x  c #48434C",
"c  c #524C58",
"v  c #4F4060",
"b  c #534263",
"n  c #59446B",
"m  c #594669",
"M  c #4F4176",
"N  c #57437A",
"B  c #66446B",
"V  c #794665",
"C  c #655769",
"Z  c #644573",
"A  c #684775",
"S  c #654C74",
"D  c #694974",
"F  c #664D7B",
"G  c #6C4C7C",
"H  c #63477D",
"J  c #704E7D",
"K  c #714E75",
"L  c #68527E",
"P  c #685278",
"I  c #735C7A",
"U  c #77547F",
"Y  c #883E58",
"T  c #984E50",
"R  c #BD4956",
"E  c #81507C",
"W  c #8B4767",
"Q  c #AF5F6E",
"!  c #B65A7F",
"~  c #D1505D",
"^  c #FE5A59",
"/  c #D06165",
"(  c #DE7A7A",
")  c #FE6969",
"_  c #F3676F",
"`  c #F16770",
"'  c #F8767A",
"]  c #E66873",
"[  c #4C3F81",
"{  c #543F81",
"}  c #4E4185",
"|  c #4F4288",
" . c #54438B",
".. c #5A458C",
"X. c #564589",
"o. c #554693",
"O. c #5C4994",
"+. c #5A4A9C",
"@. c #594794",
"#. c #694C85",
"$. c #714F83",
"%. c #6C5382",
"&. c #6B5486",
"*. c #735385",
"=. c #7A5484",
"-. c #775886",
";. c #7B5A84",
":. c #75558A",
">. c #745A8C",
",. c #7B5A8F",
"<. c #604E9E",
"1. c #604C91",
"2. c #63519F",
"3. c #6B5597",
"4. c #7C5C94",
"5. c #71599F",
"6. c #7D5C9B",
"7. c #785598",
"8. c #7E6587",
"9. c #7E6199",
"0. c #614FA1",
"q. c #6552A1",
"w. c #6A56A1",
"e. c #6E59A4",
"r. c #735CA6",
"t. c #775EA8",
"y. c #7A61A6",
"u. c #7C63A9",
"i. c #7461A0",
"p. c #7D70A0",
"a. c #805B8E",
"s. c #815888",
"d. c #9A5183",
"f. c #805F99",
"g. c #875B93",
"h. c #BE5E81",
"j. c #A65987",
"k. c #836689",
"l. c #807188",
"z. c #83629C",
"x. c #86619B",
"c. c #926C97",
"v. c #8C7C92",
"b. c #97709C",
"n. c #A96490",
"m. c #8565A3",
"M. c #8A67A6",
"N. c #8969A6",
"B. c #8267AD",
"V. c #8569AC",
"C. c #8C6DAD",
"Z. c #8768A5",
"A. c #976DA4",
"S. c #8F70AE",
"D. c #8872A2",
"F. c #9E77A4",
"G. c #9272AD",
"H. c #9E79AD",
"J. c #9E74AD",
"K. c #8C6EB1",
"L. c #906FB0",
"P. c #8F70B3",
"I. c #9473B5",
"U. c #9977B6",
"Y. c #9C79B6",
"T. c #9775B8",
"R. c #9E7BB8",
"E. c #A379AD",
"W. c #A27EB8",
"Q. c #A07DB4",
"!. c #D07487",
"~. c #E97480",
"^. c #9B889A",
"/. c #9C959D",
"(. c #9F8BA0",
"). c #9B93A6",
"_. c #A982AF",
"`. c #AA97AA",
"'. c #AB99AD",
"]. c #A398A7",
"[. c #A681B7",
"{. c #A681B9",
"}. c #A983BA",
"|. c #AD86BB",
" X c #AC85BB",
".X c #AD86B5",
"XX c #B189BC",
"oX c #B48BBD",
"OX c #B58CBD",
"+X c #B48CBD",
"@X c #B68DBD",
"#X c #B48BBC",
"$X c #B88EBF",
"%X c #B09DB2",
"&X c #A396BF",
"*X c #B3AABB",
"=X c #B7A6B7",
"-X c #ACA4B5",
";X c #EC8887",
":X c #FE8C8B",
">X c #FF9595",
",X c #A48FC5",
"<X c #C9BAC9",
"1X c #C2B8C6",
"2X c #CBC2CF",
"3X c #D8CDD9",
"4X c #DBD3DD",
"5X c #E6DDE7",
"6X c #EBE3EA",
"7X c #EEE6F0",
"8X c #F6EFF8",
"9X c #FCF4FC",
"0X c #FFFAFF",
/* pixels */
"                                                                                                                                ",
"                                                                                                                                ",
"                                                                                                                                ",
"                                                                                                                                ",
"                                                                                                                                ",
"                                                                                                                                ",
"                                                                                                                                ",
"                                                                                                                                ",
"                                                                                                                                ",
"                                                                                                                                ",
"                                                                                                                                ",
"                                                                                                                                ",
"                                                                                                                                ",
"                                                                                                                                ",
"                                                                              ..                              w.                ",
"                                                                            t.4.e                         w.u.G.5               ",
"                                      w.                #.B   @.          r.I.z.e                     u.u.I. XS.;               ",
"                                    i Z.r.              z.b.d O.J       r.K.T.z.e                 u.C.XX@XXXI.5.-               ",
"                                      :.C.B.C.r.+.+.    U @Xa.H H.J l r.K.I.T.z.f +.r.g       +.B.}.@X@X XY.r.s @               ",
"                                      z.I.W.@X[.Y.I.w.z J }.U.3.I.m.3.K.I.I.I.C.m.V.K.Z ..r.}.Y. X@XXXR.I.y.s                   ",
"                                      A I.T.}.@X@XoX{.a.G U.T.K.I.I.K.I.I.I.I.I.T.T.I.5.V.{.@X@XoXXXR.I.B.O.,                   ",
"                                      d M.I.W.oXXX@X$Xc.*.I.T.T.I.I.I.I.I.I.I.I.I.I.I.P.U.XXoX{.}.W.T.P.r.a                     ",
"                                        B z.T.W.{.}.@X[.G.R. XW.Y.R.U.U.U.I.I.I.I.I.I.I.I.Y.{.{.Y.I.P.B.0.9                     ",
"                                          B Z.T.W.Y.H.x.U.@X@X@X@XXX{.W.W.T.I.I.I.I.I.I.I.I.Y.Y.I.I.y.w.+.9                     ",
"                                            :.T.I.C.S c.@X@X@X@X@X XW.{.W.T.I.I.I.I.I.I.I.I.I.I.I.C.q.+. .<                     ",
"                                            Z m.T.9.y XX@X@X@X@X@X@X{.Y.U.I.I.I.I.I.I.I.I.I.I.I.I.r.+.+.a X                     ",
"                                              d 4.v 8.oX@X@X@X@X@XoX{.I.I.I.I.I.I.I.I.I.I.I.I.C.r.+.+.[ =                       ",
"                                  #           q 3 >.Y.XXXXXXoXXX XY.U.I.I.I.I.I.I.T.I.I.I.I.I.u.+.+. .= 4                       ",
"                            B C w k.K         o F N.T.U.U.U.}.Y.U.I.I.I.I.I.I.T.C.m.r.K.I.I.K.w.+.+.| , z r                 ; 9.",
"                            B F._.XXE.K d     # >.*.9.I.I.I.T.I.I.I.I.I.Y.Y.T.C.E Y s.K.I.T.B.+.+.+.+.o.+.j i z.b w w w I I >.I.",
"                              ;. XXX@X Xm.Z N H m.m.W z.T.I.I.I.I.I.I.Y. XXXI.=.R ^ d.B.T.T.B.+.+.+.+.+.+.e.I.I.Y.Q.Y.XX@XA.C.T.",
"                            d f.T.W.{.{.W.V.2.B.P.7.~ W 7.K.I.I.I.I.I.{.@XQ.K Q ) ^ d.B.T.T.V.2.+.+.+.+.+.r.I.I.W.W.}.@XF.;.*.C.",
"                            4.I.I.I.I.U.Y.r.+.B.P.7.` ] V #.T.I.I.I.I.{..Xm * ;X:X) d.B.T.K.u.r.+.+.+.+.q.B.I.R.U.W.XX@XF.s.-.C.",
"                          e d ,.I.I.I.P.y.<.z 6.I.Z.n.>XT q z.I.I.I.T.V.$.Y > ;X>X' d.B.T.z.#.B.2.+.+.+.q.V.I.Y.T.I.Y.{.@XE.H.G.",
"                            q i ,.I.K.y.<.+.6 %.r.B.g.' ;X/ V M.T.I.T.K.7.!.( :X' ! m.I.z.Z m.I.e.+.+.+.+.r.I.I.I.I.I.T.{.H.y - ",
"                                i &.2.+.+.+.2 F #.6.6.j.` ~.g.C.I.I.I.I.K.x.] _ h.6.C.M.b 1 C.T.r.+.+.+.<.u.I.T.I.I.I.P.C.b     ",
"                                  u z +.+.+.2 L C.Z -.I.E.M.C.I.I.I.I.I.I.I.J.A.a.*.-.k.^.5 C.I.r.+.+.+.+.+.r.B.u.u.3.M t       ",
"                                       .z  .2 L I.u.D.:.m.T.T.T.T.T.T.T.I.4.:.G I =X'.=X/.m I.I.r.+.+.+.+.+.+.+.j  .8 X         ",
"                                        0 p = L T.K.i.k.Z $.$.*.$.$.$.*.*.8.^.v.-X0X0X6Xx Z.T.I.r.+.+.+.+.+.h [ 3 a             ",
"                                            O y C.K.,X1Xv.`.].I (.`.`.8.v.3X0X5X1X8X0X].P C.I.K.w.+.+.+.+.+.h [ p               ",
"                                              # >.T.T.p.*X0X8X).7X0X0X*X2X0X0X0X1X1X7XC z.T.T.u.+.+.+.+.+.+.+.+.p               ",
"                                              o *.I.I.r.&X9X9X1X4X0X0X3X2X9X0X0X*Xc x %.I.I.I.t.+.+.+.+.+.+.+.+.p               ",
"                                                u m.T.I.4.%X5X5X'.9X0X9X*X5X6X<XD ; m I.T.T.K.w.+.+.+.+.+.+.+.+.u               ",
"                                                : z.T.I.L.,.;.'.l.1X<X<Xv.'.8.-.M.M.S.T.I.K.u.+.+.+.+.+.+.+. .@.l               ",
"                                                1 z.T.I.I.I.C.J Z A A A Z G C.I.I.T.I.I.K.e.+.+.+.+.+.+.+.+.f { +.l f r         ",
"                                                  m V.I.I.I.I.I.I.I.I.I.I.I.I.I.I.I.I.I.B.+.+.+.+.+.+.+.+.+.f { +.+.+.9 X       ",
"                                                  @ 3.I.I.I.I.I.I.I.I.I.I.I.I.I.I.I.K.V.w.+.+.+.+.+.+.+.+. .l ..+.+.| ,         ",
"                                                  4 1.C.I.I.I.I.I.I.I.I.I.I.I.I.I.C.u.w.+.+.+.+.+.+.+.+.+.z z +.+. .<           ",
"                                                  0 l 2.r.C.I.I.I.I.I.I.I.I.I.K.r.2.<.+.+.+.+.+.+.+.<.O.z  .@.o., %             ",
"                                                0 e  .+.@.<.q.y.K.K.K.K.K.u.q.2.+.+.+.+.+.+.w.B.K.K.K.C.%.8 @.2 X               ",
"                                                  e O.+.{ z  .+.0.<.<.<.<.+.+.+.+.+.+.+.+.u.K.I.I.I.U.U.I.n 9 ,                 ",
"                                                  i y.e.+.z f a h +.+.+.+.+.+.+.+.+.+.+.w.P.I.I.I.Y. X XR.>.;                   ",
"                                                  e ,.K.u.q.@.7 2 8 8 [ +.+.+.+.+.j } ..m.I.I.I.I.}.@X@X}.T.t                   ",
"                                                  f.4.I.P.e.+.+. .&   = 6 6 6 6 6 = , y M.T.I.I.I.W.XX@X}.T.t                   ",
"                                                $ n y.K.u.B.r.+. .e                     G C.I.I.I.I.W. XR.T.t                   ",
"                                                X + g V.V.M.V..., q                       A C.I.I.I.T.U.I.I.t                   ",
"                                                    o b S - k ,                             G C.I.I.I.I.I.L #                   ",
"                                                            +                                 :.T.T.I.K.K.M                     ",
"                                                                                              A %.L V.t.:.M                     ",
"                                                                                                # X b g $ X                     ",
"                                                                                                      .                         ",
"                                                                                                                                ",
"                                                                                                                                ",
"                                                                                                                                "
};
