/* XPM */
static char *result[] = {
/* columns rows colors chars-per-pixel */
"64 64 6 1 ",
"  c #222034",
". c #773865",
"X c #96437F",
"o c #B15D99",
"O c #C07AB0",
"+ c None",
/* pixels */
"++++++++++++++++++++++++++++++++++++++++++++++++++++++++++++++++",
"++++++++++++++++++++++++++++++++++++++++++++++++++++++++++++++++",
"++++++++++++++++++++++++++++++++++++++++++++++++++++++++++++++++",
"++++++++++++++++++++++++++++++++++++++++++++++++++++++++++++++++",
"++++++++++++++++++++++++++++++++++++++++++++++++++++++++++++++++",
"++++++++++++++++++++++++++++++++++++++++++++++++++++++++++++++++",
"++++++++++++++++        ++++++++++++++++        ++++++++++++++++",
"++++++++++++++++        ++++++++++++++++        ++++++++++++++++",
"++++++++++++++++        ++++++++++++++++        ++++++++++++++++",
"++++++++++++++++        ++++++++++++++++        ++++++++++++++++",
"++++++++++++    ........    ++++++++    XXXXXXXX    ++++++++++++",
"++++++++++++    ........    ++++++++    XXXXXXXX    ++++++++++++",
"++++++++++++    ........    ++++++++    XXXXXXXX    ++++++++++++",
"++++++++++++    ........    ++++++++    XXXXXXXX    ++++++++++++",
"++++++++    ........XXXXXXXX        XXXXooooooooXXXX    ++++++++",
"++++++++    ........XXXXXXXX        XXXXooooooooXXXX    ++++++++",
"++++++++    ........XXXXXXXX        XXXXooooooooXXXX    ++++++++",
"++++++++    ........XXXXXXXX        XXXXooooooooXXXX    ++++++++",
"++++    ........XXXXXXXXXXXXXXXXooooOOOOOOOOOOOOooooXXXX    ++++",
"++++    ........XXXXXXXXXXXXXXXXooooOOOOOOOOOOOOooooXXXX    ++++",
"++++    ........XXXXXXXXXXXXXXXXooooOOOOOOOOOOOOooooXXXX    ++++",
"++++    ........XXXXXXXXXXXXXXXXooooOOOOOOOOOOOOooooXXXX    ++++",
"++++    ........XXXXXXXXXXXXXXXXXXXXooooOOOOOOOOOOOOXXXX    ++++",
"++++    ........XXXXXXXXXXXXXXXXXXXXooooOOOOOOOOOOOOXXXX    ++++",
"++++    ........XXXXXXXXXXXXXXXXXXXXooooOOOOOOOOOOOOXXXX    ++++",
"++++    ........XXXXXXXXXXXXXXXXXXXXooooOOOOOOOOOOOOXXXX    ++++",
"++++    ........XXXXXXXXXXXXXXXXXXXXXXXXooooOOOOooooXXXX    ++++",
"++++    ........XXXXXXXXXXXXXXXXXXXXXXXXooooOOOOooooXXXX    ++++",
"++++    ........XXXXXXXXXXXXXXXXXXXXXXXXooooOOOOooooXXXX    ++++",
"++++    ........XXXXXXXXXXXXXXXXXXXXXXXXooooOOOOooooXXXX    ++++",
"++++    ........XXXXXXXXXXXXXXXXXXXXXXXXooooooooXXXXXXXX    ++++",
"++++    ........XXXXXXXXXXXXXXXXXXXXXXXXooooooooXXXXXXXX    ++++",
"++++    ........XXXXXXXXXXXXXXXXXXXXXXXXooooooooXXXXXXXX    ++++",
"++++    ........XXXXXXXXXXXXXXXXXXXXXXXXooooooooXXXXXXXX    ++++",
"++++++++    ........XXXXXXXXXXXXXXXXXXXXXXXXXXXXXXXX    ++++++++",
"++++++++    ........XXXXXXXXXXXXXXXXXXXXXXXXXXXXXXXX    ++++++++",
"++++++++    ........XXXXXXXXXXXXXXXXXXXXXXXXXXXXXXXX    ++++++++",
"++++++++    ........XXXXXXXXXXXXXXXXXXXXXXXXXXXXXXXX    ++++++++",
"++++++++++++    ........XXXXXXXXXXXXXXXXXXXXXXXX    ++++++++++++",
"++++++++++++    ........XXXXXXXXXXXXXXXXXXXXXXXX    ++++++++++++",
"++++++++++++    ........XXXXXXXXXXXXXXXXXXXXXXXX    ++++++++++++",
"++++++++++++    ........XXXXXXXXXXXXXXXXXXXXXXXX    ++++++++++++",
"++++++++++++++++    ........XXXXXXXX........    ++++++++++++++++",
"++++++++++++++++    ........XXXXXXXX........    ++++++++++++++++",
"++++++++++++++++    ........XXXXXXXX........    ++++++++++++++++",
"++++++++++++++++    ........XXXXXXXX........    ++++++++++++++++",
"++++++++++++++++++++    ................    ++++++++++++++++++++",
"++++++++++++++++++++    ................    ++++++++++++++++++++",
"++++++++++++++++++++    ................    ++++++++++++++++++++",
"++++++++++++++++++++    ................    ++++++++++++++++++++",
"++++++++++++++++++++++++    ........    ++++++++++++++++++++++++",
"++++++++++++++++++++++++    ........    ++++++++++++++++++++++++",
"++++++++++++++++++++++++    ........    ++++++++++++++++++++++++",
"++++++++++++++++++++++++    ........    ++++++++++++++++++++++++",
"++++++++++++++++++++++++++++        ++++++++++++++++++++++++++++",
"++++++++++++++++++++++++++++        ++++++++++++++++++++++++++++",
"++++++++++++++++++++++++++++        ++++++++++++++++++++++++++++",
"++++++++++++++++++++++++++++        ++++++++++++++++++++++++++++",
"++++++++++++++++++++++++++++++++++++++++++++++++++++++++++++++++",
"++++++++++++++++++++++++++++++++++++++++++++++++++++++++++++++++",
"++++++++++++++++++++++++++++++++++++++++++++++++++++++++++++++++",
"++++++++++++++++++++++++++++++++++++++++++++++++++++++++++++++++",
"++++++++++++++++++++++++++++++++++++++++++++++++++++++++++++++++",
"++++++++++++++++++++++++++++++++++++++++++++++++++++++++++++++++"
};
