/* XPM */
static char *result[] = {
/* columns rows colors chars-per-pixel */
"64 64 174 2 ",
"   c #741B01",
".  c #7E1A06",
"X  c #762200",
"o  c #B13E17",
"O  c #BC3E1A",
"+  c #AD3F2C",
"@  c #B63F27",
"#  c #B53E2D",
"$  c #C43E1B",
"%  c #B24E01",
"&  c #B6440A",
"*  c #B9440D",
"=  c #B74B0B",
"-  c #BB4A0C",
";  c #BC5405",
":  c #AF4817",
">  c #B54710",
",  c #BB4313",
"<  c #B64E16",
"1  c #BC4D14",
"2  c #B7421F",
"3  c #BD431D",
"4  c #B34918",
"5  c #BF4B1F",
"6  c #BE531B",
"7  c #8F4632",
"8  c #AF4F24",
"9  c #A8442C",
"0  c #B44323",
"q  c #BD4422",
"w  c #B5432A",
"e  c #BA432A",
"r  c #B44D26",
"t  c #B35022",
"y  c #B75E28",
"u  c #A84E33",
"i  c #B04A36",
"p  c #BA4B3C",
"a  c #B55132",
"s  c #A46139",
"d  c #C54D0D",
"f  c #C64913",
"g  c #C25011",
"h  c #CC5E17",
"j  c #C45019",
"k  c #C2630C",
"l  c #C46412",
"z  c #C74920",
"x  c #C1452F",
"c  c #C24324",
"v  c #C24E32",
"b  c #A47542",
"n  c #E69B16",
"m  c #E0971C",
"M  c #E79F1B",
"N  c #F8991E",
"B  c #E68C2B",
"V  c #EF9A21",
"C  c #EA9929",
"Z  c #FA9E2A",
"A  c #F49E2B",
"S  c #F38F34",
"D  c #FE9F37",
"F  c #FC9D3C",
"G  c #F49E35",
"H  c #E9A92D",
"J  c #F5A425",
"K  c #FAA425",
"L  c #F0A827",
"P  c #F9A824",
"I  c #F5A52C",
"U  c #FBA52B",
"Y  c #F6A92E",
"T  c #FBA92C",
"R  c #F1B02E",
"E  c #EEA434",
"W  c #E5AC34",
"Q  c #EDAC32",
"!  c #EFA43F",
"~  c #F4A335",
"^  c #F5A931",
"/  c #F9A932",
"(  c #FEA23C",
")  c #FAAC3E",
"_  c #EDB23A",
"`  c #F0B134",
"'  c #F3B838",
"]  c #FABC3C",
"[  c #FAC23D",
"{  c #B98D54",
"}  c #CC9053",
"|  c #DA9D56",
" . c #E09742",
".. c #F89742",
"X. c #FD9E41",
"o. c #FD9D56",
"O. c #DBAB4B",
"+. c #CEA359",
"@. c #EBA545",
"#. c #EDA847",
"$. c #ECA749",
"%. c #ECAB49",
"&. c #F1A440",
"*. c #F0A842",
"=. c #F1A34D",
"-. c #E4B243",
";. c #EBBC45",
":. c #EBBD49",
">. c #F5BC42",
",. c #F9BF43",
"<. c #F7BF4B",
"1. c #FABF4D",
"2. c #EAAD51",
"3. c #F3AE53",
"4. c #F9AB53",
"5. c #EDB159",
"6. c #CAA863",
"7. c #DCA063",
"8. c #D2B068",
"9. c #D4BF7B",
"0. c #E4B068",
"q. c #F0B56E",
"w. c #ECC145",
"e. c #EDC24A",
"r. c #E2C249",
"t. c #F3C445",
"y. c #F9C244",
"u. c #F2C44C",
"i. c #F9C44A",
"p. c #EBC951",
"a. c #F4C454",
"s. c #FBC655",
"d. c #F4C855",
"f. c #FBC55C",
"g. c #F5CC5B",
"h. c #FACC5B",
"j. c #EBD25C",
"k. c #FCD053",
"l. c #FDD85D",
"z. c #F2D25A",
"x. c #E8C16D",
"c. c #F4C666",
"v. c #FBC460",
"b. c #F8C96C",
"n. c #F2CC6D",
"m. c #EFD861",
"M. c #F3DC65",
"N. c #FEDC65",
"B. c #F7DF6A",
"V. c #FDDC6B",
"C. c #E6C572",
"Z. c #ECC471",
"A. c #FFDF73",
"S. c #FBE46D",
"D. c #F5E36A",
"F. c #F7E175",
"G. c #FCE473",
"H. c #FCE37C",
"J. c #F9EB7D",
"K. c #D3CB87",
"L. c #EDD88B",
"P. c #F1D785",
"I. c #EDDE9B",
"U. c #F2DD93",
"Y. c #FBE782",
"T. c #FEEA82",
"R. c #FAE289",
"E. c #F8EB8B",
"W. c #FCF185",
"Q. c #F9EC93",
"!. c #FCEA9B",
"~. c #FCE294",
"^. c #F9EEA0",
"/. c None",
/* pixels */
"/./././././././././././././././././././././././././././././.L.C././././././././././././././././././././././././././././././././.",
"/././././././././././././././././././././././././././././.9.9.6.b /././././././././././././././././././././././././././././././.",
"/./././././././././././././././././././././././././././.P.9././.4.b /./././././././././././././././././././././././././././././.",
"/./././././././././././././././././././././././././././.C.8././.x b /./././././././././././././././././././././././././././././.",
"/./././././././././././././././././././.Q.R.c.$.#.@.$.%./.8.=.8 /.0.*.#.#.$.#.@.=.9 /./././././././././././././././././././././.",
"/././././././././././././././././././.I.u.u.L g | | | k.O.{  .y 7.l j | | | l.U U S 9 /././././././././././././././././././././.",
"/././././././././././././././././././.N.h.[ U 3 /././.B.W } /./.%.f q /././.G.^ K Z O /././././././././././././././././././././.",
"/././././././././././././././././.^.G.i.J P O /././././.U.L././.v v /././././.G.G.~ I = u /././././././././././././././././././.",
"/./././././././././././././././.^.p.u.U = , /././././././././././././././././././.V.U J ( p /./././././././././././././././././.",
"/./././././././././././././././.T.e.y.U f 0 /././././././././././././././././././.H.I U ( e /./././././././././././././././././.",
"/./././././././././././././././.T.H J J /./././././././././././././././././././././.U K F e /./././././././././././././././././.",
"/./././././././././././././././.H.W K K /./././././././././././././././././././././.U U ( @ /./././././././././././././././././.",
"/./././././././././././././././.T.W K U /./././././././././././././././././././././.U U F e /./././././././././././././././././.",
"/./././././././././././././././.T.W K K /./././././././././././././././././././././.U U D # /./././././././././././././././././.",
"/./././././././././././././././.T.` J P j 0 /./././././.U.K././.W.U./././././././.S.K U &.# /./././././././././././././././././.",
"/././././././././././././././././.P.S.U ( X.a /./././.J.-.+././.-.5.-././././.!.~.^ I % 4 /././././././././././././././././././.",
"/./././././././././././././././././.R.h.[ ] B | | | | ^ k s /./.d.^ U | | | | ' >.J h 0 /./././././././././././././././././././.",
"/././././././././././././././././././.H.a.a.I U T U U Z < 7 /./.n.^ U K K K U Z A G 2 /././././././././././././././././././././.",
"/./././././././././././././././././././././.S.t.y.y.Y I /./././././.Z K J E I q @ /././././././././././././././././././././././.",
"/./././././././././././././././././././././././././.N.y.) C ~ ~ E I J 5 /./././././././././././././././././././././././././././.",
"/././././././././././././././././././././././././././.V.t.Y T U U ; & /././././././././././././././././././././././././././././.",
"/././././././././././././././././././././././././././.E.g._ H U ( t i /././././././././././././././././././././././././././././.",
"/./././././././././././././././././././././././././././.x.e.S./ > /././././././././././././././././././././././././././././././.",
"/././././././././././././././././././././././././././.w.V.z.i.y.Q 1 /./././././././././././././././././././././././././././././.",
"/./././././././././././././././././././././././././././.2.M I *   /././././././././././././././././././././././././././././././.",
"/./././././././././././././././././././././././././././.2.V U f   /././././././././././././././././././././././././././././././.",
"/././././././././././././././././././././././././././.:.A.g.i.y.A 1 /./././././././././././././././././././././././././././././.",
"/./././././././././././././././././././././././././././.Z.n I f X /././././././././././././././././././././././././././././././.",
"/./././././././././././././././././././././././././././.Z.m ^ - . /././././././././././././././././././././././././././././././.",
"/./././././././././././././././././././././././././././.Z.e.D.Y * /././././././././././././././././././././././././././././././.",
"/./././././././././././././././././././././././././././.Z.e.S.^ , /././././././././././././././././././././././././././././././.",
"/./././././././././././././././././././././././././././.Z.;.M.J * /././././././././././././././././././././././././././././././.",
"/./././././././././././././././././././././././././././.Z.u.G.U & /././././././././././././././././././././././././././././././.",
"/./././././././././././././././././././././././././././.Z.e.D.^ * /././././././././././././././././././././././././././././././.",
"/./././././././././././././././././././././././././././.Z.e.S.U & /././././././././././././././././././././././././././././././.",
"/./././././././././././././././././././././././././././.Z.u.G.I & /././././././././././././././././././././././././././././././.",
"/./././././././././././././././././././././././././././.Z.u.S.Y * /././././././././././././././././././././././././././././././.",
"/./././././././././././././././././././././././././././.Z.e.S./ * /././././././././././././././././././././././././././././././.",
"/./././././././././././././././././././././././././././.Z.e.S.^ * /././././././././././././././././././././././././././././././.",
"/./././././././././././././././././././././././././././.Z.u.S.I & /././././././././././././././././././././././././././././././.",
"/./././././././././././././././././././././././././././.Z.u.S.^ & /././././././././././././././././././././././././././././././.",
"/./././././././././././././././././././././././././././.Z.e.S.^ & /././././././././././././././././././././././././././././././.",
"/./././././././././././././././././././././././././././.Z.e.G.Y & /././././././././././././././././././././././././././././././.",
"/./././././././././././././././././././././././././././.Z.e.S.Y & /././././././././././././././././././././././././././././././.",
"/./././././././././././././././././././././././././././.Z.w.S.Y * /././././././././././././././././././././././././././././././.",
"/./././././././././././././././././././././././././././.Z.:.G./ * /././././././././././././././././././././././././././././././.",
"/./././././././././././././././././././././././././././.Z.;.j.V & /././././././././././././././././././././././././././././././.",
"/./././././././././././././././././././././././././././.Z.e.S.Y & /././././././././././././././././././././././././././././././.",
"/./././././././././././././././././././././././././././.Z.e.G.T , /././././././././././././././././././././././././././././././.",
"/./././././././././././././././././././././././././././.x.u.G.T , /././././././././././././././././././././././././././././././.",
"/./././././././././././././././././././././././././././.Z.-.D.V * /././././././././././././././././././././././././././././././.",
"/./././././././././././././././././././././././././././.Z.u.S.Y & /././././././././././././././././././././././././././././././.",
"/./././././././././././././././././././././././././././.Z.:.m.J & /././././././././././././././././././././././././././././././.",
"/./././././././././././././././././././././././././././.Z.t.G.Y - ..~ H././.H.G.H.a.i.G.Q./././././././././././././././././././.",
"/./././././././././././././././././././././././././././.Z.e.S.I ( T K t.b.a.P 4 8 /.i.H 5./././././././././././././././././././.",
"/./././././././././././././././././././././././././././.Z.w.S.U U T P y.i.y.U c e /.i.L 3./././././././././././././././././././.",
"/./././././././././././././././././././././././././././.Z.;.S.U K U K y.i.,.U $ w /.>.I 2./././././././././././././././././././.",
"/./././././././././././././././././././././././././././.Z.u.S.U K K U j /./././././././././././././././././././././././././././.",
"/./././././././././././././././././././././././././././.Z.u.S./ U U K 1.a.u.G.q w /.g.H.^./././././././././././././././././././.",
"/./././././././././././././././././././././././././././.Z.p.D.U U K U y.i.y.S.c w /.i.V.!./././././././././././././././././././.",
"/./././././././././././././././././././././././././././.Z.u.S./ T U U y.s.[ P q r /.i.L 3./././././././././././././././././././.",
"/./././././././././././././././././././././././././././.Z.w.S.Y , F J t./././ U ^ u.<.A 5./././././././././././././././././././.",
"/./././././././././././././././././././././././././././.Z.w.S.Y , o.) f././.&...#.v.v.! q./././././././././././././././././././.",
"/./././././././././././././././././././././././././././.x.r.S.I 2 /././././././././././././././././././././././././././././././."
};
