/* XPM */
static char * key_2_xpm[] = {
"64 64 164 2",
"  	c None",
". 	c #EDD88B",
"+ 	c #E6C572",
"@ 	c #FEEA82",
"# 	c #D4BF7B",
"$ 	c #CAA863",
"% 	c #A47542",
"& 	c #F1D785",
"* 	c #F9AB53",
"= 	c #D2B068",
"- 	c #C1452F",
"; 	c #F9EC93",
"> 	c #FAE289",
", 	c #F4C666",
"' 	c #ECA749",
") 	c #EDA847",
"! 	c #EBA545",
"~ 	c #ECAB49",
"{ 	c #F1A34D",
"] 	c #AF4F24",
"^ 	c #E4B068",
"/ 	c #F0A842",
"( 	c #A8442C",
"_ 	c #EDDE9B",
": 	c #F2C44C",
"< 	c #F0A827",
"[ 	c #C25011",
"} 	c #DA9D56",
"| 	c #FCD053",
"1 	c #DBAB4B",
"2 	c #B98D54",
"3 	c #E09742",
"4 	c #B75E28",
"5 	c #DCA063",
"6 	c #C46412",
"7 	c #C45019",
"8 	c #FDD85D",
"9 	c #FBA52B",
"0 	c #F38F34",
"a 	c #FEDC65",
"b 	c #FACC5B",
"c 	c #FAC23D",
"d 	c #BD431D",
"e 	c #F7DF6A",
"f 	c #E5AC34",
"g 	c #CC9053",
"h 	c #C64913",
"i 	c #BD4422",
"j 	c #FCE473",
"k 	c #F5A931",
"l 	c #FAA425",
"m 	c #FA9E2A",
"n 	c #BC3E1A",
"o 	c #F9EEA0",
"p 	c #F9C44A",
"q 	c #F5A425",
"r 	c #F9A824",
"s 	c #F2DD93",
"t 	c #C24E32",
"u 	c #F4A335",
"v 	c #F5A52C",
"w 	c #B74B0B",
"x 	c #A84E33",
"y 	c #EBC951",
"z 	c #BB4313",
"A 	c #FDDC6B",
"B 	c #FEA23C",
"C 	c #BA4B3C",
"D 	c #EDC24A",
"E 	c #F9C244",
"F 	c #B44323",
"G 	c #FCE37C",
"H 	c #BA432A",
"I 	c #E9A92D",
"J 	c #FC9D3C",
"K 	c #B63F27",
"L 	c #FE9F37",
"M 	c #B53E2D",
"N 	c #F0B134",
"O 	c #D3CB87",
"P 	c #FCF185",
"Q 	c #FBE46D",
"R 	c #F1A440",
"S 	c #FD9E41",
"T 	c #B55132",
"U 	c #F9EB7D",
"V 	c #E4B243",
"W 	c #CEA359",
"X 	c #EDB159",
"Y 	c #FCEA9B",
"Z 	c #FCE294",
"` 	c #B24E01",
" .	c #B34918",
"..	c #FABC3C",
"+.	c #E68C2B",
"@.	c #C2630C",
"#.	c #A46139",
"$.	c #F4C855",
"%.	c #F3B838",
"&.	c #F5BC42",
"*.	c #CC5E17",
"=.	c #F4C454",
"-.	c #FBA92C",
";.	c #B64E16",
">.	c #8F4632",
",.	c #F2CC6D",
"'.	c #F49E2B",
").	c #F49E35",
"!.	c #B7421F",
"~.	c #F3C445",
"{.	c #F6A92E",
"].	c #EEA434",
"^.	c #FAAC3E",
"/.	c #EA9929",
"(.	c #BF4B1F",
"_.	c #BC5405",
":.	c #B6440A",
"<.	c #F8EB8B",
"[.	c #F5CC5B",
"}.	c #EDB23A",
"|.	c #B35022",
"1.	c #B04A36",
"2.	c #E8C16D",
"3.	c #F9A932",
"4.	c #B54710",
"5.	c #ECC145",
"6.	c #F2D25A",
"7.	c #EDAC32",
"8.	c #BC4D14",
"9.	c #EAAD51",
"0.	c #E79F1B",
"a.	c #B9440D",
"b.	c #741B01",
"c.	c #EF9A21",
"d.	c #EBBD49",
"e.	c #FFDF73",
"f.	c #ECC471",
"g.	c #E69B16",
"h.	c #762200",
"i.	c #E0971C",
"j.	c #BB4A0C",
"k.	c #7E1A06",
"l.	c #F5E36A",
"m.	c #EBBC45",
"n.	c #F3DC65",
"o.	c #EBD25C",
"p.	c #EFD861",
"q.	c #F89742",
"r.	c #F8C96C",
"s.	c #C24324",
"t.	c #F3AE53",
"u.	c #F9BF43",
"v.	c #C43E1B",
"w.	c #B5432A",
"x.	c #FABF4D",
"y.	c #FBC655",
"z.	c #B44D26",
"A.	c #F7BF4B",
"B.	c #FD9D56",
"C.	c #FBC55C",
"D.	c #FBC460",
"E.	c #EFA43F",
"F.	c #F0B56E",
"G.	c #E2C249",
"                                                            . +                     @                                           ",
"                                            @             # # $ %                                                               ",
"                                                        & #     * %                                                             ",
"                                                        + =     - %                                                             ",
"                                        ; > , ' ) ! ' ~   = { ]   ^ / ) ) ' ) ! { (                                             ",
"                                      _ : : < [ } } } | 1 2 3 4 5 6 7 } } } 8 9 9 0 (                                           ",
"                              @       a b c 9 d       e f g     ~ h i       j k l m n                                           ",
"                                  o j p q r n           s .     t t           j j u v w x                                       ",
"                                o y : 9 w z                                       A 9 q B C       @         @                   ",
"                                @ D E 9 h F                                       G v 9 B H                                     ",
"                                @ I q q                               @             9 l J H                                     ",
"                                G f l l                                             9 9 B K                                     ",
"                                @ f l 9                                             9 9 J H                                     ",
"                                @ f l l                                             9 9 L M                                     ",
"                                @ N q r 7 F             s O     P s               Q l 9 R M                                     ",
"                                  & Q 9 B S T         U V W     V X V         Y Z k v `  .                                      ",
"                        @           > b c ..+.} } } } k @.#.    $.k 9 } } } } %.&.q *.F             @                           ",
"                                      G =.=.v 9 -.9 9 m ;.>.    ,.k 9 l l l 9 m '.).!.                                          ",
"                                            Q ~.E E {.v             m l q ].v i K                                               ",
"                                                    a E ^./.u u ].v q (.                                                        ",
"                                                      A ~.{.-.9 9 _.:.                                                          ",
"                                                      <.[.}.I 9 B |.1.                                                          ",
"                                                @       2.D Q 3.4.                  @                                           ",
"                                                      5.A 6.p E 7.8.                                                            ",
"                                                        9.0.v a.b.                                                              ",
"                                                        9.c.9 h b.    @                                                         ",
"                                      @               d.e.[.p E '.8.                                                            ",
"                                                        f.g.v h h.                                                              ",
"                                                        f.i.k j.k.                                                              ",
"                                                        f.D l.{.a.              @                                               ",
"                                                        f.D Q k z                                                               ",
"                                                        f.m.n.q a.                                                              ",
"                                                        f.: j 9 :.                                                              ",
"                                                        f.D l.k a.                                                              ",
"                                    @                   f.D Q 9 :.      @                         @                             ",
"                                                @       f.: j v :.                                                              ",
"                                                        f.: Q {.a.                                                              ",
"                                                        f.D Q 3.a.                  @                                           ",
"                                                        f.D Q k a.                                                              ",
"                                                        f.: Q v :.                                                              ",
"                                                        f.: Q k :.                                                              ",
"                                                        f.D Q k :.                                                              ",
"                                                        f.D j {.:.          @                                                   ",
"                                                        f.D Q {.:.                                                              ",
"                                                        f.5.Q {.a.                                                              ",
"                                  @                     f.d.j 3.a.                                                              ",
"                                              @         f.m.o.c.:.                                                              ",
"                                                        f.D Q {.:.                                                              ",
"                                                        f.D j -.z                   @                                           ",
"                                                        2.: j -.z                                                               ",
"                                                @       f.V l.c.a.                                                              ",
"                                                        f.: Q {.:.                                                              ",
"                                @                       f.d.p.q :.                              @                               ",
"                                                        f.~.j {.j.q.u G     G j G =.p j ;                                       ",
"                                                        f.D Q v B -.l ~.r.=.r  .]   p I X                                       ",
"                                                        f.5.Q 9 9 -.r E p E 9 s.H   p < t.                                      ",
"                                            @           f.m.Q 9 l 9 l E p u.9 v.w.  &.v 9.                                      ",
"                                                        f.: Q 9 l l 9 7                                                         ",
"                                                        f.: Q 3.9 9 l x.=.: j i w.  [.G o                                       ",
"                                                        f.y l.9 9 l 9 E p E Q s.w.  p A Y                                       ",
"                                                        f.: Q 3.-.9 9 E y.c r i z.  p < t.                                      ",
"                                                        f.5.Q {.z J q ~.    3.9 k : A.'.X                                       ",
"                                                        f.5.Q {.z B.^.C.    R q.) D.D.E.F.                                      ",
"                                                        2.G.Q v !.                                                              "};
