/* XPM */
static char *b427f1411e394c69eaf8ecb33d2c36caKbELU7v39dXcFRfU[] = {
/* columns rows colors chars-per-pixel */
"102 77 160 2 ",
"   c None",
".  c gainsboro",
"X  c gainsboro",
"o  c gainsboro",
"O  c gainsboro",
"+  c gainsboro",
"@  c gainsboro",
"#  c gainsboro",
"$  c gainsboro",
"%  c gainsboro",
"&  c gainsboro",
"*  c gainsboro",
"=  c gainsboro",
"-  c gainsboro",
";  c gainsboro",
":  c #DFDFDF",
">  c gainsboro",
",  c gainsboro",
"<  c gainsboro",
"1  c gainsboro",
"2  c gray97",
"3  c gainsboro",
"4  c gainsboro",
"5  c #DDDDDD",
"6  c #F9F9F9",
"7  c white",
"8  c gainsboro",
"9  c gainsboro",
"0  c gray98",
"q  c gainsboro",
"w  c gainsboro",
"e  c gray88",
"r  c gray99",
"t  c gainsboro",
"y  c gainsboro",
"u  c gainsboro",
"i  c gray89",
"p  c #FEFEFE",
"a  c gainsboro",
"s  c gainsboro",
"d  c gray90",
"f  c gainsboro",
"g  c gainsboro",
"h  c None",
"j  c #E6E6E6",
"k  c gainsboro",
"l  c gainsboro",
"z  c gray95",
"x  c gainsboro",
"c  c gainsboro",
"v  c gainsboro",
"b  c gainsboro",
"n  c gainsboro",
"m  c gainsboro",
"M  c #F3F3F3",
"N  c gainsboro",
"B  c gainsboro",
"V  c gainsboro",
"C  c gainsboro",
"Z  c gainsboro",
"A  c gainsboro",
"S  c gainsboro",
"D  c gray92",
"F  c gainsboro",
"G  c gainsboro",
"H  c gainsboro",
"J  c #F4F4F4",
"K  c gainsboro",
"L  c gainsboro",
"P  c gainsboro",
"I  c gray96",
"U  c #E2E2E2",
"Y  c gray87",
"T  c gainsboro",
"R  c gainsboro",
"E  c gainsboro",
"W  c #F8F8F8",
"Q  c gainsboro",
"!  c gainsboro",
"~  c gainsboro",
"^  c gainsboro",
"/  c #FBFBFB",
"(  c gainsboro",
")  c gainsboro",
"_  c #E1E1E1",
"`  c gainsboro",
"'  c gainsboro",
"]  c gainsboro",
"[  c #E4E4E4",
"{  c gray94",
"}  c gainsboro",
"|  c #F1F1F1",
" . c gainsboro",
".. c gainsboro",
"X. c gainsboro",
"o. c gainsboro",
"O. c gainsboro",
"+. c gainsboro",
"@. c gainsboro",
"#. c gainsboro",
"$. c gainsboro",
"%. c #F6F6F6",
"&. c gainsboro",
"*. c gainsboro",
"=. c gainsboro",
"-. c gainsboro",
";. c gainsboro",
":. c gainsboro",
">. c gainsboro",
",. c gainsboro",
"<. c gainsboro",
"1. c gainsboro",
"2. c gainsboro",
"3. c gainsboro",
"4. c gainsboro",
"5. c gainsboro",
"6. c gainsboro",
"7. c gainsboro",
"8. c gainsboro",
"9. c gainsboro",
"0. c gainsboro",
"q. c #FDFDFD",
"w. c gainsboro",
"e. c gainsboro",
"r. c gainsboro",
"t. c gainsboro",
"y. c gainsboro",
"u. c gainsboro",
"i. c gainsboro",
"p. c gainsboro",
"a. c gainsboro",
"s. c #E9E9E9",
"d. c gainsboro",
"f. c gainsboro",
"g. c gainsboro",
"h. c gainsboro",
"j. c gainsboro",
"k. c gainsboro",
"l. c gainsboro",
"z. c gainsboro",
"x. c gainsboro",
"c. c gainsboro",
"v. c gainsboro",
"b. c gainsboro",
"n. c gainsboro",
"m. c gainsboro",
"M. c #E7E7E7",
"N. c gainsboro",
"B. c gainsboro",
"V. c gainsboro",
"C. c gainsboro",
"Z. c gainsboro",
"A. c gainsboro",
"S. c gainsboro",
"D. c gainsboro",
"F. c gainsboro",
"G. c gainsboro",
"H. c gainsboro",
"J. c gainsboro",
"K. c gainsboro",
/* pixels */
"                                                                              . X o O +                                                                                                                     ",
"                                                                            @ # $ $ $ % &                                                                                                                   ",
"                                                                          * # $ $ $ $ = .                                                                                                                   ",
"                                                                        - ; $ $ $ : $ > ,                                                                                                                   ",
"                                                                      < 1 $ $ $ 2 : $ > ,                                                                                                                   ",
"                                                                    3 4 $ $ 5 6 7 : $ > ,                                                                                                                   ",
"                                                                8 9 1 $ $ : 0 7 7 : $ > ,                                                                                                                   ",
"                                                              q w 4 $ $ e r 7 7 7 : $ > ,                                                                                                                   ",
"                                                            t y u $ $ i p 7 7 7 7 : $ > ,                                                                                                                   ",
"                                                          & a s $ $ d 7 7 7 7 7 7 : $ > ,                                                                                                                   ",
"                                                        f g h $ $ j 7 7 7 7 7 7 7 : $ > ,                                                                                                                   ",
"                                                      k l h $ $ z 7 7 7 7 7 7 7 7 : $ > ,                                                                                                                   ",
"                                                    x c $ $ $ z 7 7 7 7 7 7 7 7 7 : $ > ,                                                                                                                   ",
"                                                  v b $ $ $ z 7 7 7 7 7 7 7 7 7 7 : $ > ,                                                                                                                   ",
"                                                n m $ $ $ M 7 7 7 7 7 7 7 7 7 7 7 d $ N B V V V V V V V V V V V V V V V V V V V V V V V V V V V V V V V V V V V V V V V V V V V V V V V V V V V V V V C Z   ",
"                                              A S $ $ $ M 7 7 7 7 7 7 7 7 7 7 7 7 D $ $ F F F F F F F F F F F F F F F F F F F F F F F F F F F F F F F F F F F F F F F F F F F F F F F F F F F F F F F G = H ",
"                                            C # $ $ $ J 7 7 7 7 7 7 7 7 7 7 7 7 7 0 : $ $ $ $ $ $ $ $ $ $ $ $ $ $ $ $ $ $ $ $ $ $ $ $ $ $ $ $ $ $ $ $ $ $ $ $ $ $ $ $ $ $ $ $ $ $ $ $ $ $ $ $ $ $ $ $ $ $ K ",
"                                          L P $ $ $ I 7 7 7 7 7 7 7 7 7 7 7 7 7 7 7 0 D d U U U U U U U U U U U U U U U U U U U U U U U U U U U U U U U U U U U U U U U U U U U U U U U U U U U U U U Y $ F ",
"                                        H T $ $ $ 2 7 7 7 7 7 7 7 7 7 7 7 7 7 7 7 7 7 7 7 7 7 7 7 7 7 7 7 7 7 7 7 7 7 7 7 7 7 7 7 7 7 7 7 7 7 7 7 7 7 7 7 7 7 7 7 7 7 7 7 7 7 7 7 7 7 7 7 7 7 7 7 7 7 $ $ $ ",
"                                    q R E $ $ 5 W 7 7 7 7 7 7 7 7 7 7 7 7 7 7 7 7 7 7 7 7 7 7 7 7 7 7 7 7 7 7 7 7 7 7 7 7 7 7 7 7 7 7 7 7 7 7 7 7 7 7 7 7 7 7 7 7 7 7 7 7 7 7 7 7 7 7 7 7 7 7 7 7 7 7 $ $ $ ",
"                                    Q ! $ $ Y 6 7 7 7 7 7 7 7 7 7 7 7 7 7 7 7 7 7 7 7 7 7 7 7 7 7 7 7 7 7 7 7 7 7 7 7 7 7 7 7 7 7 7 7 7 7 7 7 7 7 7 7 7 7 7 7 7 7 7 7 7 7 7 7 7 7 7 7 7 7 7 7 7 7 7 7 $ $ $ ",
"                                8 ~ ^ $ $ e / 7 7 7 7 7 7 7 7 7 7 7 7 7 7 7 7 7 7 7 7 7 7 7 7 7 7 7 7 7 7 7 7 7 7 7 7 7 7 7 7 7 7 7 7 7 7 7 7 7 7 7 7 7 7 7 7 7 7 7 7 7 7 7 7 7 7 7 7 7 7 7 7 7 7 7 7 $ $ $ ",
"                              8 ( ) $ $ _ r 7 7 7 7 7 7 7 7 7 7 7 7 7 7 7 7 7 7 7 7 7 7 7 7 7 7 7 7 7 7 7 7 7 7 7 7 7 7 7 7 7 7 7 7 7 7 7 7 7 7 7 7 7 7 7 7 7 7 7 7 7 7 7 7 7 7 7 7 7 7 7 7 7 7 7 7 7 $ $ $ ",
"                            & ` ' $ $ i p 7 7 7 7 7 7 7 7 7 7 7 7 7 7 7 7 7 7 7 7 7 7 7 7 7 7 7 7 7 7 7 7 7 7 7 7 7 7 7 7 7 7 7 7 7 7 7 7 7 7 7 7 7 7 7 7 7 7 7 7 7 7 7 7 7 7 7 7 7 7 7 7 7 7 7 7 7 7 $ $ $ ",
"                          & ] h $ $ [ 7 7 7 7 7 7 7 7 7 7 7 7 7 7 7 7 7 7 7 7 7 7 7 7 7 7 7 7 7 7 7 7 7 7 7 7 7 7 7 7 7 7 7 7 7 7 7 7 7 7 7 7 7 7 7 7 7 7 7 7 7 7 7 7 7 7 7 7 7 7 7 7 7 7 7 7 7 7 7 7 $ $ $ ",
"                        f g h $ $ { 7 7 7 7 7 7 7 7 7 7 7 7 7 7 7 7 7 7 7 7 7 7 7 7 7 7 7 7 7 7 7 7 7 7 7 7 7 7 7 7 7 7 7 7 7 7 7 7 7 7 7 7 7 7 7 7 7 7 7 7 7 7 7 7 7 7 7 7 7 7 7 7 7 7 7 7 7 7 7 7 7 $ $ $ ",
"                      k } $ $ $ | 7 7 7 7 7 7 7 7 7 7 7 7 7 7 7 7 7 7 7 7 7 7 7 7 7 7 7 7 7 7 7 7 7 7 7 7 7 7 7 7 7 7 7 7 7 7 7 7 7 7 7 7 7 7 7 7 7 7 7 7 7 7 7 7 7 7 7 7 7 7 7 7 7 7 7 7 7 7 7 7 7 7 $ $ $ ",
"                    x  .$ $ $ z 7 7 7 7 7 7 7 7 7 7 7 7 7 7 7 7 7 7 7 7 7 7 7 7 7 7 7 7 7 7 7 7 7 7 7 7 7 7 7 7 7 7 7 7 7 7 7 7 7 7 7 7 7 7 7 7 7 7 7 7 7 7 7 7 7 7 7 7 7 7 7 7 7 7 7 7 7 7 7 7 7 7 7 $ $ $ ",
"                  ..X.$ $ $ z 7 7 7 7 7 7 7 7 7 7 7 7 7 7 7 7 7 7 7 7 7 7 7 7 7 7 7 7 7 7 7 7 7 7 7 7 7 7 7 7 7 7 7 7 7 7 7 7 7 7 7 7 7 7 7 7 7 7 7 7 7 7 7 7 7 7 7 7 7 7 7 7 7 7 7 7 7 7 7 7 7 7 7 7 $ $ $ ",
"                o.m $ $ $ M 7 7 7 7 7 7 7 7 7 7 7 7 7 7 7 7 7 7 7 7 7 7 7 7 7 7 7 7 7 7 7 7 7 7 7 7 7 7 7 7 7 7 7 7 7 7 7 7 7 7 7 7 7 7 7 7 7 7 7 7 7 7 7 7 7 7 7 7 7 7 7 7 7 7 7 7 7 7 7 7 7 7 7 7 7 $ $ $ ",
"              O.S $ $ $ M 7 7 7 7 7 7 7 7 7 7 7 7 7 7 7 7 7 7 7 7 7 7 7 7 7 7 7 7 7 7 7 7 7 7 7 7 7 7 7 7 7 7 7 7 7 7 7 7 7 7 7 7 7 7 7 7 7 7 7 7 7 7 7 7 7 7 7 7 7 7 7 7 7 7 7 7 7 7 7 7 7 7 7 7 7 7 $ $ $ ",
"            +.@.$ $ $ J 7 7 7 7 7 7 7 7 7 7 7 7 7 7 7 7 7 7 7 7 7 7 7 7 7 7 7 7 7 7 7 7 7 7 7 7 7 7 7 7 7 7 7 7 7 7 7 7 7 7 7 7 7 7 7 7 7 7 7 7 7 7 7 7 7 7 7 7 7 7 7 7 7 7 7 7 7 7 7 7 7 7 7 7 7 7 7 $ $ $ ",
"          #.$.$ $ $ %.7 7 7 7 7 7 7 7 7 7 7 7 7 7 7 7 7 7 7 7 7 7 7 7 7 7 7 7 7 7 7 7 7 7 7 7 7 7 7 7 7 7 7 7 7 7 7 7 7 7 7 7 7 7 7 7 7 7 7 7 7 7 7 7 7 7 7 7 7 7 7 7 7 7 7 7 7 7 7 7 7 7 7 7 7 7 7 7 $ $ $ ",
"        &.*.$ $ 5 W 7 7 7 7 7 7 7 7 7 7 7 7 7 7 7 7 7 7 7 7 7 7 7 7 7 7 7 7 7 7 7 7 7 7 7 7 7 7 7 7 7 7 7 7 7 7 7 7 7 7 7 7 7 7 7 7 7 7 7 7 7 7 7 7 7 7 7 7 7 7 7 7 7 7 7 7 7 7 7 7 7 7 7 7 7 7 7 7 7 $ $ $ ",
"      Q 1 $ $ Y 6 7 7 7 7 7 7 7 7 7 7 7 7 7 7 7 7 7 7 7 7 7 7 7 7 7 7 7 7 7 7 7 7 7 7 7 7 7 7 7 7 7 7 7 7 7 7 7 7 7 7 7 7 7 7 7 7 7 7 7 7 7 7 7 7 7 7 7 7 7 7 7 7 7 7 7 7 7 7 7 7 7 7 7 7 7 7 7 7 7 7 $ $ $ ",
"    =.4 $ $ : 0 7 7 7 7 7 7 7 7 7 7 7 7 7 7 7 7 7 7 7 7 7 7 7 7 7 7 7 7 7 7 7 7 7 7 7 7 7 7 7 7 7 7 7 7 7 7 7 7 7 7 7 7 7 7 7 7 7 7 7 7 7 7 7 7 7 7 7 7 7 7 7 7 7 7 7 7 7 7 7 7 7 7 7 7 7 7 7 7 7 7 7 $ $ $ ",
"  -.;.$ $ _ r 7 7 7 7 7 7 7 7 7 7 7 7 7 7 7 7 7 7 7 7 7 7 7 7 7 7 7 7 7 7 7 7 7 7 7 7 7 7 7 7 7 7 7 7 7 7 7 7 7 7 7 7 7 7 7 7 7 7 7 7 7 7 7 7 7 7 7 7 7 7 7 7 7 7 7 7 7 7 7 7 7 7 7 7 7 7 7 7 7 7 7 7 $ $ $ ",
", 4 $ $ _ r 7 7 7 7 7 7 7 7 7 7 7 7 7 7 7 7 7 7 7 7 7 7 7 7 7 7 7 7 7 7 7 7 7 7 7 7 7 7 7 7 7 7 7 7 7 7 7 7 7 7 7 7 7 7 7 7 7 7 7 7 7 7 7 7 7 7 7 7 7 7 7 7 7 7 7 7 7 7 7 7 7 7 7 7 7 7 7 7 7 7 7 7 7 $ $ $ ",
"H $ $ e / 7 7 7 7 7 7 7 7 7 7 7 7 7 7 7 7 7 7 7 7 7 7 7 7 7 7 7 7 7 7 7 7 7 7 7 7 7 7 7 7 7 7 7 7 7 7 7 7 7 7 7 7 7 7 7 7 7 7 7 7 7 7 7 7 7 7 7 7 7 7 7 7 7 7 7 7 7 7 7 7 7 7 7 7 7 7 7 7 7 7 7 7 7 7 $ $ $ ",
":.N $ $ : 0 7 7 7 7 7 7 7 7 7 7 7 7 7 7 7 7 7 7 7 7 7 7 7 7 7 7 7 7 7 7 7 7 7 7 7 7 7 7 7 7 7 7 7 7 7 7 7 7 7 7 7 7 7 7 7 7 7 7 7 7 7 7 7 7 7 7 7 7 7 7 7 7 7 7 7 7 7 7 7 7 7 7 7 7 7 7 7 7 7 7 7 7 7 $ $ $ ",
"  R o $ $ : 0 7 7 7 7 7 7 7 7 7 7 7 7 7 7 7 7 7 7 7 7 7 7 7 7 7 7 7 7 7 7 7 7 7 7 7 7 7 7 7 7 7 7 7 7 7 7 7 7 7 7 7 7 7 7 7 7 7 7 7 7 7 7 7 7 7 7 7 7 7 7 7 7 7 7 7 7 7 7 7 7 7 7 7 7 7 7 7 7 7 7 7 7 $ $ $ ",
"    >.,.$ $ 5 6 7 7 7 7 7 7 7 7 7 7 7 7 7 7 7 7 7 7 7 7 7 7 7 7 7 7 7 7 7 7 7 7 7 7 7 7 7 7 7 7 7 7 7 7 7 7 7 7 7 7 7 7 7 7 7 7 7 7 7 7 7 7 7 7 7 7 7 7 7 7 7 7 7 7 7 7 7 7 7 7 7 7 7 7 7 7 7 7 7 7 7 $ $ $ ",
"      >.> $ $ $ 2 7 7 7 7 7 7 7 7 7 7 7 7 7 7 7 7 7 7 7 7 7 7 7 7 7 7 7 7 7 7 7 7 7 7 7 7 7 7 7 7 7 7 7 7 7 7 7 7 7 7 7 7 7 7 7 7 7 7 7 7 7 7 7 7 7 7 7 7 7 7 7 7 7 7 7 7 7 7 7 7 7 7 7 7 7 7 7 7 7 7 $ $ $ ",
"        - <.$ $ $ %.7 7 7 7 7 7 7 7 7 7 7 7 7 7 7 7 7 7 7 7 7 7 7 7 7 7 7 7 7 7 7 7 7 7 7 7 7 7 7 7 7 7 7 7 7 7 7 7 7 7 7 7 7 7 7 7 7 7 7 7 7 7 7 7 7 7 7 7 7 7 7 7 7 7 7 7 7 7 7 7 7 7 7 7 7 7 7 7 7 $ $ $ ",
"          1.2.$ $ $ I 7 7 7 7 7 7 7 7 7 7 7 7 7 7 7 7 7 7 7 7 7 7 7 7 7 7 7 7 7 7 7 7 7 7 7 7 7 7 7 7 7 7 7 7 7 7 7 7 7 7 7 7 7 7 7 7 7 7 7 7 7 7 7 7 7 7 7 7 7 7 7 7 7 7 7 7 7 7 7 7 7 7 7 7 7 7 7 7 $ $ $ ",
"            3.4.$ $ $ M 7 7 7 7 7 7 7 7 7 7 7 7 7 7 7 7 7 7 7 7 7 7 7 7 7 7 7 7 7 7 7 7 7 7 7 7 7 7 7 7 7 7 7 7 7 7 7 7 7 7 7 7 7 7 7 7 7 7 7 7 7 7 7 7 7 7 7 7 7 7 7 7 7 7 7 7 7 7 7 7 7 7 7 7 7 7 7 $ $ $ ",
"              5.6.$ $ $ M 7 7 7 7 7 7 7 7 7 7 7 7 7 7 7 7 7 7 7 7 7 7 7 7 7 7 7 7 7 7 7 7 7 7 7 7 7 7 7 7 7 7 7 7 7 7 7 7 7 7 7 7 7 7 7 7 7 7 7 7 7 7 7 7 7 7 7 7 7 7 7 7 7 7 7 7 7 7 7 7 7 7 7 7 7 7 $ $ $ ",
"                ..X.$ $ $ z 7 7 7 7 7 7 7 7 7 7 7 7 7 7 7 7 7 7 7 7 7 7 7 7 7 7 7 7 7 7 7 7 7 7 7 7 7 7 7 7 7 7 7 7 7 7 7 7 7 7 7 7 7 7 7 7 7 7 7 7 7 7 7 7 7 7 7 7 7 7 7 7 7 7 7 7 7 7 7 7 7 7 7 7 7 $ $ $ ",
"                  x c $ $ $ z 7 7 7 7 7 7 7 7 7 7 7 7 7 7 7 7 7 7 7 7 7 7 7 7 7 7 7 7 7 7 7 7 7 7 7 7 7 7 7 7 7 7 7 7 7 7 7 7 7 7 7 7 7 7 7 7 7 7 7 7 7 7 7 7 7 7 7 7 7 7 7 7 7 7 7 7 7 7 7 7 7 7 7 7 $ $ $ ",
"                    k 7.$ $ $ z 7 7 7 7 7 7 7 7 7 7 7 7 7 7 7 7 7 7 7 7 7 7 7 7 7 7 7 7 7 7 7 7 7 7 7 7 7 7 7 7 7 7 7 7 7 7 7 7 7 7 7 7 7 7 7 7 7 7 7 7 7 7 7 7 7 7 7 7 7 7 7 7 7 7 7 7 7 7 7 7 7 7 7 $ $ $ ",
"                      f 8.h $ $ j 7 7 7 7 7 7 7 7 7 7 7 7 7 7 7 7 7 7 7 7 7 7 7 7 7 7 7 7 7 7 7 7 7 7 7 7 7 7 7 7 7 7 7 7 7 7 7 7 7 7 7 7 7 7 7 7 7 7 7 7 7 7 7 7 7 7 7 7 7 7 7 7 7 7 7 7 7 7 7 7 7 7 $ $ $ ",
"                        & 9.h $ $ j 7 7 7 7 7 7 7 7 7 7 7 7 7 7 7 7 7 7 7 7 7 7 7 7 7 7 7 7 7 7 7 7 7 7 7 7 7 7 7 7 7 7 7 7 7 7 7 7 7 7 7 7 7 7 7 7 7 7 7 7 7 7 7 7 7 7 7 7 7 7 7 7 7 7 7 7 7 7 7 7 7 $ $ $ ",
"                          q 0.G $ $ i p 7 7 7 7 7 7 7 7 7 7 7 7 7 7 7 7 7 7 7 7 7 7 7 7 7 7 7 7 7 7 7 7 7 7 7 7 7 7 7 7 7 7 7 7 7 7 7 7 7 7 7 7 7 7 7 7 7 7 7 7 7 7 7 7 7 7 7 7 7 7 7 7 7 7 7 7 7 7 7 $ $ $ ",
"                            8 0.s $ $ _ q.7 7 7 7 7 7 7 7 7 7 7 7 7 7 7 7 7 7 7 7 7 7 7 7 7 7 7 7 7 7 7 7 7 7 7 7 7 7 7 7 7 7 7 7 7 7 7 7 7 7 7 7 7 7 7 7 7 7 7 7 7 7 7 7 7 7 7 7 7 7 7 7 7 7 7 7 7 7 $ $ $ ",
"                              8 w.e.$ $ e / 7 7 7 7 7 7 7 7 7 7 7 7 7 7 7 7 7 7 7 7 7 7 7 7 7 7 7 7 7 7 7 7 7 7 7 7 7 7 7 7 7 7 7 7 7 7 7 7 7 7 7 7 7 7 7 7 7 7 7 7 7 7 7 7 7 7 7 7 7 7 7 7 7 7 7 7 7 $ $ $ ",
"                                  r.t.$ $ : 0 7 7 7 7 7 7 7 7 7 7 7 7 7 7 7 7 7 7 7 7 7 7 7 7 7 7 7 7 7 7 7 7 7 7 7 7 7 7 7 7 7 7 7 7 7 7 7 7 7 7 7 7 7 7 7 7 7 7 7 7 7 7 7 7 7 7 7 7 7 7 7 7 7 7 7 7 $ $ $ ",
"                                    y.u.$ $ 5 W 7 7 7 7 7 7 7 7 7 7 7 7 7 7 7 7 7 7 7 7 7 7 7 7 7 7 7 7 7 7 7 7 7 7 7 7 7 7 7 7 7 7 7 7 7 7 7 7 7 7 7 7 7 7 7 7 7 7 7 7 7 7 7 7 7 7 7 7 7 7 7 7 7 7 7 $ $ $ ",
"                                    8 i.p.$ $ $ 2 7 7 7 7 7 7 7 7 7 7 7 7 7 7 7 7 7 7 7 7 7 7 7 7 7 7 7 7 7 7 7 7 7 7 7 7 7 7 7 7 7 7 7 7 7 7 7 7 7 7 7 7 7 7 7 7 7 7 7 7 7 7 7 7 7 7 7 7 7 7 7 7 7 7 $ $ $ ",
"                                        a.*.$ $ $ %.7 7 7 7 7 7 7 7 7 7 7 7 7 7 7 7 7 7 7 7 7 7 7 7 7 7 7 7 7 7 7 7 7 7 7 7 7 7 7 7 7 7 7 7 7 7 7 7 7 7 7 7 7 7 7 7 7 7 7 7 7 7 7 7 7 7 7 7 7 7 7 7 7 $ $ $ ",
"                                          V $.$ $ $ J 7 7 7 7 7 7 7 7 7 7 7 7 7 7 7 6 s.[ _ _ _ _ _ _ _ _ _ _ _ _ _ _ _ _ _ _ _ _ _ _ _ _ _ _ _ _ _ _ _ _ _ _ _ _ _ _ _ _ _ _ _ _ _ _ _ _ _ _ _ _ _ _ $ $ d.",
"                                            3.f.$ $ $ J 7 7 7 7 7 7 7 7 7 7 7 7 7 6 Y $ $ $ $ $ $ $ $ $ $ $ $ $ $ $ $ $ $ $ $ $ $ $ $ $ $ $ $ $ $ $ $ $ $ $ $ $ $ $ $ $ $ $ $ $ $ $ $ $ $ $ $ $ $ $ $ $ $ 4.",
"                                              . g.$ $ $ M 7 7 7 7 7 7 7 7 7 7 7 7 s.$ h h.h.h.h.h.h.h.h.h.h.h.h.h.h.h.h.h.h.h.h.h.h.h.h.h.h.h.h.h.h.h.h.h.h.h.h.h.h.h.h.h.h.h.h.h.h.h.h.h.h.h.h.h.h.h.) $.j.",
"                                                k.l.$ $ $ z 7 7 7 7 7 7 7 7 7 7 7 [ $ E #.z.z.z.z.z.z.z.z.z.z.z.z.z.z.z.z.z.z.z.z.z.z.z.z.z.z.z.z.z.z.z.z.z.z.z.z.z.z.z.z.z.z.z.z.z.z.z.z.z.z.z.z.z.z.5.x.  ",
"                                                  c.v.$ $ $ z 7 7 7 7 7 7 7 7 7 7 : $ > ,                                                                                                                   ",
"                                                    x.b.$ $ $ M 7 7 7 7 7 7 7 7 7 : $ > ,                                                                                                                   ",
"                                                      n.m.h $ $ M.7 7 7 7 7 7 7 7 : $ > ,                                                                                                                   ",
"                                                        t N.F $ $ j 7 7 7 7 7 7 7 : $ > ,                                                                                                                   ",
"                                                          & B.) $ $ [ 7 7 7 7 7 7 : $ > ,                                                                                                                   ",
"                                                            & V.e.$ $ i p 7 7 7 7 : $ > ,                                                                                                                   ",
"                                                              8 C.o $ $ e / 7 7 7 : $ > ,                                                                                                                   ",
"                                                                8 Z.,.$ $ : 0 7 7 : $ > ,                                                                                                                   ",
"                                                                    A.o $ $ 5 W 7 : $ > ,                                                                                                                   ",
"                                                                      >.,.$ $ $ 2 : $ > ,                                                                                                                   ",
"                                                                        S.> $ $ $ : $ > ,                                                                                                                   ",
"                                                                          D.@.$ $ $ $ F.n                                                                                                                   ",
"                                                                            G.@.$ $ $ H.q                                                                                                                   ",
"                                                                              J.K.o O D.                                                                                                                    "
};
