/* XPM */
static char *_2325651983d4a9e9589a4421577b89fRbX9zHjuCerab8To[] = {
/* columns rows colors chars-per-pixel */
"102 77 178 2 ",
"   c None",
".  c #A54344",
"X  c #A54344",
"o  c #A54344",
"O  c #A54344",
"+  c #A54344",
"@  c #A54344",
"#  c #A54344",
"$  c #A54344",
"%  c #A54344",
"&  c #A54344",
"*  c #A54344",
"=  c #A54344",
"-  c #A54344",
";  c #A54344",
":  c #AA4646",
">  c #A54344",
",  c #A54344",
"<  c #A54344",
"1  c #A54344",
"2  c #CB5750",
"3  c #A54344",
"4  c #A54344",
"5  c #A74445",
"6  c #CD5851",
"7  c #D65D54",
"8  c #A54344",
"9  c #A54344",
"0  c #A94545",
"q  c #CF5952",
"w  c #A54344",
"e  c #A54344",
"r  c #AB4646",
"t  c #D15A52",
"y  c #A54344",
"u  c #A54344",
"i  c #A54344",
"p  c #AF4847",
"a  c #D55D54",
"s  c #A54344",
"d  c #A54344",
"f  c #B14A48",
"g  c #A54344",
"h  c #A54344",
"j  c None",
"k  c #B44B49",
"l  c #A54344",
"z  c #A54344",
"x  c #C4534E",
"c  c #A54344",
"v  c #A54344",
"b  c #A54344",
"n  c #A54344",
"m  c #A54344",
"M  c #A54344",
"N  c #C5544E",
"B  c #A54344",
"V  c #A54344",
"C  c #A54344",
"Z  c #A54344",
"A  c #A54344",
"S  c #A54344",
"D  c #A54344",
"F  c #C5544F",
"G  c #B94E4B",
"H  c #A54344",
"J  c #A54344",
"K  c #A54344",
"L  c #C6554F",
"P  c #A54344",
"I  c #A54344",
"U  c #A54344",
"Y  c #C8554F",
"T  c #AE4847",
"R  c #A84545",
"E  c #A54344",
"W  c #A54344",
"Q  c #A54344",
"!  c #A64444",
"~  c #CC5851",
"^  c #A54344",
"/  c #A54344",
"(  c #CE5951",
")  c #A54344",
"_  c #A54344",
"`  c #D05A52",
"'  c #A54344",
"]  c #A54344",
"[  c #AC4746",
"{  c #D25B53",
"}  c #A54344",
"|  c #A54344",
" . c #D45C53",
".. c #A54344",
"X. c #B14948",
"o. c #C1524D",
"O. c #A54344",
"+. c #C3534E",
"@. c #A54344",
"#. c #A54344",
"$. c #A54344",
"%. c #A54344",
"&. c #A54344",
"*. c #C6544F",
"=. c #A54344",
"-. c #A54344",
";. c #C7554F",
":. c #A54344",
">. c #A54344",
",. c #CA5750",
"<. c #A54344",
"1. c #A54344",
"2. c #A64344",
"3. c #A54344",
"4. c #CF5A52",
"5. c #A54344",
"6. c #A54344",
"7. c #AC4646",
"8. c #A54344",
"9. c #A54344",
"0. c #A54344",
"q. c #A54344",
"w. c #CA5650",
"e. c #A54344",
"r. c #A54344",
"t. c #C95650",
"y. c #A54344",
"u. c #A54344",
"i. c #A54344",
"p. c #A54344",
"a. c #A54344",
"s. c #A54344",
"d. c #B34B49",
"f. c #A54344",
"g. c #A54344",
"h. c #D55C54",
"j. c #A54344",
"k. c #A54344",
"l. c #A54344",
"z. c #A54344",
"x. c #A54344",
"c. c #A54344",
"v. c #A54344",
"b. c #A54344",
"n. c #A54344",
"m. c #B74D4A",
"M. c #B04947",
"N. c #A54344",
"B. c #A54344",
"V. c #A54344",
"C. c #A54344",
"Z. c #A54344",
"A. c #A54344",
"S. c #A54344",
"D. c #C4544E",
"F. c #A54344",
"G. c #A54344",
"H. c #A54344",
"J. c #A54344",
"K. c #A54344",
"L. c #A54344",
"P. c #A54344",
"I. c #B54B49",
"U. c #A54344",
"Y. c #B34A49",
"T. c #A54344",
"R. c #A54344",
"E. c #A54344",
"W. c #A54344",
"Q. c #A54344",
"!. c #A74444",
"~. c #A54344",
"^. c #A54344",
"/. c #A54344",
"(. c #A54344",
"). c #A54344",
"_. c #A54344",
"`. c #A54344",
/* pixels */
"                                                                              . X o O +                                                                                                                     ",
"                                                                            @ # $ $ $ % &                                                                                                                   ",
"                                                                          * # $ $ $ $ = .                                                                                                                   ",
"                                                                        - ; $ $ $ : $ > ,                                                                                                                   ",
"                                                                      < 1 $ $ $ 2 : $ > ,                                                                                                                   ",
"                                                                    3 4 $ $ 5 6 7 : $ > ,                                                                                                                   ",
"                                                                8 9 1 $ $ 0 q 7 7 : $ > ,                                                                                                                   ",
"                                                              w e 4 $ $ r t 7 7 7 : $ > ,                                                                                                                   ",
"                                                            y u i $ $ p a 7 7 7 7 : $ > ,                                                                                                                   ",
"                                                          & s d $ $ f 7 7 7 7 7 7 : $ > ,                                                                                                                   ",
"                                                        g h j $ $ k 7 7 7 7 7 7 7 : $ > ,                                                                                                                   ",
"                                                      l z j $ $ x 7 7 7 7 7 7 7 7 : $ > ,                                                                                                                   ",
"                                                    c v $ $ $ x 7 7 7 7 7 7 7 7 7 : $ > ,                                                                                                                   ",
"                                                  b n $ $ $ x 7 7 7 7 7 7 7 7 7 7 : $ > ,                                                                                                                   ",
"                                                m M $ $ $ N 7 7 7 7 7 7 7 7 7 7 7 f $ B V C C C C C C C C C C C C C C C C C C C C C C C C C C C C C C C C C C C C C C C C C C C C C C C C C C C C C C Z A   ",
"                                              S D $ $ $ F 7 7 7 7 7 7 7 7 7 7 7 7 G $ $ H H H H H H H H H H H H H H H H H H H H H H H H H H H H H H H H H H H H H H H H H H H H H H H H H H H H H H H J = K ",
"                                            Z # $ $ $ L 7 7 7 7 7 7 7 7 7 7 7 7 7 q 0 $ $ $ $ $ $ $ $ $ $ $ $ $ $ $ $ $ $ $ $ $ $ $ $ $ $ $ $ $ $ $ $ $ $ $ $ $ $ $ $ $ $ $ $ $ $ $ $ $ $ $ $ $ $ $ $ $ $ P ",
"                                          I U $ $ $ Y 7 7 7 7 7 7 7 7 7 7 7 7 7 7 7 q G f T T T T T T T T T T T T T T T T T T T T T T T T T T T T T T T T T T T T T T T T T T T T T T T T T T T T T T R $ H ",
"                                        K E $ $ $ 2 7 7 7 7 7 7 7 7 7 7 7 7 7 7 7 7 7 7 7 7 7 7 7 7 7 7 7 7 7 7 7 7 7 7 7 7 7 7 7 7 7 7 7 7 7 7 7 7 7 7 7 7 7 7 7 7 7 7 7 7 7 7 7 7 7 7 7 7 7 7 7 7 7 $ $ $ ",
"                                    w W Q $ $ ! ~ 7 7 7 7 7 7 7 7 7 7 7 7 7 7 7 7 7 7 7 7 7 7 7 7 7 7 7 7 7 7 7 7 7 7 7 7 7 7 7 7 7 7 7 7 7 7 7 7 7 7 7 7 7 7 7 7 7 7 7 7 7 7 7 7 7 7 7 7 7 7 7 7 7 7 $ $ $ ",
"                                    ^ / $ $ R ( 7 7 7 7 7 7 7 7 7 7 7 7 7 7 7 7 7 7 7 7 7 7 7 7 7 7 7 7 7 7 7 7 7 7 7 7 7 7 7 7 7 7 7 7 7 7 7 7 7 7 7 7 7 7 7 7 7 7 7 7 7 7 7 7 7 7 7 7 7 7 7 7 7 7 7 $ $ $ ",
"                                8 ) _ $ $ : ` 7 7 7 7 7 7 7 7 7 7 7 7 7 7 7 7 7 7 7 7 7 7 7 7 7 7 7 7 7 7 7 7 7 7 7 7 7 7 7 7 7 7 7 7 7 7 7 7 7 7 7 7 7 7 7 7 7 7 7 7 7 7 7 7 7 7 7 7 7 7 7 7 7 7 7 7 $ $ $ ",
"                              8 ' ] $ $ [ { 7 7 7 7 7 7 7 7 7 7 7 7 7 7 7 7 7 7 7 7 7 7 7 7 7 7 7 7 7 7 7 7 7 7 7 7 7 7 7 7 7 7 7 7 7 7 7 7 7 7 7 7 7 7 7 7 7 7 7 7 7 7 7 7 7 7 7 7 7 7 7 7 7 7 7 7 7 $ $ $ ",
"                            & } | $ $ T  .7 7 7 7 7 7 7 7 7 7 7 7 7 7 7 7 7 7 7 7 7 7 7 7 7 7 7 7 7 7 7 7 7 7 7 7 7 7 7 7 7 7 7 7 7 7 7 7 7 7 7 7 7 7 7 7 7 7 7 7 7 7 7 7 7 7 7 7 7 7 7 7 7 7 7 7 7 7 $ $ $ ",
"                          & ..j $ $ X.7 7 7 7 7 7 7 7 7 7 7 7 7 7 7 7 7 7 7 7 7 7 7 7 7 7 7 7 7 7 7 7 7 7 7 7 7 7 7 7 7 7 7 7 7 7 7 7 7 7 7 7 7 7 7 7 7 7 7 7 7 7 7 7 7 7 7 7 7 7 7 7 7 7 7 7 7 7 7 7 $ $ $ ",
"                        g h j $ $ o.7 7 7 7 7 7 7 7 7 7 7 7 7 7 7 7 7 7 7 7 7 7 7 7 7 7 7 7 7 7 7 7 7 7 7 7 7 7 7 7 7 7 7 7 7 7 7 7 7 7 7 7 7 7 7 7 7 7 7 7 7 7 7 7 7 7 7 7 7 7 7 7 7 7 7 7 7 7 7 7 7 $ $ $ ",
"                      l O.$ $ $ +.7 7 7 7 7 7 7 7 7 7 7 7 7 7 7 7 7 7 7 7 7 7 7 7 7 7 7 7 7 7 7 7 7 7 7 7 7 7 7 7 7 7 7 7 7 7 7 7 7 7 7 7 7 7 7 7 7 7 7 7 7 7 7 7 7 7 7 7 7 7 7 7 7 7 7 7 7 7 7 7 7 7 $ $ $ ",
"                    c @.$ $ $ x 7 7 7 7 7 7 7 7 7 7 7 7 7 7 7 7 7 7 7 7 7 7 7 7 7 7 7 7 7 7 7 7 7 7 7 7 7 7 7 7 7 7 7 7 7 7 7 7 7 7 7 7 7 7 7 7 7 7 7 7 7 7 7 7 7 7 7 7 7 7 7 7 7 7 7 7 7 7 7 7 7 7 7 $ $ $ ",
"                  #.$.$ $ $ x 7 7 7 7 7 7 7 7 7 7 7 7 7 7 7 7 7 7 7 7 7 7 7 7 7 7 7 7 7 7 7 7 7 7 7 7 7 7 7 7 7 7 7 7 7 7 7 7 7 7 7 7 7 7 7 7 7 7 7 7 7 7 7 7 7 7 7 7 7 7 7 7 7 7 7 7 7 7 7 7 7 7 7 7 $ $ $ ",
"                %.M $ $ $ N 7 7 7 7 7 7 7 7 7 7 7 7 7 7 7 7 7 7 7 7 7 7 7 7 7 7 7 7 7 7 7 7 7 7 7 7 7 7 7 7 7 7 7 7 7 7 7 7 7 7 7 7 7 7 7 7 7 7 7 7 7 7 7 7 7 7 7 7 7 7 7 7 7 7 7 7 7 7 7 7 7 7 7 7 7 $ $ $ ",
"              &.D $ $ $ *.7 7 7 7 7 7 7 7 7 7 7 7 7 7 7 7 7 7 7 7 7 7 7 7 7 7 7 7 7 7 7 7 7 7 7 7 7 7 7 7 7 7 7 7 7 7 7 7 7 7 7 7 7 7 7 7 7 7 7 7 7 7 7 7 7 7 7 7 7 7 7 7 7 7 7 7 7 7 7 7 7 7 7 7 7 7 $ $ $ ",
"            =.-.$ $ $ ;.7 7 7 7 7 7 7 7 7 7 7 7 7 7 7 7 7 7 7 7 7 7 7 7 7 7 7 7 7 7 7 7 7 7 7 7 7 7 7 7 7 7 7 7 7 7 7 7 7 7 7 7 7 7 7 7 7 7 7 7 7 7 7 7 7 7 7 7 7 7 7 7 7 7 7 7 7 7 7 7 7 7 7 7 7 7 7 $ $ $ ",
"          :.>.$ $ $ ,.7 7 7 7 7 7 7 7 7 7 7 7 7 7 7 7 7 7 7 7 7 7 7 7 7 7 7 7 7 7 7 7 7 7 7 7 7 7 7 7 7 7 7 7 7 7 7 7 7 7 7 7 7 7 7 7 7 7 7 7 7 7 7 7 7 7 7 7 7 7 7 7 7 7 7 7 7 7 7 7 7 7 7 7 7 7 7 7 $ $ $ ",
"        <.1.$ $ 2.~ 7 7 7 7 7 7 7 7 7 7 7 7 7 7 7 7 7 7 7 7 7 7 7 7 7 7 7 7 7 7 7 7 7 7 7 7 7 7 7 7 7 7 7 7 7 7 7 7 7 7 7 7 7 7 7 7 7 7 7 7 7 7 7 7 7 7 7 7 7 7 7 7 7 7 7 7 7 7 7 7 7 7 7 7 7 7 7 7 7 $ $ $ ",
"      ^ 1 $ $ 5 6 7 7 7 7 7 7 7 7 7 7 7 7 7 7 7 7 7 7 7 7 7 7 7 7 7 7 7 7 7 7 7 7 7 7 7 7 7 7 7 7 7 7 7 7 7 7 7 7 7 7 7 7 7 7 7 7 7 7 7 7 7 7 7 7 7 7 7 7 7 7 7 7 7 7 7 7 7 7 7 7 7 7 7 7 7 7 7 7 7 7 $ $ $ ",
"    3.4 $ $ 0 4.7 7 7 7 7 7 7 7 7 7 7 7 7 7 7 7 7 7 7 7 7 7 7 7 7 7 7 7 7 7 7 7 7 7 7 7 7 7 7 7 7 7 7 7 7 7 7 7 7 7 7 7 7 7 7 7 7 7 7 7 7 7 7 7 7 7 7 7 7 7 7 7 7 7 7 7 7 7 7 7 7 7 7 7 7 7 7 7 7 7 7 $ $ $ ",
"  5.6.$ $ [ { 7 7 7 7 7 7 7 7 7 7 7 7 7 7 7 7 7 7 7 7 7 7 7 7 7 7 7 7 7 7 7 7 7 7 7 7 7 7 7 7 7 7 7 7 7 7 7 7 7 7 7 7 7 7 7 7 7 7 7 7 7 7 7 7 7 7 7 7 7 7 7 7 7 7 7 7 7 7 7 7 7 7 7 7 7 7 7 7 7 7 7 7 $ $ $ ",
", 4 $ $ 7.{ 7 7 7 7 7 7 7 7 7 7 7 7 7 7 7 7 7 7 7 7 7 7 7 7 7 7 7 7 7 7 7 7 7 7 7 7 7 7 7 7 7 7 7 7 7 7 7 7 7 7 7 7 7 7 7 7 7 7 7 7 7 7 7 7 7 7 7 7 7 7 7 7 7 7 7 7 7 7 7 7 7 7 7 7 7 7 7 7 7 7 7 7 7 $ $ $ ",
"K $ $ : ` 7 7 7 7 7 7 7 7 7 7 7 7 7 7 7 7 7 7 7 7 7 7 7 7 7 7 7 7 7 7 7 7 7 7 7 7 7 7 7 7 7 7 7 7 7 7 7 7 7 7 7 7 7 7 7 7 7 7 7 7 7 7 7 7 7 7 7 7 7 7 7 7 7 7 7 7 7 7 7 7 7 7 7 7 7 7 7 7 7 7 7 7 7 7 $ $ $ ",
"8.B $ $ 0 q 7 7 7 7 7 7 7 7 7 7 7 7 7 7 7 7 7 7 7 7 7 7 7 7 7 7 7 7 7 7 7 7 7 7 7 7 7 7 7 7 7 7 7 7 7 7 7 7 7 7 7 7 7 7 7 7 7 7 7 7 7 7 7 7 7 7 7 7 7 7 7 7 7 7 7 7 7 7 7 7 7 7 7 7 7 7 7 7 7 7 7 7 7 $ $ $ ",
"  W o $ $ 0 q 7 7 7 7 7 7 7 7 7 7 7 7 7 7 7 7 7 7 7 7 7 7 7 7 7 7 7 7 7 7 7 7 7 7 7 7 7 7 7 7 7 7 7 7 7 7 7 7 7 7 7 7 7 7 7 7 7 7 7 7 7 7 7 7 7 7 7 7 7 7 7 7 7 7 7 7 7 7 7 7 7 7 7 7 7 7 7 7 7 7 7 7 $ $ $ ",
"    9.0.$ $ 5 6 7 7 7 7 7 7 7 7 7 7 7 7 7 7 7 7 7 7 7 7 7 7 7 7 7 7 7 7 7 7 7 7 7 7 7 7 7 7 7 7 7 7 7 7 7 7 7 7 7 7 7 7 7 7 7 7 7 7 7 7 7 7 7 7 7 7 7 7 7 7 7 7 7 7 7 7 7 7 7 7 7 7 7 7 7 7 7 7 7 7 7 $ $ $ ",
"      9.> $ $ $ 2 7 7 7 7 7 7 7 7 7 7 7 7 7 7 7 7 7 7 7 7 7 7 7 7 7 7 7 7 7 7 7 7 7 7 7 7 7 7 7 7 7 7 7 7 7 7 7 7 7 7 7 7 7 7 7 7 7 7 7 7 7 7 7 7 7 7 7 7 7 7 7 7 7 7 7 7 7 7 7 7 7 7 7 7 7 7 7 7 7 7 $ $ $ ",
"        - q.$ $ $ w.7 7 7 7 7 7 7 7 7 7 7 7 7 7 7 7 7 7 7 7 7 7 7 7 7 7 7 7 7 7 7 7 7 7 7 7 7 7 7 7 7 7 7 7 7 7 7 7 7 7 7 7 7 7 7 7 7 7 7 7 7 7 7 7 7 7 7 7 7 7 7 7 7 7 7 7 7 7 7 7 7 7 7 7 7 7 7 7 7 $ $ $ ",
"          e.r.$ $ $ t.7 7 7 7 7 7 7 7 7 7 7 7 7 7 7 7 7 7 7 7 7 7 7 7 7 7 7 7 7 7 7 7 7 7 7 7 7 7 7 7 7 7 7 7 7 7 7 7 7 7 7 7 7 7 7 7 7 7 7 7 7 7 7 7 7 7 7 7 7 7 7 7 7 7 7 7 7 7 7 7 7 7 7 7 7 7 7 7 $ $ $ ",
"            y.u.$ $ $ *.7 7 7 7 7 7 7 7 7 7 7 7 7 7 7 7 7 7 7 7 7 7 7 7 7 7 7 7 7 7 7 7 7 7 7 7 7 7 7 7 7 7 7 7 7 7 7 7 7 7 7 7 7 7 7 7 7 7 7 7 7 7 7 7 7 7 7 7 7 7 7 7 7 7 7 7 7 7 7 7 7 7 7 7 7 7 7 $ $ $ ",
"              i.p.$ $ $ N 7 7 7 7 7 7 7 7 7 7 7 7 7 7 7 7 7 7 7 7 7 7 7 7 7 7 7 7 7 7 7 7 7 7 7 7 7 7 7 7 7 7 7 7 7 7 7 7 7 7 7 7 7 7 7 7 7 7 7 7 7 7 7 7 7 7 7 7 7 7 7 7 7 7 7 7 7 7 7 7 7 7 7 7 7 7 $ $ $ ",
"                #.$.$ $ $ x 7 7 7 7 7 7 7 7 7 7 7 7 7 7 7 7 7 7 7 7 7 7 7 7 7 7 7 7 7 7 7 7 7 7 7 7 7 7 7 7 7 7 7 7 7 7 7 7 7 7 7 7 7 7 7 7 7 7 7 7 7 7 7 7 7 7 7 7 7 7 7 7 7 7 7 7 7 7 7 7 7 7 7 7 7 $ $ $ ",
"                  c v $ $ $ x 7 7 7 7 7 7 7 7 7 7 7 7 7 7 7 7 7 7 7 7 7 7 7 7 7 7 7 7 7 7 7 7 7 7 7 7 7 7 7 7 7 7 7 7 7 7 7 7 7 7 7 7 7 7 7 7 7 7 7 7 7 7 7 7 7 7 7 7 7 7 7 7 7 7 7 7 7 7 7 7 7 7 7 7 $ $ $ ",
"                    l a.$ $ $ x 7 7 7 7 7 7 7 7 7 7 7 7 7 7 7 7 7 7 7 7 7 7 7 7 7 7 7 7 7 7 7 7 7 7 7 7 7 7 7 7 7 7 7 7 7 7 7 7 7 7 7 7 7 7 7 7 7 7 7 7 7 7 7 7 7 7 7 7 7 7 7 7 7 7 7 7 7 7 7 7 7 7 7 $ $ $ ",
"                      g s.j $ $ d.7 7 7 7 7 7 7 7 7 7 7 7 7 7 7 7 7 7 7 7 7 7 7 7 7 7 7 7 7 7 7 7 7 7 7 7 7 7 7 7 7 7 7 7 7 7 7 7 7 7 7 7 7 7 7 7 7 7 7 7 7 7 7 7 7 7 7 7 7 7 7 7 7 7 7 7 7 7 7 7 7 7 $ $ $ ",
"                        & f.j $ $ d.7 7 7 7 7 7 7 7 7 7 7 7 7 7 7 7 7 7 7 7 7 7 7 7 7 7 7 7 7 7 7 7 7 7 7 7 7 7 7 7 7 7 7 7 7 7 7 7 7 7 7 7 7 7 7 7 7 7 7 7 7 7 7 7 7 7 7 7 7 7 7 7 7 7 7 7 7 7 7 7 7 $ $ $ ",
"                          w g.J $ $ p h.7 7 7 7 7 7 7 7 7 7 7 7 7 7 7 7 7 7 7 7 7 7 7 7 7 7 7 7 7 7 7 7 7 7 7 7 7 7 7 7 7 7 7 7 7 7 7 7 7 7 7 7 7 7 7 7 7 7 7 7 7 7 7 7 7 7 7 7 7 7 7 7 7 7 7 7 7 7 7 $ $ $ ",
"                            8 g.d $ $ [ { 7 7 7 7 7 7 7 7 7 7 7 7 7 7 7 7 7 7 7 7 7 7 7 7 7 7 7 7 7 7 7 7 7 7 7 7 7 7 7 7 7 7 7 7 7 7 7 7 7 7 7 7 7 7 7 7 7 7 7 7 7 7 7 7 7 7 7 7 7 7 7 7 7 7 7 7 7 7 $ $ $ ",
"                              8 j.k.$ $ : ` 7 7 7 7 7 7 7 7 7 7 7 7 7 7 7 7 7 7 7 7 7 7 7 7 7 7 7 7 7 7 7 7 7 7 7 7 7 7 7 7 7 7 7 7 7 7 7 7 7 7 7 7 7 7 7 7 7 7 7 7 7 7 7 7 7 7 7 7 7 7 7 7 7 7 7 7 7 $ $ $ ",
"                                  l.z.$ $ 0 q 7 7 7 7 7 7 7 7 7 7 7 7 7 7 7 7 7 7 7 7 7 7 7 7 7 7 7 7 7 7 7 7 7 7 7 7 7 7 7 7 7 7 7 7 7 7 7 7 7 7 7 7 7 7 7 7 7 7 7 7 7 7 7 7 7 7 7 7 7 7 7 7 7 7 7 7 $ $ $ ",
"                                    x.c.$ $ 5 6 7 7 7 7 7 7 7 7 7 7 7 7 7 7 7 7 7 7 7 7 7 7 7 7 7 7 7 7 7 7 7 7 7 7 7 7 7 7 7 7 7 7 7 7 7 7 7 7 7 7 7 7 7 7 7 7 7 7 7 7 7 7 7 7 7 7 7 7 7 7 7 7 7 7 7 $ $ $ ",
"                                    8 v.b.$ $ $ 2 7 7 7 7 7 7 7 7 7 7 7 7 7 7 7 7 7 7 7 7 7 7 7 7 7 7 7 7 7 7 7 7 7 7 7 7 7 7 7 7 7 7 7 7 7 7 7 7 7 7 7 7 7 7 7 7 7 7 7 7 7 7 7 7 7 7 7 7 7 7 7 7 7 7 $ $ $ ",
"                                        n.1.$ $ $ w.7 7 7 7 7 7 7 7 7 7 7 7 7 7 7 7 7 7 7 7 7 7 7 7 7 7 7 7 7 7 7 7 7 7 7 7 7 7 7 7 7 7 7 7 7 7 7 7 7 7 7 7 7 7 7 7 7 7 7 7 7 7 7 7 7 7 7 7 7 7 7 7 7 $ $ $ ",
"                                          C >.$ $ $ ;.7 7 7 7 7 7 7 7 7 7 7 7 7 7 7 6 m.M.7.7.7.7.7.7.7.7.7.7.7.7.7.7.7.7.7.7.7.7.7.7.7.7.7.7.7.7.7.7.7.7.7.7.7.7.7.7.7.7.7.7.7.7.7.7.7.7.7.7.7.7.7.7.2.$ N.",
"                                            y.B.$ $ $ *.7 7 7 7 7 7 7 7 7 7 7 7 7 6 5 $ $ $ $ $ $ $ $ $ $ $ $ $ $ $ $ $ $ $ $ $ $ $ $ $ $ $ $ $ $ $ $ $ $ $ $ $ $ $ $ $ $ $ $ $ $ $ $ $ $ $ $ $ $ $ $ $ $ u.",
"                                              . V.$ $ $ N 7 7 7 7 7 7 7 7 7 7 7 7 m.$ j C.C.C.C.C.C.C.C.C.C.C.C.C.C.C.C.C.C.C.C.C.C.C.C.C.C.C.C.C.C.C.C.C.C.C.C.C.C.C.C.C.C.C.C.C.C.C.C.C.C.C.C.C.C.C.] >.Z.",
"                                                A.S.$ $ $ D.7 7 7 7 7 7 7 7 7 7 7 M.$ Q :.F.F.F.F.F.F.F.F.F.F.F.F.F.F.F.F.F.F.F.F.F.F.F.F.F.F.F.F.F.F.F.F.F.F.F.F.F.F.F.F.F.F.F.F.F.F.F.F.F.F.F.F.F.F.i.G.  ",
"                                                  H.J.$ $ $ x 7 7 7 7 7 7 7 7 7 7 : $ > ,                                                                                                                   ",
"                                                    G.K.$ $ $ N 7 7 7 7 7 7 7 7 7 : $ > ,                                                                                                                   ",
"                                                      L.P.j $ $ I.7 7 7 7 7 7 7 7 : $ > ,                                                                                                                   ",
"                                                        y U.H $ $ Y.7 7 7 7 7 7 7 : $ > ,                                                                                                                   ",
"                                                          & T.] $ $ X.7 7 7 7 7 7 : $ > ,                                                                                                                   ",
"                                                            & R.k.$ $ p h.7 7 7 7 : $ > ,                                                                                                                   ",
"                                                              8 E.o $ $ r t 7 7 7 : $ > ,                                                                                                                   ",
"                                                                8 W.0.$ $ 0 q 7 7 : $ > ,                                                                                                                   ",
"                                                                    Q.o $ $ !.6 7 : $ > ,                                                                                                                   ",
"                                                                      9.0.$ $ $ 2 : $ > ,                                                                                                                   ",
"                                                                        ~.> $ $ $ : $ > ,                                                                                                                   ",
"                                                                          ^.-.$ $ $ $ /.m                                                                                                                   ",
"                                                                            (.-.$ $ $ ).w                                                                                                                   ",
"                                                                              _.`.o O ^.                                                                                                                    "
};
