/* XPM */
static char *result[] = {
/* columns rows colors chars-per-pixel */
"242 73 37 1 ",
"  c gainsboro",
". c #DDDDDD",
"X c gray87",
"o c #DFDFDF",
"O c gray88",
"+ c #E1E1E1",
"@ c #E2E2E2",
"# c gray89",
"$ c #E4E4E4",
"% c gray90",
"& c #E6E6E6",
"* c #E7E7E7",
"= c gray91",
"- c #E9E9E9",
"; c #EAEAEA",
": c gray92",
"> c #ECECEC",
", c gray93",
"< c #EEEEEE",
"1 c #EFEFEF",
"2 c gray94",
"3 c #F1F1F1",
"4 c gray95",
"5 c #F3F3F3",
"6 c #F4F4F4",
"7 c gray96",
"8 c #F6F6F6",
"9 c gray97",
"0 c #F8F8F8",
"q c #F9F9F9",
"w c gray98",
"e c #FBFBFB",
"r c gray99",
"t c #FDFDFD",
"y c #FEFEFE",
"u c white",
"i c None",
/* pixels */
"ii                                       iiiiiiiiiiiiiiiiiiiiiii                          iiiiiiiiiiiiiiiiiiiiiiiiiiiiiiiiiiiiiiiii                                iiiiiii                          iiiiiiiiiiiiiiiii                           ii",
"i                                            iiiiiiiiiiiiiiiiii                            iiiiiiiiiiiiiiiiiiiiiiiiiiiiiiiiiiiiiii                                  iiiii                            iiiiiiiiiiiiiii                             i",
"  o%%%%%%%%%%%%%%%%%%%%%%%%%%%%%$#+Oo.          iiiiiiiiiiiiii  o%%%%%%%%%%%%%%%%%%%%%%%%   iiiiiiiiiiiiiiiiiiiiiiiiiiiiiiiiiiiii  X%%%%%%%%%%%%%%%%%%%%%%%%%%%%%#   iii  @%%%%%%%%%%%%%%%%%%%%%%%$   iiiiiiiiiiiii   O%%%%%%%%%%%%%%%%%%%%%%%%   ",
"  =uuuuuuuuuuuuuuuuuuuuuuuuuuuuuuuuuuuy92=+        iiiiiiiiiii  =uuuuuuuuuuuuuuuuuuuuuuuuX  iiiiiiiiiiiiiiiiiiiiiiiiiiiiiiiiiiii   >uuuuuuuuuuuuuuuuuuuuuuuuuuuuut   iii  *uuuuuuuuuuuuuuuuuuuuuuuu+  iiiiiiiiiiiii   7uuuuuuuuuuuuuuuuuuuuuuu8   ",
"  =uuuuuuuuuuuuuuuuuuuuuuuuuuuuuuuuuuuuuuuue4&      iiiiiiiiii  =uuuuuuuuuuuuuuuuuuuuuuuuX  iiiiiiiiiiiiiiiiiiiiiiiiiiiiiiiiiiii   8uuuuuuuuuuuuuuuuuuuuuuuuuuuuuu%  iii   8uuuuuuuuuuuuuuuuuuuuuuu4   iiiiiiiiiiii  +uuuuuuuuuuuuuuuuuuuuuuuu#   ",
"  =uuuuuuuuuuuuuuuuuuuuuuuuuuuuuuuuuuuuuuuuuuue1#     iiiiiiii  =uuuuuuuuuuuuuuuuuuuuuuuuX  iiiiiiiiiiiiiiiiiiiiiiiiiiiiiiiiiiii  Xyuuuuuuuuuuuuuuuuuuuuuuuuuuuuuu2   ii   #uuuuuuuuuuuuuuuuuuuuuuuto  iiiiiiiiiii   3uuuuuuuuuuuuuuuuuuuuuuu4   i",
"  =uuuuuuuuuuuuuuuuuuuuuuuuuuuuuuuuuuuuuuuuuuuuuu8O    iiiiiii  =uuuuuuuuuuuuuuuuuuuuuuuuX  iiiiiiiiiiiiiiiiiiiiiiiiiiiiiiiiiii   -uuuuuuuuuuuuuuuuuuuuuuuuuuuuuuuw   iii   4uuuuuuuuuuuuuuuuuuuuuuu<   iiiiiiiiii  otuuuuuuuuuuuuuuuuuuuuuuyO  ii",
"  =uuuuuuuuuuuuuuuuuuuuuuuuuuuuuuuuuuuuuuuuuuuuuuut,.   iiiiii  =uuuuuuuuuuuuuuuuuuuuuuuuX  iiiiiiiiiiiiiiiiiiiiiiiiiiiiiiiiiii   5uuuuuuuuuuuuuuuuuuuuuuuuuuuuuuuu@  iiii  otuuuuuuuuuuuuuuuuuuuuuur.  iiiiiiiii   <uuuuuuuuuuuuuuuuuuuuuuu1   ii",
"  =uuuuuuuuuuuuuuuuuuuuuuuuuuuuuuuuuuuuuuuuuuuuuuuuu9X   iiiii  =uuuuuuuuuuuuuuuuuuuuuuuuX  iiiiiiiiiiiiiiiiiiiiiiiiiiiiiiiiiii  .tuuuuuuuuuuuuuuuuuuuuuuuuuuuuuuuu>   iii   1uuuuuuuuuuuuuuuuuuuuuuu:   iiiiiiii  .ruuuuuuuuuuuuuuuuuuuuuurX  iii",
"  =uuuuuuuuuuuuuuuuuuuuuuuuuuuuuuuuuuuuuuuuuuuuuuuuuu0X   iiii  =uuuuuuuuuuuuuuuuuuuuuuuuX  iiiiiiiiiiiiiiiiiiiiiiiiiiiiiiiiiii  &uuuuuuuuuuuuuuuuuuuuuuuuuuuuuuuuu9   iiii  Xruuuuuuuuuuuuuuuuuuuuuuw   iiiiiii   ;uuuuuuuuuuuuuuuuuuuuuuu:   iii",
"  =uuuuuuuuuuuuuuuuuuuuuuuuuuuuuuuuuuuuuuuuuuuuuuuuuuu0o   iii  =uuuuuuuuuuuuuuuuuuuuuuuuX  iiiiiiiiiiiiiiiiiiiiiiiiiiiiiiiiii   2uuuuuuuuuuuuuuuuuuuuuuuuuuuuuuuuuuo  iiii   :uuuuuuuuuuuuuuuuuuuuuuu*   iiiiii   wuuuuuuuuuuuuuuuuuuuuuuw   iiii",
"  =uuuuuuuuuuuuuuuuuuuuuuuuuuuuuuuuuuuuuuuuuuuuuuuuuuuuqo   ii  =uuuuuuuuuuuuuuuuuuuuuuuuX  iiiiiiiiiiiiiiiiiiiiiiiiiiiiiiiiii   euuuuuuuuuuuuuuuuuuuuuuuuuuuuuuuuuu;   iiii   quuuuuuuuuuuuuuuuuuuuuu9   iiiii   *uuuuuuuuuuuuuuuuuuuuuuu*   iiii",
"  =uuuuuuuuuuuuuuuuuuuuuuuuuuuuuuuuuuuuuuuuuuuuuuuuuuuuu6   ii  =uuuuuuuuuuuuuuuuuuuuuuuuX  iiiiiiiiiiiiiiiiiiiiiiiiiiiiiiiiii  #uuuuuuuuuuuuuuuuuuuuuuuuuuuuuuuuuuu7   iiii   *uuuuuuuuuuuuuuuuuuuuuuu#   iiii   9uuuuuuuuuuuuuuuuuuuuuu8   iiiii",
"  =uuuuuuuuuuuuuuuuuuuuuuuuuuuuuuuuuuuuuuuuuuuuuuuuuuuuuu#   i  =uuuuuuuuuuuuuuuuuuuuuuuuX  iiiiiiiiiiiiiiiiiiiiiiiiiiiiiiiii   ,uuuuuuuuuuuuuuuuuuuuuuuuuuuuuuuuuuut.  iiiii   8uuuuuuuuuuuuuuuuuuuuuu5   iii   #uuuuuuuuuuuuuuuuuuuuuuu#   iiiii",
"  =uuuuuuuuuuuuuuuuuuuuuuuuuuuuuuuuuuuuuuuuuuuuuuuuuuuuuu6   i  =uuuuuuuuuuuuuuuuuuuuuuuuX  iiiiiiiiiiiiiiiiiiiiiiiiiiiiiiiii   0uuuuuuuuuuuuuuuuuuuuuuuuuuuuuuuuuuuu*  iiiii   #uuuuuuuuuuuuuuuuuuuuuuuo  iii   5uuuuuuuuuuuuuuuuuuuuuu4   iiiiii",
"  =uuuuuuuuuuuuuuuuuuuuuuuuuuuuuuuuuuuuuuuuuuuuuuuuuuuuuuuo  i  =uuuuuuuuuuuuuuuuuuuuuuuuX  iiiiiiiiiiiiiiiiiiiiiiiiiiiiiiiii  ouuuuuuuuuuuuuuuuuuuuuuuuuuuuuuuuuuuuu4   iiiii   4uuuuuuuuuuuuuuuuuuuuuu2   ii  ouuuuuuuuuuuuuuuuuuuuuuto  iiiiiii",
"  =uuuuuuuuuuuuuuuuuuuuuuuuuuuuuuuuuuuuuuuuuuuuuuuuuuuuuuu;     =uuuuuuuuuuuuuuuuuuuuuuuuX  iiiiiiiiiiiiiiiiiiiiiiiiiiiiiiii   :uuuuuuuuuuuuuuuuuuuuuuuuuuuuuuuuuuuuut   iiiiii  otuuuuuuuuuuuuuuuuuuuuutX  i   2uuuuuuuuuuuuuuuuuuuuuu1   iiiiiii",
"  =uuuuuuuuuuuuuuuuuuuuuuuuuuuuuuuuuuuuuuuuuuuuuuuuuuuuuuu7     =uuuuuuuuuuuuuuuuuuuuuuuuX  iiiiiiiiiiiiiiiiiiiiiiiiiiiiiiii   7uuuuuuuuuuuuuuuuuuuuuuuuuuuuuuuuuuuuuu%  iiiiii   <uuuuuuuuuuuuuuuuuuuuuu>     XtuuuuuuuuuuuuuuuuuuuuurX  iiiiiiii",
"  =uuuuuuuuuuuuuuuuuuuuuuuuuuuuuuuuuuuuuuuuuuuuuuuuuuuuuuuy.    =uuuuuuuuuuuuuuuuuuuuuuuuX  iiiiiiiiiiiiiiiiiiiiiiiiiiiiiiii  Xyuuuuuuuuuuuuuuuuuuuuuuuuuuuuuuuuuuuuuu1   iiiiii  .ruuuuuuuuuuuuuuuuuuuuuw     >uuuuuuuuuuuuuuuuuuuuuu:   iiiiiiii",
"  =uuuuuuuuuuuuuuuuuuuuuuuuuuuuuuuuuuuuuuuuuuuuuuuuuuuuuuuu=    =uuuuuuuuuuuuuuuuuuuuuuuuX  iiiiiiiiiiiiiiiiiiiiiiiiiiiiiiii  =uuuuuuuuuuuuuuuuuuuuuuuuuuuuuuuuuuuuuuuw   iiiiii   ;uuuuuuuuuuuuuuuuuuuuuu=    euuuuuuuuuuuuuuuuuuuuuq   iiiiiiiii",
"  =uuuuuuuuuuuuuuuuuuuuuuu:  O&:0uuuuuuuuuuuuuuuuuuuuuuuuuu1    =uuuuuuuuuuuuuuuuuuuuuuuuX  iiiiiiiiiiiiiiiiiiiiiiiiiiiiiii   5uuuuuuuuuuuuuuuuuuuuuuuuuuuuuuuuuuuuuuuu@  iiiiiii   quuuuuuuuuuuuuuuuuuuuu0   =uuuuuuuuuuuuuuuuuuuuuu*   iiiiiiiii",
"  =uuuuuuuuuuuuuuuuuuuuuuu:      %euuuuuuuuuuuuuuuuuuuuuuuu3    =uuuuuuuuuuuuuuuuuuuuuuuuX  iiiiiiiiiiiiiiiiiiiiiiiiiiiiiii   tuuuuuuuuuuuuuuuuuuuquuuuuuuuuuuuuuuuuuuu>   iiiiii   &uuuuuuuuuuuuuuuuuuuuuu%  0uuuuuuuuuuuuuuuuuuuuu8   iiiiiiiiii",
"  =uuuuuuuuuuuuuuuuuuuuuuu>       *uuuuuuuuuuuuuuuuuuuuuuuu6    =uuuuuuuuuuuuuuuuuuuuuuuuX  iiiiiiiiiiiiiiiiiiiiiiiiiiiiiii  %uuuuuuuuuuuuuuuuuuuu>tuuuuuuuuuuuuuuuuuuu8   iiiiiii   8uuuuuuuuuuuuuuuuuuuuu6 %uuuuuuuuuuuuuuuuuuuuuu@   iiiiiiiiii",
"  =uuuuuuuuuuuuuuuuuuuuuuu:  ii    8uuuuuuuuuuuuuuuuuuuuuuu0    =uuuuuuuuuuuuuuuuuuuuuuuuX  iiiiiiiiiiiiiiiiiiiiiiiiiiiiii   2uuuuuuuuuuuuuuuuuuuu$8uuuuuuuuuuuuuuuuuuuyX  iiiiiii   @uuuuuuuuuuuuuuuuuuuuuu+7uuuuuuuuuuuuuuuuuuuuu4   iiiiiiiiiii",
"  =uuuuuuuuuuuuuuuuuuuuuuu>  iii   <uuuuuuuuuuuuuuuuuuuuuuuw    =uuuuuuuuuuuuuuuuuuuuuuuuX  iiiiiiiiiiiiiiiiiiiiiiiiiiiiii   euuuuuuuuuuuuuuuuuuuu.<uuuuuuuuuuuuuuuuuuuu;   iiiiiii   3uuuuuuuuuuuuuuuuuuuuu8uuuuuuuuuuuuuuuuuuuuutO  iiiiiiiiiiii",
"  =uuuuuuuuuuuuuuuuuuuuuuu:  iiii  *uuuuuuuuuuuuuuuuuuuuuuut    =uuuuuuuuuuuuuuuuuuuuuuuuX  iiiiiiiiiiiiiiiiiiiiiiiiiiiiii  @uuuuuuuuuuuuuuuuuuuu0 &uuuuuuuuuuuuuuuuuuuu6   iiiiiiii  otuuuuuuuuuuuuuuuuuuuuuuuuuuuuuuuuuuuuuuuuuu<   iiiiiiiiiiii",
"  =uuuuuuuuuuuuuuuuuuuuuuu>  iiii  *uuuuuuuuuuuuuuuuuuuuuuuw    =uuuuuuuuuuuuuuuuuuuuuuuuX  iiiiiiiiiiiiiiiiiiiiiiiiiiiii   ,uuuuuuuuuuuuuuuuuuuu2 Xuuuuuuuuuuuuuuuuuuuut.  iiiiiiii   ,uuuuuuuuuuuuuuuuuuuuuuuuuuuuuuuuuuuuuuuuue.  iiiiiiiiiiiii",
"  =uuuuuuuuuuuuuuuuuuuuuuu>  iiii  >uuuuuuuuuuuuuuuuuuuuuuu0    =uuuuuuuuuuuuuuuuuuuuuuuuX  iiiiiiiiiiiiiiiiiiiiiiiiiiiii   9uuuuuuuuuuuuuuuuuuuu=  quuuuuuuuuuuuuuuuuuuu*  iiiiiiiii  .euuuuuuuuuuuuuuuuuuuuuuuuuuuuuuuuuuuuuuuu;   iiiiiiiiiiiii",
"  =uuuuuuuuuuuuuuuuuuuuuuu>  iii   3uuuuuuuuuuuuuuuuuuuuuuu6    =uuuuuuuuuuuuuuuuuuuuuuuuX  iiiiiiiiiiiiiiiiiiiiiiiiiiiii  ouuuuuuuuuuuuuuuuuuuuu+  3uuuuuuuuuuuuuuuuuuuu3   iiiiiiii   ;uuuuuuuuuuuuuuuuuuuuuuuuuuuuuuuuuuuuuuuq   iiiiiiiiiiiiii",
"  =uuuuuuuuuuuuuuuuuuuuuuu>  i    otuuuuuuuuuuuuuuuuuuuuuuu3    =uuuuuuuuuuuuuuuuuuuuuuuuX  iiiiiiiiiiiiiiiiiiiiiiiiiiii   ;uuuuuuuuuuuuuuuuuuuue   ;uuuuuuuuuuuuuuuuuuuue   iiiiiiiii   quuuuuuuuuuuuuuuuuuuuuuuuuuuuuuuuuuuuuu&   iiiiiiiiiiiiii",
"  =uuuuuuuuuuuuuuuuuuuuuuu:       7uuuuuuuuuuuuuuuuuuuuuuuu<    =uuuuuuuuuuuuuuuuuuuuuuuuX  iiiiiiiiiiiiiiiiiiiiiiiiiiii   6uuuuuuuuuuuuuuuuuuuu6   @uuuuuuuuuuuuuuuuuuuuu$  iiiiiiiii   &uuuuuuuuuuuuuuuuuuuuuuuuuuuuuuuuuuuuu8   iiiiiiiiiiiiiii",
"  =uuuuuuuuuuuuuuuuuuuuuuu>     %quuuuuuuuuuuuuuuuuuuuuuuuu=    =uuuuuuuuuuuuuuuuuuuuuuuuX  iiiiiiiiiiiiiiiiiiiiiiiiiiii  .tuuuuuuuuuuuuuuuuuuuu>    ruuuuuuuuuuuuuuuuuuuu<   iiiiiiiii   8uuuuuuuuuuuuuuuuuuuuuuuuuuuuuuuuuuuu@   iiiiiiiiiiiiiii",
"  =uuuuuuuuuuuuuuuuuuuuuuu2%%;4wuuuuuuuuuuuuuuuuuuuuuuuuuuuX    =uuuuuuuuuuuuuuuuuuuuuuuuX  iiiiiiiiiiiiiiiiiiiiiiiiiiii  *uuuuuuuuuuuuuuuuuuuuu%    6uuuuuuuuuuuuuuuuuuuuw   iiiiiiiii   @uuuuuuuuuuuuuuuuuuuuuuuuuuuuuuuuuuu3   iiiiiiiiiiiiiiii",
"  =uuuuuuuuuuuuuuuuuuuuuuuuuuuuuuuuuuuuuuuuuuuuuuuuuuuuuuu8     =uuuuuuuuuuuuuuuuuuuuuuuuX  iiiiiiiiiiiiiiiiiiiiiiiiiii   4uuuuuuuuuuuuuuuuuuuuu.    >uuuuuuuuuuuuuuuuuuuuu+  iiiiiiiiii   3uuuuuuuuuuuuuuuuuuuuuuuuuuuuuuuuuto  iiiiiiiiiiiiiiiii",
"  =uuuuuuuuuuuuuuuuuuuuuuuuuuuuuuuuuuuuuuuuuuuuuuuuuuuuuuu:     =uuuuuuuuuuuuuuuuuuuuuuuuX  iiiiiiiiiiiiiiiiiiiiiiiiiii   euuuuuuuuuuuuuuuuuuuu0     %uuuuuuuuuuuuuuuuuuuuu>   iiiiiiiiii  otuuuuuuuuuuuuuuuuuuuuuuuuuuuuuuuu<   iiiiiiiiiiiiiiiii",
"  =uuuuuuuuuuuuuuuuuuuuuuuuuuuuuuuuuuuuuuuuuuuuuuuuuuuuuuuo  i  =uuuuuuuuuuuuuuuuuuuuuuuuX  iiiiiiiiiiiiiiiiiiiiiiiiiii  $uuuuuuuuuuuuuuuuuuuuu2     .uuuuuuuuuuuuuuuuuuuuu9   iiiiiiiiii   <uuuuuuuuuuuuuuuuuuuuuuuuuuuuuuue.  iiiiiiiiiiiiiiiiii",
"  =uuuuuuuuuuuuuuuuuuuuuuuuuuuuuuuuuuuuuuuuuuuuuuuuuuuuuu5   i  =uuuuuuuuuuuuuuuuuuuuuuuuX  iiiiiiiiiiiiiiiiiiiiiiiiii   <uuuuuuuuuuuuuuuuuuuuu=  i   9uuuuuuuuuuuuuuuuuuuuyX  iiiiiiiiiii  .euuuuuuuuuuuuuuuuuuuuuuuuuuuuuu;   iiiiiiiiiiiiiiiiii",
"  =uuuuuuuuuuuuuuuuuuuuuuuuuuuuuuuuuuuuuuuuuuuuuuuuuuuuuro   i  =uuuuuuuuuuuuuuuuuuuuuuuuX  iiiiiiiiiiiiiiiiiiiiiiiiii   wuuuuuuuuuuuuuuuuuuuuu+  i   2uuuuuuuuuuuuuuuuuuuuu-   iiiiiiiiii   ;uuuuuuuuuuuuuuuuuuuuuuuuuuuuu0   iiiiiiiiiiiiiiiiiii",
"  =uuuuuuuuuuuuuuuuuuuuuuuuuuuuuuuuuuuuuuuuuuuuuuuuuuuuu:   ii  =uuuuuuuuuuuuuuuuuuuuuuuuX  iiiiiiiiiiiiiiiiiiiiiiiiii  +uuuuuuuuuuuuuuuuuuuuue   ii  =uuuuuuuuuuuuuuuuuuuuu5   iiiiiiiiiii   0uuuuuuuuuuuuuuuuuuuuuuuuuuuu%   iiiiiiiiiiiiiiiiiii",
"  =uuuuuuuuuuuuuuuuuuuuuuuuuuuuuuuuuuuuuuuuuuuuuuuuuuuu0   iii  =uuuuuuuuuuuuuuuuuuuuuuuuX  iiiiiiiiiiiiiiiiiiiiiiiii   >uuuuuuuuuuuuuuuuuuuuu5       Ouuuuuuuuuuuuuuuuuuuuut.  iiiiiiiiiii   %uuuuuuuuuuuuuuuuuuuuuuuuuuu7   iiiiiiiiiiiiiiiiiiii",
"  =uuuuuuuuuuuuuuuuuuuuuuuuuuuuuuuuuuuuuuuuuuuuuuuuuuuqO   iii  =uuuuuuuuuuuuuuuuuuuuuuuuX  iiiiiiiiiiiiiiiiiiiiiiiii   8uuuuuuuuuuuuuuuuuuuuu>        euuuuuuuuuuuuuuuuuuuuu*  iiiiiiiiiiii   7uuuuuuuuuuuuuuuuuuuuuuuuuu@   iiiiiiiiiiiiiiiiiiii",
"  =uuuuuuuuuuuuuuuuuuuuuuuuuuuuuuuuuuuuuuuuuuuuuuuuuu9X   iiii  =uuuuuuuuuuuuuuuuuuuuuuuuX  iiiiiiiiiiiiiiiiiiiiiiiii  Xyuuuuuuuuuuuuuuuuuuuuu%        5uuuuuuuuuuuuuuuuuuuuu3   iiiiiiiiiii   @uuuuuuuuuuuuuuuuuuuuuuuuu3   iiiiiiiiiiiiiiiiiiiii",
"  =uuuuuuuuuuuuuuuuuuuuuuuuuuuuuuuuuuuuuuuuuuuuuuuuu6.   iiiii  =uuuuuuuuuuuuuuuuuuuuuuuuX  iiiiiiiiiiiiiiiiiiiiiiii   -uuuuuuuuuuuuuuuuuuuuuuuuuuuuuuuuuuuuuuuuuuuuuuuuuuuuue   iiiiiiiiiiii   3uuuuuuuuuuuuuuuuuuuuuuuuo  iiiiiiiiiiiiiiiiiiiiii",
"  =uuuuuuuuuuuuuuuuuuuuuuuuuuuuuuuuuuuuuuuuuuuuuuue=    iiiiii  =uuuuuuuuuuuuuuuuuuuuuuuuX  iiiiiiiiiiiiiiiiiiiiiiii   5uuuuuuuuuuuuuuuuuuuuuuuuuuuuuuuuuuuuuuuuuuuuuuuuuuuuuu$  iiiiiiiiiiiii  >uuuuuuuuuuuuuuuuuuuuuuue   iiiiiiiiiiiiiiiiiiiiii",
"  =uuuuuuuuuuuuuuuuuuuuuuuuuuuuuuuuuuuuuuuuuuuuuu2X    iiiiiii  =uuuuuuuuuuuuuuuuuuuuuuuuX  iiiiiiiiiiiiiiiiiiiiiiii  .tuuuuuuuuuuuuuuuuuuuuuuuuuuuuuuuuuuuuuuuuuuuuuuuuuuuuuu1   iiiiiiiiiiii  >uuuuuuuuuuuuuuuuuuuuuuue   iiiiiiiiiiiiiiiiiiiiii",
"  =uuuuuuuuuuuuuuuuuuuuuuuuuuuuuuuuuuuuuuuuuuuw<O     iiiiiiii  =uuuuuuuuuuuuuuuuuuuuuuuuX  iiiiiiiiiiiiiiiiiiiiiiii  &uuuuuuuuuuuuuuuuuuuuuuuuuuuuuuuuuuuuuuuuuuuuuuuuuuuuuuuq   iiiiiiiiiiii  >uuuuuuuuuuuuuuuuuuuuuuue   iiiiiiiiiiiiiiiiiiiiii",
"  =uuuuuuuuuuuuuuuuuuuuuuuuuuuuuuuuuuuuuuuuy5&      iiiiiiiiii  =uuuuuuuuuuuuuuuuuuuuuuuuX  iiiiiiiiiiiiiiiiiiiiiii   2uuuuuuuuuuuuuuuuuuuuuuuuuuuuuuuuuuuuuuuuuuuuuuuuuuuuuuuuO  iiiiiiiiiiii  >uuuuuuuuuuuuuuuuuuuuuuue   iiiiiiiiiiiiiiiiiiiiii",
"  =uuuuuuuuuuuuuuuuuuuuuuuuuuuuuuuuuuuut7,%.      iiiiiiiiiiii  =uuuuuuuuuuuuuuuuuuuuuuuuX  iiiiiiiiiiiiiiiiiiiiiii   euuuuuuuuuuuuuuuuuuuuuuuuuuuuuuuuuuuuuuuuuuuuuuuuuuuuuuuu:   iiiiiiiiiii  >uuuuuuuuuuuuuuuuuuuuuuue   iiiiiiiiiiiiiiiiiiiiii",
"  =uuuuuuuuuuuuuuuuuuuuuuu8<<<<<>:;=*&@         iiiiiiiiiiiiii  =uuuuuuuuuuuuuuuuuuuuuuuuX                   iiiiii  #uuuuuuuuuuuuuuuuuuuuuuuuuuuuuuuuuuuuuuuuuuuuuuuuuuuuuuuuu9   iiiiiiiiiii  >uuuuuuuuuuuuuuuuuuuuuuue   iiiiiiiiiiiiiiiiiiiiii",
"  =uuuuuuuuuuuuuuuuuuuuuuu>                   iiiiiiiiiiiiiiii  =uuuuuuuuuuuuuuuuuuuuuuuuX                    iiii   ,uuuuuuuuuuuuuuuuuuuuuuuuuuuuuuuuuuuuuuuuuuuuuuuuuuuuuuuuuyX  iiiiiiiiiii  >uuuuuuuuuuuuuuuuuuuuuuue   iiiiiiiiiiiiiiiiiiiiii",
"  =uuuuuuuuuuuuuuuuuuuuuuu>               iiiiiiiiiiiiiiiiiiii  =uuuuuuuuuuuuuuuuuuuuuuuu<<<<<<<<<<<<<<<<<<:   iii   0uuuuuuuuuuuuuuuuuuuuuuuuuuuuuuuuuuuuuuuuuuuuuuuuuuuuuuuuuu-   iiiiiiiiii  >uuuuuuuuuuuuuuuuuuuuuuue   iiiiiiiiiiiiiiiiiiiiii",
"  =uuuuuuuuuuuuuuuuuuuuuuu>  iiiiiiiiiiiiiiiiiiiiiiiiiiiiiiiii  =uuuuuuuuuuuuuuuuuuuuuuuuuuuuuuuuuuuuuuuuuuq   iii  ouuuuuuuuuuuuuuuuuuuuuuuuuuuuuuuuuuuuuuuuuuuuuuuuuuuuuuuuuuu5   iiiiiiiiii  >uuuuuuuuuuuuuuuuuuuuuuue   iiiiiiiiiiiiiiiiiiiiii",
"  =uuuuuuuuuuuuuuuuuuuuuuu>  iiiiiiiiiiiiiiiiiiiiiiiiiiiiiiiii  =uuuuuuuuuuuuuuuuuuuuuuuuuuuuuuuuuuuuuuuuuuq   ii   :uuuuuuuuuuuuuuuuuuuuuuuuuuuuuuuuuuuuuuuuuuuuuuuuuuuuuuuuuuut.  iiiiiiiiii  >uuuuuuuuuuuuuuuuuuuuuuue   iiiiiiiiiiiiiiiiiiiiii",
"  =uuuuuuuuuuuuuuuuuuuuuuu>  iiiiiiiiiiiiiiiiiiiiiiiiiiiiiiiii  =uuuuuuuuuuuuuuuuuuuuuuuuuuuuuuuuuuuuuuuuuuq   ii   7uuuuuuuuuuuuuuuuuuuuuuuuuuuuuuuuuuuuuuuuuuuuuuuuuuuuuuuuuuuu&  iiiiiiiiii  >uuuuuuuuuuuuuuuuuuuuuuue   iiiiiiiiiiiiiiiiiiiiii",
"  =uuuuuuuuuuuuuuuuuuuuuuu>  iiiiiiiiiiiiiiiiiiiiiiiiiiiiiiiii  =uuuuuuuuuuuuuuuuuuuuuuuuuuuuuuuuuuuuuuuuuuq   ii  Xyuuuuuuuuuuuuuuuuuuuuuuuuuuuuuuuuuuuuuuuuuuuuuuuuuuuuuuuuuuuu3   iiiiiiiii  >uuuuuuuuuuuuuuuuuuuuuuue   iiiiiiiiiiiiiiiiiiiiii",
"  =uuuuuuuuuuuuuuuuuuuuuuu>  iiiiiiiiiiiiiiiiiiiiiiiiiiiiiiiii  =uuuuuuuuuuuuuuuuuuuuuuuuuuuuuuuuuuuuuuuuuuq   ii  =uuuuuuuuuuuuuuuuuuuuuuuuuuuuuuuuuuuuuuuuuuuuuuuuuuuuuuuuuuuuue   iiiiiiiii  >uuuuuuuuuuuuuuuuuuuuuuue   iiiiiiiiiiiiiiiiiiiiii",
"  =uuuuuuuuuuuuuuuuuuuuuuu>  iiiiiiiiiiiiiiiiiiiiiiiiiiiiiiiii  =uuuuuuuuuuuuuuuuuuuuuuuuuuuuuuuuuuuuuuuuuuq   i   5uuuuuuuuuuuuuuuuuuuuuuuuuuuuuuuuuuuuuuuuuuuuuuuuuuuuuuuuuuuuuu$  iiiiiiiii  >uuuuuuuuuuuuuuuuuuuuuuue   iiiiiiiiiiiiiiiiiiiiii",
"  =uuuuuuuuuuuuuuuuuuuuuuu>  iiiiiiiiiiiiiiiiiiiiiiiiiiiiiiiii  =uuuuuuuuuuuuuuuuuuuuuuuuuuuuuuuuuuuuuuuuuuq   i   tuuuuuuuuuuuuuuuuuuuuuuuuuuuuuuuuuuuuuuuuuuuuuuuuuuuuuuuuuuuuuu<   iiiiiiii  >uuuuuuuuuuuuuuuuuuuuuuue   iiiiiiiiiiiiiiiiiiiiii",
"  =uuuuuuuuuuuuuuuuuuuuuuu>  iiiiiiiiiiiiiiiiiiiiiiiiiiiiiiiii  =uuuuuuuuuuuuuuuuuuuuuuuuuuuuuuuuuuuuuuuuuuq   i  %uuuuuuuuuuuuuuuuuuuuuuu5<<<<<<<<<<<<<<<<euuuuuuuuuuuuuuuuuuuuuu0   iiiiiiii  >uuuuuuuuuuuuuuuuuuuuuuue   iiiiiiiiiiiiiiiiiiiiii",
"  =uuuuuuuuuuuuuuuuuuuuuuu>  iiiiiiiiiiiiiiiiiiiiiiiiiiiiiiiii  =uuuuuuuuuuuuuuuuuuuuuuuuuuuuuuuuuuuuuuuuuuq      2uuuuuuuuuuuuuuuuuuuuuuu@                2uuuuuuuuuuuuuuuuuuuuuuuO  iiiiiiii  >uuuuuuuuuuuuuuuuuuuuuuue   iiiiiiiiiiiiiiiiiiiiii",
"  =uuuuuuuuuuuuuuuuuuuuuuu>  iiiiiiiiiiiiiiiiiiiiiiiiiiiiiiiii  =uuuuuuuuuuuuuuuuuuuuuuuuuuuuuuuuuuuuuuuuuuq      euuuuuuuuuuuuuuuuuuuuuur                 =uuuuuuuuuuuuuuuuuuuuuuu:   iiiiiii  >uuuuuuuuuuuuuuuuuuuuuuue   iiiiiiiiiiiiiiiiiiiiii",
"  =uuuuuuuuuuuuuuuuuuuuuuu>  iiiiiiiiiiiiiiiiiiiiiiiiiiiiiiiii  =uuuuuuuuuuuuuuuuuuuuuuuuuuuuuuuuuuuuuuuuuuq     @uuuuuuuuuuuuuuuuuuuuuuu7   iiiiiiiiiiii  +uuuuuuuuuuuuuuuuuuuuuuu8   iiiiiii  >uuuuuuuuuuuuuuuuuuuuuuue   iiiiiiiiiiiiiiiiiiiiii",
"  =uuuuuuuuuuuuuuuuuuuuuuu>  iiiiiiiiiiiiiiiiiiiiiiiiiiiiiiiii  =uuuuuuuuuuuuuuuuuuuuuuuuuuuuuuuuuuuuuuuuuuq     ,uuuuuuuuuuuuuuuuuuuuuuu,   iiiiiiiiiiii   euuuuuuuuuuuuuuuuuuuuuuyX  iiiiiii  >uuuuuuuuuuuuuuuuuuuuuuue   iiiiiiiiiiiiiiiiiiiiii",
"  =uuuuuuuuuuuuuuuuuuuuuuu>  iiiiiiiiiiiiiiiiiiiiiiiiiiiiiiiii  =uuuuuuuuuuuuuuuuuuuuuuuuuuuuuuuuuuuuuuuuuuq     9uuuuuuuuuuuuuuuuuuuuuuu%  iiiiiiiiiiiii   5uuuuuuuuuuuuuuuuuuuuuuu-   iiiiii  >uuuuuuuuuuuuuuuuuuuuuuue   iiiiiiiiiiiiiiiiiiiiii",
"  =uuuuuuuuuuuuuuuuuuuuuuu>  iiiiiiiiiiiiiiiiiiiiiiiiiiiiiiiii  =uuuuuuuuuuuuuuuuuuuuuuuuuuuuuuuuuuuuuuuuuuq    Xuuuuuuuuuuuuuuuuuuuuuuuu.  iiiiiiiiiiiii   :uuuuuuuuuuuuuuuuuuuuuuu5   iiiiii  >uuuuuuuuuuuuuuuuuuuuuuue   iiiiiiiiiiiiiiiiiiiiii",
"  =uuuuuuuuuuuuuuuuuuuuuuu>  iiiiiiiiiiiiiiiiiiiiiiiiiiiiiiiii  =uuuuuuuuuuuuuuuuuuuuuuuuuuuuuuuuuuuuuuuuuuq    ;uuuuuuuuuuuuuuuuuuuuuuu0   iiiiiiiiiiiiii  $uuuuuuuuuuuuuuuuuuuuuuut.  iiiiii  >uuuuuuuuuuuuuuuuuuuuuuue   iiiiiiiiiiiiiiiiiiiiii",
"  =uuuuuuuuuuuuuuuuuuuuuuu>  iiiiiiiiiiiiiiiiiiiiiiiiiiiiiiiii  =uuuuuuuuuuuuuuuuuuuuuuuuuuuuuuuuuuuuuuuuuuq    6uuuuuuuuuuuuuuuuuuuuuuu2   iiiiiiiiiiiiii   tuuuuuuuuuuuuuuuuuuuuuuu&  iiiiii  >uuuuuuuuuuuuuuuuuuuuuuue   iiiiiiiiiiiiiiiiiiiiii",
"  =uuuuuuuuuuuuuuuuuuuuuuu>  iiiiiiiiiiiiiiiiiiiiiiiiiiiiiiiii  =uuuuuuuuuuuuuuuuuuuuuuuuuuuuuuuuuuuuuuuuuuq   .tuuuuuuuuuuuuuuuuuuuuuuu=  iiiiiiiiiiiiiii   9uuuuuuuuuuuuuuuuuuuuuuu2   iiiii  >uuuuuuuuuuuuuuuuuuuuuuue   iiiiiiiiiiiiiiiiiiiiii",
"  =uuuuuuuuuuuuuuuuuuuuuuu>  iiiiiiiiiiiiiiiiiiiiiiiiiiiiiiiii  =uuuuuuuuuuuuuuuuuuuuuuuuuuuuuuuuuuuuuuuuuuq   *uuuuuuuuuuuuuuuuuuuuuuuu+  iiiiiiiiiiiiiii   1uuuuuuuuuuuuuuuuuuuuuuue   iiiii  >uuuuuuuuuuuuuuuuuuuuuuue   iiiiiiiiiiiiiiiiiiiiii",
"  =uuuuuuuuuuuuuuuuuuuuuuu>  iiiiiiiiiiiiiiiiiiiiiiiiiiiiiiiii  =uuuuuuuuuuuuuuuuuuuuuuuuuuuuuuuuuuuuuuuuuuq   3uuuuuuuuuuuuuuuuuuuuuuue   iiiiiiiiiiiiiiii  *uuuuuuuuuuuuuuuuuuuuuuuu#  iiiii  >uuuuuuuuuuuuuuuuuuuuuuue   iiiiiiiiiiiiiiiiiiiiii",
"                             iiiiiiiiiiiiiiiiiiiiiiiiiiiiiiiii                                                                             iiiiiiiiiiiiiiii                              iiiii                              iiiiiiiiiiiiiiiiiiiiii",
"i                           iiiiiiiiiiiiiiiiiiiiiiiiiiiiiiiiiii                                                                           iiiiiiiiiiiiiiiiii                            iiiiiii                            iiiiiiiiiiiiiiiiiiiiiii",
"ii                         iiiiiiiiiiiiiiiiiiiiiiiiiiiiiiiiiiiii                                             ii                          iiiiiiiiiiiiiiiiiiii                          iiiiiiiii                          iiiiiiiiiiiiiiiiiiiiiiii"
};
