/* XPM */
static char *_ffe287ae47442039213750192ebdfd8ZylHWcCxoTQZssih[] = {
/* columns rows colors chars-per-pixel */
"64 64 11 1 ",
"  c white",
". c #9F9F9F",
"X c #808080",
"o c gray75",
"O c #3F3F3F",
"+ c black",
"@ c gray50",
"# c gray12",
"$ c gray19",
"% c #C0C0C0",
"& c gray6",
/* pixels */
"XXXXXXXXXXXXXXXXXXXXXXXXXXXXXXXXXXXXXXXXXXXXXXXXXXXXXXXXXXXXXXXX",
"X                                                              X",
"X                                                              X",
"X                                                              X",
"X                                                              X",
"X                                                              X",
"X                                                              X",
"X                                                              X",
"X                                                              X",
"X                                                              X",
"X                                                              X",
"X                                                              X",
"X                                                              X",
"X                                                              X",
"X                                                              X",
"X                                                              X",
"X                                                              X",
"X                                                              X",
"X                                                              X",
"X                                                              X",
"X                                                              X",
"X                                                              X",
"X                                                              X",
"X                        .XXXXXXXXXXo                          X",
"X                        O++++++++++@                          X",
"X                        O+#@@@@@@@@o                          X",
"X                        O+O                                   X",
"X                        O+O                                   X",
"X                        O+O                                   X",
"X                        O+O                                   X",
"X                        O+$%%%%%%%%                           X",
"X                        O++++++++++                           X",
"X                        O+&OOOOOOOO                           X",
"X                        O+O                                   X",
"X                        O+O                                   X",
"X                        O+O                                   X",
"X                        O+O                                   X",
"X                        O+O                                   X",
"X                        O+O                                   X",
"X                        O++++++++++O                          X",
"X                        O++++++++++O                          X",
"X                                                              X",
"X                                                              X",
"X                                                              X",
"X                                                              X",
"X                                                              X",
"X                                                              X",
"X                                                              X",
"X                                                              X",
"X                                                              X",
"X                                                              X",
"X                                                              X",
"X                                                              X",
"X                                                              X",
"X                                                              X",
"X                                                              X",
"X                                                              X",
"X                                                              X",
"X                                                              X",
"X                                                              X",
"X                                                              X",
"X                                                              X",
"X                                                              X",
"XXXXXXXXXXXXXXXXXXXXXXXXXXXXXXXXXXXXXXXXXXXXXXXXXXXXXXXXXXXXXXXX"
};
