/* XPM */
static char *_c03afd11b7541c4c589b9ea7e599e0dttpBszEC3W57FHyH[] = {
/* columns rows colors chars-per-pixel */
"64 64 21 1 ",
"  c white",
". c #9F9F9F",
"X c #808080",
"o c #AFAFAF",
"O c gray75",
"+ c #3F3F3F",
"@ c black",
"# c #101010",
"$ c #DFDFDF",
"% c gray50",
"& c #5F5F5F",
"* c gray6",
"= c gray81",
"- c gray31",
"; c gray25",
": c #6F6F6F",
"> c #202020",
", c #EFEFEF",
"< c gray56",
"1 c #2F2F2F",
"2 c gray12",
/* pixels */
"XXXXXXXXXXXXXXXXXXXXXXXXXXXXXXXXXXXXXXXXXXXXXXXXXXXXXXXXXXXXXXXX",
"X                                                              X",
"X                                                              X",
"X                                                              X",
"X                                                              X",
"X                                                              X",
"X                                                              X",
"X                                                              X",
"X                                                              X",
"X                                                              X",
"X                                                              X",
"X                                                              X",
"X                                                              X",
"X                                                              X",
"X                                                              X",
"X                                                              X",
"X                                                              X",
"X                                                              X",
"X                                                              X",
"X                                                              X",
"X                                                              X",
"X                                                              X",
"X                                                              X",
"X                        .XXo       .XO                        X",
"X                        +@@#$      +@%                        X",
"X                        +@@@&      +@%                        X",
"X                        +@*@@$     +@%                        X",
"X                        +@++@&     +@%                        X",
"X                        +@+O@@=    +@%                        X",
"X                        +@+ -@;    +@%                        X",
"X                        +@+ $@@O   +@%                        X",
"X                        +@+  &@;   +@%                        X",
"X                        +@+  $@@o  +@%                        X",
"X                        +@+   :@>  +@%                        X",
"X                        +@+   ,*@. +@%                        X",
"X                        +@+    %@> +@%                        X",
"X                        +@+    ,*@<+@%                        X",
"X                        +@+     %@#1@%                        X",
"X                        +@+      2@@@%                        X",
"X                        +@+      .@@@%                        X",
"X                        +@+       2@@%                        X",
"X                                                              X",
"X                                                              X",
"X                                                              X",
"X                                                              X",
"X                                                              X",
"X                                                              X",
"X                                                              X",
"X                                                              X",
"X                                                              X",
"X                                                              X",
"X                                                              X",
"X                                                              X",
"X                                                              X",
"X                                                              X",
"X                                                              X",
"X                                                              X",
"X                                                              X",
"X                                                              X",
"X                                                              X",
"X                                                              X",
"X                                                              X",
"X                                                              X",
"XXXXXXXXXXXXXXXXXXXXXXXXXXXXXXXXXXXXXXXXXXXXXXXXXXXXXXXXXXXXXXXX"
};
