/* XPM */
static char *_932caa05ef644ebcf46fa62816cb252EPxOZCdPhT0CG5n8[] = {
/* columns rows colors chars-per-pixel */
"64 64 28 1 ",
"  c white",
". c #DFDFDF",
"X c #808080",
"o c #505050",
"O c gray25",
"+ c gray69",
"@ c #EFEFEF",
"# c #6F6F6F",
"$ c black",
"% c #3F3F3F",
"& c #5F5F5F",
"* c gray75",
"= c gray81",
"- c gray50",
"; c #2F2F2F",
": c gray56",
"> c #9F9F9F",
", c gray44",
"< c gray19",
"1 c #C0C0C0",
"2 c #909090",
"3 c #AFAFAF",
"4 c gray6",
"5 c #101010",
"6 c gray31",
"7 c #A0A0A0",
"8 c #606060",
"9 c gray12",
/* pixels */
"XXXXXXXXXXXXXXXXXXXXXXXXXXXXXXXXXXXXXXXXXXXXXXXXXXXXXXXXXXXXXXXX",
"X                                                              X",
"X                                                              X",
"X                                                              X",
"X                                                              X",
"X                                                              X",
"X                                                              X",
"X                                                              X",
"X                                                              X",
"X                                                              X",
"X                                                              X",
"X                                                              X",
"X                                                              X",
"X                                                              X",
"X                                                              X",
"X                                                              X",
"X                                                              X",
"X                                                              X",
"X                                                              X",
"X                                                              X",
"X                                                              X",
"X                                                              X",
"X                                                              X",
"X                          .XoOOOX+@                           X",
"X                         #$$$$$$$$%                           X",
"X                        #$$&*==*-;%                           X",
"X                       @$$:       .                           X",
"X                       *$$@                                   X",
"X                       >$$                                    X",
"X                       *$$,                                   X",
"X                        %$$<X1@                               X",
"X                        .%$$$$$<2@                            X",
"X                          3&4$$$$53                           X",
"X                             .>6$$5.                          X",
"X                                3$$&                          X",
"X                                 %$%                          X",
"X                                 &$;                          X",
"X                                 ;$&                          X",
"X                       *O7     @8$$3                          X",
"X                       *$$$Oo8O5$$&                           X",
"X                       @#;$$$$$$9>                            X",
"X                           ****                               X",
"X                                                              X",
"X                                                              X",
"X                                                              X",
"X                                                              X",
"X                                                              X",
"X                                                              X",
"X                                                              X",
"X                                                              X",
"X                                                              X",
"X                                                              X",
"X                                                              X",
"X                                                              X",
"X                                                              X",
"X                                                              X",
"X                                                              X",
"X                                                              X",
"X                                                              X",
"X                                                              X",
"X                                                              X",
"X                                                              X",
"X                                                              X",
"XXXXXXXXXXXXXXXXXXXXXXXXXXXXXXXXXXXXXXXXXXXXXXXXXXXXXXXXXXXXXXXX"
};
