/* XPM */
static char *ca80070fe017409ccd45b6d6f253f87aP7fnJ6cxKqW7XrgN[] = {
/* columns rows colors chars-per-pixel */
"64 64 15 1 ",
"  c white",
". c #EFEFEF",
"X c gray50",
"o c #808080",
"O c #DFDFDF",
"+ c gray75",
"@ c gray56",
"# c gray6",
"$ c black",
"% c gray31",
"& c #101010",
"* c gray81",
"= c #3F3F3F",
"- c #2F2F2F",
"; c #6F6F6F",
/* pixels */
"XXXXXXXXXXXXXXXXXXXXXXXXXXXXXXXXXXXXXXXXXXXXXXXXXXXXXXXXXXXXXXXX",
"X                                                              X",
"X                                                              X",
"X                                                              X",
"X                                                              X",
"X                                                              X",
"X                                                              X",
"X                                                              X",
"X                                                              X",
"X                                                              X",
"X                                                              X",
"X                                                              X",
"X                                                              X",
"X                                                              X",
"X                                                              X",
"X                                                              X",
"X                                                              X",
"X                                                              X",
"X                                                              X",
"X                                                              X",
"X                                                              X",
"X                                                              X",
"X                                                              X",
"X                      .XoO      +ooO      +o@                 X",
"X                       #$@      %$$@      %$%                 X",
"X                       %$%      ##$%      #$@                 X",
"X                       @$&     *$%#&     *$$*                 X",
"X                       *$$*    @$X%$*    @$#                  X",
"X                        #$@    %$+X$@    %$%                  X",
"X                        %$%    #$ +$%    #$@                  X",
"X                        @$&   *$=  $&   *$$*                  X",
"X                        *$$*  @$X  =$*  @$#                   X",
"X                         #$@  %$+  X$@  %$%                   X",
"X                         %$%  #$   +$%  #$@                   X",
"X                         @$& *$=    $& *$$*                   X",
"X                         *$$*@$X    =$*@$#                    X",
"X                          #$@%$+    X$@%$%                    X",
"X                          %$%#$     +$%#$@                    X",
"X                          @$&$=     .$&$$*                    X",
"X                          *$$$X      -$$#                     X",
"X                           #$$+      ;$$%                     X",
"X                                                              X",
"X                                                              X",
"X                                                              X",
"X                                                              X",
"X                                                              X",
"X                                                              X",
"X                                                              X",
"X                                                              X",
"X                                                              X",
"X                                                              X",
"X                                                              X",
"X                                                              X",
"X                                                              X",
"X                                                              X",
"X                                                              X",
"X                                                              X",
"X                                                              X",
"X                                                              X",
"X                                                              X",
"X                                                              X",
"X                                                              X",
"X                                                              X",
"XXXXXXXXXXXXXXXXXXXXXXXXXXXXXXXXXXXXXXXXXXXXXXXXXXXXXXXXXXXXXXXX"
};
